<svg width="13" height="17" viewBox="0 0 13 17" fill="none" xmlns="http://www.w3.org/2000/svg">
<g clip-path="url(#clip0_54_123)">
<path d="M6.70156 1C3.55394 1 1 3.2988 1 6.1314C1 10.6927 6.70156 16.9644 6.70156 16.9644C6.70156 16.9644 12.4031 10.6927 12.4031 6.1314C12.4031 3.2988 9.84918 1 6.70156 1ZM6.70156 8.98218C6.25049 8.98218 5.80956 8.84843 5.43451 8.59783C5.05947 8.34723 4.76715 7.99105 4.59454 7.57432C4.42192 7.15759 4.37676 6.69903 4.46476 6.25663C4.55275 5.81423 4.76996 5.40787 5.08891 5.08891C5.40787 4.76996 5.81423 4.55276 6.25663 4.46476C6.69903 4.37676 7.15759 4.42192 7.57432 4.59454C7.99104 4.76715 8.34723 5.05947 8.59783 5.43451C8.84843 5.80956 8.98218 6.25049 8.98218 6.70156C8.98152 7.30622 8.74103 7.88592 8.31347 8.31347C7.88592 8.74103 7.30621 8.98152 6.70156 8.98218Z" fill="#E22427"/>
</g>
<defs>
<clipPath id="clip0_54_123">
<rect width="13" height="16" fill="white" transform="translate(0 0.5)"/>
</clipPath>
</defs>
</svg>
