<svg viewBox="0 0 21 21" fill="#97979D" xmlns="http://www.w3.org/2000/svg">
    <path d="M10.4995 0C6.23686 0 2.76855 3.4683 2.76855 7.73136C2.76855 8.84333 2.99615 9.90501 3.44468 10.8872C5.37762 15.1169 9.08362 19.5826 10.1737 20.8504C10.2553 20.9452 10.3744 20.9998 10.4997 20.9998C10.625 20.9998 10.7441 20.9452 10.8257 20.8504C11.9153 19.5828 15.6213 15.1173 17.5549 10.8872C18.0037 9.90501 18.2311 8.84333 18.2311 7.73136C18.2306 3.4683 14.7623 0 10.4995 0ZM10.4995 11.747C8.28521 11.747 6.48358 9.94541 6.48358 7.73114C6.48358 5.51666 8.28521 3.71502 10.4995 3.71502C12.7138 3.71502 14.5154 5.51666 14.5154 7.73114C14.5156 9.94541 12.714 11.747 10.4995 11.747Z"/>
</svg>