<svg width="17" height="17" viewBox="0 0 17 17" fill="none" xmlns="http://www.w3.org/2000/svg">
<g clip-path="url(#clip0_64_1888)">
<path d="M3.68204 16.4999C4.37918 16.4999 5.35847 16.2477 6.82491 15.4284C8.60813 14.4284 9.98742 13.5052 11.761 11.7362C13.471 10.0273 14.3031 8.92084 15.4678 6.80153C16.7835 4.40864 16.5592 3.15434 16.3085 2.61827C16.0099 1.97754 15.5692 1.59432 14.9996 1.21396C14.676 1.00197 14.3336 0.82025 13.9767 0.671099C13.941 0.655742 13.9078 0.641099 13.8781 0.627884C13.7014 0.548241 13.4335 0.427882 13.0942 0.556455C12.8678 0.641456 12.6656 0.815387 12.3492 1.12789C11.7003 1.7679 10.8135 3.19327 10.4863 3.89328C10.2667 4.36507 10.1213 4.6765 10.121 5.02579C10.121 5.43473 10.3267 5.75009 10.5763 6.09045C10.6231 6.15438 10.6696 6.21545 10.7146 6.27474C10.9863 6.63189 11.046 6.7351 11.0067 6.91939C10.9271 7.28975 10.3331 8.39226 9.35706 9.3662C8.38098 10.3401 7.31026 10.8966 6.93848 10.9759C6.74633 11.0169 6.64098 10.9548 6.2724 10.6734C6.21955 10.633 6.16526 10.5912 6.10847 10.5494C5.72776 10.2662 5.42704 10.0659 5.02776 10.0659H5.02561C4.67811 10.0659 4.38061 10.2166 3.88775 10.4651C3.24489 10.7894 1.77667 11.6648 1.13274 12.3145C0.819529 12.6302 0.644886 12.8316 0.559528 13.0577C0.430956 13.398 0.552029 13.6648 0.630958 13.8434C0.644172 13.873 0.658814 13.9055 0.674171 13.9416C0.824501 14.2979 1.0073 14.6396 1.22024 14.9623C1.59989 15.5302 1.98453 15.9699 2.62668 16.2688C2.95642 16.4248 3.31729 16.5038 3.68204 16.4999Z" fill="white"/>
</g>
<defs>
<clipPath id="clip0_64_1888">
<rect width="17" height="17" fill="white"/>
</clipPath>
</defs>
</svg>
