<svg viewBox="0 0 12 12" fill="black" xmlns="http://www.w3.org/2000/svg">
    <path d="M4.28572 0H0.857143C0.383771 0 0 0.383771 0 0.857143V4.28572C0 4.75909 0.383771 5.14286 0.857143 5.14286H4.28572C4.75909 5.14286 5.14286 4.75909 5.14286 4.28572V0.857143C5.14286 0.383771 4.75909 0 4.28572 0Z"></path>
    <path d="M4.28572 6.85712H0.857143C0.383771 6.85712 0 7.24089 0 7.71426V11.1428C0 11.6162 0.383771 12 0.857143 12H4.28572C4.75909 12 5.14286 11.6162 5.14286 11.1428V7.71426C5.14286 7.24089 4.75909 6.85712 4.28572 6.85712Z"></path>
    <path d="M11.1426 0H7.71408C7.24071 0 6.85693 0.383771 6.85693 0.857143V4.28572C6.85693 4.75909 7.24071 5.14286 7.71408 5.14286H11.1426C11.616 5.14286 11.9998 4.75909 11.9998 4.28572V0.857143C11.9998 0.383771 11.616 0 11.1426 0Z"></path>
    <path d="M11.1426 6.85712H7.71408C7.24071 6.85712 6.85693 7.24089 6.85693 7.71426V11.1428C6.85693 11.6162 7.24071 12 7.71408 12H11.1426C11.616 12 11.9998 11.6162 11.9998 11.1428V7.71426C11.9998 7.24089 11.616 6.85712 11.1426 6.85712Z"></path>
</svg>