<svg width="40" height="40" viewBox="0 0 40 40" fill="none" xmlns="http://www.w3.org/2000/svg">
<g clip-path="url(#clip0)">
<path d="M0 38.3341V39.1674C0 39.6276 0.373125 40.0007 0.833359 40.0007H39.1667C39.627 40.0007 40.0001 39.6276 40.0001 39.1674V38.334H0V38.3341Z" fill="#FD2528"/>
<path d="M15.8332 15H2.49986C2.03963 15 1.6665 15.3731 1.6665 15.8334V39.1667C1.6665 39.6269 2.03963 40 2.49986 40H15.8332C16.2935 40 16.6666 39.6269 16.6666 39.1666V15.8334C16.6665 15.3731 16.2935 15 15.8332 15ZM14.9999 38.3334H3.33322V16.6666H14.9999V38.3334Z" fill="#FD2528"/>
<path d="M37.5 5H24.1666C23.7064 5 23.3333 5.37313 23.3333 5.83336V39.1667C23.3333 39.627 23.7064 40.0001 24.1666 40.0001H37.5C37.9602 40.0001 38.3333 39.627 38.3333 39.1667V5.83336C38.3333 5.37313 37.9602 5 37.5 5ZM36.6666 38.3334H25V6.66664H36.6666V38.3334Z" fill="#FD2528"/>
<path d="M31.6666 0H9.16661C8.70638 0 8.33325 0.373125 8.33325 0.833359V13.3334H9.99997V1.66664H30.8333V3.33328H32.5V0.833281C32.5 0.373125 32.1268 0 31.6666 0Z" fill="#FD2528"/>
<path d="M6.66664 18.334H5V33.334H6.66664V18.334Z" fill="#FD2528"/>
<path d="M10.0001 18.334H8.3335V33.334H10.0001V18.334Z" fill="#FD2528"/>
<path d="M13.3331 18.334H11.6665V33.334H13.3331V18.334Z" fill="#FD2528"/>
<path d="M33.3334 9.16602H24.1667V10.8327H33.3334V9.16602Z" fill="#FD2528"/>
<path d="M33.3334 13.334H24.1667V15.0006H33.3334V13.334Z" fill="#FD2528"/>
<path d="M33.3334 17.5H24.1667V19.1666H33.3334V17.5Z" fill="#FD2528"/>
<path d="M33.3334 21.666H24.1667V23.3327H33.3334V21.666Z" fill="#FD2528"/>
<path d="M33.3334 25.834H24.1667V27.5006H33.3334V25.834Z" fill="#FD2528"/>
<path d="M33.3334 30H24.1667V31.6666H33.3334V30Z" fill="#FD2528"/>
<path d="M14.1666 4.16602H12.5V6.66602H14.1666V4.16602Z" fill="#FD2528"/>
<path d="M14.1666 9.16602H12.5V11.666H14.1666V9.16602Z" fill="#FD2528"/>
<path d="M17.5001 9.16602H15.8335V11.666H17.5001V9.16602Z" fill="#FD2528"/>
<path d="M17.5001 4.16602H15.8335V6.66602H17.5001V4.16602Z" fill="#FD2528"/>
<path d="M20.8331 4.16602H19.1665V6.66602H20.8331V4.16602Z" fill="#FD2528"/>
<path d="M20.8331 9.16602H19.1665V11.666H20.8331V9.16602Z" fill="#FD2528"/>
<path d="M20.8331 14.166H19.1665V16.666H20.8331V14.166Z" fill="#FD2528"/>
<path d="M20.8331 19.166H19.1665V21.666H20.8331V19.166Z" fill="#FD2528"/>
<path d="M20.8331 24.166H19.1665V26.666H20.8331V24.166Z" fill="#FD2528"/>
<path d="M20.8331 29.166H19.1665V31.666H20.8331V29.166Z" fill="#FD2528"/>
<path d="M31.6667 34.166H27.5001C27.0399 34.166 26.6667 34.5391 26.6667 34.9994V39.166H28.3334V35.8327H30.8334V39.166H32.5001V34.9994C32.5001 34.5391 32.127 34.166 31.6667 34.166Z" fill="#FD2528"/>
<path d="M12.5 35H5.83336C5.37313 35 5 35.3731 5 35.8334V39.1667H6.66664V36.6667H11.6666V39.1667H13.3333V35.8334C13.3334 35.3731 12.9602 35 12.5 35Z" fill="#FD2528"/>
</g>
<defs>
<clipPath id="clip0">
<rect width="40" height="40" fill="white"/>
</clipPath>
</defs>
</svg>
