<svg width="50" height="50" viewBox="0 0 50 50" fill="none" xmlns="http://www.w3.org/2000/svg">
<g clip-path="url(#clip0_1240:423)">
<path d="M36.9357 40.3894C36.5366 40.7522 36.5075 41.3695 36.8703 41.7687C37.063 41.9806 37.3275 42.0881 37.5932 42.0881C37.8276 42.0881 38.063 42.0042 38.2501 41.834C38.6492 41.4712 38.6786 40.8535 38.3158 40.4545C37.953 40.0554 37.3353 40.0259 36.9363 40.3888L36.9357 40.3894Z" fill="#E22427"/>
<path d="M33.9529 25.0917L36.0244 27.1632C36.3926 27.5314 36.883 27.7341 37.4054 27.7341C37.9279 27.7341 38.4184 27.5314 38.7865 27.1632L49.1443 16.8055C49.696 16.2537 50 15.518 50 14.734C50 13.9499 49.6961 13.2142 49.1443 12.6624L40.858 4.37612C39.7157 3.23386 37.8572 3.23415 36.7148 4.37612L26.3572 14.7339C25.5957 15.4954 25.5957 16.7344 26.3572 17.496L28.4288 19.5675C28.6815 19.8202 29.0382 19.9043 29.3612 19.8221L25.0005 23.9866L20.6396 19.8219C20.7182 19.842 20.7993 19.8535 20.8817 19.8535C21.1407 19.8535 21.3891 19.7506 21.5722 19.5675L23.6437 17.496C24.4051 16.7344 24.4052 15.4954 23.6437 14.7338L13.286 4.37612C12.7343 3.82437 11.9986 3.52047 11.2145 3.52047C10.4304 3.52047 9.69471 3.82427 9.14297 4.37612L0.856622 12.6623C-0.285541 13.8045 -0.285541 15.6631 0.856622 16.8054L11.2144 27.1631C11.5952 27.5438 12.0953 27.7342 12.5954 27.7342C13.0955 27.7342 13.5957 27.5439 13.9765 27.1631L16.048 25.0916C16.2311 24.9085 16.334 24.6601 16.334 24.4011C16.334 24.3186 16.3225 24.2375 16.3024 24.159L20.3654 28.4133L12.6823 35.7507C11.2171 35.6765 9.72714 36.1974 8.61056 37.3141C7.59603 38.3285 7.03745 39.6773 7.03745 41.112C7.03745 42.5466 7.59613 43.8955 8.61056 44.9099C9.6578 45.9572 11.0329 46.4805 12.4084 46.4805C13.7837 46.4805 15.1592 45.9569 16.2062 44.9099C17.2207 43.8955 17.7793 42.5468 17.7793 41.112C17.7793 41.0195 17.7768 40.9272 17.7722 40.8354L25.0004 33.2667L32.2287 40.8353C32.2241 40.9271 32.2216 41.0194 32.2216 41.1119C32.2216 42.5466 32.7803 43.8954 33.7947 44.9098C34.8417 45.9569 36.2171 46.4804 37.5926 46.4804C38.9679 46.4804 40.3433 45.9569 41.3903 44.9098C42.4048 43.8954 42.9634 42.5466 42.9634 41.1119C42.9634 39.6773 42.4048 38.3285 41.3903 37.314C40.2737 36.1974 38.7837 35.6766 37.3186 35.7507L29.6356 28.4133L33.6985 24.159C33.6784 24.2375 33.6669 24.3186 33.6669 24.4011C33.6669 24.6602 33.7698 24.9086 33.9529 25.0917ZM36.0244 7.82878L45.6917 17.496L44.3106 18.8771L34.6434 9.2099L36.0244 7.82878ZM39.4771 5.75714L47.7632 14.0434C47.9461 14.2263 48.0469 14.4715 48.0469 14.7338C48.0469 14.9961 47.9461 15.2414 47.7632 15.4243L47.0727 16.1148L37.4054 6.44765L38.096 5.75714C38.4767 5.37658 39.0962 5.37639 39.4771 5.75714ZM27.7383 16.1149L33.2623 10.5909L42.9295 20.2581L37.4054 25.7821L35.972 24.3486C37.4036 22.3814 37.191 20.0436 35.3339 18.1864C33.4766 16.3292 31.1389 16.1164 29.1715 17.5483L27.7383 16.1149ZM2.23775 14.0434L10.524 5.75714C10.7069 5.57424 10.9521 5.47355 11.2145 5.47355C11.4769 5.47355 11.7221 5.57424 11.905 5.75714L12.5955 6.44765L2.92836 16.1148L2.23784 15.4243C1.85699 15.0437 1.85699 14.424 2.23775 14.0434ZM12.5955 25.7821L7.07153 20.2582L8.79805 18.5317C9.17939 18.1503 9.17939 17.532 8.79805 17.1505C8.41671 16.7693 7.79837 16.7693 7.41693 17.1505L5.69041 18.8771L4.30928 17.496L13.9765 7.82878L15.3576 9.21L13.6315 10.936C13.2501 11.3174 13.2501 11.9357 13.6315 12.3172C13.8223 12.5078 14.0722 12.6032 14.3221 12.6032C14.572 12.6032 14.8219 12.5078 15.0126 12.3172L16.7387 10.591L22.2626 16.1149L20.829 17.5486C20.0449 16.9782 19.1883 16.6586 18.3114 16.6146C17.0193 16.5505 15.7599 17.0934 14.667 18.1866C12.8099 20.0437 12.5973 22.3816 14.0289 24.3488L12.5955 25.7821ZM14.8252 43.5287C13.4926 44.8614 11.3242 44.8614 9.99158 43.5287C9.34609 42.8832 8.99053 42.0249 8.99053 41.1119C8.99053 40.1989 9.34609 39.3406 9.99158 38.6951C10.6579 38.0288 11.5332 37.6957 12.4083 37.6957C13.2836 37.6957 14.1588 38.0288 14.8252 38.6951C15.4708 39.3406 15.8262 40.199 15.8262 41.1119C15.8262 42.0249 15.4708 42.8832 14.8252 43.5287ZM17.1748 38.633C16.9243 38.1528 16.6001 37.708 16.2063 37.3141C15.8079 36.9157 15.3617 36.5935 14.8863 36.3467L21.7144 29.8258L23.6503 31.8528L17.1748 38.633ZM41.0103 41.1119C41.0103 42.0249 40.6548 42.8832 40.0093 43.5287C38.6767 44.8614 36.5084 44.8614 35.1757 43.5287C34.5302 42.8832 34.1747 42.0249 34.1747 41.1119C34.1747 40.199 34.5302 39.3406 35.1757 38.6951C36.5084 37.3625 38.6768 37.3625 40.0094 38.6951C40.6549 39.3407 41.0103 40.199 41.0103 41.1119ZM33.7947 37.3141C33.4007 37.708 33.0765 38.1528 32.8261 38.633L15.4018 20.3882C15.5567 20.1217 15.7681 19.8475 16.0481 19.5676C16.318 19.2977 16.5919 19.0824 16.8686 18.9211L35.1148 36.3467C34.6393 36.5935 34.1931 36.9157 33.7947 37.3141ZM26.4144 25.337L33.1323 18.9212C33.3988 19.0761 33.673 19.2876 33.953 19.5676C34.2329 19.8475 34.4444 20.1218 34.5993 20.3882L28.2233 27.0645L26.4144 25.337Z" fill="#E22427"/>
<path d="M11.7177 40.4207C11.3363 40.802 11.3363 41.4204 11.7177 41.8019L11.7181 41.8023C11.9088 41.993 12.1586 42.0883 12.4084 42.0883C12.6583 42.0883 12.9083 41.9928 13.099 41.802C13.4803 41.4207 13.4802 40.8021 13.0988 40.4207C12.7175 40.0395 12.0991 40.0395 11.7177 40.4207Z" fill="#E22427"/>
<path d="M11.2151 13.7578H11.2145C10.6751 13.7578 10.2383 14.1951 10.2383 14.7344C10.2383 15.2736 10.6758 15.7109 11.2151 15.7109C11.7545 15.7109 12.1917 15.2736 12.1917 14.7344C12.1917 14.1951 11.7545 13.7578 11.2151 13.7578Z" fill="#E22427"/>
</g>
<defs>
<clipPath id="clip0_1240:423">
<rect width="50" height="50" fill="white"/>
</clipPath>
</defs>
</svg>
