<svg width="56" height="57" viewBox="0 0 56 57" fill="none" xmlns="http://www.w3.org/2000/svg">
<path d="M40.6315 17.6429C40.687 17.2082 40.5699 16.7778 40.3018 16.4312L38.1406 13.6372C37.8723 13.2906 37.4853 13.0691 37.0504 13.0136C36.6158 12.9578 36.1852 13.0752 35.8386 13.3433L33.7625 14.9492C33.4016 15.2285 33.3352 15.7474 33.6144 16.1083C33.8937 16.4693 34.4127 16.5353 34.7735 16.2564L36.8405 14.6575L38.9873 17.433L25.3473 27.9841L23.2003 25.2086L31.9847 18.4136C32.3456 18.1343 32.4119 17.6154 32.1328 17.2545C31.8534 16.8936 31.3345 16.8272 30.9737 17.1064L22.1799 23.9087C21.4646 24.4623 21.3328 25.4948 21.8861 26.2106L24.0474 29.0045C24.3704 29.422 24.8563 29.6407 25.3472 29.6407C25.6978 29.6407 26.0511 29.529 26.3493 29.2985L40.0077 18.7329C40.3544 18.4649 40.5759 18.0778 40.6315 17.6429Z" fill="#E22427"/>
<path d="M55.4301 19.4221L49.7262 12.0484L54.566 8.30457C54.8894 8.05449 55.0958 7.69357 55.1475 7.28816C55.1993 6.88285 55.0901 6.48161 54.84 6.15838L50.5357 0.594007C50.2857 0.270774 49.9248 0.0642088 49.5194 0.01254C49.1138 -0.0391289 48.7128 0.0699376 48.3896 0.320019L47.3054 1.15873C46.9445 1.4379 46.8782 1.9569 47.1574 2.31781C47.4366 2.67905 47.9559 2.74504 48.3165 2.46576L49.3036 1.70219L53.4578 7.07245L48.7151 10.7413L44.5609 5.37101L45.5276 4.62319C45.8885 4.34402 45.9548 3.82502 45.6757 3.46411C45.3963 3.10298 44.8773 3.03699 44.5166 3.31604L43.5498 4.06386L43.4281 3.90654C42.52 2.73292 40.8263 2.51666 39.6521 3.42467L39.6023 3.46323C38.5396 4.2853 38.2035 5.70295 38.6989 6.88736L17.4383 23.3334C17.0415 22.9897 16.5527 22.7698 16.0203 22.7017C15.3062 22.6107 14.601 22.8028 14.0314 23.2434L13.9825 23.2814C13.3679 23.7568 12.9751 24.4432 12.8767 25.2139C12.7784 25.9847 12.9859 26.7477 13.4614 27.3623L16.7529 31.6175L7.57192 38.7195C6.92435 39.2204 6.51067 39.9434 6.407 40.7554L5.57171 47.2974L0.320764 51.3592C-0.0401467 51.6384 -0.106468 52.1573 0.172698 52.5182C0.335637 52.7287 0.57988 52.8389 0.826877 52.8389C1.00359 52.8389 1.1814 52.7826 1.33189 52.6663L6.85352 48.395C7.02681 48.2608 7.13984 48.0634 7.16761 47.8461L8.04631 40.9647C8.09412 40.5906 8.28482 40.2572 8.58316 40.0264L17.7641 32.9244L19.4924 35.1587L11.045 41.6932C10.8717 41.8274 10.7586 42.0248 10.7309 42.2421L9.85229 49.1235C9.80437 49.4978 9.61367 49.8311 9.31533 50.0619L3.06032 54.9005C2.6994 55.1798 2.63308 55.6987 2.91225 56.0596C3.07519 56.27 3.31943 56.3803 3.56632 56.3803C3.74303 56.3803 3.92084 56.324 4.07133 56.2077L10.3263 51.369C10.9738 50.8681 11.3876 50.1451 11.4914 49.3331L12.3266 42.791L20.5035 36.4659L25.1972 42.5337C25.7696 43.2738 26.6311 43.6616 27.5015 43.6616C28.1232 43.6616 28.7495 43.4636 29.2784 43.0546L29.3283 43.0159C29.8968 42.576 30.2602 41.941 30.3513 41.228C30.4193 40.6954 30.3291 40.167 30.0961 39.6967L32.9088 37.5209C33.2697 37.2418 33.3361 36.7228 33.0569 36.3619C32.7776 36.0008 32.2585 35.9347 31.8978 36.2138L29.1272 38.3569L18.4916 24.6077L39.6313 8.25543L50.2668 22.0045L34.6866 34.0566C34.3257 34.3359 34.2594 34.8548 34.5386 35.2157C34.7015 35.4261 34.9457 35.5364 35.1927 35.5364C35.3694 35.5364 35.5473 35.48 35.6977 35.3637L51.3562 23.2512C51.7579 23.558 52.2348 23.7557 52.7497 23.8214C52.8749 23.8374 52.9999 23.8453 53.1239 23.8453C53.7643 23.8453 54.3835 23.6349 54.899 23.2361L54.9485 23.1975C55.5169 22.7576 55.88 22.1229 55.971 21.4098C56.0621 20.6967 55.87 19.9909 55.4301 19.4221ZM28.7121 41.0188C28.6769 41.2941 28.5367 41.5393 28.3171 41.7091C28.3171 41.7092 28.3171 41.7092 28.317 41.7092L28.2672 41.7478C27.7189 42.1718 26.9282 42.0708 26.5044 41.5228L21.3054 34.8017C21.3053 34.8016 21.3053 34.8014 21.3052 34.8013C21.305 34.8012 21.305 34.8011 21.3049 34.801L18.5657 31.2599L14.7687 26.3512C14.5633 26.0857 14.4735 25.7562 14.516 25.4233C14.5586 25.0903 14.7282 24.7939 14.9947 24.5878L15.0436 24.5497C15.2325 24.4037 15.4561 24.3329 15.6782 24.3329C15.9891 24.3329 16.2968 24.4715 16.5014 24.7358L28.3255 40.0213C28.3256 40.0214 28.3256 40.0215 28.3257 40.0217C28.3258 40.0218 28.3258 40.0218 28.326 40.0219L28.5033 40.2512C28.6731 40.4709 28.7472 40.7435 28.7121 41.0188ZM54.3319 21.2006C54.2968 21.4759 54.1564 21.7212 53.9369 21.8909C53.9365 21.8912 53.9362 21.8915 53.9359 21.8917L53.8869 21.9297C53.3386 22.3538 52.548 22.2528 52.1241 21.7047L40.3883 6.53306C39.9642 5.98498 40.0653 5.1943 40.6134 4.77026L40.6632 4.7317C40.8521 4.58562 41.0758 4.51489 41.298 4.51489C41.6088 4.51489 41.9166 4.65337 42.1211 4.91767L42.7478 5.72784C42.748 5.72806 42.7481 5.72828 42.7483 5.72839C42.7484 5.7285 42.7486 5.72873 42.7487 5.72884L47.9134 12.4055C47.9135 12.4056 47.9136 12.4057 47.9136 12.4058C47.9137 12.4059 47.9139 12.406 47.9139 12.4061L54.123 20.4331C54.2928 20.6528 54.367 20.9253 54.3319 21.2006Z" fill="#E22427"/>
<path d="M30.0096 33.4286L29.5161 33.8104C29.1552 34.0897 29.0888 34.6086 29.368 34.9695C29.5309 35.1799 29.7752 35.2902 30.0222 35.2902C30.1989 35.2902 30.3767 35.2339 30.5272 35.1175L31.0208 34.7357C31.3817 34.4564 31.448 33.9375 31.1688 33.5766C30.8893 33.2157 30.3704 33.1494 30.0096 33.4286Z" fill="#E22427"/>
<path d="M45.7799 23.1007C45.9566 23.1007 46.1344 23.0444 46.2849 22.928L46.7785 22.5462C47.1394 22.2669 47.2057 21.748 46.9265 21.3871C46.647 21.0262 46.1282 20.96 45.7674 21.2391L45.2739 21.6209C44.913 21.9002 44.8467 22.4191 45.1258 22.78C45.2887 22.9904 45.5329 23.1007 45.7799 23.1007Z" fill="#E22427"/>
</svg>
