<svg width="52" height="52" viewBox="0 0 52 52" fill="none" xmlns="http://www.w3.org/2000/svg">
<g clip-path="url(#clip0_1233:1670)">
<path d="M50.8909 13.9609L41.7863 4.85626C40.4614 3.53116 38.4049 3.37658 36.8965 4.4887L31.9782 8.11512C31.7997 8.24674 31.6875 8.44977 31.6708 8.67097C31.6541 8.89218 31.7349 9.10963 31.8917 9.26654L33.0769 10.4518L27.8699 15.6588H24.128L18.9206 10.4515L20.1061 9.26593C20.263 9.10902 20.3435 8.89157 20.327 8.67037C20.3103 8.44916 20.198 8.24614 20.0195 8.11451L15.1014 4.4889C13.5937 3.37648 11.5372 3.53106 10.2117 4.85666L8.77001 6.29846C8.47263 6.59583 8.47263 7.07806 8.77001 7.37543C9.06738 7.67281 9.54961 7.67281 9.84698 7.37543L11.2888 5.93364C12.0774 5.145 13.3004 5.05288 14.1974 5.71467L15.8338 6.92104L3.17153 19.5832L1.96516 17.9474C1.30389 17.0492 1.3959 15.8254 2.18393 15.0374L7.69334 9.52807C7.99071 9.23069 7.99071 8.74857 7.69334 8.45109C7.39606 8.15371 6.91384 8.15371 6.61636 8.45109L1.10695 13.9604C-0.217532 15.2849 -0.372416 17.3414 0.739092 18.8508L4.36602 23.7692C4.49765 23.9477 4.70067 24.0599 4.92188 24.0766C4.94097 24.078 4.95996 24.0787 4.97895 24.0787C5.18005 24.0787 5.37403 23.999 5.51744 23.8557L6.70279 22.6703L7.5871 23.5546C5.71874 25.163 4.62562 27.5109 4.62562 29.9974C4.62562 34.0806 7.53977 37.5674 11.4933 38.3396C11.9232 40.6179 13.5459 42.4794 15.6864 43.2472V45.9826C15.6864 47.2335 16.7036 48.2512 17.9541 48.2512C18.9379 48.2512 19.7772 47.6215 20.0909 46.7441H21.1811C21.4947 47.6215 22.3335 48.2512 23.3169 48.2512C24.3008 48.2512 25.1401 47.6215 25.4537 46.7441H26.5443C26.8578 47.6213 27.6969 48.2509 28.6806 48.2509C29.6642 48.2509 30.5032 47.6213 30.8168 46.7441H31.9074C32.221 47.6213 33.0601 48.2509 34.0436 48.2509C35.2943 48.2509 36.3117 47.2334 36.3117 45.9828V39.9958C37.5061 39.8309 38.5796 39.2843 39.4056 38.4828C40.9279 38.3874 42.3907 37.8857 43.654 37.023C44.0013 36.7857 44.0906 36.3119 43.8533 35.9646C43.6163 35.6173 43.1423 35.528 42.795 35.7652C42.1259 36.2221 41.3884 36.5547 40.6138 36.7547C40.8582 36.2059 41.0158 35.6107 41.0695 34.9858C43.0359 34.1215 44.3238 32.1799 44.3238 29.9975C44.3238 28.3069 43.5473 26.742 42.2474 25.7181L43.3305 24.635C44.918 25.9565 45.8492 27.918 45.8492 29.9973C45.8492 31.3585 45.4553 32.6781 44.71 33.8136C44.4793 34.1652 44.5772 34.6373 44.9288 34.8681C45.0577 34.9527 45.2026 34.993 45.346 34.993C45.5939 34.993 45.8371 34.8721 45.9833 34.6493C46.892 33.2649 47.3723 31.6563 47.3723 29.9974C47.3723 27.5104 46.2791 25.1627 44.4106 23.5551L45.2954 22.6703L46.4808 23.8556C46.6241 23.9989 46.8181 24.0786 47.0191 24.0786C47.0381 24.0786 47.0571 24.0779 47.0762 24.0765C47.2974 24.0598 47.5005 23.9476 47.6321 23.7691L51.2585 18.8509C52.3706 17.3423 52.216 15.2859 50.8909 13.9609ZM38.613 20.9946C38.613 20.8034 38.6874 20.6237 38.8226 20.4885L40.9682 18.3428L41.9803 19.3549L39.8347 21.5005C39.6995 21.6357 39.5198 21.7102 39.3287 21.7102C39.1375 21.7102 38.9578 21.6357 38.8226 21.5005C38.6874 21.3655 38.613 21.1857 38.613 20.9946ZM36.7277 14.1025L37.4044 14.7791L35.2587 16.9247C35.1236 17.0599 34.9439 17.1343 34.7526 17.1343C34.5615 17.1343 34.3818 17.0599 34.2466 16.9247C33.9676 16.6457 33.9676 16.1916 34.2466 15.9126L36.3922 13.767L36.7277 14.1025ZM34.154 11.5288L35.3153 12.69L33.1697 14.8357C32.2968 15.7085 32.2968 17.1288 33.1697 18.0016C33.5925 18.4244 34.1547 18.6573 34.7526 18.6573C35.3506 18.6573 35.9128 18.4244 36.3356 18.0016L38.4812 15.856L39.8912 17.266L37.7456 19.4116C37.3228 19.8344 37.0899 20.3967 37.0899 20.9946C37.0899 21.5925 37.3228 22.1547 37.7456 22.5775C38.1684 23.0003 38.7306 23.2332 39.3286 23.2332C39.9266 23.2332 40.4887 23.0003 40.9115 22.5775L43.0572 20.4319L44.2184 21.5932L39.3268 26.4849L29.2623 16.4205L34.154 11.5288ZM30.9486 40.0499H31.7755V45.2211H30.9486V40.0499ZM25.7212 38.5268L30.0139 34.3127C30.0117 34.3777 30.0089 34.4427 30.0089 34.5082C30.0089 36.0891 30.6755 37.5164 31.741 38.5268H25.7212ZM20.2227 43.185C20.5086 43.0736 20.7846 42.9429 21.0493 42.7937V45.2211H20.2227V43.185ZM25.5856 40.0499H26.4125V45.2211H25.5856V40.0499ZM24.3361 37.7523C24.3555 37.5485 24.3664 37.3422 24.3664 37.1334C24.3664 33.5529 21.4533 30.6398 17.8728 30.6398C17.7326 30.6398 17.5937 30.6458 17.4556 30.6547L21.7013 26.503C21.8601 28.736 23.7263 30.5046 25.999 30.5046C28.3756 30.5046 30.309 28.5712 30.309 26.1946C30.309 26.0928 30.3043 25.9923 30.2973 25.8923L34.6651 29.0385C33.4922 29.2276 32.4412 29.7853 31.636 30.5896L31.6369 30.585L24.3361 37.7523ZM10.8376 26.8052L12.0033 27.9708L13.4311 32.4031C12.9845 32.8227 12.597 33.3041 12.2829 33.8344C10.5181 33.4426 9.19667 31.8437 9.19667 29.9975C9.19678 28.7187 9.81388 27.5389 10.8376 26.8052ZM25.999 23.4076C27.5358 23.4076 28.786 24.6578 28.786 26.1946C28.786 27.7314 27.5358 28.9816 25.999 28.9816C24.4622 28.9816 23.212 27.7314 23.212 26.1946C23.212 24.6578 24.4622 23.4076 25.999 23.4076ZM37.8993 29.491C37.8993 29.491 28.693 22.8299 28.5857 22.7492C27.8647 22.2065 26.9687 21.8846 25.999 21.8846C24.8775 21.8846 23.855 22.3155 23.0875 23.0199L14.6618 31.2563L13.539 27.771L24.1281 17.1819H27.87L38.459 27.7709L37.9045 29.4933C37.9027 29.4926 37.901 29.4919 37.8993 29.491ZM11.0299 18.3429L13.1755 20.4886C13.3107 20.6238 13.3851 20.8034 13.3851 20.9946C13.3851 21.1857 13.3107 21.3655 13.1755 21.5005C13.0403 21.6357 12.8607 21.7102 12.6694 21.7102C12.4783 21.7102 12.2986 21.6357 12.1634 21.5005L10.0178 19.3549L11.0299 18.3429ZM5.0664 22.1528L4.0857 20.8229L17.0736 7.83501L18.4032 8.81509L5.0664 22.1528ZM8.94094 20.432L11.0865 22.5775C11.5093 23.0003 12.0714 23.2332 12.6694 23.2332C13.2674 23.2332 13.8296 23.0003 14.2524 22.5775C14.6752 22.1547 14.9081 21.5925 14.9081 20.9946C14.9081 20.3967 14.6752 19.8344 14.2524 19.4116L12.1068 17.266L12.1244 17.2483L13.5168 15.856L15.6624 18.0016C16.0852 18.4244 16.6474 18.6573 17.2454 18.6573C17.8434 18.6573 18.4055 18.4244 18.8283 18.0016C19.7012 17.1288 19.7012 15.7085 18.8283 14.8357L16.6827 12.69L17.844 11.5288L22.7357 16.4205L12.6712 26.4849L7.77966 21.5934L8.94094 20.432ZM15.6058 13.767L17.7515 15.9126C18.0304 16.1916 18.0304 16.6457 17.7515 16.9247C17.6163 17.0599 17.4365 17.1343 17.2454 17.1343C17.0542 17.1343 16.8745 17.0599 16.7393 16.9247L14.5937 14.7791L15.6058 13.767ZM6.14866 29.9974C6.14866 27.9186 7.07979 25.9569 8.66712 24.6346L9.7504 25.7179C8.45029 26.7419 7.67363 28.3068 7.67363 29.9974C7.67363 31.3644 8.18378 32.6728 9.11014 33.6817C9.80524 34.4388 10.6879 34.9773 11.6589 35.2489C11.5125 35.7304 11.4208 36.2352 11.3908 36.7566C8.34852 35.9764 6.14866 33.212 6.14866 29.9974ZM12.9023 37.1334C12.9023 34.3927 15.1321 32.1629 17.8728 32.1629C20.6135 32.1629 22.8433 34.3926 22.8433 37.1334C22.8433 39.8742 20.6135 42.1039 17.8728 42.1039C15.1321 42.1039 12.9023 39.8742 12.9023 37.1334ZM17.9541 46.7282C17.5436 46.7282 17.2094 46.3937 17.2094 45.9826V43.5933C17.4276 43.6155 17.6488 43.6269 17.8727 43.6269C18.153 43.6269 18.4286 43.6071 18.6996 43.5725V45.9826C18.6996 46.3937 18.3652 46.7282 17.9541 46.7282ZM23.3169 46.7282C22.9064 46.7282 22.5724 46.3937 22.5724 45.9826V41.6181L24.0626 40.1551V45.9825C24.0626 46.3937 23.7281 46.7282 23.3169 46.7282ZM28.6806 46.7279C28.2698 46.7279 27.9355 46.3936 27.9355 45.9828V40.0499H29.4255V45.9828C29.4255 46.3936 29.0914 46.7279 28.6806 46.7279ZM34.0436 46.7279C33.6328 46.7279 33.2987 46.3936 33.2987 45.9828V40.0499H34.7887V45.9828C34.7887 46.3936 34.4544 46.7279 34.0436 46.7279ZM35.5502 38.5264C33.3346 38.5264 31.532 36.7239 31.532 34.5082C31.532 32.2926 33.3345 30.4899 35.5502 30.4899C37.7658 30.4899 39.5685 32.2925 39.5685 34.5082C39.5685 36.7239 37.7658 38.5264 35.5502 38.5264ZM42.8007 29.9975C42.8007 31.3737 42.0901 32.6174 40.9627 33.3241C40.708 32.1589 40.0859 31.1299 39.2239 30.3648L39.9945 27.971L41.1602 26.8054C42.1837 27.5388 42.8007 28.7186 42.8007 29.9975ZM46.9316 22.1525L33.5947 8.8156L34.9245 7.83511L47.9121 20.8227L46.9316 22.1525ZM50.0326 17.9467L48.8262 19.5829L36.1642 6.92094L37.8004 5.71447C38.6978 5.05278 39.9211 5.1448 40.7093 5.93313L49.814 15.0378C50.6023 15.8261 50.6942 17.0495 50.0326 17.9467Z" fill="#E22427"/>
<path d="M20.1721 37.1344C20.1721 35.867 19.1411 34.8359 17.8737 34.8359C16.6063 34.8359 15.5752 35.867 15.5752 37.1344C15.5752 38.4018 16.6063 39.4329 17.8737 39.4329C19.1411 39.4329 20.1721 38.4018 20.1721 37.1344ZM17.0982 37.1344C17.0982 36.7068 17.4461 36.359 17.8737 36.359C18.3012 36.359 18.6491 36.7068 18.6491 37.1344C18.6491 37.562 18.3012 37.9098 17.8737 37.9098C17.4461 37.9098 17.0982 37.562 17.0982 37.1344Z" fill="#E22427"/>
<path d="M35.5514 32.2109C34.284 32.2109 33.2529 33.242 33.2529 34.5094C33.2529 35.7768 34.284 36.8079 35.5514 36.8079C36.8188 36.8079 37.8498 35.7768 37.8498 34.5094C37.8498 33.242 36.8188 32.2109 35.5514 32.2109ZM35.5514 35.2848C35.1238 35.2848 34.776 34.937 34.776 34.5094C34.776 34.0818 35.1238 33.734 35.5514 33.734C35.979 33.734 36.3268 34.0818 36.3268 34.5094C36.3268 34.937 35.979 35.2848 35.5514 35.2848Z" fill="#E22427"/>
</g>
<defs>
<clipPath id="clip0_1233:1670">
<rect width="52" height="52" fill="white"/>
</clipPath>
</defs>
</svg>
