<svg width="52" height="52" viewBox="0 0 52 52" fill="none" xmlns="http://www.w3.org/2000/svg">
<path d="M51.2652 11.949L48.6289 8.09443C48.3911 7.74698 48.0324 7.51288 47.6187 7.43529C47.2051 7.3579 46.7857 7.44585 46.4384 7.68341L45.3464 8.43019C44.9989 8.66785 44.7647 9.02657 44.6871 9.44034C44.6094 9.854 44.6977 10.2732 44.9352 10.6208L45.0237 10.7502L43.4617 11.8034L42.286 10.0844C41.6415 9.14245 40.3508 8.90002 39.4086 9.54454L36.5221 11.5188L35.6667 10.2459C35.5253 10.0357 35.2886 9.90945 35.0352 9.90915L33.2616 9.90732V8.16796C34.077 7.96301 34.6834 7.22577 34.6834 6.34766C34.6834 5.92891 34.5441 5.54318 34.3117 5.23047C34.5441 4.91776 34.6834 4.53202 34.6834 4.11328C34.6834 3.99171 34.6708 3.87309 34.6487 3.75781H35.242C36.2781 3.75781 37.1209 2.91495 37.1209 1.87891C37.1209 0.842867 36.2781 0 35.242 0H16.7576C15.7216 0 14.8787 0.842867 14.8787 1.87891C14.8787 2.91495 15.7216 3.75781 16.7576 3.75781H17.351C17.3288 3.87309 17.3162 3.99171 17.3162 4.11328C17.3162 4.53202 17.4556 4.91776 17.688 5.23047C17.4556 5.54318 17.3162 5.92891 17.3162 6.34766C17.3162 7.22587 17.9227 7.96311 18.7381 8.16796V9.8929L17.0479 9.89117H17.0471C16.7944 9.89117 16.5581 10.0165 16.4164 10.2258L15.5209 11.5484L12.5909 9.54444C11.6491 8.90012 10.3581 9.14225 9.71368 10.0843L8.53799 11.8033L6.97596 10.7501L7.06442 10.6207C7.30207 10.2731 7.39023 9.8539 7.31254 9.44023C7.23484 9.02647 7.00074 8.66775 6.65319 8.43009L5.56139 7.6833C5.21385 7.44565 4.7947 7.3577 4.38093 7.43519C3.96727 7.51288 3.60855 7.74688 3.37079 8.09433L0.734433 11.9492C0.24409 12.6665 0.428527 13.649 1.14576 14.1396L2.23756 14.8864C2.50914 15.0721 2.8186 15.161 3.12501 15.161C3.62815 15.161 4.12317 14.9212 4.42816 14.4754L4.48514 14.3921L6.03457 15.4639L4.51398 17.6872C3.86957 18.6293 4.11189 19.9201 5.05389 20.5645L8.03556 22.6038L6.68488 24.5986C6.52421 24.8359 6.51029 25.1431 6.64882 25.3939L16.9663 44.0789C17.1001 44.3216 17.3552 44.4722 17.6324 44.4725L18.5352 44.4733V47.956C18.5352 49.0099 19.3925 49.8672 20.4464 49.8672H23.185C23.4825 51.0896 24.5859 52 25.8985 52C27.2111 52 28.3144 51.0896 28.6119 49.8672H31.3505C32.4045 49.8672 33.2618 49.0099 33.2618 47.956V44.4865L34.1338 44.4873H34.1345C34.4115 44.4873 34.6668 44.3369 34.801 44.0945L36.9019 40.2986L45.9128 40.2188C45.9145 40.2188 45.9161 40.2184 45.9178 40.2184C47.7883 40.212 49.3083 38.6885 49.3083 36.8164C49.3083 35.3957 48.4328 34.1763 47.1931 33.6677L43.5579 28.2711L45.2394 25.2328C45.3778 24.9827 45.3646 24.6763 45.2051 24.4391L43.9693 22.6003L46.9458 20.5646C47.8878 19.9202 48.1301 18.6294 47.4857 17.6872L45.9652 15.464L47.5146 14.3922L47.5716 14.4755C47.8766 14.9214 48.3715 15.1611 48.8748 15.1611C49.1813 15.1611 49.4906 15.0722 49.7621 14.8865L50.8541 14.1397C51.5711 13.6491 51.7557 12.6665 51.2652 11.949ZM16.7576 2.23438C16.5616 2.23438 16.4022 2.07492 16.4022 1.87891C16.4022 1.68289 16.5616 1.52344 16.7576 1.52344H35.242C35.438 1.52344 35.5975 1.68289 35.5975 1.87891C35.5975 2.07492 35.438 2.23438 35.242 2.23438H16.7576ZM19.1951 6.70312C18.9991 6.70312 18.8397 6.54367 18.8397 6.34766C18.8397 6.15164 18.9991 5.99219 19.1951 5.99219H32.8045C33.0005 5.99219 33.16 6.15164 33.16 6.34766C33.16 6.54367 33.0005 6.70312 32.8045 6.70312H19.1951ZM31.7381 8.22656V9.85156H20.2616V8.22656H31.7381ZM32.8045 4.46875H19.1951C18.9991 4.46875 18.8397 4.3093 18.8397 4.11328C18.8397 3.91727 18.9991 3.75781 19.1951 3.75781H32.8045C33.0005 3.75781 33.16 3.91727 33.16 4.11328C33.16 4.3093 33.0005 4.46875 32.8045 4.46875ZM3.66238 12.8965C3.66228 12.8966 3.66228 12.8966 3.66218 12.8967C3.66207 12.8968 3.66207 12.8969 3.66197 12.897L3.17071 13.6153C3.15416 13.6391 3.12136 13.645 3.09749 13.629L2.00569 12.8822C1.98182 12.8658 1.97553 12.8329 1.99188 12.8091L4.62824 8.95446C4.63118 8.95009 4.64053 8.93648 4.66196 8.93252C4.66571 8.93171 4.66917 8.93141 4.67242 8.93141C4.68775 8.93141 4.69771 8.93811 4.70146 8.94075L5.79326 9.68754C5.81723 9.70389 5.82343 9.7367 5.80707 9.76066L3.66238 12.8965ZM5.34507 13.1348L6.11593 12.0077L7.67806 13.0609L6.8945 14.2066L5.34507 13.1348ZM5.91402 19.3071C5.66519 19.1369 5.60131 18.7961 5.77143 18.5473L10.9712 10.9447C11.077 10.7901 11.2487 10.7068 11.4233 10.7068C11.5295 10.7068 11.637 10.7377 11.731 10.8021L14.5492 12.7296L8.73218 21.2345L5.91402 19.3071ZM25.8983 50.4766C25.4402 50.4766 25.0393 50.2319 24.8159 49.8672H26.9805C26.7573 50.2319 26.3563 50.4766 25.8983 50.4766ZM31.7381 47.956C31.7381 48.1698 31.5641 48.3438 31.3503 48.3438H20.4462C20.2324 48.3438 20.0584 48.1698 20.0584 47.956V46.6756H26.6092C27.03 46.6756 27.3709 46.3346 27.3709 45.9139C27.3709 45.4931 27.03 45.1521 26.6092 45.1521H20.0584V44.4844L31.7381 44.4851V47.956ZM35.9991 38.783L27.4105 38.8589C29.0558 37.5459 30.113 35.5255 30.113 33.2617C30.113 29.3136 26.901 26.1016 22.9529 26.1016C22.0569 26.1016 21.1995 26.2685 20.4083 26.5704L24.371 19.6244C24.959 22.1679 27.2411 24.0703 29.9608 24.0703C32.8204 24.0703 35.1975 21.9677 35.6288 19.2274L41.7736 28.3492L35.9991 38.783ZM22.9566 38.8983H22.9512C19.8439 38.8974 17.3162 36.3691 17.3162 33.2616C17.3162 30.1535 19.8448 27.6249 22.953 27.6249C26.0611 27.6249 28.5897 30.1535 28.5897 33.2616C28.5897 36.3686 26.063 38.8964 22.9566 38.8983ZM25.7459 18.332C25.7459 16.008 27.6367 14.1172 29.9608 14.1172C32.2848 14.1172 34.1756 16.008 34.1756 18.332C34.1756 20.6561 32.2848 22.5469 29.9608 22.5469C27.6367 22.5469 25.7459 20.6561 25.7459 18.332ZM47.785 36.8164C47.785 37.8524 46.9421 38.6953 45.9061 38.6953C44.87 38.6953 44.0272 37.8524 44.0272 36.8164C44.0272 35.7804 44.87 34.9375 45.9061 34.9375C46.9421 34.9375 47.785 35.7804 47.785 36.8164ZM45.2309 33.4816C43.6772 33.7957 42.5037 35.1715 42.5037 36.8164C42.5037 37.5211 42.7192 38.1765 43.0876 38.7202L37.7489 38.7674L42.7294 29.7682L45.2309 33.4816ZM46.2283 18.5471C46.3985 18.796 46.3346 19.1369 46.0858 19.307L43.2676 21.2345L41.6032 18.8009C41.3131 18.3768 40.7107 18.3158 40.3419 18.6737C40.3368 18.6787 40.3317 18.6835 40.3266 18.6884C40.0387 18.9677 39.9919 19.413 40.2157 19.746L43.6812 24.9024L42.6021 26.8521L34.9134 15.4383C34.9129 15.4376 34.9122 15.4369 34.9117 15.4362C33.9143 13.7374 32.0691 12.5938 29.9608 12.5938C27.8519 12.5938 26.0063 13.7381 25.009 15.4376C24.9982 15.4535 24.9875 15.4695 24.9777 15.4865L17.4415 28.6965C16.4124 29.9366 15.7928 31.528 15.7928 33.2617C15.7928 37.2098 19.0047 40.4218 22.9528 40.4219H22.9597L35.1517 40.314L33.6854 42.9635C33.6758 42.9632 33.6855 42.9632 33.6758 42.9632L18.0826 42.9496L8.20791 25.0662L17.451 11.4151L34.6283 11.4322L37.6292 15.8975C37.9174 16.3262 38.5251 16.3852 38.8903 16.02C39.1695 15.7408 39.2103 15.3024 38.9874 14.9766L37.4505 12.7294L40.2686 10.8019C40.5175 10.6319 40.8584 10.6956 41.0284 10.9445L42.6284 13.2837L46.2283 18.5471ZM45.1052 14.2065L44.3216 13.0608L45.8836 12.0076L46.6545 13.1347L45.1052 14.2065ZM49.9941 12.8823L48.9021 13.6291C48.8783 13.6451 48.8454 13.6393 48.8289 13.6154L48.3377 12.8971C48.3376 12.897 48.3376 12.8969 48.3375 12.8968C48.3375 12.8967 48.3374 12.8967 48.3373 12.8966L46.1926 9.76087C46.1762 9.737 46.1823 9.70409 46.2063 9.68774L47.2983 8.94095C47.3027 8.9378 47.3157 8.92795 47.3377 8.93273C47.3591 8.93669 47.3685 8.9503 47.3714 8.95466L50.0077 12.8091C50.0241 12.8329 50.0178 12.8659 49.9941 12.8823Z" fill="#E22427"/>
<path d="M29.9609 15.5391C28.4209 15.5391 27.168 16.792 27.168 18.332C27.168 19.872 28.4209 21.125 29.9609 21.125C31.5009 21.125 32.7539 19.872 32.7539 18.332C32.7539 16.792 31.5009 15.5391 29.9609 15.5391ZM29.9609 19.6016C29.2609 19.6016 28.6914 19.0321 28.6914 18.332C28.6914 17.632 29.261 17.0625 29.9609 17.0625C30.6609 17.0625 31.2305 17.632 31.2305 18.332C31.2305 19.0321 30.661 19.6016 29.9609 19.6016Z" fill="#E22427"/>
<path d="M22.9531 29.8594C21.0771 29.8594 19.5508 31.3857 19.5508 33.2617C19.5508 35.1378 21.0771 36.6641 22.9531 36.6641C24.8292 36.6641 26.3555 35.1378 26.3555 33.2617C26.3555 31.3857 24.8292 29.8594 22.9531 29.8594ZM22.9531 35.1406C21.9171 35.1406 21.0742 34.2978 21.0742 33.2617C21.0742 32.2257 21.9171 31.3828 22.9531 31.3828C23.9892 31.3828 24.832 32.2257 24.832 33.2617C24.832 34.2978 23.9892 35.1406 22.9531 35.1406Z" fill="#E22427"/>
<path d="M45.9062 37.6797C46.383 37.6797 46.7695 37.2932 46.7695 36.8164C46.7695 36.3396 46.383 35.9531 45.9062 35.9531C45.4295 35.9531 45.043 36.3396 45.043 36.8164C45.043 37.2932 45.4295 37.6797 45.9062 37.6797Z" fill="#E22427"/>
</svg>
