<svg width="48" height="48" viewBox="0 0 48 48" fill="none" xmlns="http://www.w3.org/2000/svg">
<g clip-path="url(#clip0_1233:1609)">
<path d="M14.8821 17.9797C13.2732 19.589 12.3867 21.7267 12.3867 24.0005C12.3867 26.2743 13.2732 28.412 14.8821 30.0213C16.4913 31.6302 18.629 32.5166 20.9029 32.5166C23.1767 32.5166 25.3144 31.6302 26.9236 30.0213C28.5325 28.412 29.419 26.2743 29.419 24.0005C29.419 21.7267 28.5325 19.589 26.9236 17.9797C25.3144 16.3708 23.1767 15.4844 20.9029 15.4844C18.629 15.4844 16.4913 16.3708 14.8821 17.9797ZM27.8249 24.7747C27.6801 26.0861 27.1709 27.3165 26.3445 28.3467L22.9933 24.9962C23.0281 24.924 23.0576 24.8507 23.0844 24.7747H27.8249ZM13.9808 23.2263C14.1256 21.9149 14.6348 20.6845 15.4612 19.6544L18.8116 23.0048C18.7768 23.077 18.7474 23.1503 18.7205 23.2263H13.9808ZM20.3509 24.5377C20.2084 24.3978 20.1287 24.2073 20.1287 24.0005C20.1287 23.7937 20.2084 23.6032 20.3657 23.4493C20.5055 23.3053 20.6961 23.2263 20.9029 23.2263C21.1096 23.2263 21.3002 23.3053 21.4548 23.4633C21.5973 23.6032 21.677 23.7937 21.677 24.0005C21.677 24.2073 21.5973 24.3978 21.4393 24.5517C21.1614 24.8397 20.6598 24.8537 20.3509 24.5377ZM20.1287 21.8359C20.0557 21.8598 19.9854 21.8877 19.9158 21.9187L16.5567 18.5596C17.5868 17.7325 18.8173 17.2233 20.1287 17.0785V21.8359ZM19.9071 26.091C19.9793 26.1258 20.0527 26.1552 20.1287 26.1821V30.9225C18.8173 30.7777 17.5868 30.2685 16.5567 29.4422L19.9071 26.091ZM21.677 26.1828C21.753 26.156 21.8271 26.1265 21.8993 26.0917L25.249 29.4414C24.2189 30.2678 22.9884 30.7777 21.677 30.9218V26.1828ZM21.8884 21.9202C21.8188 21.8892 21.7489 21.8613 21.677 21.8375V17.0785C22.9884 17.2233 24.2189 17.7325 25.249 18.5596L21.8884 21.9202ZM13.9808 24.7747H18.7198C18.7466 24.8507 18.7761 24.9248 18.8109 24.997L15.4612 28.3467C14.6348 27.3165 14.1256 26.0861 13.9808 24.7747ZM27.8249 23.2263H23.0852C23.0583 23.1503 23.0289 23.077 22.9941 23.004L26.3438 19.6544C27.1709 20.6845 27.6801 21.9149 27.8249 23.2263Z" fill="#E22427"/>
<path d="M46.4516 0H44.9032C44.0493 0 43.3548 0.69443 43.3548 1.54839V1.62437L37.0475 2.27155C36.2423 2.33279 35.6129 3.01247 35.6129 3.81691V3.87097H20.7792C17.3286 3.87097 13.9177 4.72946 10.861 6.34136L8.70363 4.89768C7.7752 4.28301 6.57044 4.40058 5.77016 5.18952L2.08896 8.87072C1.31628 9.65512 1.19531 10.8867 1.80318 11.8034L3.01096 13.6081C1.61643 15.826 0.687626 18.2586 0.257812 20.856C0.0865675 21.908 0 22.9665 0 24C0 27.7409 1.00328 31.3843 2.88546 34.5794L1.80091 36.1996C1.18624 37.128 1.30381 38.3335 2.09274 39.1331L5.77394 42.8143C6.22908 43.2634 6.81842 43.4943 7.41305 43.4943C7.85799 43.4943 8.30708 43.365 8.7059 43.1008L10.3299 42.0178C12.0008 43.0033 13.7831 43.7404 15.6411 44.2148L16.026 46.1326C16.2441 47.2141 17.202 48 18.302 48H23.5052C24.6056 48 25.5624 47.2141 25.7812 46.1318L26.1661 44.2126C28.0218 43.7287 29.7955 42.9855 31.4531 41.9985L33.1028 43.1031C33.5001 43.3658 33.9469 43.4951 34.3911 43.4951C34.9873 43.4951 35.5781 43.2626 36.0363 42.8112L39.7175 39.13C40.5026 38.3343 40.6202 37.1288 40.004 36.1973L38.9002 34.5491C40.6954 31.5174 41.7021 28.0932 41.7989 24.6045C41.8794 21.86 41.4311 19.1915 40.4739 16.6629L43.3548 16.957V17.0323C43.3548 17.8862 44.0493 18.5806 44.9032 18.5806H46.4516C47.3056 18.5806 48 17.8862 48 17.0323V1.54839C48 0.69443 47.3056 0 46.4516 0V0ZM3.1875 9.96169L6.86076 6.28805C7.13029 6.0223 7.53591 5.98148 7.84551 6.18674L9.36555 7.20401C7.2626 8.55015 5.41709 10.2611 3.94922 12.2276L3.09148 10.9449C2.88546 10.6327 2.92553 10.2271 3.1875 9.96169ZM7.84967 41.811C7.53667 42.0178 7.13029 41.9769 6.86567 41.7157L3.19204 38.0425C2.92629 37.7729 2.88546 37.3673 3.09148 37.057L3.7912 36.0068C5.18007 37.9858 6.91822 39.7232 8.89567 41.112L7.84967 41.811ZM23.5044 46.4516H18.302C17.9357 46.4516 17.6167 46.1885 17.5441 45.826L17.2954 44.588C18.4846 44.7978 19.6954 44.9032 20.9157 44.9032C21.35 44.9032 21.7844 44.8892 22.2203 44.8632C22.9842 44.8167 23.7509 44.7082 24.5149 44.5728L24.2639 45.8252C24.1898 46.1885 23.8707 46.4516 23.5044 46.4516ZM38.6189 38.0383L34.9457 41.7119C34.6762 41.9777 34.2698 42.0185 33.9617 41.8133L32.8802 41.0905C34.8542 39.6967 36.5939 37.9548 37.9911 35.9728L38.7142 37.0543C38.921 37.3673 38.8809 37.7729 38.6189 38.0383ZM40.2505 24.5591C40.1575 27.9413 39.1486 31.2626 37.3325 34.1658C35.7547 36.6959 33.5916 38.8613 31.0732 40.4316C29.2908 41.5539 27.3569 42.3648 25.3231 42.8415C24.2646 43.0925 23.1888 43.2528 22.125 43.3178C20.2141 43.4354 18.3126 43.2743 16.4766 42.84C14.4401 42.3731 12.4986 41.5694 10.7034 40.4509C8.17553 38.8877 6.01399 36.7254 4.4501 34.1976C2.55242 31.1458 1.54839 27.62 1.54839 24C1.54839 23.0493 1.62891 22.0755 1.78616 21.107C2.20804 18.5568 3.14705 16.1738 4.57938 14.0213C6.1996 11.5656 8.43712 9.47933 11.05 7.98954C14.016 6.30809 17.38 5.41935 20.7792 5.41935H32.5161V8.51613H34.0645V5.41935H35.6129V13.1613H34.0645V10.0645H32.5161V13.1613H25.0505C23.7392 12.6517 22.3454 12.3871 20.9032 12.3871C14.4999 12.3871 9.29032 17.5966 9.29032 24C9.29032 30.4034 14.4999 35.6129 20.9032 35.6129C27.3066 35.6129 32.5161 30.4034 32.5161 24C32.5161 20.2591 30.7557 16.861 27.8687 14.7097H35.6129V14.7637C35.6129 15.5689 36.2423 16.2479 37.0267 16.3083L38.729 16.4826C39.8177 19.0445 40.3333 21.7579 40.2505 24.5591ZM30.9677 24C30.9677 29.5494 26.4526 34.0645 20.9032 34.0645C15.3538 34.0645 10.8387 29.5494 10.8387 24C10.8387 18.4506 15.3538 13.9355 20.9032 13.9355C22.2048 13.9355 23.4579 14.177 24.6347 14.6549C28.4819 16.1878 30.9677 19.8557 30.9677 24ZM37.1613 14.7637V4.64516L37.1851 3.81275L43.3548 3.18032V15.4011L37.1613 14.7637ZM46.4516 17.0323H44.9032V1.54839H46.4516V17.0323Z" fill="#E22427"/>
<path d="M34.0645 24.0003C34.0645 25.2807 35.1067 26.3229 36.387 26.3229C37.6674 26.3229 38.7096 25.2807 38.7096 24.0003C38.7096 22.7199 37.6674 21.6777 36.387 21.6777C35.1067 21.6777 34.0645 22.7199 34.0645 24.0003ZM37.1612 24.0003C37.1612 24.4267 36.8142 24.7745 36.387 24.7745C35.9599 24.7745 35.6128 24.4267 35.6128 24.0003C35.6128 23.5739 35.9599 23.2261 36.387 23.2261C36.8142 23.2261 37.1612 23.5739 37.1612 24.0003Z" fill="#E22427"/>
<path d="M7.27095 15.1382L5.98264 14.2793C5.6893 14.7193 5.402 15.2062 5.12793 15.7271L6.49902 16.4473C6.74739 15.9732 7.00671 15.5328 7.27095 15.1382Z" fill="#E22427"/>
<path d="M4.64604 24.0011C4.64604 21.7991 5.07888 19.664 5.93208 17.6533L4.5058 17.0488C3.57132 19.2516 3.09766 21.5904 3.09766 24.0011C3.09766 33.8202 11.0849 41.8075 20.9041 41.8075V40.2591C11.9396 40.2591 4.64604 32.9655 4.64604 24.0011Z" fill="#E22427"/>
</g>
<defs>
<clipPath id="clip0_1233:1609">
<rect width="48" height="48" fill="white"/>
</clipPath>
</defs>
</svg>
