<svg version="1.1" xmlns="http://www.w3.org/2000/svg" fill="#FFFFFF"
	 viewBox="0 0 20 18" style="enable-background:new 0 0 20 18;">
<path class="st0" d="M19.4,10c-0.1,0-0.1,0-0.2,0l-0.7,0.2l-0.7-1.8c-0.2-0.5-0.8-0.9-1.4-0.9h-2.4V6.2c0-0.5-0.2-1.3-0.4-1.7
	l-0.1-0.3h0.1c0.4,0,0.8-0.3,0.8-0.7V3c0-0.3-0.2-0.6-0.6-0.6c-0.1,0-0.1,0-0.2,0l-0.7,0.2l-0.7-1.8C11.8,0.4,11.2,0,10.7,0h-7
	C3.1,0,2.5,0.4,2.2,0.9L1.5,2.7L0.8,2.5c-0.1,0-0.1,0-0.2,0C0.2,2.4,0,2.7,0,3v0.4c0,0.4,0.3,0.7,0.8,0.7h0.1L0.7,4.5
	C0.5,4.9,0.4,5.7,0.4,6.2v3.5c0,0.4,0.3,0.7,0.8,0.7h1c0.4,0,0.8-0.3,0.8-0.7V8.8h4.9l-0.6,1.4L6.5,10c-0.1,0-0.1,0-0.2,0
	c-0.3,0-0.6,0.3-0.6,0.6V11c0,0.4,0.3,0.7,0.8,0.7h0.1L6.4,12c-0.2,0.5-0.4,1.2-0.4,1.7v3.5c0,0.4,0.3,0.7,0.8,0.7h1
	c0.4,0,0.8-0.3,0.8-0.7v-0.9h8.5v0.9c0,0.4,0.3,0.7,0.8,0.7h1c0.4,0,0.8-0.3,0.8-0.7v-3.5c0-0.5-0.2-1.3-0.4-1.7l-0.1-0.3h0.1
	c0.4,0,0.8-0.3,0.8-0.7v-0.4C20,10.3,19.8,10,19.4,10z M12.5,6.2v1c0,0.2-0.1,0.3-0.3,0.3H10c-0.2,0-0.3-0.1-0.3-0.3v-1
	C9.7,6,9.8,5.9,10,5.9h2.2C12.3,5.9,12.5,6,12.5,6.2z M4.6,7.1c0,0.2-0.1,0.3-0.3,0.3H2.1c-0.2,0-0.3-0.1-0.3-0.3v-1
	c0-0.2,0.1-0.3,0.3-0.3h2.2c0.2,0,0.3,0.1,0.3,0.3L4.6,7.1L4.6,7.1z M2.4,4.3C2.1,4.3,1.9,4.1,2,3.8l1.1-2.7C3.3,0.8,3.7,0.6,4,0.6
	h6.3c0.3,0,0.7,0.2,0.8,0.5l1.1,2.7c0.1,0.3,0,0.5-0.4,0.5H2.4z M7.7,11.3l1.1-2.7C9,8.4,9.4,8.1,9.7,8.1H16c0.3,0,0.7,0.2,0.8,0.5
	l1.1,2.7c0.1,0.3,0,0.5-0.4,0.5H8.1C7.8,11.9,7.6,11.6,7.7,11.3z M10.3,14.7c0,0.2-0.1,0.3-0.3,0.3H7.8c-0.2,0-0.3-0.1-0.3-0.3v-1
	c0-0.2,0.1-0.3,0.3-0.3H10c0.2,0,0.3,0.1,0.3,0.3L10.3,14.7L10.3,14.7z M18.2,14.7c0,0.2-0.1,0.3-0.3,0.3h-2.2
	c-0.2,0-0.3-0.1-0.3-0.3v-1c0-0.2,0.1-0.3,0.3-0.3h2.2c0.2,0,0.3,0.1,0.3,0.3V14.7z"/>
</svg>
