<svg width="56" height="56" viewBox="0 0 56 56" fill="none" xmlns="http://www.w3.org/2000/svg">
<path d="M1.82 38.1573C1.85062 38.5423 2.12975 38.8617 2.50775 38.9431L5.55712 39.6011C5.66475 40.1208 5.80125 40.6336 5.96662 41.1341L3.65838 43.2253C3.37225 43.4843 3.29 43.9008 3.45625 44.25C3.878 45.1372 4.34787 45.9571 4.85275 46.6868C5.0715 47.0036 5.47225 47.1401 5.84063 47.022L8.80425 46.0673C9.15863 46.4646 9.53575 46.8417 9.933 47.1961L8.97837 50.1597C8.86025 50.5263 8.99587 50.928 9.3135 51.1476C10.0433 51.6525 10.8631 52.1223 11.7504 52.5441C12.1004 52.7103 12.516 52.6272 12.775 52.342L14.8663 50.0337C15.3676 50.1982 15.8804 50.3356 16.4001 50.4432L17.0581 53.4926C17.1395 53.8697 17.4589 54.1488 17.843 54.1803C18.3085 54.2171 18.7749 54.2503 19.25 54.2503C19.7251 54.2503 20.1915 54.2171 20.657 54.1803C21.042 54.1497 21.3614 53.8706 21.4428 53.4926L22.1007 50.4432C22.6205 50.3356 23.1341 50.1991 23.6346 50.0337L25.7259 52.342C25.9857 52.6281 26.4023 52.7112 26.7505 52.5441C27.6378 52.1223 28.4576 51.6516 29.1874 51.1476C29.505 50.928 29.6406 50.5263 29.5225 50.1597L28.5679 47.1961C28.9651 46.8417 29.3422 46.4646 29.6966 46.0682L32.6602 47.0228C33.0269 47.1418 33.4285 47.0053 33.6481 46.6877C34.153 45.958 34.6229 45.1381 35.0446 44.2508C35.2109 43.9017 35.1286 43.4852 34.8425 43.2262L32.5342 41.135C32.6987 40.6336 32.8361 40.1208 32.9438 39.6011L35.9931 38.9431C36.3702 38.8617 36.6494 38.5423 36.6809 38.1582C36.7168 37.6918 36.75 37.2255 36.75 36.7503C36.75 36.2752 36.7167 35.8088 36.68 35.3433C36.6494 34.9583 36.3703 34.639 35.9922 34.5576L32.9429 33.8996C32.8352 33.3798 32.6987 32.8662 32.5334 32.3657L34.8416 30.2745C35.1278 30.0155 35.21 29.599 35.0438 29.2498C34.622 28.3626 34.1512 27.5427 33.6472 26.813C33.4276 26.4953 33.026 26.3588 32.6594 26.4778L29.6957 27.4325C29.3414 27.0352 28.9642 26.6581 28.567 26.3037L29.5216 23.3401C29.6397 22.9735 29.5041 22.5718 29.1865 22.3522C28.4567 21.8473 27.6369 21.3775 26.7496 20.9557C26.3996 20.7886 25.984 20.8717 25.725 21.1578L23.6338 23.4661C23.1324 23.3016 22.6196 23.1642 22.0999 23.0566L21.4419 20.0072C21.3605 19.6301 21.0411 19.351 20.657 19.3195C19.7251 19.2442 18.774 19.246 17.8421 19.3195C17.4571 19.3501 17.1377 19.6292 17.0564 20.0072L16.3984 23.0566C15.8786 23.1642 15.3659 23.3007 14.8654 23.4661L12.7741 21.1578C12.5151 20.8717 12.0995 20.7895 11.7495 20.9557C10.8623 21.3775 10.0424 21.8473 9.31262 22.3522C8.995 22.5718 8.85938 22.9735 8.9775 23.3401L9.93213 26.3037C9.53487 26.6581 9.15775 27.0352 8.80337 27.4325L5.84063 26.4778C5.47313 26.3588 5.0715 26.4953 4.85275 26.813C4.34787 27.5427 3.878 28.3626 3.45625 29.2498C3.29 29.599 3.37225 30.0155 3.65838 30.2745L5.96662 32.3657C5.80212 32.8671 5.66475 33.3798 5.55712 33.8996L2.50775 34.5576C2.13062 34.639 1.8515 34.9583 1.82 35.3425C1.78325 35.8088 1.75 36.2752 1.75 36.7503C1.75 37.2255 1.78325 37.6918 1.82 38.1573ZM3.51837 36.13L6.49512 35.4868C6.84687 35.4107 7.11638 35.1272 7.17413 34.772C7.30538 33.9652 7.51713 33.1733 7.80325 32.4173C7.931 32.0813 7.83913 31.7007 7.57225 31.4592L5.32438 29.4222C5.52038 29.0468 5.72512 28.6872 5.93687 28.3468L8.82088 29.2761C9.16213 29.3855 9.53837 29.2761 9.76675 28.9978C10.283 28.3661 10.8658 27.7842 11.4975 27.2671C11.7758 27.0396 11.8869 26.6642 11.7758 26.3212L10.8465 23.4372C11.1869 23.2246 11.5456 23.0198 11.9219 22.8247L13.9589 25.0735C14.2013 25.3403 14.5827 25.4322 14.9179 25.3045C15.6721 25.0183 16.464 24.8066 17.2716 24.6753C17.6269 24.6176 17.9104 24.3481 17.9865 23.9963L18.6287 21.0196C19.0409 20.9977 19.46 20.9968 19.8704 21.0196L20.5135 23.9963C20.5896 24.3481 20.8731 24.6176 21.2284 24.6753C22.0351 24.8066 22.827 25.0183 23.583 25.3045C23.9172 25.4322 24.2987 25.3412 24.5411 25.0735L26.5781 22.8256C26.9535 23.0216 27.3131 23.2263 27.6535 23.4381L26.7243 26.3221C26.614 26.6651 26.7243 27.0396 27.0025 27.268C27.6343 27.7842 28.2161 28.367 28.7333 28.9987C28.9616 29.2778 29.337 29.389 29.6791 29.277L32.5631 28.3477C32.7757 28.6881 32.9805 29.0468 33.1756 29.4222L30.9269 31.4592C30.66 31.7007 30.5681 32.0813 30.6959 32.4182C30.982 33.1725 31.1937 33.9643 31.325 34.772C31.3827 35.1272 31.6523 35.4107 32.004 35.4868L34.9808 36.1291C34.9921 36.3347 35 36.5421 35 36.7503C35 36.9586 34.993 37.166 34.9816 37.3707L32.0049 38.0138C31.6531 38.09 31.3836 38.3735 31.3259 38.7287C31.1946 39.5355 30.9829 40.3273 30.6968 41.0833C30.569 41.4193 30.6609 41.8 30.9277 42.0415L33.1756 44.0785C32.9796 44.4538 32.7749 44.8135 32.5631 45.1538L29.6791 44.2246C29.3352 44.1126 28.9616 44.2237 28.7333 44.5028C28.2179 45.1328 27.6351 45.7156 27.0025 46.2336C26.7243 46.4611 26.614 46.8365 26.7243 47.1786L27.6535 50.0626C27.3131 50.2752 26.9544 50.48 26.579 50.6751L24.542 48.4263C24.3005 48.1595 23.9199 48.0693 23.583 48.1953C22.8288 48.4815 22.0369 48.6932 21.2292 48.8245C20.874 48.8822 20.5905 49.1517 20.5144 49.5035L19.8721 52.4802C19.46 52.5021 19.0409 52.503 18.6305 52.4802L17.9874 49.5035C17.9112 49.1517 17.6277 48.8822 17.2725 48.8245C16.4657 48.6932 15.6739 48.4815 14.9179 48.1953C14.5827 48.0676 14.2013 48.1586 13.9598 48.4263L11.9228 50.6742C11.5474 50.4782 11.1877 50.2735 10.8474 50.0617L11.7766 47.1777C11.8869 46.8347 11.7766 46.4602 11.4984 46.2318C10.8666 45.7156 10.2847 45.1328 9.76762 44.5011C9.53925 44.222 9.163 44.1117 8.82175 44.2228L5.93775 45.1521C5.72512 44.8117 5.52038 44.453 5.32525 44.0767L7.574 42.0397C7.84088 41.7982 7.93275 41.4176 7.805 41.0807C7.51888 40.3265 7.30713 39.5346 7.17588 38.727C7.11812 38.3717 6.84863 38.0882 6.49688 38.0121L3.51837 37.3716C3.50787 37.166 3.5 36.9586 3.5 36.7503C3.5 36.5421 3.507 36.3347 3.51837 36.13Z" fill="#E22427"/>
<path d="M47.4416 14.2052C47.7706 14.1019 48.0086 13.8141 48.048 13.4711C48.1005 13.0292 48.125 12.6293 48.125 12.2496C48.125 11.8698 48.1005 11.4699 48.0489 11.0281C48.0095 10.6851 47.7715 10.3972 47.4425 10.2939L45.0161 9.53181C44.9435 9.33319 44.863 9.13806 44.7746 8.94731L45.9506 6.69419C46.1099 6.38881 46.0749 6.01781 45.8614 5.74656C45.3547 5.10606 44.772 4.52331 44.1297 4.01494C43.8585 3.80056 43.4875 3.76644 43.1821 3.92481L40.9272 5.10081C40.7365 5.01331 40.5414 4.93281 40.3427 4.86019L39.5806 2.43381C39.4774 2.10481 39.1895 1.86681 38.8465 1.82744C37.961 1.72419 37.2881 1.72419 36.4026 1.82744C36.0596 1.86681 35.7717 2.10481 35.6685 2.43381L34.9064 4.86019C34.7078 4.93281 34.5126 5.01331 34.3219 5.10169L32.0688 3.92569C31.7634 3.76731 31.3933 3.80144 31.1211 4.01494C30.4806 4.52156 29.8979 5.10431 29.3895 5.74656C29.1751 6.01781 29.1401 6.38794 29.2994 6.69419L30.4745 8.94731C30.387 9.13806 30.3065 9.33319 30.2339 9.53181L27.8075 10.2939C27.4785 10.3972 27.2405 10.6851 27.2011 11.0281C27.1495 11.4699 27.125 11.8698 27.125 12.2496C27.125 12.6293 27.1495 13.0292 27.2011 13.4711C27.2405 13.8141 27.4785 14.1019 27.8075 14.2052L30.2339 14.9673C30.3065 15.1659 30.387 15.3611 30.4754 15.5518L29.2994 17.8049C29.1401 18.1103 29.1751 18.4813 29.3886 18.7526C29.8953 19.3931 30.478 19.9758 31.1203 20.4842C31.3906 20.6986 31.7625 20.7327 32.0679 20.5743L34.321 19.3992C34.5117 19.4867 34.7069 19.5672 34.9055 19.6398L35.6676 22.0662C35.7709 22.3952 36.0588 22.6332 36.4018 22.6726C36.8454 22.7251 37.2452 22.7496 37.625 22.7496C38.0048 22.7496 38.4046 22.7251 38.8465 22.6734C39.1895 22.6341 39.4774 22.3961 39.5806 22.0671L40.3427 19.6407C40.5414 19.5681 40.7365 19.4876 40.9272 19.3992L43.1804 20.5752C43.4857 20.7344 43.8567 20.7003 44.128 20.4859C44.7685 19.9793 45.3512 19.3966 45.8596 18.7543C46.074 18.4831 46.109 18.1129 45.9497 17.8067L44.7737 15.5536C44.8621 15.3628 44.9426 15.1677 45.0152 14.9691L47.4416 14.2052ZM44.0641 13.4317C43.7876 13.5192 43.5724 13.7371 43.4884 14.0153C43.3694 14.4108 43.2119 14.7914 43.0211 15.1476C42.8837 15.4031 42.8811 15.7102 43.0159 15.9666L44.1263 18.0946C43.9189 18.3247 43.6993 18.5443 43.47 18.7508L41.342 17.6404C41.0848 17.5057 40.7776 17.5092 40.523 17.6457C40.1669 17.8364 39.7863 17.9939 39.3908 18.1129C39.1134 18.1961 38.8946 18.4122 38.8071 18.6887L38.0861 20.9847C37.7668 21.0039 37.4841 21.0039 37.1639 20.9847L36.4429 18.6887C36.3554 18.4122 36.1375 18.1969 35.8592 18.1129C35.4629 17.9939 35.0822 17.8364 34.7279 17.6457C34.4724 17.5083 34.1652 17.5057 33.908 17.6404L31.78 18.7508C31.5499 18.5434 31.3302 18.3238 31.1237 18.0946L32.2341 15.9666C32.368 15.7102 32.3663 15.4022 32.2289 15.1476C32.0381 14.7914 31.8806 14.4108 31.7616 14.0153C31.6785 13.7379 31.4624 13.5192 31.1859 13.4317L28.8899 12.7107C28.8794 12.5506 28.875 12.3974 28.875 12.2496C28.875 12.1017 28.8794 11.9486 28.8899 11.7884L31.1859 11.0674C31.4624 10.9799 31.6776 10.7621 31.7616 10.4838C31.8806 10.0874 32.0381 9.70681 32.2289 9.35244C32.3663 9.09694 32.3689 8.78981 32.2341 8.53256L31.1237 6.40456C31.3311 6.17444 31.5507 5.95481 31.78 5.74831L33.908 6.85869C34.1644 6.99256 34.4724 6.98994 34.727 6.85344C35.0831 6.66269 35.4637 6.50519 35.8592 6.38619C36.1366 6.30306 36.3554 6.08694 36.4429 5.81044L37.1639 3.51444C37.4832 3.49519 37.7659 3.49519 38.0861 3.51444L38.8071 5.81044C38.8946 6.08694 39.1125 6.30219 39.3908 6.38619C39.7871 6.50519 40.1678 6.66269 40.5221 6.85344C40.7776 6.99081 41.0848 6.99344 41.342 6.85869L43.47 5.74831C43.7001 5.95569 43.9198 6.17531 44.1263 6.40456L43.0159 8.53256C42.882 8.78894 42.8837 9.09694 43.0211 9.35156C43.2119 9.70769 43.3694 10.0883 43.4884 10.4838C43.5715 10.7612 43.7876 10.9799 44.0641 11.0674L46.3601 11.7884C46.3706 11.9486 46.375 12.1017 46.375 12.2496C46.375 12.3974 46.3706 12.5506 46.3601 12.7107L44.0641 13.4317Z" fill="#E22427"/>
<path d="M53.6043 30.5928L52.101 30.0591C52.0152 29.815 51.9173 29.5761 51.8061 29.3442L52.4895 27.9048C52.6321 27.6056 52.5928 27.2521 52.388 26.9913C51.9505 26.4322 51.4447 25.9256 50.8839 25.4863C50.6222 25.2816 50.267 25.2431 49.9695 25.3848L48.5293 26.0682C48.2983 25.958 48.0594 25.8591 47.8153 25.7742L47.2806 24.271C47.1695 23.9586 46.8904 23.7355 46.5614 23.6952C45.7818 23.6016 45.2174 23.6016 44.4377 23.6952C44.1087 23.7346 43.8296 23.9577 43.7185 24.271L43.1848 25.7742C42.9406 25.86 42.7017 25.958 42.4699 26.0691L41.0305 25.3857C40.733 25.244 40.3786 25.2833 40.117 25.4872C39.5579 25.9247 39.0512 26.4305 38.612 26.9913C38.4081 27.2521 38.3688 27.6065 38.5105 27.9057L39.1939 29.346C39.0836 29.577 38.9848 29.8158 38.8999 30.06L37.3966 30.5946C37.0842 30.7057 36.8611 30.9848 36.8209 31.3138C36.7728 31.7015 36.75 32.0488 36.75 32.3743C36.75 32.6998 36.7728 33.0463 36.82 33.4357C36.8594 33.7647 37.0825 34.0438 37.3957 34.155L38.899 34.6887C38.9848 34.9328 39.0827 35.1717 39.1939 35.4036L38.5105 36.843C38.3679 37.1422 38.4072 37.4957 38.612 37.7565C39.0495 38.3156 39.5553 38.8222 40.1161 39.2615C40.3769 39.4653 40.7321 39.5047 41.0305 39.363L42.4707 38.6796C42.7017 38.7898 42.9406 38.8887 43.1848 38.9736L43.7194 40.4768C43.8305 40.7892 44.1096 41.0123 44.4386 41.0526C44.828 41.1016 45.1745 41.1243 45.5 41.1243C45.8255 41.1243 46.172 41.1016 46.5614 41.0543C46.8904 41.015 47.1695 40.7918 47.2806 40.4786L47.8144 38.9753C48.0585 38.8896 48.2974 38.7916 48.5293 38.6805L49.9686 39.3638C50.267 39.5065 50.6223 39.468 50.8821 39.2623C51.4413 38.8248 51.9479 38.3191 52.3871 37.7582C52.591 37.4975 52.6304 37.1431 52.4886 36.8438L51.8053 35.4036C51.9155 35.1726 52.0144 34.9337 52.0992 34.6896L53.6025 34.155C53.9149 34.0438 54.138 33.7647 54.1782 33.4357C54.2272 33.0463 54.25 32.6998 54.25 32.3743C54.25 32.0488 54.2272 31.7023 54.18 31.313C54.1406 30.9831 53.9175 30.7048 53.6043 30.5928ZM52.4913 32.6937L51.1044 33.1863C50.8357 33.2817 50.6301 33.5022 50.554 33.777C50.4394 34.1926 50.2758 34.589 50.0684 34.9556C49.9284 35.2032 49.9179 35.5042 50.0395 35.7615L50.6677 37.0853C50.5225 37.2446 50.3702 37.3968 50.2119 37.5412L48.888 36.913C48.6325 36.7913 48.3306 36.8018 48.0821 36.9418C47.7146 37.1501 47.3182 37.3128 46.9044 37.4275C46.6296 37.5036 46.4091 37.7092 46.3129 37.9778L45.8203 39.3647C45.6085 39.3761 45.3933 39.3761 45.1815 39.3647L44.6889 37.9778C44.5935 37.7092 44.373 37.5036 44.0982 37.4275C43.6826 37.3128 43.2862 37.1492 42.9196 36.9418C42.672 36.8027 42.3719 36.7922 42.1138 36.913L40.7899 37.5412C40.6306 37.396 40.4784 37.2437 40.334 37.0853L40.9622 35.7615C41.0847 35.5042 41.0734 35.2032 40.9334 34.9556C40.7251 34.5881 40.5624 34.1917 40.4478 33.7778C40.3716 33.5031 40.166 33.2826 39.8974 33.1863L38.5105 32.6937C38.5035 32.5878 38.5 32.482 38.5 32.3743C38.5 32.2667 38.5035 32.16 38.5087 32.055L39.8956 31.5615C40.1643 31.4661 40.3699 31.2456 40.4451 30.9708C40.5606 30.5543 40.7242 30.1588 40.9316 29.7922C41.0716 29.5446 41.0821 29.2436 40.9605 28.9863L40.3323 27.6625C40.4775 27.5032 40.6298 27.351 40.7881 27.2066L42.112 27.8348C42.3692 27.9573 42.6702 27.9468 42.9179 27.806C43.2854 27.5977 43.6818 27.435 44.0956 27.3203C44.3704 27.2442 44.5909 27.0386 44.6871 26.77L45.1797 25.3831C45.3915 25.3717 45.6067 25.3717 45.8185 25.3831L46.3111 26.77C46.4065 27.0386 46.627 27.2442 46.9018 27.3203C47.3174 27.435 47.7138 27.5986 48.0804 27.806C48.3289 27.9468 48.629 27.9573 48.8862 27.8348L50.2101 27.2066C50.3694 27.3518 50.5216 27.5041 50.666 27.6625L50.0378 28.9863C49.9153 29.2436 49.9266 29.5446 50.0666 29.7922C50.2749 30.1597 50.4376 30.5561 50.5522 30.97C50.6284 31.2447 50.834 31.4652 51.1026 31.5615L52.4895 32.0541C52.4965 32.1608 52.5 32.2667 52.5 32.3743C52.5 32.482 52.4965 32.5878 52.4913 32.6937Z" fill="#E22427"/>
<path d="M19.25 46.375C24.5569 46.375 28.875 42.0569 28.875 36.75C28.875 31.4431 24.5569 27.125 19.25 27.125C13.9431 27.125 9.625 31.4431 9.625 36.75C9.625 42.0569 13.9431 46.375 19.25 46.375ZM19.25 28.875C23.5918 28.875 27.125 32.4082 27.125 36.75C27.125 41.0918 23.5918 44.625 19.25 44.625C14.9082 44.625 11.375 41.0918 11.375 36.75C11.375 32.4082 14.9082 28.875 19.25 28.875Z" fill="#E22427"/>
<path d="M1.76953 22.1886L3.11353 23.3095C7.12016 18.5049 13.001 15.7495 19.2503 15.7495C19.6957 15.7495 20.1402 15.7749 20.5847 15.8029L19.5067 16.8809L20.7439 18.1181L23.3689 15.4931C23.711 15.151 23.711 14.598 23.3689 14.2559L20.7439 11.6309L19.5067 12.8681L20.6958 14.0572C20.2145 14.0266 19.7324 13.9995 19.2503 13.9995C12.4813 13.9995 6.10953 16.9841 1.76953 22.1886Z" fill="#E22427"/>
<path d="M37.625 7.875C35.2126 7.875 33.25 9.83763 33.25 12.25C33.25 14.6624 35.2126 16.625 37.625 16.625C40.0374 16.625 42 14.6624 42 12.25C42 9.83763 40.0374 7.875 37.625 7.875ZM37.625 14.875C36.1777 14.875 35 13.6972 35 12.25C35 10.8027 36.1777 9.625 37.625 9.625C39.0722 9.625 40.25 10.8027 40.25 12.25C40.25 13.6972 39.0722 14.875 37.625 14.875Z" fill="#E22427"/>
<path d="M45.5 28.875C43.5697 28.875 42 30.4447 42 32.375C42 34.3053 43.5697 35.875 45.5 35.875C47.4303 35.875 49 34.3053 49 32.375C49 30.4447 47.4303 28.875 45.5 28.875ZM45.5 34.125C44.5349 34.125 43.75 33.3401 43.75 32.375C43.75 31.4099 44.5349 30.625 45.5 30.625C46.4651 30.625 47.25 31.4099 47.25 32.375C47.25 33.3401 46.4651 34.125 45.5 34.125Z" fill="#E22427"/>
<path d="M53.5465 4.39258L49.1715 3.51758C48.6955 3.42133 48.2361 3.7302 48.1416 4.20358L47.2666 8.57858L48.9825 8.92245L49.4541 6.56695C50.302 8.33095 50.75 10.2752 50.75 12.2501C50.75 15.2671 49.7542 18.1038 47.8712 20.4532L49.2371 21.5478C51.3415 18.922 52.5 15.6206 52.5 12.2501C52.5 9.95845 51.9706 7.6992 50.9635 5.66045L53.2035 6.10845L53.5465 4.39258Z" fill="#E22427"/>
</svg>
