<svg width="55" height="55" viewBox="0 0 55 55" fill="none" xmlns="http://www.w3.org/2000/svg">
<g clip-path="url(#clip0_1212:857)">
<path d="M24.0625 48.1256H8.02083C7.38833 48.1256 6.875 47.6123 6.875 46.9798V5.72982C6.875 5.09732 7.38833 4.58398 8.02083 4.58398H37.8125C38.445 4.58398 38.9583 5.09732 38.9583 5.72982V24.0632C38.9583 24.6957 38.445 25.209 37.8125 25.209C37.18 25.209 36.6667 24.6957 36.6667 24.0632V6.87565H9.16667V45.834H24.0625C24.695 45.834 25.2083 46.3473 25.2083 46.9798C25.2083 47.6123 24.695 48.1256 24.0625 48.1256Z" fill="#E22427"/>
<path d="M19.4788 6.875H12.6038C11.9713 6.875 11.458 6.36167 11.458 5.72917V3.4375C11.458 1.54229 13.0003 0 14.8955 0H17.1872C19.0824 0 20.6247 1.54229 20.6247 3.4375V5.72917C20.6247 6.36167 20.1113 6.875 19.4788 6.875ZM13.7497 4.58333H18.333V3.4375C18.333 2.805 17.8197 2.29167 17.1872 2.29167H14.8955C14.263 2.29167 13.7497 2.805 13.7497 3.4375V4.58333Z" fill="#E22427"/>
<path d="M40.1038 6.87565H5.72884C5.09634 6.87565 4.58301 6.36232 4.58301 5.72982C4.58301 5.09732 5.09634 4.58398 5.72884 4.58398H40.1038C40.7363 4.58398 41.2497 5.09732 41.2497 5.72982C41.2497 6.36232 40.7363 6.87565 40.1038 6.87565Z" fill="#E22427"/>
<path d="M24.0622 48.1256H5.72884C5.09634 48.1256 4.58301 47.6123 4.58301 46.9798C4.58301 46.3473 5.09634 45.834 5.72884 45.834H24.0622C24.6947 45.834 25.208 46.3473 25.208 46.9798C25.208 47.6123 24.6947 48.1256 24.0622 48.1256Z" fill="#E22427"/>
<path d="M33.2288 27.5007H5.72884C5.09634 27.5007 4.58301 26.9873 4.58301 26.3548C4.58301 25.7223 5.09634 25.209 5.72884 25.209H33.2288C33.8613 25.209 34.3747 25.7223 34.3747 26.3548C34.3747 26.9873 33.8613 27.5007 33.2288 27.5007Z" fill="#E22427"/>
<path d="M40.1045 55.0004C34.4189 55.0004 29.792 50.3735 29.792 44.6879C29.792 38.5921 38.8624 28.3185 39.2474 27.8854C39.6805 27.395 40.5262 27.395 40.9593 27.8854C41.3466 28.3185 50.417 38.5921 50.417 44.6879C50.417 50.3735 45.7901 55.0004 40.1045 55.0004ZM40.1045 30.4039C37.2651 33.7933 32.0837 40.7875 32.0837 44.6879C32.0837 49.1108 35.6816 52.7087 40.1045 52.7087C44.5274 52.7087 48.1253 49.1108 48.1253 44.6879C48.1253 40.7875 42.9439 33.7933 40.1045 30.4039Z" fill="#E22427"/>
</g>
<defs>
<clipPath id="clip0_1212:857">
<rect width="55" height="55" fill="white"/>
</clipPath>
</defs>
</svg>
