<svg width="31" height="31" viewBox="0 0 31 31" fill="none" xmlns="http://www.w3.org/2000/svg">
<path d="M27.3822 5.94141V6.97469H26.3489V5.94141H25.3156V6.97469H24.2823V5.94141H23.249V9.04127H24.2823V8.00798H25.3156V9.04127H26.3489V8.00798H27.3822V9.04127H28.4155V5.94141H27.3822Z" fill="#E22427"/>
<path d="M27.1407 2.48446C26.7132 2.37564 26.2733 2.32249 25.8321 2.32637C23.1802 2.32973 20.9603 4.33785 20.6921 6.97616H2.58321C1.15728 6.97784 0.00167909 8.13344 0 9.55937V26.0919C0.00167909 27.5179 1.15728 28.6735 2.58321 28.6752H28.4154C29.8413 28.6735 30.9969 27.5179 30.9986 26.0919V9.55937C30.9946 9.26966 30.9411 8.98273 30.8405 8.71104C31.5382 5.97 29.8818 3.18225 27.1407 2.48446ZM25.2957 3.37587C27.5591 3.07925 29.6343 4.67361 29.9309 6.93696C30.0037 7.49286 29.9627 8.05781 29.8103 8.59738C29.7538 8.79577 29.6823 8.98951 29.5964 9.17706C29.5737 9.22872 29.5484 9.27677 29.5241 9.32637C29.4519 9.47232 29.371 9.61375 29.2818 9.75001C29.259 9.78515 29.2379 9.82131 29.2136 9.85593C28.9745 10.1977 28.6852 10.5015 28.3554 10.757C28.3332 10.774 28.3105 10.79 28.2883 10.8086C28.1363 10.922 27.9767 11.0245 27.8104 11.1155C27.7907 11.1264 27.7716 11.1388 27.752 11.1491C27.1657 11.4594 26.513 11.623 25.8497 11.6259C25.765 11.6259 25.6792 11.6213 25.594 11.6156C25.5671 11.6156 25.5397 11.6156 25.5129 11.6115C24.8733 11.5508 24.2545 11.3517 23.6994 11.0282L23.6705 11.0106C23.1192 10.67 22.655 10.2055 22.3148 9.65392L22.3004 9.63015C22.1097 9.31597 21.9617 8.97789 21.8602 8.62476C21.855 8.60617 21.8509 8.58757 21.8457 8.56897C21.8063 8.42237 21.7751 8.27371 21.7522 8.12362C21.7465 8.08591 21.7398 8.04871 21.7347 8.01099C21.438 5.74771 23.0324 3.67248 25.2957 3.37587ZM24.2833 18.8589C24.2829 18.8589 24.2825 18.8589 24.2822 18.8589H17.0492C16.7639 18.8589 16.5326 19.0903 16.5326 19.3756V23.5087C16.5326 24.0794 16.07 24.542 15.4993 24.542C14.9286 24.542 14.466 24.0794 14.466 23.5087V21.1394L18.813 16.7924H24.2822C24.5675 16.7924 24.7989 16.561 24.7989 16.2757V12.5528C24.996 12.5933 25.1955 12.622 25.3961 12.6386C25.5418 12.652 25.6875 12.6592 25.8321 12.6592H25.8409H25.8637C26.014 12.6592 26.1644 12.6504 26.3131 12.637L26.4165 12.6256C26.4495 12.622 26.4826 12.6158 26.5157 12.6117C26.6076 12.5993 26.6996 12.5859 26.7905 12.5688C26.8158 12.5642 26.8422 12.5621 26.8665 12.5569V23.5087C26.8665 24.0794 26.4039 24.542 25.8332 24.542C25.2625 24.542 24.7999 24.0794 24.7999 23.5087V19.3756C24.7999 19.0903 24.5686 18.8589 24.2833 18.8589ZM6.71636 16.7924H13.9494C14.2347 16.7924 14.466 16.561 14.466 16.2757V12.1426C14.466 11.5719 14.9286 11.1093 15.4993 11.1093C16.07 11.1093 16.5326 11.5719 16.5326 12.1426V14.5119L12.1855 18.8589H6.71636C6.43104 18.8589 6.19972 19.0903 6.19972 19.3756V23.5087C6.19972 24.0794 5.73713 24.542 5.16643 24.542C4.59573 24.542 4.13314 24.0794 4.13314 23.5087V12.1426C4.13314 11.5719 4.59573 11.1093 5.16643 11.1093C5.73713 11.1093 6.19972 11.5719 6.19972 12.1426V16.2757C6.19972 16.5611 6.43104 16.7924 6.71636 16.7924ZM21.7961 10.7094L21.8023 10.7161C21.9157 10.857 22.0364 10.992 22.164 11.1202C22.1697 11.1264 22.1748 11.1336 22.181 11.1393L22.1914 11.1491L22.2063 11.1625C22.3329 11.2877 22.4657 11.4066 22.6042 11.5185L22.6155 11.5288L18.2339 15.9105L14.466 19.6783V19.3756C14.466 19.0903 14.2347 18.8589 13.9494 18.8589H13.6466L21.7961 10.7094ZM23.5021 12.1033C23.5879 12.1467 23.6772 12.1834 23.7656 12.2222V15.7591H19.8463L23.5021 12.1033ZM29.9653 26.0919C29.9653 26.948 29.2714 27.6419 28.4154 27.6419H2.58321C1.7272 27.6419 1.03329 26.948 1.03329 26.0919V9.55937C1.03329 8.70336 1.7272 8.00944 2.58321 8.00944H20.6916C20.6957 8.05284 20.705 8.09469 20.7101 8.13757C20.7153 8.18045 20.7231 8.22643 20.7298 8.27035C20.7602 8.47378 20.8024 8.67527 20.8564 8.87379L20.8605 8.88877C20.9232 9.10944 21.0006 9.32572 21.0919 9.53612C21.0966 9.54646 21.1018 9.55679 21.1064 9.56764C21.1441 9.65288 21.1798 9.73916 21.2221 9.82234L17.5659 13.4786V12.1426C17.5659 11.0013 16.6406 10.076 15.4993 10.076C14.358 10.076 13.4327 11.0013 13.4327 12.1426V15.7591H7.233V12.1426C7.233 11.0013 6.30776 10.076 5.16643 10.076C4.0251 10.076 3.09986 11.0013 3.09986 12.1426V23.5087C3.09986 24.6501 4.0251 25.5753 5.16643 25.5753C6.30776 25.5753 7.233 24.6501 7.233 23.5087V19.8922H13.4327V23.5087C13.4327 24.6501 14.358 25.5753 15.4993 25.5753C16.6406 25.5753 17.5659 24.6501 17.5659 23.5087V19.8922H23.7656V23.5087C23.7656 24.6501 24.6908 25.5753 25.8321 25.5753C26.9735 25.5753 27.8987 24.6501 27.8987 23.5087V12.2185C28.7175 11.8622 29.4296 11.2993 29.9653 10.5849V26.0919Z" fill="#E22427"/>
<path d="M3.09969 9.04297H2.06641V10.0763H3.09969V9.04297Z" fill="#E22427"/>
<path d="M3.09969 25.5742H2.06641V26.6075H3.09969V25.5742Z" fill="#E22427"/>
<path d="M28.9317 25.5742H27.8984V26.6075H28.9317V25.5742Z" fill="#E22427"/>
</svg>
