<svg width="29" height="28" viewBox="0 0 29 28" fill="none" xmlns="http://www.w3.org/2000/svg">
<path d="M28.7705 5.1944C28.6049 4.957 28.3383 4.81026 28.0488 4.79789L10.0986 4.02415C9.58356 4.00162 9.15317 4.39923 9.13116 4.91186C9.10927 5.4243 9.50624 5.85727 10.0188 5.87929L26.7538 6.6007L23.4633 16.8671H8.82044L6.17499 2.46283C6.11684 2.14713 5.90009 1.88375 5.60117 1.76648L1.26837 0.0642989C0.790842 -0.122659 0.251987 0.111896 0.064446 0.588843C-0.122771 1.06605 0.11172 1.60523 0.58899 1.79277L4.44154 3.30624L7.13368 17.9634C7.21482 18.404 7.59884 18.724 8.04703 18.724H8.49361L7.47386 21.5566C7.3885 21.7938 7.42367 22.0573 7.56892 22.2635C7.71398 22.4696 7.9499 22.5923 8.20174 22.5923H8.917C8.47379 23.0856 8.20174 23.735 8.20174 24.4492C8.20174 25.9852 9.45152 27.2346 10.9871 27.2346C12.5228 27.2346 13.7725 25.9852 13.7725 24.4492C13.7725 23.7351 13.5005 23.0856 13.0573 22.5923H19.1302C18.6868 23.0856 18.4148 23.735 18.4148 24.4492C18.4148 25.9852 19.6643 27.2346 21.2002 27.2346C22.7362 27.2346 23.9856 25.9852 23.9856 24.4492C23.9856 23.7351 23.7136 23.0856 23.2705 22.5923H24.1404C24.5678 22.5923 24.9141 22.2459 24.9141 21.8186C24.9141 21.3912 24.5677 21.0449 24.1404 21.0449H9.30264L10.1381 18.7238H24.1403C24.5441 18.7238 24.9013 18.4629 25.0243 18.0788L28.8929 6.00861C28.9818 5.73313 28.9362 5.43194 28.7705 5.1944ZM10.9872 25.6875C10.3045 25.6875 9.74921 25.1323 9.74921 24.4496C9.74921 23.7668 10.3045 23.2116 10.9872 23.2116C11.6699 23.2116 12.2251 23.7668 12.2251 24.4496C12.2251 25.1323 11.6699 25.6875 10.9872 25.6875ZM21.2002 25.6875C20.5175 25.6875 19.9623 25.1323 19.9623 24.4496C19.9623 23.7668 20.5175 23.2116 21.2002 23.2116C21.8829 23.2116 22.4381 23.7668 22.4381 24.4496C22.4381 25.1323 21.8829 25.6875 21.2002 25.6875Z" fill="#E22427"/>
</svg>
