<svg width="35" height="35" viewBox="0 0 35 35" fill="none" xmlns="http://www.w3.org/2000/svg">
<g clip-path="url(#clip0)">
<path d="M26.3769 31.222L25.5687 30.0097L24.5979 30.6569L25.3743 31.8215C23.1776 33.0272 20.694 33.7219 18.0833 33.813V32.6667H16.9166V33.8185C14.2842 33.7255 11.8085 33.0093 9.6339 31.809L10.402 30.6569L9.43126 30.0097L8.63348 31.2064C6.70002 29.9514 5.04853 28.2999 3.79349 26.3664L4.9902 25.5687L4.34306 24.5979L3.19091 25.366C1.9907 23.1914 1.27451 20.7157 1.18147 18.0833H2.91667V16.9167H1.18147C1.27451 14.2843 1.9907 11.8086 3.19098 9.63397L4.34314 10.4021L4.99027 9.43133L3.79356 8.63355C5.0486 6.70009 6.70009 5.0486 8.63355 3.79356L9.43133 4.99027L10.4021 4.34314L9.63397 3.19098C11.8086 1.99077 14.2843 1.27451 16.9167 1.18147V2.33333H18.0833V1.18694C20.694 1.27801 23.1777 1.97269 25.3744 3.17844L24.598 4.34306L25.5687 4.9902L26.3769 3.77789C28.7943 5.34217 30.8018 7.54884 32.1441 10.2576L33.1894 9.7397C30.2123 3.73217 24.2007 0 17.5 0C7.8505 0 0 7.8505 0 17.5C0 27.1495 7.8505 35 17.5 35C24.2007 35 30.2123 31.2678 33.1893 25.2602L32.144 24.7424C30.8017 27.4512 28.7943 29.6578 26.3769 31.222Z" fill="#E22427"/>
<path d="M34.4168 13.4173H29.2351C27.7748 10.8894 25.0985 9.33398 22.1667 9.33398C19.1156 9.33398 16.341 11.0187 14.926 13.7309C14.8317 13.9118 14.8386 14.1285 14.9445 14.3032C15.0502 14.4775 15.2393 14.5841 15.4433 14.5841H21.3419L24.2585 17.5007L21.3419 20.4174H15.4433C15.2393 20.4174 15.0502 20.5239 14.9445 20.6983C14.8386 20.8729 14.8317 21.0896 14.926 21.2705C16.3411 23.9826 19.1156 25.6673 22.1668 25.6673C25.0985 25.6673 27.7748 24.1119 29.2352 21.584H34.4168C34.7389 21.584 35.0001 21.3228 35.0001 21.0007V14.0007C35.0001 13.6785 34.7389 13.4173 34.4168 13.4173ZM33.8334 20.4173H28.8902C28.6729 20.4173 28.4735 20.5381 28.3729 20.7309C27.1599 23.0562 24.7818 24.5007 22.1668 24.5007C19.8884 24.5007 17.7901 23.4044 16.4849 21.584H21.5834C21.7381 21.584 21.8865 21.5224 21.9958 21.4131L25.4958 17.9131C25.7237 17.6852 25.7237 17.316 25.4958 17.0882L21.9958 13.5882C21.8865 13.4788 21.7381 13.4172 21.5834 13.4172H16.4849C17.79 11.5969 19.8884 10.5006 22.1668 10.5006C24.7818 10.5006 27.1599 11.945 28.3729 14.2703C28.4735 14.4632 28.6728 14.5839 28.8902 14.5839H33.8334V20.4173Z" fill="#E22427"/>
<path d="M17.5 15.75C16.535 15.75 15.75 16.535 15.75 17.5C15.75 18.465 16.535 19.25 17.5 19.25C18.465 19.25 19.25 18.465 19.25 17.5C19.25 16.535 18.465 15.75 17.5 15.75ZM17.5 18.0833C17.1784 18.0833 16.9167 17.8216 16.9167 17.5C16.9167 17.1784 17.1784 16.9167 17.5 16.9167C17.8216 16.9167 18.0833 17.1784 18.0833 17.5C18.0833 17.8216 17.8216 18.0833 17.5 18.0833Z" fill="#E22427"/>
<path d="M17.5 28.5833C17.1059 28.5833 16.7169 28.561 16.3333 28.5206V24.2704C16.3333 24.0044 16.1533 23.7719 15.8955 23.7056C15.2854 23.5484 14.7035 23.3023 14.1654 22.9739C13.9361 22.8337 13.6399 22.869 13.4491 23.0593L10.457 26.0515C9.90733 25.5979 9.40202 25.0927 8.94848 24.5429L11.9406 21.5508C12.1311 21.3603 12.1665 21.0643 12.0261 20.8345C11.6977 20.2964 11.4516 19.7146 11.2944 19.1044C11.228 18.8466 10.9955 18.6666 10.7295 18.6666H6.47938C6.43905 18.283 6.41667 17.894 6.41667 17.4999C6.41667 17.1058 6.43905 16.7169 6.47938 16.3333H10.7296C10.9956 16.3333 11.2281 16.1532 11.2944 15.8955C11.4516 15.2851 11.6977 14.7029 12.0261 14.1657C12.1666 13.9355 12.1312 13.6396 11.9407 13.449L8.94855 10.4569C9.40209 9.90726 9.90733 9.40195 10.4571 8.94841L13.4492 11.9405C13.5617 12.0531 13.711 12.1115 13.8619 12.1115C13.9665 12.1115 14.0715 12.0835 14.1658 12.026C14.703 11.6976 15.2852 11.4515 15.8956 11.2943C16.1534 11.2279 16.3334 10.9955 16.3334 10.7295V6.47938C16.717 6.43905 17.106 6.41667 17.5001 6.41667C19.9205 6.41667 22.22 7.18288 24.1497 8.63239L24.8504 7.69927C22.717 6.09707 20.1752 5.25 17.5 5.25C10.7452 5.25 5.25 10.7452 5.25 17.5C5.25 24.2548 10.7452 29.75 17.5 29.75C20.1752 29.75 22.717 28.9029 24.8504 27.3007L24.1497 26.3676C22.2199 27.8171 19.9205 28.5833 17.5 28.5833ZM15.1667 6.66867V10.2915C14.7499 10.4263 14.3464 10.5966 13.9598 10.8014L11.4088 8.25052C12.5355 7.50597 13.8044 6.96194 15.1667 6.66867ZM8.25052 11.4088L10.8014 13.9598C10.5965 14.3464 10.4262 14.7499 10.2915 15.1667H6.66867C6.96194 13.8044 7.50597 12.5355 8.25052 11.4088ZM8.25052 23.5912C7.50604 22.4645 6.96194 21.1956 6.66867 19.8333H10.2915C10.4263 20.2498 10.5966 20.6534 10.8014 21.0402L8.25052 23.5912ZM15.1667 28.3313C13.8044 28.0381 12.5355 27.494 11.4088 26.7495L13.9598 24.1986C14.3466 24.4035 14.7502 24.5738 15.1667 24.7085V28.3313Z" fill="#E22427"/>
</g>
<defs>
<clipPath id="clip0">
<rect width="35" height="35" fill="white"/>
</clipPath>
</defs>
</svg>
