<svg width="37" height="37" viewBox="0 0 37 37" fill="none" xmlns="http://www.w3.org/2000/svg">
<g clip-path="url(#clip0)">
<path d="M37 10.5031V4.35258C36.998 2.65505 35.6223 1.27934 33.9247 1.27734H15.4733C13.7758 1.27934 12.4001 2.65505 12.3981 4.35258V9.91937C5.27606 10.1998 -0.270205 16.2005 0.0101793 23.3226C0.290564 30.4446 6.29135 35.9908 13.4134 35.7104C13.8394 35.6937 14.2644 35.6558 14.6867 35.597C14.9422 35.6731 15.2068 35.7144 15.4734 35.72H33.9248C35.6223 35.718 36.998 34.3423 37 32.6447V26.4943C36.998 24.7967 35.6223 23.421 33.9248 23.419H33.9088C34.3158 22.8899 34.5376 22.2415 34.5398 21.5739V15.4234C34.5376 14.7558 34.3158 14.1075 33.9088 13.5783H33.9248C35.6223 13.5762 36.9979 12.2006 37 10.5031ZM15.4733 2.50744H33.9247C34.9438 2.50744 35.7699 3.33352 35.7699 4.35258H13.6282C13.6282 3.33352 14.4543 2.50744 15.4733 2.50744ZM13.6282 5.58267H35.7699V6.81277H13.6282V5.58267ZM13.6282 8.04286H35.7699V9.27296H13.6282V8.04286ZM17.7982 33.4541C17.6079 33.539 17.4154 33.6188 17.2207 33.6934C17.1321 33.7278 17.0417 33.7598 16.9513 33.7924C10.8794 35.9712 4.19104 32.8153 2.01223 26.7435C-0.16657 20.6717 2.98939 13.9833 9.06114 11.8045C10.3291 11.3495 11.666 11.1173 13.0131 11.1181C13.3822 11.1181 13.7413 11.1396 14.0993 11.1728C14.2137 11.1839 14.3262 11.2005 14.44 11.214C14.6861 11.2442 14.9271 11.2805 15.167 11.3254C15.2962 11.35 15.4253 11.3758 15.5533 11.4041C15.7741 11.4539 15.9918 11.5117 16.2083 11.5732C16.3387 11.6108 16.4709 11.6446 16.6001 11.687C16.8098 11.7547 17.014 11.834 17.2151 11.9134C17.5313 12.0364 17.8425 12.1729 18.1482 12.3242C18.2386 12.3691 18.3327 12.4091 18.4206 12.4558C18.639 12.5708 18.8512 12.6982 19.064 12.8249C19.1341 12.8679 19.2048 12.9091 19.2743 12.9528C19.4877 13.0899 19.6975 13.2357 19.9041 13.387C19.9656 13.4313 20.0234 13.4756 20.0825 13.5205C20.2953 13.6845 20.5017 13.8532 20.7018 14.0267C20.7787 14.0937 20.8537 14.1632 20.9282 14.2321C21.0991 14.3889 21.2664 14.5494 21.427 14.7155C21.5358 14.8287 21.6398 14.9468 21.7443 15.0649C21.8673 15.2014 21.9903 15.3373 22.1041 15.4794C22.2388 15.6467 22.3643 15.8207 22.4904 15.9954C22.5703 16.1061 22.6546 16.2138 22.7309 16.3269C22.7795 16.3995 22.82 16.4776 22.8668 16.5514C23.0513 16.8393 23.2254 17.1345 23.3847 17.4451C23.4105 17.4955 23.4326 17.5478 23.4585 17.5982C23.6301 17.9476 23.79 18.3068 23.9308 18.6795C23.9407 18.7053 23.9499 18.7318 23.9597 18.7582C24.0907 19.1137 24.2057 19.4766 24.3023 19.845L24.3109 19.8782C24.4102 20.2635 24.4898 20.6535 24.5496 21.0468V21.0585C24.5914 21.3365 24.6215 21.5936 24.6449 21.8414C24.6707 22.1582 24.6935 22.4756 24.6935 22.7985C24.6926 23.1904 24.672 23.5821 24.632 23.972C24.632 24.0064 24.6221 24.0409 24.6184 24.0753C24.5858 24.3717 24.5385 24.6627 24.4844 24.9517C24.4604 25.0747 24.437 25.1978 24.4093 25.3208C24.3626 25.5317 24.306 25.739 24.2482 25.9457C24.1793 26.1892 24.1022 26.4313 24.0169 26.672C23.9819 26.771 23.9462 26.8688 23.9087 26.9666C23.7764 27.3123 23.6264 27.6512 23.4615 27.9827C23.4369 28.0331 23.4142 28.0848 23.389 28.1346C23.1987 28.5055 22.9889 28.866 22.7604 29.2146L22.7561 29.222C22.6731 29.345 22.5833 29.468 22.4965 29.591C22.3907 29.7374 22.2837 29.8832 22.1718 30.0216C22.082 30.136 21.991 30.2491 21.8969 30.3598C21.7283 30.5573 21.5549 30.7492 21.3741 30.9349C21.2849 31.0266 21.1896 31.1157 21.0998 31.2049C20.9325 31.3661 20.7606 31.5223 20.5844 31.6736C20.473 31.7689 20.3592 31.8581 20.2448 31.9516C20.0917 32.0746 19.9373 32.1884 19.7762 32.3022C19.6587 32.3858 19.5418 32.4719 19.4213 32.5519C19.2165 32.6866 19.0049 32.812 18.7915 32.9344C18.5898 33.0501 18.3837 33.1571 18.1764 33.2598C18.0565 33.3318 17.928 33.3957 17.7982 33.4541ZM25.8768 21.7707V21.7683C25.8713 21.7031 25.8731 21.636 25.867 21.5714H33.3097C33.3097 22.5905 32.4836 23.4166 31.4645 23.4166H25.9143C25.9242 23.2099 25.9291 23.0045 25.9291 22.8015C25.9291 22.4713 25.9094 22.1274 25.8768 21.7707ZM25.6874 20.3438C25.6054 19.926 25.5047 19.516 25.3854 19.1137H33.3097V20.3438H25.6874ZM24.9493 17.8836C24.7774 17.4635 24.5832 17.0529 24.3675 16.6535H33.3097V17.8836H24.9493ZM23.6067 15.4234C23.5095 15.285 23.3988 15.1571 23.2992 15.0224C23.1706 14.8533 23.0458 14.6804 22.9092 14.5175C22.817 14.4074 22.7155 14.3053 22.6195 14.1989C22.435 13.9916 22.2505 13.7849 22.05 13.59L22.0371 13.5783H31.4645C32.4836 13.5783 33.3097 14.4044 33.3097 15.4234H23.6067ZM33.9247 34.4899H18.4981C18.6162 34.4345 18.7306 34.3706 18.8475 34.3115C18.9828 34.2426 19.1205 34.1787 19.2528 34.1049C19.54 33.9468 19.8192 33.774 20.0942 33.5931C20.2067 33.5193 20.3156 33.4418 20.4251 33.365C20.6301 33.2207 20.8314 33.07 21.029 32.9129C21.1201 32.8403 21.2135 32.7708 21.3015 32.6964C21.323 32.6786 21.3458 32.6626 21.3667 32.6447H35.7699C35.7699 33.6637 34.9438 34.4899 33.9247 34.4899ZM35.7699 31.4147H22.6288C22.697 31.3384 22.7604 31.2572 22.8268 31.1791C22.9068 31.0856 22.9873 30.9946 23.0648 30.8968C23.2493 30.6649 23.4339 30.4287 23.6018 30.1846H35.7699V31.4147ZM35.7699 28.9545H24.3681C24.5838 28.5551 24.778 28.1444 24.95 27.7244H35.7699V28.9545ZM33.9247 24.6485V24.6491C34.9438 24.6491 35.7699 25.4752 35.7699 26.4943H25.3854C25.4032 26.4328 25.4155 26.3713 25.4328 26.3098C25.5066 26.0502 25.5761 25.7907 25.6339 25.5293C25.6634 25.3915 25.6856 25.2513 25.7108 25.1117C25.7391 24.9573 25.7723 24.8041 25.7963 24.6485H33.9247ZM20.5739 12.3482C20.5468 12.3285 20.5179 12.3119 20.4909 12.2922C20.3035 12.159 20.1124 12.0306 19.9176 11.9072C19.7989 11.8316 19.6778 11.7596 19.5566 11.6876C19.3758 11.5806 19.1962 11.4724 19.0092 11.3746C18.7177 11.22 18.4216 11.0765 18.1211 10.944C17.9981 10.8918 17.8751 10.8475 17.7521 10.7989C17.5159 10.7048 17.2779 10.6144 17.0368 10.5363C17.0042 10.5258 16.9753 10.5117 16.9402 10.5012H35.7699C35.7709 11.5203 34.9456 12.3472 33.9266 12.3482C33.926 12.3482 33.9253 12.3482 33.9247 12.3482H20.5739Z" fill="#E22427"/>
<path d="M22.3405 19.6953V19.6898C22.279 19.5089 22.2175 19.338 22.1492 19.1707C22.0994 19.0477 22.0471 18.9246 21.9923 18.8016C21.9837 18.7826 21.977 18.7641 21.969 18.7457C21.9481 18.6995 21.9228 18.6565 21.9007 18.6122C21.7912 18.3797 21.675 18.1515 21.5483 17.9301C21.5366 17.9098 21.5292 17.892 21.5163 17.8686C21.4948 17.8317 21.4665 17.7954 21.4443 17.7579C21.3127 17.5389 21.1756 17.3274 21.028 17.117C21.0126 17.0955 21.0003 17.0721 20.9849 17.0506C20.9548 17.0094 20.9197 16.9725 20.889 16.9319C20.7407 16.7326 20.5863 16.5389 20.4234 16.3519C20.4049 16.3304 20.3883 16.3058 20.3699 16.2849C20.3625 16.2763 20.352 16.2726 20.344 16.2646C18.9323 14.6747 17.0431 13.5853 14.9599 13.1598C14.7754 13.1229 14.605 13.1051 14.4297 13.0799C14.2913 13.0596 14.1554 13.0307 14.0152 13.0184C13.9438 13.011 13.8719 13.0134 13.8005 13.0079C13.5379 12.9839 13.2777 12.9648 13.0133 12.9648C12.7488 12.9648 12.4886 12.9839 12.2297 13.0048C12.1584 13.0104 12.0864 13.0048 12.0151 13.0153C11.8828 13.0288 11.7555 13.0559 11.6251 13.0768C11.4504 13.102 11.2819 13.1205 11.0956 13.1574H11.0919C8.98818 13.581 7.08084 14.6813 5.66101 16.2904C5.65485 16.2966 5.64686 16.2996 5.64132 16.3058C5.62718 16.3218 5.61549 16.339 5.60196 16.355C5.43713 16.5438 5.28152 16.74 5.13145 16.9411C5.10316 16.9793 5.06994 17.0155 5.04165 17.0537C5.02751 17.0727 5.01582 17.0949 5.00229 17.1152C4.85037 17.328 4.70953 17.5457 4.57176 17.7727C4.54838 17.8114 4.52132 17.8459 4.49857 17.8852C4.48442 17.9098 4.4715 17.9363 4.45736 17.9609C4.39585 18.0642 4.34173 18.1675 4.28637 18.2733C4.20334 18.4326 4.12216 18.5968 4.04343 18.769C4.03728 18.7832 4.03298 18.7979 4.02683 18.8121C3.90874 19.0766 3.80418 19.3472 3.70946 19.6233C3.70147 19.6467 3.69039 19.6689 3.6824 19.6928V19.7008C3.003 21.7147 3.003 23.8958 3.6824 25.9097C3.6824 25.9134 3.6824 25.9171 3.6824 25.9208C3.74021 26.0949 3.80541 26.2726 3.88044 26.4534C3.92903 26.5764 3.97947 26.6945 4.03298 26.8132C4.04159 26.8323 4.04774 26.8501 4.05635 26.8692C4.07111 26.9006 4.09079 26.9307 4.10555 26.9639C4.22241 27.2099 4.34665 27.456 4.48257 27.694C4.49242 27.7106 4.49918 27.7272 4.50902 27.7444C4.53055 27.7813 4.55823 27.817 4.57975 27.8539C4.7126 28.0747 4.85099 28.2906 4.99983 28.4997C5.01459 28.52 5.02566 28.5415 5.04042 28.5612C5.06871 28.6 5.10193 28.6356 5.13083 28.6738C5.28091 28.8749 5.43836 29.0705 5.60011 29.2593C5.6198 29.2814 5.63579 29.306 5.65547 29.3282C5.66346 29.3368 5.67392 29.3405 5.68192 29.3491C7.09376 30.9384 8.98264 32.0272 11.0654 32.4526C11.2499 32.4895 11.4203 32.5073 11.5956 32.5326C11.734 32.5529 11.8699 32.5818 12.0101 32.5941C12.341 32.6273 12.6768 32.6445 13.0084 32.6445C13.3399 32.6445 13.6757 32.6273 14.006 32.5941L14.0281 32.591C14.3295 32.5602 14.6315 32.5147 14.9777 32.4465C17.054 32.0192 18.9363 30.9321 20.344 29.3472C20.352 29.3392 20.3625 29.3356 20.3705 29.3269C20.3901 29.3048 20.4061 29.2802 20.4252 29.2581C20.5907 29.0686 20.7463 28.8724 20.8963 28.6707C20.9246 28.6326 20.9578 28.5975 20.9861 28.5587C21.0003 28.5397 21.012 28.5175 21.0255 28.4972C21.1768 28.2857 21.3164 28.0667 21.4505 27.8434C21.4745 27.8041 21.5022 27.7684 21.5255 27.7284C21.536 27.71 21.5446 27.6903 21.555 27.6718C21.6547 27.4978 21.7457 27.3188 21.8349 27.1386C21.8835 27.0463 21.9315 26.9541 21.9813 26.8434C21.988 26.8286 21.9917 26.8145 21.9985 26.8003C22.1123 26.5445 22.2131 26.2825 22.306 26.0161C22.3171 25.9835 22.3337 25.9503 22.3442 25.9183V25.9073C23.0233 23.8921 23.022 21.7097 22.3405 19.6953ZM15.4735 14.5578C16.762 14.9451 17.9417 15.6294 18.9177 16.5555L15.4735 18.5445V14.5578ZM10.5531 14.5578V18.5445L7.10882 16.5555C8.08483 15.6293 9.26449 14.9451 10.5531 14.5578ZM4.64433 24.7971C4.32205 23.4892 4.32205 22.1226 4.64433 20.8147L8.0929 22.8056L4.64433 24.7971ZM10.5531 31.0534C9.26456 30.666 8.08483 29.9819 7.10882 29.0557L10.5531 27.0666V31.0534ZM15.4735 31.0534V27.0666L18.9177 29.0557C17.9417 29.9818 16.762 30.666 15.4735 31.0534ZM20.9978 26.0143C20.9566 26.1152 20.9117 26.2179 20.865 26.3218C20.849 26.3575 20.8305 26.3913 20.8139 26.4264C20.7672 26.5239 20.7182 26.6201 20.6669 26.7148L20.5402 26.9609C20.5218 27.0002 20.4984 27.0433 20.4738 27.0882C20.4492 27.1331 20.4271 27.1644 20.4037 27.2032C20.285 27.4031 20.1577 27.6017 20.0187 27.7961C19.9381 27.9086 19.8557 28.02 19.7696 28.1288L15.1659 25.4688C14.8718 25.2989 14.4956 25.3997 14.3258 25.6939C14.2714 25.7881 14.243 25.8951 14.2434 26.0038V31.3178C14.1314 31.3345 14.022 31.3578 13.9082 31.3695H13.8879C13.306 31.4279 12.7199 31.4279 12.1381 31.3695H12.1202C12.0064 31.3578 11.8957 31.3345 11.7832 31.3178V26.0038C11.7832 25.6642 11.5078 25.3888 11.1681 25.3888C11.0602 25.3888 10.9541 25.4172 10.8606 25.4712L6.25699 28.1294C6.17334 28.0237 6.09277 27.9148 6.01097 27.8047C5.86766 27.6048 5.7342 27.3975 5.60565 27.181C5.58597 27.1478 5.56506 27.1195 5.54415 27.0832C5.42114 26.8717 5.31104 26.6527 5.20218 26.419C5.18311 26.3784 5.16159 26.339 5.14067 26.296C5.0997 26.2025 5.05987 26.1092 5.02136 26.0161L5.01521 25.9989L9.63052 23.3382C9.92466 23.1684 10.0255 22.7922 9.85562 22.4981C9.80165 22.4046 9.724 22.3269 9.63052 22.273L5.0232 19.6129V19.6086C5.06441 19.5053 5.10931 19.4013 5.15605 19.2961C5.17389 19.2574 5.19357 19.2193 5.21202 19.1805C5.31412 18.9622 5.42544 18.7438 5.55214 18.5224C5.57428 18.4843 5.59827 18.448 5.62041 18.4105C5.74342 18.2094 5.86643 18.0101 6.00789 17.8151C6.08785 17.7032 6.16965 17.5925 6.25391 17.4848L10.8606 20.1424C11.1548 20.3123 11.5309 20.2115 11.7008 19.9173C11.7552 19.8231 11.7836 19.7161 11.7832 19.6074V14.2933C11.8945 14.2774 12.004 14.254 12.1172 14.2423L12.1387 14.2392C12.7205 14.1808 13.3067 14.1808 13.8885 14.2392H13.9063C14.0201 14.2509 14.1308 14.2743 14.2434 14.2909V19.6074C14.2434 19.947 14.5188 20.2224 14.8584 20.2224C14.9664 20.2224 15.0725 20.194 15.1659 20.14L19.7702 17.4824C19.8522 17.5882 19.9329 17.6962 20.0125 17.8065C20.1552 18.0052 20.2887 18.213 20.4172 18.4295C20.4375 18.464 20.4597 18.4972 20.4787 18.5316C20.4978 18.5661 20.5205 18.6097 20.5402 18.6497L20.6632 18.8914C20.6921 18.9449 20.721 18.9991 20.7506 19.0557C20.7918 19.1405 20.8354 19.2248 20.8736 19.3115C20.916 19.4081 20.9578 19.5053 20.9966 19.608L16.396 22.273C16.1019 22.4428 16.0011 22.819 16.1709 23.1131C16.2249 23.2066 16.3025 23.2843 16.396 23.3382L19.2591 24.9915L21.0033 25.9983L20.9978 26.0143ZM21.3822 24.7965L17.9337 22.8056L21.3822 20.8147C21.7045 22.1224 21.7045 23.4888 21.3822 24.7965Z" fill="#E22427"/>
<path d="M13.0131 20.959C11.9941 20.959 11.168 21.7851 11.168 22.8041C11.168 23.8232 11.9941 24.6493 13.0131 24.6493C14.0322 24.6493 14.8583 23.8232 14.8583 22.8041C14.8583 21.7851 14.0322 20.959 13.0131 20.959ZM13.0131 23.4192C12.6734 23.4192 12.3981 23.1438 12.3981 22.8041C12.3981 22.4645 12.6734 22.1891 13.0131 22.1891C13.3528 22.1891 13.6282 22.4645 13.6282 22.8041C13.6282 23.1438 13.3528 23.4192 13.0131 23.4192Z" fill="#E22427"/>
</g>
<defs>
<clipPath id="clip0">
<rect width="37" height="37" fill="white"/>
</clipPath>
</defs>
</svg>
