<svg width="36" height="36" viewBox="0 0 36 36" fill="none" xmlns="http://www.w3.org/2000/svg">
<path d="M16.875 8.4375C14.7612 8.4375 12.6949 9.06431 10.9373 10.2387C9.1798 11.413 7.80995 13.0822 7.00104 15.0351C6.19213 16.988 5.98048 19.1369 6.39286 21.21C6.80524 23.2832 7.82313 25.1875 9.3178 26.6822C10.8125 28.1769 12.7168 29.1948 14.79 29.6071C16.8631 30.0195 19.012 29.8079 20.9649 28.999C22.9178 28.1901 24.587 26.8202 25.7613 25.0627C26.9357 23.3051 27.5625 21.2388 27.5625 19.125C27.56 16.2913 26.4332 13.5743 24.4294 11.5706C22.4257 9.56685 19.7087 8.44003 16.875 8.4375ZM16.875 28.6875C14.9837 28.6875 13.1349 28.1267 11.5624 27.0759C9.98982 26.0252 8.76417 24.5317 8.04041 22.7844C7.31664 21.0371 7.12727 19.1144 7.49625 17.2594C7.86522 15.4045 8.77596 13.7006 10.1133 12.3633C11.4506 11.026 13.1545 10.1152 15.0095 9.74624C16.8644 9.37727 18.7871 9.56664 20.5344 10.2904C22.2817 11.0142 23.7752 12.2398 24.8259 13.8124C25.8767 15.3849 26.4375 17.2337 26.4375 19.125C26.4339 21.66 25.4253 24.0902 23.6328 25.8828C21.8402 27.6753 19.41 28.6839 16.875 28.6875Z" fill="#E22427"/>
<path d="M16.875 10.6875C15.2062 10.6875 13.5749 11.1824 12.1874 12.1095C10.7998 13.0366 9.71838 14.3544 9.07977 15.8961C8.44116 17.4379 8.27407 19.1344 8.59963 20.7711C8.92519 22.4078 9.72878 23.9112 10.9088 25.0912C12.0888 26.2712 13.5922 27.0748 15.2289 27.4004C16.8656 27.7259 18.5621 27.5588 20.1039 26.9202C21.6456 26.2816 22.9634 25.2002 23.8905 23.8126C24.8177 22.4251 25.3125 20.7938 25.3125 19.125C25.3098 16.8881 24.42 14.7435 22.8383 13.1617C21.2565 11.58 19.1119 10.6902 16.875 10.6875ZM23.3831 15.8062C23.56 16.1499 23.7086 16.5073 23.8275 16.875H22.3088L23.3831 15.8062ZM19.125 12.1725C19.4927 12.2914 19.8501 12.44 20.1938 12.6169L19.125 13.6912V12.1725ZM14.625 12.1725V13.6912L13.5563 12.6169C13.8999 12.44 14.2573 12.2914 14.625 12.1725ZM10.3669 15.8062L11.4413 16.875H9.9225C10.0414 16.5073 10.19 16.1499 10.3669 15.8062ZM10.3669 22.4437C10.19 22.1001 10.0414 21.7427 9.9225 21.375H11.4413L10.3669 22.4437ZM14.625 26.0775C14.2544 25.9591 13.8949 25.8085 13.5506 25.6275L14.625 24.5531V26.0775ZM19.125 26.0775V24.5531L20.1994 25.6275C19.8551 25.8085 19.4956 25.9591 19.125 26.0775ZM23.3831 22.4437L22.3088 21.375H23.8275C23.7086 21.7427 23.56 22.1001 23.3831 22.4437ZM20.9475 20.25C20.8362 20.2496 20.7274 20.2826 20.6351 20.3448C20.5428 20.407 20.4714 20.4955 20.43 20.5987C20.3869 20.7012 20.3752 20.8141 20.3962 20.9232C20.4172 21.0323 20.4701 21.1328 20.5481 21.2119L22.7756 23.4281C22.3297 24.0372 21.7928 24.574 21.1838 25.02L18.9619 22.7981C18.8828 22.7201 18.7823 22.6672 18.6732 22.6462C18.5641 22.6252 18.4512 22.6369 18.3488 22.68C18.2455 22.7214 18.157 22.7928 18.0948 22.8851C18.0326 22.9774 17.9996 23.0862 18 23.1975V26.3419C17.2554 26.4694 16.4946 26.4694 15.75 26.3419V23.1975C15.7504 23.0862 15.7174 22.9774 15.6552 22.8851C15.593 22.7928 15.5046 22.7214 15.4013 22.68C15.2988 22.6369 15.1859 22.6252 15.0768 22.6462C14.9677 22.6672 14.8672 22.7201 14.7881 22.7981L12.5663 25.02C11.9572 24.574 11.4203 24.0372 10.9744 23.4281L13.2019 21.2119C13.2799 21.1328 13.3328 21.0323 13.3538 20.9232C13.3748 20.8141 13.3631 20.7012 13.32 20.5987C13.2786 20.4955 13.2072 20.407 13.1149 20.3448C13.0226 20.2826 12.9138 20.2496 12.8025 20.25H9.65813C9.53063 19.5054 9.53063 18.7446 9.65813 18H12.8025C12.9138 18.0004 13.0226 17.9674 13.1149 17.9052C13.2072 17.843 13.2786 17.7545 13.32 17.6512C13.3631 17.5488 13.3748 17.4359 13.3538 17.3268C13.3328 17.2177 13.2799 17.1172 13.2019 17.0381L10.9744 14.8219C11.4222 14.2109 11.9609 13.6722 12.5719 13.2244L14.7881 15.4519C14.8945 15.5568 15.0381 15.6154 15.1875 15.615C15.336 15.6128 15.4778 15.5529 15.5828 15.4478C15.6879 15.3428 15.7478 15.201 15.75 15.0525V11.9081C16.4946 11.7806 17.2554 11.7806 18 11.9081V15.0525C18.0022 15.201 18.0621 15.3428 18.1672 15.4478C18.2722 15.5529 18.414 15.6128 18.5625 15.615C18.7119 15.6154 18.8555 15.5568 18.9619 15.4519L21.1781 13.2244C21.7891 13.6722 22.3278 14.2109 22.7756 14.8219L20.5481 17.0381C20.4701 17.1172 20.4172 17.2177 20.3962 17.3268C20.3752 17.4359 20.3869 17.5488 20.43 17.6512C20.4714 17.7545 20.5428 17.843 20.6351 17.9052C20.7274 17.9674 20.8362 18.0004 20.9475 18H24.0919C24.2194 18.7446 24.2194 19.5054 24.0919 20.25H20.9475Z" fill="#E22427"/>
<path d="M26.6119 31.5066C29.5601 29.1902 31.5842 25.897 32.3195 22.2205C33.0548 18.5439 32.453 14.7256 30.6225 11.4535L33.1087 11.8078C33.1347 11.8125 33.1611 11.8144 33.1875 11.8135C33.292 11.8135 33.3944 11.7844 33.4832 11.7294C33.5721 11.6745 33.6439 11.5959 33.6906 11.5025C33.7373 11.4091 33.7571 11.3045 33.7477 11.2004C33.7383 11.0964 33.7002 10.997 33.6375 10.9135L32.3887 9.24846L34.5206 8.39908C34.6218 8.35888 34.7091 8.29018 34.772 8.20132C34.8349 8.11246 34.8707 8.00725 34.875 7.89846C34.88 7.7906 34.8534 7.68363 34.7984 7.59069C34.7435 7.49775 34.6626 7.4229 34.5656 7.37533L32.7937 6.48658L34.8244 1.91908C34.8712 1.81327 34.8843 1.69558 34.8618 1.58207C34.8393 1.46856 34.7823 1.36475 34.6987 1.28479C34.615 1.20483 34.5088 1.15262 34.3944 1.13527C34.2799 1.11791 34.163 1.13627 34.0594 1.18783L30.0037 3.21283L29.1544 1.94158C29.1011 1.85857 29.0266 1.79133 28.9385 1.74682C28.8505 1.70231 28.7522 1.68216 28.6537 1.68846C28.5552 1.69308 28.4598 1.72428 28.3776 1.77875C28.2954 1.83322 28.2295 1.90892 28.1869 1.99783L27.3094 3.74721L25.5656 2.87533C25.473 2.82945 25.3696 2.80983 25.2666 2.81861C25.1637 2.82738 25.0651 2.86422 24.9816 2.9251C24.8981 2.98599 24.8329 3.0686 24.793 3.16396C24.7532 3.25931 24.7403 3.36376 24.7556 3.46596L25.1325 5.72158C21.8717 3.71296 17.9906 2.96153 14.2158 3.60792C10.4409 4.25431 7.03099 6.25423 4.62426 9.23333C2.21753 12.2124 0.978961 15.9665 1.14039 19.7929C1.30181 23.6193 2.85216 27.2558 5.50125 30.0216C4.72028 30.2854 4.04128 30.7867 3.5592 31.4554C3.07711 32.124 2.81604 32.9266 2.8125 33.751H1.125V34.876H34.875V33.751H29.1937C29.0689 33.1456 28.7485 32.598 28.282 32.1925C27.8155 31.787 27.2287 31.546 26.6119 31.5066ZM27.3094 5.00158C27.375 5.03515 27.4467 5.05537 27.5203 5.06109C27.5938 5.06681 27.6677 5.05791 27.7378 5.0349C27.8079 5.01189 27.8727 4.97522 27.9286 4.92703C27.9844 4.87883 28.0301 4.82005 28.0631 4.75408L28.755 3.37033L29.3456 4.24783C29.4217 4.36203 29.5368 4.44451 29.6694 4.47973C29.802 4.51495 29.9429 4.5005 30.0656 4.43908L33.1594 2.89221L31.5506 6.52033C31.4901 6.65192 31.4832 6.80193 31.5315 6.93849C31.5799 7.07505 31.6795 7.18737 31.8094 7.25158L32.94 7.81971L31.2919 8.47783C31.2118 8.51009 31.1402 8.56035 31.0826 8.62473C31.0251 8.68911 30.9831 8.76588 30.96 8.84908C30.9351 8.93195 30.9303 9.01954 30.946 9.10463C30.9616 9.18972 30.9973 9.26986 31.05 9.33846L31.9219 10.5028L29.8406 10.2047C29.6325 9.90096 29.4187 9.59721 29.1825 9.31033C29.1155 9.18026 29.0005 9.08139 28.8619 9.03471C28.723 8.99191 28.5731 9.00355 28.4425 9.06728C28.3119 9.131 28.2105 9.24204 28.1587 9.37783L27.7425 10.4128L27.5512 9.45096C27.5315 9.3461 27.4816 9.24927 27.4077 9.17234C27.3338 9.0954 27.239 9.04171 27.135 9.01783L26.2012 8.78721L27.1744 8.20221C27.2512 8.15682 27.3162 8.09393 27.3641 8.01866C27.412 7.9434 27.4414 7.85788 27.45 7.76908C27.4578 7.6808 27.4446 7.59192 27.4114 7.50977C27.3781 7.42762 27.3258 7.35455 27.2587 7.29658C26.9887 7.06033 26.7075 6.82971 26.4206 6.61596L26.0494 4.37158L27.3094 5.00158ZM3.9375 33.751C3.94022 33.017 4.22914 32.3131 4.74282 31.789C5.25651 31.2648 5.95441 30.9617 6.68812 30.9441C6.80113 30.9422 6.91095 30.9063 7.00325 30.8411C7.09556 30.7758 7.16608 30.6843 7.20562 30.5785C7.24506 30.4729 7.25166 30.3578 7.22456 30.2484C7.19746 30.139 7.13792 30.0403 7.05375 29.9653C6.06989 29.0695 5.21264 28.0438 4.50562 26.9166L5.4675 26.3653L4.905 25.3866L3.94312 25.9435C3.52547 25.1449 3.17913 24.311 2.90812 23.4516L3.9825 23.1647L3.69 22.0791L2.62125 22.366C2.41864 21.4867 2.29998 20.5902 2.26688 19.6885H3.375V18.5635H2.26688C2.29942 17.662 2.41618 16.7656 2.61562 15.886L3.69 16.1728L3.9825 15.0872L2.9025 14.8003C3.17095 13.9391 3.51935 13.1048 3.94312 12.3085L4.905 12.8653L5.4675 11.8866L4.50562 11.3353C4.98727 10.5746 5.53703 9.85913 6.14812 9.19783L6.93 9.97971L7.72875 9.18096L6.94687 8.39908C7.60817 7.78799 8.32361 7.23823 9.08437 6.75658L9.63562 7.71846L10.6144 7.15596L10.0575 6.19408C10.8539 5.7703 11.6881 5.42191 12.5494 5.15346L12.8362 6.23346L13.9219 5.94096L13.635 4.86658C14.5147 4.66714 15.4111 4.55038 16.3125 4.51783V5.62596H17.4375V4.52346C18.337 4.55709 19.2314 4.67384 20.1094 4.87221L19.8281 5.94096L20.9137 6.23346L21.195 5.16471C22.9096 5.6928 24.5116 6.53386 25.92 7.64533L24.4631 8.51721C24.3673 8.5742 24.2905 8.6584 24.2426 8.7591C24.1948 8.8598 24.1779 8.97247 24.1942 9.08278C24.2104 9.1931 24.2591 9.29609 24.3341 9.37867C24.409 9.46125 24.5068 9.51969 24.615 9.54658L26.5162 10.0247L27.0112 12.4885C27.0353 12.6073 27.0971 12.7153 27.1874 12.7962C27.2778 12.8771 27.3919 12.9266 27.5127 12.9373C27.6336 12.9481 27.7546 12.9195 27.8578 12.8558C27.9611 12.7922 28.041 12.6969 28.0856 12.5841L28.8337 10.711C28.9519 10.8797 29.0587 11.0541 29.1712 11.2285V11.2453H29.1881C29.9003 12.3502 30.4604 13.5459 30.8531 14.8003L29.7675 15.0872L30.06 16.1728L31.14 15.886C31.335 16.7661 31.448 17.6624 31.4775 18.5635H30.375V19.6885H31.4831C31.4498 20.5898 31.3331 21.4861 31.1344 22.366L30.06 22.0791L29.7675 23.1647L30.8475 23.4516C30.5843 24.3148 30.2397 25.1511 29.8181 25.9491L28.845 25.3866L28.2825 26.3653L29.2556 26.9222C28.7762 27.6877 28.2243 28.4054 27.6075 29.0653L26.82 28.2722L26.0212 29.071L26.8144 29.8585C26.1129 30.5067 25.3499 31.0851 24.5362 31.5853C24.4311 31.6482 24.3498 31.7441 24.305 31.8581C24.2602 31.9721 24.2545 32.0977 24.2887 32.2153C24.3218 32.3332 24.3924 32.4371 24.4899 32.5112C24.5873 32.5853 24.7063 32.6256 24.8287 32.626H26.4375C26.7855 32.6277 27.1244 32.7367 27.4082 32.938C27.6921 33.1393 27.907 33.4232 28.0237 33.751H3.9375Z" fill="#E22427"/>
<path d="M11.8125 32.0625H12.9375V33.1875H11.8125V32.0625Z" fill="#E22427"/>
<path d="M14.625 32.0625H18V33.1875H14.625V32.0625Z" fill="#E22427"/>
<path d="M19.125 30.375H21.375V31.5H19.125V30.375Z" fill="#E22427"/>
<path d="M21.9375 32.0625H23.0625V33.1875H21.9375V32.0625Z" fill="#E22427"/>
<path d="M5.625 32.0625H6.75V33.1875H5.625V32.0625Z" fill="#E22427"/>
<path d="M8.4375 30.375H10.125V31.5H8.4375V30.375Z" fill="#E22427"/>
</svg>
