<svg width="38" height="39" viewBox="0 0 38 39" fill="none" xmlns="http://www.w3.org/2000/svg">
<path d="M36.3993 33.902C38.5336 30.1949 38.5336 25.6322 36.3993 21.9251C36.3974 21.9041 36.3974 21.8828 36.3993 21.8617L36.3423 21.8047C35.3004 20.0278 33.8204 18.5478 32.0435 17.506C32.0277 17.4858 32.0084 17.4686 31.9865 17.4552H31.9294C29.3301 15.9653 26.2638 15.5124 23.3446 16.1872C24.569 12.8506 24.2532 9.14321 22.4824 6.06172C22.4804 6.04063 22.4804 6.01941 22.4824 5.99832L22.4253 5.94125C21.3835 4.16441 19.9034 2.68437 18.1266 1.64253C18.1107 1.62236 18.0914 1.60519 18.0695 1.59181H18.0125C14.3181 -0.530603 9.77436 -0.530603 6.08001 1.59181H6.02295C6.00106 1.60519 5.98174 1.62236 5.96589 1.64253C4.18207 2.68179 2.69527 4.16204 1.64815 5.94125L1.59108 5.99832C1.59304 6.01941 1.59304 6.04063 1.59108 6.06172C-0.530361 9.7518 -0.530361 14.2914 1.59108 17.9815C1.59304 18.0026 1.59304 18.0238 1.59108 18.0449C1.61499 18.0814 1.64261 18.1154 1.67351 18.1463C2.71426 19.9038 4.18478 21.3678 5.94687 22.4007C5.96272 22.4208 5.98204 22.438 6.00393 22.4514C6.03013 22.4667 6.05773 22.4794 6.08636 22.4894C7.89501 23.5249 9.94311 24.0692 12.0272 24.0682C12.9146 24.0641 13.7989 23.9642 14.6648 23.7702C14.1799 25.0836 13.9309 26.4723 13.9293 27.8723C13.9294 29.9845 14.4847 32.0595 15.5397 33.8893C16.1543 34.9558 16.9308 35.9204 17.8413 36.7488H15.8314C15.4812 36.7488 15.1974 37.0326 15.1974 37.3828C15.1974 37.733 15.4812 38.0168 15.8314 38.0168H36.1203C36.4705 38.0168 36.7544 37.733 36.7544 37.3828C36.7544 37.0326 36.4705 36.7488 36.1203 36.7488H34.1105C35.0155 35.9233 35.7875 34.9631 36.3993 33.902ZM12.6612 22.8001V22.1661C12.6612 21.8159 12.3774 21.5321 12.0272 21.5321C11.677 21.5321 11.3932 21.8159 11.3932 22.1661V22.8001C9.93427 22.7159 8.50802 22.334 7.20225 21.6779L7.50658 21.158C7.68166 20.8533 7.57663 20.4644 7.27199 20.2894C6.96735 20.1143 6.57845 20.2193 6.40337 20.5239L6.09904 21.0502C4.88043 20.2437 3.83678 19.2001 3.03033 17.9815L3.55658 17.6771C3.86122 17.5021 3.96625 17.1132 3.79117 16.8085C3.61608 16.5039 3.22719 16.3989 2.92255 16.5739L2.40264 16.8783C1.74235 15.5628 1.36032 14.1253 1.28041 12.6556H1.88274C2.2329 12.6556 2.51677 12.3718 2.51677 12.0216C2.51677 11.6714 2.2329 11.3876 1.88274 11.3876H1.24871C1.33291 9.92865 1.71483 8.50241 2.37094 7.19663L2.89084 7.50097C3.19549 7.67605 3.58438 7.57102 3.75947 7.26638C3.93455 6.96173 3.82952 6.57284 3.52487 6.39776L2.99863 6.09342C3.81433 4.8717 4.869 3.82782 6.09904 3.02472L6.40337 3.55096C6.57845 3.85561 6.96735 3.96064 7.27199 3.78555C7.57663 3.61047 7.68166 3.22158 7.50658 2.91693L7.20225 2.39703C8.50802 1.74092 9.93427 1.359 11.3932 1.27479V1.87712C11.3932 2.22729 11.677 2.51115 12.0272 2.51115C12.3774 2.51115 12.6612 2.22729 12.6612 1.87712V1.24309C14.1202 1.3273 15.5464 1.70921 16.8522 2.36533L16.5478 2.88523C16.3728 3.18987 16.4778 3.57877 16.7824 3.75385C17.0871 3.92893 17.476 3.8239 17.6511 3.51926L17.9554 2.99302C19.174 3.79946 20.2177 4.84312 21.0241 6.06172L20.4979 6.36605C20.1932 6.54114 20.0882 6.93003 20.2633 7.23468C20.4383 7.53932 20.8272 7.64435 21.1319 7.46927L21.6518 7.16493C22.3231 8.47801 22.7159 9.91558 22.8057 11.3876H22.1717C21.8215 11.3876 21.5377 11.6714 21.5377 12.0216C21.5377 12.3718 21.8215 12.6556 22.1717 12.6556H22.7677C22.6971 14.0227 22.3589 15.3625 21.7723 16.5993C21.1647 16.8264 20.5754 17.0999 20.0097 17.4172H19.9526C19.9307 17.4306 19.9114 17.4478 19.8955 17.4679C18.1187 18.5098 16.6386 19.9898 15.5968 21.7666L15.5397 21.8237C15.5417 21.8448 15.5417 21.866 15.5397 21.8871C15.47 22.0076 15.4003 22.128 15.3369 22.2548C14.4722 22.551 13.5729 22.7343 12.6612 22.8001ZM19.8765 36.7488C18.7272 35.9628 17.7411 34.9616 16.9726 33.8005L17.5052 33.4962C17.8099 33.3211 17.9149 32.9322 17.7398 32.6276C17.5647 32.3229 17.1758 32.2179 16.8712 32.393L16.3386 32.7037C15.6769 31.3967 15.2886 29.9685 15.1974 28.5064H15.8314C16.1816 28.5064 16.4654 28.2225 16.4654 27.8723C16.4654 27.5222 16.1816 27.2383 15.8314 27.2383H15.2291C15.3133 25.7794 15.6952 24.3532 16.3513 23.0474L16.8712 23.3517C17.1758 23.5268 17.5647 23.4218 17.7398 23.1171C17.9149 22.8125 17.8099 22.4236 17.5052 22.2485L16.979 21.9442C17.7854 20.7256 18.8291 19.6819 20.0477 18.8755L20.352 19.4017C20.5271 19.7064 20.916 19.8114 21.2206 19.6363C21.5253 19.4612 21.6303 19.0723 21.4552 18.7677L21.1509 18.2478C22.4567 17.5917 23.8829 17.2097 25.3418 17.1255V17.7279C25.3418 18.078 25.6257 18.3619 25.9759 18.3619C26.326 18.3619 26.6099 18.078 26.6099 17.7279V17.1255C28.0688 17.2097 29.4951 17.5917 30.8008 18.2478L30.4965 18.7677C30.3214 19.0723 30.4265 19.4612 30.7311 19.6363C31.0357 19.8114 31.4246 19.7064 31.5997 19.4017L31.9041 18.8755C33.1227 19.6819 34.1663 20.7256 34.9728 21.9442L34.4465 22.2485C34.1419 22.4236 34.0368 22.8125 34.2119 23.1171C34.387 23.4218 34.7759 23.5268 35.0805 23.3517L35.6004 23.0474C36.2676 24.3508 36.6603 25.7771 36.7544 27.2383H36.1203C35.7702 27.2383 35.4863 27.5222 35.4863 27.8723C35.4863 28.2225 35.7702 28.5064 36.1203 28.5064H36.7544C36.6691 29.9671 36.2873 31.3952 35.6321 32.7037L35.0996 32.393C34.9025 32.2797 34.66 32.2802 34.4634 32.3942C34.2667 32.5083 34.1459 32.7185 34.1463 32.9458C34.1468 33.1731 34.2685 33.3829 34.4655 33.4962L34.9981 33.8005C34.2241 34.9634 33.2314 35.9647 32.0752 36.7488H19.8765Z" fill="#E22427"/>
<path d="M25.9755 20.2637C21.7736 20.2637 18.3672 23.67 18.3672 27.872C18.3672 32.074 21.7736 35.4804 25.9755 35.4804C30.1775 35.4804 33.5839 32.074 33.5839 27.872C33.5839 23.67 30.1775 20.2637 25.9755 20.2637ZM31.7769 25.3359L28.1059 26.5279C27.7647 25.984 27.23 25.5898 26.6096 25.4247V21.5634C28.8867 21.796 30.8617 23.2378 31.7769 25.3359ZM24.7075 27.872C24.7075 27.1717 25.2752 26.604 25.9755 26.604C26.6759 26.604 27.2436 27.1717 27.2436 27.872C27.2436 28.5724 26.6759 29.1401 25.9755 29.1401C25.2752 29.1401 24.7075 28.5724 24.7075 27.872ZM25.3415 21.5317V25.393C24.7231 25.5549 24.1887 25.9444 23.8452 26.4835L20.1742 25.3359C21.0894 23.2378 23.0644 21.796 25.3415 21.5634V21.5317ZM19.6352 27.872C19.635 27.42 19.6839 26.9693 19.7811 26.5279L23.4394 27.7199V27.872C23.4445 28.4588 23.6529 29.0258 24.0291 29.4761L21.7592 32.5956C20.4111 31.3952 19.6386 29.6771 19.6352 27.872ZM22.8054 33.3437L25.0689 30.2243C25.6617 30.4695 26.3275 30.4695 26.9203 30.2243L29.1457 33.3437C27.1773 34.5017 24.7358 34.5017 22.7674 33.3437H22.8054ZM30.2109 32.5956L27.941 29.4761C28.3104 29.0232 28.512 28.4565 28.5117 27.872C28.5117 27.8213 28.5117 27.7706 28.5117 27.7199L32.1827 26.5279C32.2756 26.9698 32.3202 27.4205 32.3158 27.872C32.3125 29.6771 31.54 31.3952 30.1918 32.5956H30.2109Z" fill="#E22427"/>
<path d="M19.6357 12.0224C19.6357 7.82044 16.2293 4.41406 12.0273 4.41406C7.82532 4.41406 4.41895 7.82044 4.41895 12.0224C4.41895 16.2244 7.82532 19.6308 12.0273 19.6308C14.0452 19.6308 15.9804 18.8292 17.4072 17.4023C18.8341 15.9755 19.6357 14.0403 19.6357 12.0224ZM16.2436 16.7459L13.9738 13.6265C14.35 13.1761 14.5584 12.6092 14.5634 12.0224C14.5634 11.9717 14.5634 11.921 14.5634 11.8703L18.2345 10.6783C18.3274 11.1202 18.372 11.5709 18.3676 12.0224C18.3643 13.8275 17.5917 15.5456 16.2436 16.7459ZM10.7592 12.0224C10.7592 11.3221 11.327 10.7544 12.0273 10.7544C12.7276 10.7544 13.2954 11.3221 13.2954 12.0224C13.2954 12.7228 12.7276 13.2905 12.0273 13.2905C11.327 13.2905 10.7592 12.7228 10.7592 12.0224ZM17.8287 9.4863L14.1576 10.6783C13.8165 10.1344 13.2818 9.74015 12.6613 9.57507V5.71382C14.9385 5.94636 16.9135 7.38824 17.8287 9.4863ZM11.3933 5.71382V9.57507C10.7749 9.73701 10.2405 10.1265 9.89696 10.6656L6.22593 9.4863C7.14113 7.38824 9.11613 5.94636 11.3933 5.71382ZM5.68701 12.0224C5.68678 11.5704 5.73567 11.1197 5.83283 10.6783L9.49118 11.8703V12.0224C9.49623 12.6092 9.70462 13.1761 10.0808 13.6265L7.81101 16.7459C6.46289 15.5456 5.69034 13.8275 5.68701 12.0224ZM8.85715 17.4941L11.1206 14.3747C11.7134 14.6198 12.3792 14.6198 12.972 14.3747L15.1975 17.4941C13.229 18.6521 10.7875 18.6521 8.81911 17.4941H8.85715Z" fill="#E22427"/>
<path d="M28.5115 5.04688H27.2434C26.8932 5.04688 26.6094 5.33074 26.6094 5.6809C26.6094 6.03107 26.8932 6.31493 27.2434 6.31493H28.5115C30.9626 6.31493 32.9497 8.30199 32.9497 10.7531V11.7613L32.1318 10.937C31.9709 10.7762 31.7365 10.7134 31.5168 10.7722C31.2972 10.8311 31.1255 11.0027 31.0667 11.2224C31.0078 11.4421 31.0706 11.6765 31.2315 11.8373L33.1335 13.7394C33.2526 13.8595 33.4146 13.927 33.5837 13.927C33.7528 13.927 33.9148 13.8595 34.0339 13.7394L35.936 11.8373C36.1846 11.5887 36.1846 11.1856 35.936 10.937C35.6873 10.6884 35.2842 10.6884 35.0356 10.937L34.2177 11.7613V10.7531C34.2177 7.60166 31.663 5.04688 28.5115 5.04688Z" fill="#E22427"/>
<path d="M10.7594 31.6765H9.49132C7.04017 31.6765 5.05311 29.6894 5.05311 27.2383V26.2302L5.87101 27.0544C5.99006 27.1744 6.15212 27.242 6.32117 27.242C6.49023 27.242 6.65229 27.1744 6.77134 27.0544C6.89137 26.9354 6.95888 26.7733 6.95888 26.6042C6.95888 26.4352 6.89137 26.2731 6.77134 26.1541L4.86925 24.252C4.7502 24.132 4.58814 24.0645 4.41908 24.0645C4.25003 24.0645 4.08797 24.132 3.96892 24.252L2.06683 26.1541C1.81822 26.4027 1.81822 26.8058 2.06683 27.0544C2.31545 27.303 2.71854 27.303 2.96716 27.0544L3.78505 26.2302V27.2383C3.78505 30.3898 6.33984 32.9445 9.49132 32.9445H10.7594C11.1095 32.9445 11.3934 32.6607 11.3934 32.3105C11.3934 31.9604 11.1095 31.6765 10.7594 31.6765Z" fill="#E22427"/>
</svg>
