<svg width="37" height="37" viewBox="0 0 37 37" fill="none" xmlns="http://www.w3.org/2000/svg">
<path d="M20.8944 22.6327C21.8534 22.6327 22.6336 21.8525 22.6336 20.8935C22.6336 19.9346 21.8535 19.1543 20.8944 19.1543C19.9355 19.1543 19.1553 19.9346 19.1553 20.8935C19.1553 21.8525 19.9355 22.6327 20.8944 22.6327ZM20.8944 20.2382C21.2557 20.2382 21.5497 20.5321 21.5497 20.8934C21.5497 21.2547 21.2557 21.5486 20.8944 21.5486C20.5332 21.5486 20.2393 21.2547 20.2393 20.8934C20.2393 20.5322 20.5332 20.2382 20.8944 20.2382Z" fill="#E22427"/>
<path d="M32.2831 32.2824C35.3249 29.2405 37 25.1961 37 20.8944C37 16.5926 35.3249 12.5483 32.2831 9.50647C32.283 9.50633 32.2829 9.50618 32.2827 9.50604C32.2826 9.50589 32.2824 9.50575 32.2822 9.5056C29.2403 6.46402 25.1961 4.7889 20.8944 4.7889C18.1285 4.7889 15.439 5.49016 13.0489 6.82599C13.0533 6.72721 13.0559 6.62791 13.0559 6.52812C13.0559 2.92842 10.1275 0 6.52797 0C5.16475 0 3.85855 0.416033 2.75079 1.20308C2.50675 1.37644 2.44952 1.71486 2.62288 1.95883C2.79617 2.2028 3.13459 2.26018 3.37863 2.08681C4.30197 1.43079 5.39102 1.08398 6.52797 1.08398C9.52981 1.08398 11.972 3.52613 11.972 6.52797C11.972 9.52981 9.52981 11.972 6.52797 11.972C3.52613 11.972 1.08398 9.52981 1.08398 6.52797C1.08398 5.44384 1.40159 4.397 2.00262 3.50062C2.16934 3.25203 2.10293 2.91527 1.85426 2.74862C1.6056 2.58198 1.26898 2.64832 1.10227 2.89698C0.381129 3.97259 0 5.22813 0 6.52797C0 9.52548 2.03088 12.0572 4.78883 12.8204V14.3664H4.71172C4.09406 14.3664 3.5916 14.8689 3.5916 15.4865V16.7247C3.5916 17.3424 4.09406 17.8448 4.71172 17.8448H4.78875V24.486C4.78875 26.1527 5.55809 27.6426 6.75973 28.6209C6.7598 28.6209 6.7598 28.6211 6.75987 28.6212C9.59102 33.7894 15.007 37 20.8944 37C25.1961 37 29.2403 35.325 32.2822 32.2833C32.2824 32.2831 32.2826 32.283 32.2827 32.2829C32.2829 32.2827 32.283 32.2825 32.2831 32.2824ZM5.87281 13.0233C6.08838 13.0449 6.30691 13.056 6.52804 13.056C6.74918 13.056 6.96771 13.0448 7.1832 13.0233V14.3664H5.87281V13.0233ZM4.67559 16.7247V15.4865C4.67559 15.4667 4.69177 15.4504 4.71172 15.4504H5.33075H7.7252H8.3443C8.36424 15.4504 8.38043 15.4667 8.38043 15.4865V16.7247C8.38043 16.7446 8.36424 16.7609 8.3443 16.7609H4.71172C4.69177 16.7609 4.67559 16.7446 4.67559 16.7247ZM5.87281 24.486V17.8448H7.1832V24.486C7.1832 26.1051 8.50046 27.4224 10.1196 27.4224H19.6972C20.0585 27.4224 20.3524 27.7163 20.3524 28.0776C20.3524 28.4388 20.0585 28.7327 19.6972 28.7327H10.1196C7.77788 28.7328 5.87281 26.8277 5.87281 24.486ZM14.0692 17.0438L18.6317 18.5263C18.6865 18.5441 18.743 18.5528 18.7992 18.5528C18.9123 18.5528 19.024 18.5175 19.1178 18.4493C19.2581 18.3473 19.3412 18.1843 19.3412 18.0108V13.2109C19.8434 13.1096 20.3627 13.0561 20.8944 13.0561C21.426 13.0561 21.9453 13.1096 22.4475 13.2109V18.0108C22.4475 18.1843 22.5305 18.3473 22.671 18.4493C22.7647 18.5174 22.8765 18.5528 22.9896 18.5528C23.0457 18.5528 23.1023 18.5441 23.157 18.5263L27.7196 17.0438C28.2244 17.935 28.5594 18.9342 28.6811 19.9974L24.1168 21.4805C23.9517 21.5341 23.8224 21.6634 23.7688 21.8284C23.7152 21.9934 23.7438 22.1741 23.8458 22.3145L26.6644 26.194C25.9614 26.9588 25.1088 27.5839 24.1535 28.0224L21.3329 24.1402C21.2309 23.9998 21.0679 23.9167 20.8944 23.9167C20.7209 23.9167 20.558 23.9998 20.456 24.1402L18.8589 26.3384H15.2552C15.2102 26.2918 15.1657 26.2449 15.122 26.1974L17.943 22.3145C18.045 22.1741 18.0736 21.9935 18.02 21.8284C17.9664 21.6634 17.837 21.5341 17.6721 21.4805L13.1077 19.9974C13.2293 18.9341 13.5644 17.935 14.0692 17.0438ZM14.6927 16.1066C15.6011 14.9326 16.8346 14.0227 18.2573 13.5129V17.2648L14.6927 16.1066ZM27.0961 16.1066L23.5315 17.2648V13.5129C24.9541 14.0227 26.1877 14.9327 27.0961 16.1066ZM27.3648 25.3136L25.1612 22.2808L28.7293 21.1214C28.6849 22.673 28.1874 24.113 27.3648 25.3136ZM20.1541 26.3997L20.8944 25.3808L23.0999 28.4164C22.5282 28.5843 21.9297 28.6889 21.3123 28.7215C21.3921 28.5222 21.4364 28.305 21.4364 28.0775C21.4364 27.2767 20.8921 26.6009 20.1541 26.3997ZM16.6275 22.2808L14.4207 25.3182C13.5752 24.0872 13.1023 22.6428 13.0594 21.1214L16.6275 22.2808ZM10.1196 29.8168H13.9331C15.937 31.3833 18.3411 32.2112 20.8944 32.2112C27.1345 32.2112 32.2112 27.1346 32.2112 20.8944C32.2112 14.6543 27.1344 9.57758 20.8944 9.57758C18.2607 9.57758 15.6957 10.5023 13.6721 12.1814C13.4418 12.3725 13.41 12.7142 13.6011 12.9446C13.7923 13.175 14.134 13.2068 14.3643 13.0155C16.1937 11.4975 18.5129 10.6616 20.8943 10.6616C26.5367 10.6616 31.1271 15.2519 31.1271 20.8944C31.1271 26.5368 26.5367 31.1273 20.8943 31.1273C19.1055 31.1273 17.3978 30.6778 15.8767 29.8168H19.6971C19.8225 29.8168 19.9447 29.8031 20.0627 29.7778C20.338 29.8032 20.6172 29.8168 20.8942 29.8168C22.0334 29.8168 23.1233 29.6018 24.1259 29.2109C24.1567 29.2017 24.1872 29.1899 24.2166 29.1749C25.5882 28.6225 26.792 27.7389 27.7286 26.6235C27.7634 26.591 27.7931 26.5548 27.8176 26.5158C29.0667 24.9803 29.8167 23.0235 29.8167 20.8944C29.8167 19.1548 29.3158 17.5303 28.4513 16.1564C28.4331 16.1189 28.4109 16.0843 28.3854 16.0529C27.1911 14.2113 25.3368 12.8357 23.16 12.2639C23.1374 12.2564 23.1142 12.2503 23.0902 12.2458C22.3875 12.0673 21.6518 11.9721 20.8943 11.9721C20.1367 11.9721 19.4012 12.0673 18.6984 12.2458C18.6745 12.2503 18.6513 12.2564 18.6286 12.2639C16.4518 12.8358 14.5974 14.2114 13.4031 16.053C13.3777 16.0843 13.3557 16.1188 13.3374 16.1561C12.4728 17.5301 11.9718 19.1547 11.9718 20.8944C11.9718 22.8931 12.6225 24.786 13.8237 26.3384H12.2296C11.2035 24.7091 10.6614 22.8336 10.6614 20.8944C10.6614 18.5353 11.4415 16.3188 12.9171 14.4847C13.1048 14.2516 13.0678 13.9103 12.8346 13.7227C12.6013 13.5351 12.2602 13.572 12.0726 13.8053C10.4635 15.805 9.57736 18.3227 9.57736 20.8945C9.57736 22.8135 10.0582 24.6763 10.9725 26.3385H10.1194C9.09795 26.3385 8.26697 25.5075 8.26697 24.4861V17.8449H8.34408C8.96173 17.8449 9.4642 17.3424 9.4642 16.7248V15.4865C9.4642 14.8689 8.96173 14.3664 8.34408 14.3664H8.26719V12.8204C10.4879 12.2059 12.2369 10.4446 12.8341 8.21675C15.0895 6.7796 17.674 5.97788 20.3525 5.88257V6.52804C20.3525 6.82744 20.5951 7.07003 20.8944 7.07003C21.1938 7.07003 21.4364 6.82744 21.4364 6.52804V5.88365C25.17 6.01676 28.5603 7.51866 31.1205 9.90191L30.6698 10.3526C30.4582 10.5643 30.4582 10.9075 30.6698 11.1192C30.7756 11.2249 30.9144 11.2778 31.053 11.2778C31.1917 11.2778 31.3305 11.2249 31.4363 11.1191L31.887 10.6684C34.2703 13.2286 35.7721 16.6189 35.9053 20.3525H35.2609C34.9615 20.3525 34.7189 20.5951 34.7189 20.8944C34.7189 21.1938 34.9615 21.4364 35.2609 21.4364H35.9053C35.7721 25.17 34.2703 28.5603 31.887 31.1205L31.4363 30.6698C31.2247 30.4581 30.8815 30.4582 30.6697 30.6697C30.4581 30.8814 30.4581 31.2246 30.6697 31.4362L31.1205 31.887C28.5603 34.2703 25.1699 35.7721 21.4364 35.9053V35.2609C21.4364 34.9615 21.1937 34.7189 20.8944 34.7189C20.5951 34.7189 20.3524 34.9615 20.3524 35.2609V35.9061C16.6998 35.7747 13.273 34.3205 10.6621 31.8931L11.119 31.4362C11.3307 31.2245 11.3307 30.8813 11.119 30.6697C10.9073 30.4582 10.5642 30.4581 10.3526 30.6698L9.89562 31.1268C9.45343 30.6518 9.03971 30.1462 8.65858 29.6116C9.12325 29.7442 9.61292 29.8168 10.1196 29.8168Z" fill="#E22427"/>
<path d="M6.52813 10.6616C8.80738 10.6616 10.6617 8.80731 10.6617 6.52805C10.6617 4.2488 8.80738 2.39453 6.52813 2.39453C4.24887 2.39453 2.39453 4.2488 2.39453 6.52805C2.39453 8.80731 4.24887 10.6616 6.52813 10.6616ZM6.52813 8.26727C7.21609 8.26727 7.88036 8.50134 8.41447 8.92156C7.89503 9.33182 7.23994 9.57766 6.52813 9.57766C5.81631 9.57766 5.16129 9.33189 4.64178 8.92164C5.17589 8.50134 5.84023 8.26727 6.52813 8.26727ZM6.52813 3.47852C8.20967 3.47852 9.57773 4.84658 9.57773 6.52805C9.57773 7.10668 9.41571 7.64824 9.13467 8.10966C8.7026 7.75874 8.20454 7.50053 7.67296 7.3469L8.70715 6.3127C8.91882 6.10104 8.91882 5.75785 8.70715 5.54625C8.49548 5.33466 8.15229 5.33459 7.9407 5.54632L6.29688 7.19008C5.42607 7.23908 4.5943 7.56333 3.92158 8.10966C3.64054 7.64824 3.47852 7.10668 3.47852 6.52805C3.47852 4.8465 4.84658 3.47852 6.52813 3.47852Z" fill="#E22427"/>
</svg>
