<svg width="36" height="36" viewBox="0 0 36 36" fill="none" xmlns="http://www.w3.org/2000/svg">
<path d="M34.875 18C34.875 13.5245 33.0971 9.23225 29.9324 6.06757C26.7678 2.9029 22.4755 1.125 18 1.125C13.5245 1.125 9.23226 2.9029 6.06758 6.06757C2.90291 9.23225 1.12501 13.5245 1.12501 18C1.12294 19.9769 1.47146 21.9385 2.15438 23.7937C1.49303 24.5155 1.1258 25.4586 1.12501 26.4375V30.9375C1.1262 31.9814 1.54143 32.9823 2.27959 33.7204C3.01776 34.4586 4.01858 34.8738 5.06251 34.875H30.9375C31.9814 34.8738 32.9823 34.4586 33.7204 33.7204C34.4586 32.9823 34.8738 31.9814 34.875 30.9375V26.4375C34.8742 25.4586 34.507 24.5155 33.8456 23.7937C34.5286 21.9385 34.8771 19.9769 34.875 18ZM30.9375 33.75H5.06251C4.31903 33.7484 3.6063 33.4531 3.07953 32.9284C2.55276 32.4038 2.25461 31.6922 2.25001 30.9487L4.31438 32.5125C4.41225 32.5869 4.53178 32.6271 4.6547 32.6271C4.77761 32.6271 4.89714 32.5869 4.99501 32.5125L7.61626 30.5212L10.2375 32.5125C10.3354 32.5869 10.4549 32.6271 10.5778 32.6271C10.7007 32.6271 10.8203 32.5869 10.9181 32.5125L13.545 30.5212L16.1719 32.5125C16.2698 32.5869 16.3893 32.6271 16.5122 32.6271C16.6351 32.6271 16.7546 32.5869 16.8525 32.5125L19.4738 30.5212L22.1006 32.5125C22.1991 32.5856 22.3184 32.625 22.4409 32.625C22.5635 32.625 22.6828 32.5856 22.7813 32.5125L25.4081 30.5212L28.035 32.5125C28.1329 32.5869 28.2524 32.6271 28.3753 32.6271C28.4982 32.6271 28.6178 32.5869 28.7156 32.5125L31.3425 30.5156L33.4744 32.13C33.2489 32.613 32.8906 33.0218 32.4413 33.3086C31.9921 33.5955 31.4705 33.7486 30.9375 33.75ZM33.75 30.9319L31.6856 29.3625C31.5878 29.2881 31.4682 29.2479 31.3453 29.2479C31.2224 29.2479 31.1029 29.2881 31.005 29.3625L28.3725 31.3594L25.7456 29.3625C25.6478 29.2881 25.5282 29.2479 25.4053 29.2479C25.2824 29.2479 25.1629 29.2881 25.065 29.3625L22.4438 31.3538L19.8169 29.3625C19.719 29.2881 19.5995 29.2479 19.4766 29.2479C19.3537 29.2479 19.2341 29.2881 19.1363 29.3625L16.5094 31.3538L13.8825 29.3625C13.7846 29.2881 13.6651 29.2479 13.5422 29.2479C13.4193 29.2479 13.2998 29.2881 13.2019 29.3625L10.5806 31.3538L7.95376 29.3625C7.85589 29.2881 7.73636 29.2479 7.61345 29.2479C7.49053 29.2479 7.371 29.2881 7.27313 29.3625L4.65188 31.3538L2.25001 29.5312V27.0056L4.31438 28.575C4.41225 28.6494 4.53178 28.6896 4.6547 28.6896C4.77761 28.6896 4.89714 28.6494 4.99501 28.575L7.61626 26.5837L10.2375 28.575C10.3354 28.6494 10.4549 28.6896 10.5778 28.6896C10.7007 28.6896 10.8203 28.6494 10.9181 28.575L13.545 26.5837L16.1719 28.575C16.2698 28.6494 16.3893 28.6896 16.5122 28.6896C16.6351 28.6896 16.7546 28.6494 16.8525 28.575L19.4738 26.5837L22.1006 28.575C22.1991 28.6481 22.3184 28.6875 22.4409 28.6875C22.5635 28.6875 22.6828 28.6481 22.7813 28.575L25.4081 26.5837L28.035 28.575C28.1329 28.6494 28.2524 28.6896 28.3753 28.6896C28.4982 28.6896 28.6178 28.6494 28.7156 28.575L31.3425 26.5781L33.75 28.4062V30.9319ZM33.75 26.9944L31.6856 25.425C31.5878 25.3506 31.4682 25.3104 31.3453 25.3104C31.2224 25.3104 31.1029 25.3506 31.005 25.425L28.3725 27.4219L25.7456 25.425C25.6478 25.3506 25.5282 25.3104 25.4053 25.3104C25.2824 25.3104 25.1629 25.3506 25.065 25.425L22.4438 27.4163L19.8169 25.425C19.719 25.3506 19.5995 25.3104 19.4766 25.3104C19.3537 25.3104 19.2341 25.3506 19.1363 25.425L16.5094 27.4163L13.8825 25.425C13.7846 25.3506 13.6651 25.3104 13.5422 25.3104C13.4193 25.3104 13.2998 25.3506 13.2019 25.425L10.5806 27.4163L7.95376 25.425C7.85589 25.3506 7.73636 25.3104 7.61345 25.3104C7.49053 25.3104 7.371 25.3506 7.27313 25.425L4.65188 27.4163L2.36813 25.6838C2.53138 25.0938 2.88298 24.5733 3.36939 24.2016C3.8558 23.83 4.45036 23.6275 5.06251 23.625H30.9375C31.6834 23.625 32.3988 23.9213 32.9262 24.4488C33.4537 24.9762 33.75 25.6916 33.75 26.4375V26.9944ZM13.6125 16.7569H13.6463C13.7575 16.7573 13.8664 16.7243 13.9586 16.6621C14.0509 16.5999 14.1224 16.5114 14.1638 16.4081C14.2091 16.3007 14.2199 16.1818 14.1947 16.0679C14.1695 15.954 14.1096 15.8508 14.0231 15.7725L10.6763 12.7856C11.2595 11.9736 11.9721 11.2629 12.7856 10.6819L15.7725 14.0231C15.8266 14.081 15.8919 14.1274 15.9644 14.1593C16.0369 14.1912 16.1152 14.208 16.1944 14.2087C16.2708 14.2076 16.3462 14.1912 16.4162 14.1604C16.4861 14.1296 16.5492 14.0851 16.6016 14.0295C16.6541 13.9739 16.6948 13.9083 16.7215 13.8367C16.7482 13.7651 16.7602 13.6889 16.7569 13.6125L16.5094 9.12937C16.65 9.10687 16.7963 9.07875 16.9425 9.06188C17.645 8.9775 18.355 8.9775 19.0575 9.06188C19.2038 9.07875 19.35 9.10687 19.4906 9.12937L19.2431 13.6125C19.2398 13.6889 19.2518 13.7651 19.2785 13.8367C19.3052 13.9083 19.3459 13.9739 19.3984 14.0295C19.4508 14.0851 19.5139 14.1296 19.5838 14.1604C19.6538 14.1912 19.7292 14.2076 19.8056 14.2087C19.8849 14.208 19.9631 14.1912 20.0356 14.1593C20.1082 14.1274 20.1734 14.081 20.2275 14.0231L23.2144 10.6819C24.0279 11.2629 24.7405 11.9736 25.3238 12.7856L21.9769 15.7725C21.8904 15.8508 21.8305 15.954 21.8053 16.0679C21.7801 16.1818 21.7909 16.3007 21.8363 16.4081C21.8776 16.5114 21.9491 16.5999 22.0414 16.6621C22.1336 16.7243 22.2425 16.7573 22.3538 16.7569H22.3875L26.865 16.5094C26.9528 17.0014 26.9979 17.5002 27 18C26.9993 18.4996 26.956 18.9983 26.8706 19.4906L22.3875 19.2431C22.271 19.2375 22.1557 19.2678 22.0571 19.3301C21.9585 19.3924 21.8815 19.4835 21.8366 19.5912C21.7917 19.6988 21.7811 19.8176 21.8062 19.9315C21.8313 20.0454 21.8909 20.1487 21.9769 20.2275L24.5194 22.5H20.6944L20.2219 21.9769C20.1437 21.8905 20.0407 21.8304 19.927 21.8051C19.8133 21.7797 19.6945 21.7903 19.587 21.8354C19.4796 21.8805 19.3888 21.9578 19.3272 22.0567C19.2656 22.1556 19.2362 22.2712 19.2431 22.3875L19.2488 22.5H16.7513L16.7569 22.3875C16.7638 22.2712 16.7344 22.1556 16.6728 22.0567C16.6112 21.9578 16.5204 21.8805 16.413 21.8354C16.3056 21.7903 16.1868 21.7797 16.073 21.8051C15.9593 21.8304 15.8563 21.8905 15.7781 21.9769L15.3056 22.5H11.4806L14.0231 20.2275C14.1096 20.1492 14.1695 20.046 14.1947 19.9321C14.2199 19.8182 14.2091 19.6993 14.1638 19.5919C14.1186 19.4844 14.0415 19.3933 13.9429 19.3309C13.8443 19.2686 13.729 19.2379 13.6125 19.2431L9.12938 19.4906C9.04398 18.9983 9.0007 18.4996 9.00001 18C9.00207 17.5002 9.04723 17.0014 9.13501 16.5094L13.6125 16.7569ZM9.39376 15.3956C9.51397 14.9982 9.66054 14.6092 9.83251 14.2312C9.90563 14.0681 9.99001 13.9106 10.0744 13.7531L12.0769 15.5419L9.39376 15.3956ZM13.7531 10.0744C14.2771 9.79448 14.8272 9.56652 15.3956 9.39375L15.5419 12.0769L13.7531 10.0744ZM20.4581 12.0769L20.6044 9.39375C21.1728 9.56652 21.7229 9.79448 22.2469 10.0744L20.4581 12.0769ZM25.9256 13.7531C26.01 13.9106 26.0944 14.0681 26.1675 14.2312C26.3395 14.6092 26.486 14.9982 26.6063 15.3956L23.9231 15.5419L25.9256 13.7531ZM26.6119 20.6044C26.4396 21.1738 26.2097 21.7242 25.9256 22.2469L23.9231 20.4581L26.6119 20.6044ZM10.0744 22.2469C9.79034 21.7242 9.5604 21.1738 9.38813 20.6044L12.0769 20.4581L10.0744 22.2469ZM32.9231 23.04C32.3204 22.6881 31.6354 22.5019 30.9375 22.5H27.0619C27.7586 21.1021 28.1225 19.5619 28.125 18C28.1258 17.3388 28.0599 16.6792 27.9281 16.0312C27.7773 15.2462 27.5298 14.4829 27.1913 13.7587C26.4605 12.1911 25.3429 10.8352 23.9436 9.81869C22.5442 8.80216 20.9093 8.15844 19.1925 7.94812C18.4004 7.8525 17.5996 7.8525 16.8075 7.94812C15.0908 8.15844 13.4558 8.80216 12.0564 9.81869C10.6571 10.8352 9.53949 12.1911 8.80876 13.7587C8.47103 14.4813 8.22354 15.2426 8.07188 16.0256C7.94042 16.6755 7.87447 17.3369 7.87501 18C7.87755 19.5619 8.24141 21.1021 8.93813 22.5H5.06251C4.36461 22.5019 3.6796 22.6881 3.07688 23.04C2.34655 20.8759 2.09565 18.5788 2.34157 16.308C2.5875 14.0373 3.32437 11.8471 4.5011 9.88955C5.67782 7.93196 7.26624 6.25372 9.15621 4.9712C11.0462 3.68869 13.1925 2.83259 15.4463 2.46225C17.7001 2.09192 20.0075 2.21622 22.2085 2.82654C24.4095 3.43685 26.4514 4.51857 28.1927 5.99671C29.934 7.47484 31.3329 9.314 32.2925 11.3867C33.2521 13.4594 33.7495 15.716 33.75 18C33.7523 19.7139 33.4729 21.4166 32.9231 23.04Z" fill="#E22427"/>
<path d="M18 20.8125C18.5563 20.8125 19.1 20.6475 19.5626 20.3385C20.0251 20.0295 20.3855 19.5902 20.5984 19.0763C20.8113 18.5624 20.867 17.9969 20.7585 17.4513C20.6499 16.9057 20.3821 16.4046 19.9887 16.0113C19.5954 15.6179 19.0943 15.3501 18.5487 15.2415C18.0031 15.133 17.4376 15.1887 16.9237 15.4016C16.4098 15.6145 15.9705 15.9749 15.6615 16.4375C15.3525 16.9 15.1875 17.4437 15.1875 18C15.1884 18.7456 15.485 19.4605 16.0122 19.9877C16.5395 20.515 17.2544 20.8116 18 20.8125ZM18 16.3125C18.3338 16.3125 18.66 16.4115 18.9375 16.5969C19.215 16.7823 19.4313 17.0459 19.5591 17.3542C19.6868 17.6626 19.7202 18.0019 19.6551 18.3292C19.59 18.6566 19.4293 18.9572 19.1932 19.1932C18.9572 19.4292 18.6566 19.59 18.3292 19.6551C18.0019 19.7202 17.6626 19.6868 17.3542 19.559C17.0459 19.4313 16.7823 19.215 16.5969 18.9375C16.4115 18.66 16.3125 18.3338 16.3125 18C16.3125 17.5524 16.4903 17.1232 16.8068 16.8068C17.1232 16.4903 17.5525 16.3125 18 16.3125Z" fill="#E22427"/>
</svg>
