<svg width="32" height="36" viewBox="0 0 32 36" fill="none" xmlns="http://www.w3.org/2000/svg">
<g clip-path="url(#clip0)">
<path d="M29.3736 22.894H28.7637V19.0547H29.7012C30.219 19.0547 30.6387 18.5825 30.6387 18C30.6387 17.4175 30.219 16.9453 29.7012 16.9453H28.7637V13.1061H29.3736C30.8218 13.1061 32 11.7806 32 10.1514C32 8.52231 30.8218 7.19678 29.3736 7.19678H26.2788C24.8306 7.19678 23.6524 8.52231 23.6524 10.1514C23.6524 11.7806 24.8306 13.1061 26.2788 13.1061H26.8887V16.9453H24.0753V15.2826C24.0753 14.7002 23.6556 14.228 23.1378 14.228C22.6201 14.228 22.2003 14.7002 22.2003 15.2826V16.9453H18.9924C18.5961 15.5699 17.4462 14.5726 16.0933 14.5726C14.7404 14.5726 13.5906 15.5699 13.1943 16.9453H9.98631V15.4233C9.98631 14.8408 9.56656 14.3686 9.04881 14.3686C8.53106 14.3686 8.11131 14.8408 8.11131 15.4233V16.9453H5.11131L5.11131 13.1061H5.72119C7.16937 13.1061 8.34756 11.7806 8.34756 10.1514C8.34756 8.52231 7.16937 7.19678 5.72119 7.19678L2.62637 7.19678C1.17819 7.19678 0 8.52224 0 10.1514C0 11.7807 1.17819 13.1061 2.62637 13.1061H3.23625L3.23625 16.9453H2.29875C1.781 16.9453 1.36125 17.4175 1.36125 18C1.36125 18.5825 1.781 19.0547 2.29875 19.0547H3.23625L3.23625 22.894H2.62637C1.17819 22.894 0 24.2194 0 25.8486C0 27.4778 1.17819 28.8032 2.62637 28.8032H5.72119C7.16937 28.8032 8.34756 27.4777 8.34756 25.8486C8.34756 24.2194 7.16937 22.894 5.72119 22.894H5.11131L5.11131 19.0547H8.11131V20.5768C8.11131 21.1592 8.53106 21.6314 9.04881 21.6314C9.56656 21.6314 9.98631 21.1592 9.98631 20.5768V19.0547H13.1943C13.5906 20.4302 14.7404 21.4274 16.0934 21.4274C17.4463 21.4274 18.5961 20.4301 18.9924 19.0547H22.2004V20.4361C22.2004 21.0186 22.6201 21.4908 23.1379 21.4908C23.6556 21.4908 24.0754 21.0186 24.0754 20.4361V19.0547H26.8887V22.894H26.2789C24.8307 22.894 23.6525 24.2194 23.6525 25.8486C23.6525 27.4777 24.8307 28.8032 26.2789 28.8032H29.3737C30.8219 28.8032 32.0001 27.4777 32.0001 25.8486C32.0001 24.2194 30.8218 22.894 29.3736 22.894V22.894ZM25.5274 10.1514C25.5274 9.68535 25.8645 9.30615 26.2788 9.30615L29.3736 9.30615C29.7879 9.30615 30.125 9.68542 30.125 10.1514C30.125 10.6175 29.7879 10.9967 29.3736 10.9967L26.2788 10.9967C25.8645 10.9967 25.5274 10.6176 25.5274 10.1514V10.1514ZM1.875 10.1514C1.875 9.68535 2.21206 9.30615 2.62637 9.30615H5.72119C6.1355 9.30615 6.47256 9.68542 6.47256 10.1514C6.47256 10.6175 6.1355 10.9967 5.72119 10.9967H2.62637C2.21206 10.9967 1.875 10.6176 1.875 10.1514V10.1514ZM6.47256 25.8486C6.47256 26.3147 6.1355 26.6939 5.72119 26.6939H2.62637C2.21206 26.6939 1.875 26.3146 1.875 25.8486C1.875 25.3825 2.21206 25.0033 2.62637 25.0033H5.72119C6.1355 25.0033 6.47256 25.3825 6.47256 25.8486ZM16.0934 19.318C15.4474 19.318 14.9217 18.7268 14.9217 18C14.9217 17.2733 15.4473 16.682 16.0934 16.682C16.7394 16.682 17.265 17.2733 17.265 18C17.265 18.7268 16.7394 19.318 16.0934 19.318ZM29.3736 26.6939H26.2788C25.8645 26.6939 25.5274 26.3146 25.5274 25.8486C25.5274 25.3825 25.8645 25.0033 26.2788 25.0033H29.3736C29.7879 25.0033 30.125 25.3825 30.125 25.8486C30.125 26.3146 29.7879 26.6939 29.3736 26.6939Z" fill="#E22427"/>
</g>
<defs>
<clipPath id="clip0">
<rect width="32" height="36" fill="white"/>
</clipPath>
</defs>
</svg>
