<svg width="31" height="31" viewBox="0 0 31 31" fill="none" xmlns="http://www.w3.org/2000/svg">
<g clip-path="url(#clip0)">
<path d="M6.55469 23.3577C5.38619 23.3577 4.43555 24.3083 4.43555 25.4768C4.43555 26.6453 5.38619 27.5959 6.55469 27.5959C7.72318 27.5959 8.67383 26.6453 8.67383 25.4768C8.67383 24.3083 7.72318 23.3577 6.55469 23.3577V23.3577ZM6.55469 26.385C6.0539 26.385 5.64648 25.9776 5.64648 25.4768C5.64648 24.976 6.0539 24.5686 6.55469 24.5686C7.05547 24.5686 7.46289 24.976 7.46289 25.4768C7.46289 25.9776 7.05547 26.385 6.55469 26.385Z" fill="#E22427"/>
<path d="M29.7211 14.0815L28.5751 12.4753C28.3808 12.203 28.0026 12.1398 27.7305 12.3341C27.4583 12.5283 27.3951 12.9064 27.5893 13.1786L28.7354 14.7848C28.7778 14.8443 28.7639 14.9273 28.7047 14.9696L25.0007 17.6124L20.2469 10.9503L20.6875 10.0946L23.6949 7.94859C23.7543 7.90615 23.8374 7.9202 23.8796 7.97935L24.776 9.23564C24.9703 9.50786 25.3484 9.57107 25.6205 9.37683C25.8928 9.18266 25.956 8.80448 25.7617 8.53233L24.8651 7.27562C24.4346 6.67329 23.594 6.53301 22.9915 6.96289L21.8985 7.74286L22.5128 6.55002C22.6774 6.23136 22.708 5.8676 22.5988 5.52581C22.4895 5.18366 22.2535 4.90466 21.9341 4.74021L14.5014 0.913047C14.1825 0.748844 13.8187 0.71857 13.477 0.827857C13.1352 0.937205 12.8565 1.17304 12.6923 1.492L12.0777 2.68556V1.34311C12.0777 0.602502 11.4752 0 10.7346 0H2.37436C1.63375 0 1.03125 0.602502 1.03125 1.34311V25.4768C1.03125 28.5223 3.50895 31 6.55452 31C7.75213 31 8.86184 30.6167 9.76768 29.9665C9.78148 29.9582 9.79505 29.9493 9.80837 29.9398L15.6166 25.7954L20.4133 22.373C20.4135 22.3729 20.4136 22.3728 20.4138 22.3727C20.4139 22.3726 20.414 22.3725 20.4141 22.3724L29.4084 15.955C30.0107 15.5245 30.1511 14.684 29.7211 14.0815V14.0815ZM24.0149 18.3157L20.2032 21.0353L17.2124 16.8435L19.6233 12.1613L24.0149 18.3157ZM15.4062 24.458L14.178 22.7367L16.5889 18.0544L19.2176 21.7386L15.4062 24.458ZM13.9578 20.5189L12.0777 19.5506V14.2846L16.1012 16.3563L15.9639 16.6228C15.9626 16.6256 15.9611 16.6282 15.9597 16.6309L13.9578 20.5189ZM16.6556 15.2797L12.0777 12.9226V7.65537L18.7992 11.1166L16.6556 15.2797ZM10.8668 11.7865H2.24219V7.10421H10.8668V11.7865ZM2.24219 12.9974H10.8668V17.6797H2.24219V12.9974ZM12.0777 20.9127L13.4035 21.5955L12.0777 24.1703V20.9127ZM13.5544 23.9476L14.4204 25.1613L12.0634 26.8432L13.5544 23.9476ZM13.7689 2.04642C13.7895 2.00628 13.8222 1.98884 13.846 1.98121C13.8699 1.97359 13.9067 1.96886 13.947 1.98963L21.3797 5.81674C21.42 5.83751 21.4375 5.87032 21.4452 5.89418C21.4527 5.91779 21.4574 5.95436 21.4365 5.99487L19.3536 10.04L12.0777 6.2933V5.33085L13.7689 2.04642ZM2.37436 1.21094H10.7346C10.8075 1.21094 10.8668 1.27021 10.8668 1.34311V5.89321H2.24219V1.34311C2.24219 1.27021 2.30146 1.21094 2.37436 1.21094V1.21094ZM6.55446 29.7891C4.17666 29.7891 2.24219 27.8546 2.24219 25.4768V18.8906H10.8668V25.4768C10.8668 27.8546 8.93225 29.7891 6.55446 29.7891Z" fill="#E22427"/>
<path d="M26.6758 11.4609C27.0102 11.4609 27.2812 11.1899 27.2812 10.8555C27.2812 10.5211 27.0102 10.25 26.6758 10.25C26.3414 10.25 26.0703 10.5211 26.0703 10.8555C26.0703 11.1899 26.3414 11.4609 26.6758 11.4609Z" fill="#E22427"/>
</g>
<defs>
<clipPath id="clip0">
<rect width="31" height="31" fill="white"/>
</clipPath>
</defs>
</svg>
