<svg width="49" height="46" viewBox="0 0 49 46" fill="none" xmlns="http://www.w3.org/2000/svg">
<path d="M45.7982 29.6648L41.9567 27.9217L40.8576 26.1453C45.1432 23.4362 47.7412 18.7287 47.7412 13.6548V6.36043C47.7301 5.94964 47.4969 5.57215 47.1305 5.3834L37.2603 0.131875C36.9272 -0.0457667 36.5276 -0.0457667 36.2056 0.142978L26.6462 5.3834C26.291 5.58325 26.08 5.94964 26.0911 6.36043V13.7992C26.08 15.9087 26.513 18.0071 27.379 19.9389H19.374C17.6531 19.9389 16.0211 20.7494 14.9663 22.115L10.603 27.8329L3.27527 29.8313C1.34341 30.3531 0.0111026 32.1074 0 34.1058V36.9037C0.0111026 39.3574 2.00957 41.3447 4.46324 41.3669H4.99617C5.81776 44.3424 8.90429 46.0855 11.8798 45.2528C13.7672 44.731 15.2439 43.2544 15.7657 41.3669H32.0865C32.9081 44.3424 35.9946 46.0855 38.9701 45.2528C40.8576 44.731 42.3342 43.2544 42.856 41.3669H43.9441C46.3978 41.3558 48.3962 39.3685 48.4073 36.9037V33.695C48.3962 31.9519 47.3748 30.3865 45.7982 29.6648ZM28.3116 7.01549L36.7829 2.3635L45.5207 7.02659V13.6548C45.5096 18.7287 42.4674 23.2919 37.7932 25.2571C37.7932 25.2571 37.7821 25.2571 37.771 25.2571L36.7052 25.7123L35.8392 25.3237C31.2649 23.3141 28.3116 18.7953 28.3116 13.7881V7.01549ZM10.3809 43.1989C8.51569 43.1989 7.01684 41.6889 7.01684 39.8348C7.01684 37.9695 8.5268 36.4707 10.3809 36.4707C12.2462 36.4707 13.745 37.9806 13.745 39.8348C13.745 41.6889 12.2351 43.1878 10.3809 43.1989ZM37.4713 43.1989C35.606 43.1989 34.1072 41.6889 34.1072 39.8348C34.1072 37.9806 35.6171 36.4707 37.4713 36.4707C39.3365 36.4707 40.8354 37.9806 40.8354 39.8348C40.8465 41.6889 39.3365 43.1878 37.4713 43.1989ZM46.1979 36.8926H46.1868C46.1757 38.125 45.1765 39.1242 43.9441 39.1353H43.0115C42.6118 36.071 39.8139 33.9171 36.7496 34.3168C34.2404 34.6388 32.2531 36.6261 31.9311 39.1353H15.9211C15.5214 36.071 12.7236 33.9171 9.65926 34.3168C7.15007 34.6388 5.16271 36.6261 4.84073 39.1353H4.46324C3.23086 39.1242 2.23162 38.125 2.22052 36.8926V34.0947C2.23162 33.0955 2.89778 32.2295 3.8637 31.963L11.5467 29.8646C11.7799 29.798 11.9908 29.6648 12.1462 29.4649L16.7427 23.4473C17.3756 22.6257 18.3526 22.1483 19.3851 22.1483H28.6447C30.2213 24.4355 32.4085 26.2452 34.951 27.3665L36.2833 27.9439C36.5609 28.066 36.8828 28.066 37.1715 27.9439L38.6704 27.2999C38.7481 27.2666 38.8258 27.2333 38.8924 27.2L40.258 29.3872C40.3691 29.576 40.5356 29.7203 40.7354 29.8091L44.8878 31.6855C45.6761 32.0407 46.1868 32.829 46.1979 33.695V36.8926Z" fill="#FD2528"/>
<path d="M42.2564 11.2115C41.8678 10.734 41.1795 10.6563 40.691 11.0338L40.6799 11.0449L35.4838 15.275L33.5964 13.0656C33.1967 12.5993 32.4972 12.5327 32.0309 12.9324C31.5646 13.3321 31.498 14.0315 31.8977 14.4978L31.9088 14.5089L34.4957 17.5399C34.5068 17.5621 34.5179 17.5732 34.529 17.5843C34.5401 17.5955 34.5512 17.6177 34.5734 17.6288C34.5845 17.6399 34.6067 17.6621 34.6178 17.6732C34.6289 17.6843 34.6511 17.6954 34.6622 17.7065C34.6734 17.7176 34.6956 17.7287 34.7178 17.7398C34.74 17.7509 34.7511 17.762 34.7622 17.7731C34.7844 17.7842 34.7955 17.7953 34.8177 17.8064C34.8288 17.8175 34.851 17.8286 34.8621 17.8286C34.8843 17.8397 34.9065 17.8508 34.9287 17.8508C34.9398 17.8619 34.962 17.8619 34.9731 17.873C34.9953 17.8841 35.0175 17.8841 35.0397 17.8952C35.0508 17.8952 35.073 17.9063 35.0841 17.9063C35.1064 17.9063 35.1286 17.9174 35.1508 17.9174C35.1619 17.9174 35.1841 17.9285 35.1952 17.9285C35.2285 17.9285 35.2507 17.9285 35.284 17.9285C35.2951 17.9285 35.3062 17.9285 35.3173 17.9285C35.3506 17.9285 35.3839 17.9285 35.4172 17.9285C35.4283 17.9285 35.4283 17.9285 35.4394 17.9285C35.4616 17.9285 35.4949 17.9174 35.5171 17.9174C35.5283 17.9174 35.5394 17.9174 35.5505 17.9063C35.5727 17.9063 35.5949 17.8952 35.6171 17.8952C35.6282 17.8952 35.6393 17.8841 35.6504 17.8841C35.6726 17.8841 35.6837 17.873 35.7059 17.8619C35.717 17.8619 35.7281 17.8508 35.7503 17.8508C35.7614 17.8397 35.7836 17.8397 35.7947 17.8286C35.8058 17.8175 35.828 17.8175 35.8391 17.8064C35.8502 17.7953 35.8724 17.7953 35.8835 17.7842C35.8946 17.7731 35.9168 17.762 35.9279 17.762C35.939 17.762 35.9502 17.7398 35.9724 17.7398C35.9835 17.7287 35.9946 17.7176 36.0168 17.7065C36.0279 17.6954 36.039 17.6954 36.0501 17.6843L42.0788 12.7769C42.5562 12.3883 42.6339 11.7 42.2564 11.2115Z" fill="#FD2528"/>
</svg>
