<svg width="12" height="17" viewBox="0 0 12 17" fill="none" xmlns="http://www.w3.org/2000/svg">
<path d="M5.99975 0.641846C2.69165 0.641846 0 3.33349 0 6.64193C0 7.5049 0.17663 8.32884 0.524719 9.09106C2.02482 12.3736 4.90094 15.8394 5.7469 16.8233C5.81028 16.8968 5.90268 16.9392 5.99992 16.9392C6.09715 16.9392 6.18956 16.8968 6.25294 16.8233C7.09856 15.8395 9.97467 12.374 11.4753 9.09106C11.8235 8.32884 12 7.5049 12 6.64193C11.9997 3.33349 9.30802 0.641846 5.99975 0.641846ZM5.99975 9.75839C4.28132 9.75839 2.88312 8.36019 2.88312 6.64176C2.88312 4.92316 4.28132 3.52497 5.99975 3.52497C7.71818 3.52497 9.11638 4.92316 9.11638 6.64176C9.11654 8.36019 7.71835 9.75839 5.99975 9.75839Z" fill="#97979D"/>
</svg>
