<svg width="17" height="19" viewBox="0 0 17 17" fill="grey" xmlns="http://www.w3.org/2000/svg">
    <path fill-rule="evenodd" clip-rule="evenodd" d="M10.4156 3.21119C10.4156 3.45424 10.4448 3.69056 10.5 3.91683L5.04553 7.02645C4.50958 6.50724 3.77948 6.18731 2.9759 6.18731C1.33476 6.18731 0 7.52193 0 9.1632C0 10.8045 1.33476 12.1391 2.9759 12.1391C3.77967 12.1391 4.50993 11.819 5.04591 11.2996L10.5001 14.409C10.4448 14.6353 10.4156 14.8718 10.4156 15.1149C10.4156 16.756 11.7502 18.0908 13.3915 18.0908C15.0327 18.0908 16.3674 16.756 16.3674 15.1149C16.3674 13.4736 15.0327 12.1389 13.3915 12.1389C12.5278 12.1389 11.749 12.5085 11.205 13.0978L5.82333 10.0298C5.90694 9.75551 5.95193 9.46453 5.95193 9.1632C5.95193 8.86168 5.90688 8.5705 5.82316 8.29605L11.2048 5.22803C11.7488 5.81753 12.5277 6.18722 13.3915 6.18722C15.0327 6.18722 16.3674 4.85246 16.3674 3.21119C16.3674 1.57005 15.0327 0.235291 13.3915 0.235291C11.7502 0.235291 10.4156 1.57005 10.4156 3.21119Z"></path>
</svg>