<svg width="52" height="52" viewBox="0 0 52 52" fill="none" xmlns="http://www.w3.org/2000/svg">
<path d="M45.5004 31.8413V4.33337C45.5004 2.86 44.3737 1.73337 42.9004 1.73337H31.6337C31.6337 0.78 30.8537 0 29.9004 0H17.767C16.8136 0 16.0336 0.78 16.0336 1.73337H4.76699C3.29362 1.73337 2.16699 2.86 2.16699 4.33337V49.4C2.16699 50.8734 3.29362 52 4.76699 52H38.567C44.807 52 49.8336 46.9734 49.8336 40.7334C49.8337 37.1123 48.1407 33.9 45.5004 31.8413ZM42.9004 3.46663C43.4204 3.46663 43.767 3.81327 43.767 4.33327V30.7291C43.2147 30.4424 42.6353 30.2003 42.0336 30.007V6.93337C42.0336 5.98 41.2536 5.2 40.3003 5.2H31.6336V3.46663H42.9004ZM27.3064 41.086C27.3069 41.1032 27.3077 41.1203 27.3083 41.1374C27.3811 43.2204 28.0139 45.1565 29.0624 46.8H7.36699V6.93337H16.0336C16.0336 7.88673 16.8136 8.66673 17.767 8.66673H29.9004C30.8537 8.66673 31.6337 7.88673 31.6337 6.93337H40.3004V29.5984C40.1794 29.5798 40.0576 29.5637 39.9353 29.549C39.9268 29.548 39.9182 29.5471 39.9096 29.5461C39.8141 29.5348 39.7182 29.5247 39.6219 29.5159C39.5976 29.5137 39.5735 29.5115 39.5492 29.5095C39.4676 29.5025 39.3859 29.4964 39.3038 29.4912C39.274 29.4893 39.244 29.4872 39.2141 29.4855C39.1347 29.4811 39.0551 29.4777 38.9753 29.4749C38.9461 29.4738 38.9171 29.4724 38.8879 29.4716C38.7813 29.4687 38.6744 29.4668 38.5671 29.4668C32.3271 29.4668 27.3005 34.4935 27.3005 40.7335C27.3004 40.8514 27.3028 40.9688 27.3064 41.086ZM17.767 1.73337H29.9004V2.6V6.06663V6.93327H17.767V6.06663V2.6V1.73337ZM4.76699 50.2666C4.24699 50.2666 3.90036 49.92 3.90036 49.4V4.33337C3.90036 3.81337 4.24699 3.46673 4.76699 3.46673H16.0336V5.2H7.36699C6.41362 5.2 5.63363 5.98 5.63363 6.93337V46.8C5.63363 47.7534 6.41362 48.5334 7.36699 48.5334H30.4244C31.0569 49.1935 31.7693 49.7762 32.5464 50.2667H4.76699V50.2666ZM38.567 50.2666C35.8128 50.2666 33.3413 49.1136 31.6051 47.2619C31.5702 47.1904 31.523 47.1227 31.4604 47.06C29.999 45.4362 29.1462 43.3561 29.0442 41.176C29.044 41.1706 29.0438 41.1653 29.0436 41.1599C29.0372 41.018 29.0337 40.8759 29.0337 40.7333C29.0337 35.4466 33.2804 31.1999 38.5671 31.1999C38.6787 31.1999 38.7899 31.2024 38.9009 31.2063C38.9111 31.2066 38.9211 31.2071 38.9313 31.2074C38.9564 31.2083 38.9815 31.2098 39.0066 31.2109C39.0804 31.2142 39.154 31.2186 39.2276 31.2236C39.2945 31.2283 39.3615 31.2332 39.4284 31.2397C39.4378 31.2405 39.4471 31.2415 39.4564 31.2425C39.9399 31.2911 40.4236 31.3854 40.9071 31.5466C41.0081 31.5804 41.1093 31.5872 41.2104 31.5735C42.1207 31.8369 43.002 32.2391 43.8448 32.7817C46.4143 34.4849 48.1004 37.4024 48.1004 40.7333C48.1004 46.02 43.8537 50.2666 38.567 50.2666Z" fill="#E22427"/>
<path d="M44.2869 35.794C43.8536 35.4473 43.3336 35.534 43.0736 35.9673L38.2203 42.9006L34.8403 40.1272C34.4937 39.7806 33.8869 39.8672 33.6269 40.2139C33.2803 40.5605 33.3669 41.1672 33.7136 41.4272L37.8736 44.8072C37.9602 44.8939 38.2202 44.9806 38.3936 44.9806C38.3936 44.9806 38.4802 44.9806 38.4802 45.0672C38.7402 45.0672 38.9136 44.8939 39.0868 44.7206L44.4602 37.0072C44.8069 36.574 44.7203 36.054 44.2869 35.794Z" fill="#E22427"/>
<path d="M30.7668 28.5995C32.3744 28.5995 33.7357 27.4904 34.123 25.9995H35.4468C36.7468 25.9995 37.7002 25.0462 37.7868 23.7462V20.3662C37.7868 19.0662 36.7468 18.1128 35.5334 18.1128H33.6874L30.3334 13.4328C29.8134 12.6528 28.9468 12.2194 27.9934 12.2194H24.2432C24.1245 12.1636 23.9868 12.1328 23.8334 12.1328C23.6801 12.1328 23.5425 12.1637 23.4236 12.2194H19.6734C18.7201 12.2194 17.8534 12.6528 17.3334 13.4328L13.9794 18.1128H12.2202C10.9202 18.1128 9.9668 19.1528 9.9668 20.3662V23.7462C9.9668 25.0462 10.9202 25.9995 12.2202 25.9995H13.5439C13.9313 27.4904 15.2924 28.5995 16.9002 28.5995C18.5078 28.5995 19.869 27.4904 20.2564 25.9995H27.4107C27.798 27.4904 29.1592 28.5995 30.7668 28.5995ZM30.7668 26.8662C29.8134 26.8662 29.0334 26.0862 29.0334 25.1328C29.0334 24.1794 29.8134 23.3994 30.7668 23.3994C31.7202 23.3994 32.5002 24.1795 32.5002 25.1329C32.5002 26.0863 31.7202 26.8662 30.7668 26.8662ZM28.8602 14.2995L31.5719 18.1129H24.7002V13.8663H27.9068C28.3402 13.8662 28.6868 14.0395 28.8602 14.2995ZM18.6335 14.2995C18.8935 14.0395 19.2402 13.8662 19.5869 13.8662H22.9669V18.1128H16.0066L18.6335 14.2995ZM16.9002 26.8662C15.9468 26.8662 15.1668 26.0862 15.1668 25.1328C15.1668 24.1794 15.9468 23.3994 16.9002 23.3994C17.8535 23.3994 18.6335 24.1794 18.6335 25.1328C18.6335 26.0862 17.8535 26.8662 16.9002 26.8662ZM16.9868 21.6662C16.971 21.6662 16.9554 21.667 16.9397 21.6672C16.9265 21.6671 16.9135 21.6662 16.9002 21.6662C15.2924 21.6662 13.9313 22.7753 13.5439 24.2662H12.2202C11.9602 24.2662 11.7002 24.0062 11.7002 23.7462V20.3662C11.7002 20.1062 11.9602 19.8462 12.2202 19.8462H13.9104C14.0253 19.9008 14.1546 19.9328 14.3002 19.9328H33.3668C33.5123 19.9328 33.6416 19.9008 33.7566 19.8462H35.5334C35.7934 19.8462 36.0534 20.1062 36.0534 20.3662V23.7462C36.0534 24.0062 35.7934 24.2662 35.5334 24.2662H34.1468C33.7134 22.7928 32.5868 21.6662 30.9402 21.6662C30.9086 21.6662 30.8772 21.6674 30.8458 21.6682C30.8195 21.6676 30.7933 21.6662 30.7668 21.6662C29.1591 21.6662 27.7979 22.7753 27.4106 24.2662H20.3668C19.9335 22.7929 18.6335 21.6662 16.9868 21.6662Z" fill="#E22427"/>
<path d="M23.8334 32.9336H10.8334C10.3134 32.9336 9.9668 33.2802 9.9668 33.8002C9.9668 34.3202 10.3134 34.6669 10.8334 34.6669H23.8334C24.3534 34.6669 24.7001 34.3202 24.7001 33.8002C24.7001 33.2802 24.3534 32.9336 23.8334 32.9336Z" fill="#E22427"/>
<path d="M23.8334 37.2656H10.8334C10.3134 37.2656 9.9668 37.6123 9.9668 38.1323C9.9668 38.6523 10.3134 38.9989 10.8334 38.9989H23.8334C24.3534 38.9989 24.7001 38.6523 24.7001 38.1323C24.7001 37.6123 24.3534 37.2656 23.8334 37.2656Z" fill="#E22427"/>
<path d="M23.8334 41.5996H10.8334C10.3134 41.5996 9.9668 41.9462 9.9668 42.4662C9.9668 42.9862 10.3134 43.3329 10.8334 43.3329H23.8334C24.3534 43.3329 24.7001 42.9862 24.7001 42.4662C24.7001 41.9462 24.3534 41.5996 23.8334 41.5996Z" fill="#E22427"/>
</svg>
