<svg width="48" height="48" viewBox="0 0 48 48" fill="none" xmlns="http://www.w3.org/2000/svg">
<g clip-path="url(#clip0_1212:576)">
<path d="M10.5237 14.6338C10.5236 14.6338 10.5234 14.6338 10.5233 14.6338C9.25252 14.5516 8.15182 15.5065 8.05372 16.7762C7.96352 18.0502 8.92292 19.1561 10.1969 19.2466C10.2513 19.2466 10.3073 19.2522 10.3617 19.2522C11.5735 19.2495 12.5782 18.3128 12.6657 17.1042C12.7564 15.8305 11.7974 14.7245 10.5237 14.6338ZM11.0681 16.9882C11.0391 17.38 10.6992 17.6748 10.3073 17.6482C9.91512 17.6205 9.61952 17.2804 9.64652 16.8882C9.67532 16.5158 9.98582 16.2283 10.3593 16.2282C10.3759 16.2282 10.3913 16.2282 10.4081 16.2282C10.8002 16.2559 11.0956 16.5961 11.0681 16.9882Z" fill="#E22427"/>
<path d="M47.2 17.6C47.6418 17.6 48 17.2418 48 16.8V9.9528C47.9983 8.9213 47.3377 8.0063 46.3592 7.68001L42.824 6.4976L37.2072 1.1128C36.4635 0.397305 35.4712 -0.00159521 34.4392 4.79468e-06H18.8168C17.8373 -0.000395205 16.8917 0.359205 16.16 1.0104L10.0416 6.4504L3.34401 7.57041C1.41341 7.8856 -0.00319459 9.5551 5.41051e-06 11.5112V16.8C5.41051e-06 17.2418 0.358205 17.6 0.800005 17.6H4.86401C5.03841 18.8165 5.60961 19.9414 6.48881 20.8H0.800005C0.358205 20.8 5.41051e-06 21.1582 5.41051e-06 21.6V24.8C5.41051e-06 25.2418 0.358205 25.6 0.800005 25.6H3.78801L19.1872 34.4L3.78801 43.2H0.800005C0.358205 43.2 5.41051e-06 43.5582 5.41051e-06 44V47.2C5.41051e-06 47.6418 0.358205 48 0.800005 48H47.2C47.6418 48 48 47.6418 48 47.2V44C48 43.5582 47.6418 43.2 47.2 43.2H44.212L28.8128 34.4L44.212 25.6H47.2C47.6418 25.6 48 25.2418 48 24.8V21.6C48 21.1582 47.6418 20.8 47.2 20.8H43.1112C43.9904 19.9414 44.5616 18.8165 44.736 17.6H47.2ZM29.6 1.6H34.4392C35.0583 1.5989 35.6537 1.8381 36.1 2.2672L40.4104 6.4H29.6V1.6ZM17.2216 2.2064C17.6611 1.8157 18.2287 1.5999 18.8168 1.6H28V6.4H12.504L17.2216 2.2064ZM33.664 17.6C33.8384 18.8165 34.4096 19.9414 35.2888 20.8H14.3112C15.1904 19.9414 15.7616 18.8165 15.936 17.6H33.664ZM6.06401 13.2632C5.97361 13.3736 5.88881 13.4888 5.80721 13.6056C5.79041 13.6304 5.77201 13.6528 5.75521 13.6768C5.65811 13.8208 5.56801 13.9691 5.48481 14.1216C5.46321 14.16 5.44641 14.2016 5.42561 14.2408C5.36641 14.3552 5.30881 14.4704 5.25761 14.5896C5.23201 14.6488 5.21121 14.7096 5.18801 14.7688C5.14721 14.872 5.10801 14.9744 5.07361 15.08C5.05121 15.1488 5.03361 15.2184 5.01361 15.288C4.98561 15.3888 4.95841 15.4896 4.93361 15.5928C4.91761 15.6664 4.90481 15.7416 4.89121 15.8168C4.88001 15.8776 4.86481 15.9376 4.85601 16H1.60001V12.8H3.20001V11.2H1.62801C1.75991 10.1525 2.56411 9.3161 3.60561 9.1432L10.4664 8H28V16H15.9432C15.9344 15.9384 15.9192 15.8784 15.908 15.8176C15.8944 15.7416 15.8816 15.6664 15.8648 15.592C15.8424 15.4896 15.8152 15.3888 15.7848 15.2888C15.7648 15.2192 15.7472 15.1488 15.7248 15.08C15.6904 14.9744 15.6512 14.872 15.6104 14.7688C15.5872 14.7096 15.5664 14.6488 15.5408 14.5896C15.4896 14.4704 15.432 14.3552 15.3728 14.2408C15.352 14.2016 15.3352 14.1608 15.3136 14.1216C15.2304 13.9685 15.1403 13.8205 15.0432 13.6776C15.0264 13.6512 15.0064 13.628 14.988 13.6024C14.908 13.4864 14.828 13.3728 14.7344 13.2632C14.6976 13.2176 14.6544 13.1752 14.6176 13.1304C14.5432 13.0448 14.4688 12.96 14.3896 12.88C14.3424 12.832 14.2928 12.7872 14.244 12.7408C14.168 12.6688 14.0912 12.5968 14.0112 12.5288C13.9568 12.4832 13.9016 12.44 13.8456 12.3968C13.7656 12.3336 13.6856 12.2728 13.6056 12.2144C13.5456 12.172 13.4848 12.1344 13.4232 12.0928C13.3392 12.0384 13.2544 11.9864 13.1672 11.9328C13.1024 11.896 13.0376 11.8608 12.972 11.8264C12.8832 11.78 12.792 11.7368 12.7008 11.6952C12.6328 11.6648 12.5656 11.6344 12.4968 11.6064C12.4016 11.568 12.3048 11.5336 12.2072 11.5008C12.1384 11.4768 12.0704 11.452 12 11.4312C11.8968 11.4008 11.792 11.376 11.6872 11.3512C11.6192 11.3352 11.552 11.3176 11.4832 11.304C11.3656 11.2808 11.2432 11.2648 11.1264 11.2488C11.0672 11.2416 11.0096 11.2304 10.9496 11.2248C10.768 11.2104 10.5848 11.2 10.4 11.2C10.2152 11.2 10.032 11.2104 9.85201 11.228C9.79201 11.2336 9.73441 11.2448 9.67521 11.252C9.55521 11.268 9.43521 11.284 9.31841 11.3072C9.24961 11.3208 9.18241 11.3384 9.11521 11.3544C9.00961 11.3792 8.90481 11.4048 8.80161 11.4344C8.7312 11.4552 8.66321 11.48 8.59441 11.504C8.49681 11.5368 8.40001 11.5712 8.3048 11.6096C8.236 11.6376 8.16881 11.668 8.10081 11.6984C8.00961 11.74 7.91841 11.7832 7.82961 11.8296C7.76401 11.864 7.69921 11.8992 7.63441 11.936C7.54721 11.9856 7.46241 12.0376 7.37761 12.096C7.31681 12.1352 7.25601 12.176 7.19601 12.2168C7.11601 12.2752 7.03201 12.3368 6.95601 12.4C6.90001 12.4432 6.84481 12.4864 6.79041 12.532C6.71041 12.6 6.6304 12.672 6.55761 12.744C6.50881 12.7904 6.45921 12.8352 6.41201 12.8832C6.33201 12.9632 6.25841 13.048 6.18401 13.1336C6.14161 13.1752 6.10001 13.2176 6.06321 13.2632H6.06401ZM6.40001 16.8C6.40001 14.5909 8.19091 12.8 10.4 12.8C12.6091 12.8 14.4 14.5909 14.4 16.8C14.4 19.0091 12.6091 20.8 10.4 20.8C8.19201 20.7974 6.40261 19.008 6.40001 16.8ZM20.2088 35.6592C20.2088 35.6704 20.2192 35.6808 20.2232 35.692C20.3004 35.9102 20.3962 36.1214 20.5096 36.3232C20.5296 36.36 20.5504 36.3952 20.572 36.4312C20.6905 36.6311 20.8263 36.8204 20.9776 36.9968C20.9848 37.0048 20.9896 37.0152 20.9968 37.0232L10.1872 43.2H7.01281L20.2088 35.6592ZM22.4112 38.0592C23.4237 38.5052 24.5771 38.5052 25.5896 38.0592L34.5872 43.2H13.412L22.4112 38.0592ZM46.4 44.8V46.4H1.60001V44.8H46.4ZM40.9872 43.2H37.8128L26.0088 36.4552C25.7604 36.3138 25.4555 36.3156 25.2088 36.46C24.4678 36.9111 23.537 36.9111 22.796 36.46C22.0571 36.0372 21.6008 35.2514 21.6 34.4C21.6 34.3295 21.5906 34.2592 21.572 34.1912C21.5672 34.1728 21.5568 34.156 21.5504 34.1384C21.5354 34.0902 21.5159 34.0436 21.492 33.9992C21.4808 33.9792 21.4632 33.9632 21.4504 33.944C21.4256 33.9054 21.3975 33.869 21.3664 33.8352C21.3434 33.8155 21.3194 33.7971 21.2944 33.78C21.2654 33.7536 21.2344 33.7295 21.2016 33.708L7.01281 25.6H10.1872L21.9912 32.3448C22.2396 32.4862 22.5445 32.4844 22.7912 32.34C23.5322 31.8889 24.463 31.8889 25.204 32.34C25.9429 32.7628 26.3992 33.5487 26.4 34.4C26.4 34.4705 26.4094 34.5408 26.428 34.6088C26.4328 34.6272 26.4432 34.644 26.4496 34.6616C26.4646 34.7098 26.4841 34.7564 26.508 34.8008C26.5192 34.8208 26.5368 34.8368 26.5496 34.856C26.5744 34.8946 26.6025 34.931 26.6336 34.9648C26.6566 34.9845 26.6806 35.003 26.7056 35.02C26.7346 35.0464 26.7656 35.0705 26.7984 35.092L40.9872 43.2ZM13.4128 25.6H34.588L25.5888 30.7424C24.5764 30.2956 23.4228 30.2956 22.4104 30.7424L13.4128 25.6ZM27.7912 33.1408C27.7912 33.1296 27.7808 33.1192 27.7768 33.108C27.6996 32.8898 27.6038 32.6786 27.4904 32.4768C27.4704 32.44 27.4496 32.4048 27.428 32.3688C27.3095 32.1689 27.1737 31.9796 27.0224 31.8032C27.0152 31.7952 27.0104 31.7848 27.0032 31.7768L37.8128 25.6H40.9872L27.7912 33.1408ZM46.4 22.4V24H1.60001V22.4H46.4ZM39.2 20.8C36.9909 20.8 35.2 19.0091 35.2 16.8C35.2 14.5909 36.9909 12.8 39.2 12.8C41.4091 12.8 43.2 14.5909 43.2 16.8C43.1974 19.008 41.4081 20.7974 39.2 20.8ZM44.6648 15.592C44.6424 15.4896 44.6152 15.3888 44.5848 15.2888C44.5648 15.2192 44.5472 15.1488 44.5248 15.08C44.4904 14.9744 44.4512 14.872 44.4104 14.7688C44.3872 14.7096 44.3664 14.6488 44.3408 14.5896C44.2896 14.4704 44.232 14.3552 44.1728 14.2408C44.152 14.2016 44.1352 14.1608 44.1136 14.1216C44.0304 13.9685 43.9403 13.8205 43.8432 13.6776C43.8264 13.6512 43.8064 13.628 43.788 13.6024C43.708 13.4864 43.628 13.3728 43.5344 13.2632C43.4976 13.2176 43.4544 13.1752 43.4176 13.1304C43.3432 13.0448 43.2688 12.96 43.1896 12.88C43.1424 12.832 43.0928 12.7872 43.044 12.7408C42.968 12.6688 42.8912 12.5968 42.8112 12.5288C42.7568 12.4832 42.7016 12.44 42.6456 12.3968C42.5656 12.3336 42.4856 12.2728 42.4056 12.2144C42.3456 12.172 42.2848 12.1344 42.2232 12.0928C42.1392 12.0384 42.0544 11.9864 41.9672 11.9328C41.9024 11.896 41.8376 11.8608 41.772 11.8264C41.6832 11.78 41.592 11.7368 41.5008 11.6952C41.4328 11.6648 41.3656 11.6344 41.2968 11.6064C41.2016 11.568 41.1048 11.5336 41.0072 11.5008C40.9384 11.4768 40.8704 11.452 40.8 11.4312C40.6968 11.4008 40.592 11.376 40.4872 11.3512C40.4192 11.3352 40.352 11.3176 40.2832 11.304C40.1656 11.2808 40.0432 11.2648 39.9264 11.2488C39.8672 11.2416 39.8096 11.2304 39.7496 11.2248C39.568 11.2104 39.3848 11.2 39.2 11.2C39.0152 11.2 38.832 11.2104 38.652 11.228C38.592 11.2336 38.5344 11.2448 38.4752 11.252C38.3552 11.268 38.2352 11.284 38.1184 11.3072C38.0496 11.3208 37.9824 11.3384 37.9152 11.3544C37.8096 11.3792 37.7048 11.4048 37.6016 11.4344C37.5312 11.4552 37.4632 11.48 37.3944 11.504C37.2968 11.5368 37.2 11.5712 37.1048 11.6096C37.036 11.6376 36.9688 11.668 36.9008 11.6984C36.8096 11.74 36.7184 11.7832 36.6296 11.8296C36.564 11.864 36.4992 11.8992 36.4344 11.936C36.3472 11.9856 36.2624 12.0376 36.1776 12.096C36.1168 12.1352 36.056 12.176 35.996 12.2168C35.916 12.2752 35.836 12.3368 35.756 12.4C35.7 12.4432 35.6448 12.4864 35.5904 12.532C35.5104 12.6 35.4304 12.672 35.3576 12.744C35.3088 12.7904 35.2592 12.8352 35.212 12.8832C35.132 12.9632 35.0584 13.048 34.984 13.1336C34.9456 13.1784 34.904 13.2208 34.8672 13.2664C34.7768 13.3768 34.692 13.492 34.6104 13.6088C34.5936 13.6336 34.5752 13.656 34.5584 13.68C34.4619 13.824 34.3717 13.9723 34.288 14.1248C34.2664 14.1632 34.2496 14.2048 34.2288 14.244C34.1696 14.3584 34.112 14.4736 34.0608 14.5928C34.0352 14.652 34.0144 14.7128 33.9912 14.772C33.9504 14.8752 33.9112 14.9776 33.8768 15.0832C33.8544 15.152 33.8368 15.2216 33.8168 15.2912C33.7888 15.392 33.7616 15.4928 33.7368 15.596C33.7208 15.6696 33.708 15.7448 33.6944 15.82C33.6832 15.8808 33.668 15.9408 33.6592 16.0032H29.6V8H42.2704L45.8528 9.1944C46.1794 9.3032 46.3997 9.6086 46.4 9.9528V10.4H44.8V12H46.4V16H44.7432C44.7344 15.9384 44.7192 15.8784 44.708 15.8176C44.6944 15.7416 44.6816 15.6664 44.6648 15.592Z" fill="#E22427"/>
<path d="M39.3235 14.6337C39.3233 14.6337 39.3232 14.6337 39.3231 14.6337C38.0527 14.5529 36.9528 15.507 36.8535 16.7761C36.7633 18.0501 37.7227 19.156 38.9967 19.2465C39.0511 19.2465 39.1071 19.2521 39.1615 19.2521C40.3733 19.2494 41.378 18.3127 41.4655 17.1041C41.5561 15.8304 40.5971 14.7244 39.3235 14.6337ZM39.8702 16.9881C39.842 17.3806 39.502 17.6766 39.1094 17.6505C38.7172 17.6228 38.4216 17.2827 38.4486 16.8905C38.4762 16.5181 38.7856 16.2296 39.159 16.2281C39.1766 16.2281 39.1926 16.2281 39.2102 16.2281C39.6023 16.2558 39.8977 16.596 39.8702 16.9881Z" fill="#E22427"/>
<path d="M26.3996 9.59961H21.5996V11.1996H26.3996V9.59961Z" fill="#E22427"/>
<path d="M24.8002 33.5996H23.2002V35.1996H24.8002V33.5996Z" fill="#E22427"/>
</g>
<defs>
<clipPath id="clip0_1212:576">
<rect width="48" height="48" fill="white"/>
</clipPath>
</defs>
</svg>
