<svg width="48" height="48" viewBox="0 0 48 48" fill="none" xmlns="http://www.w3.org/2000/svg">
<path d="M42 29.3919V4.00003C42 2.64 40.9601 1.60003 39.6 1.60003H29.2001C29.2001 0.72 28.4801 0 27.6 0H16.4C15.52 0 14.8 0.72 14.8 1.60003H4.4C3.03997 1.60003 2 2.64 2 4.00003V45.6C2 46.96 3.03997 48 4.4 48H35.6C41.36 48 46 43.36 46 37.6C46.0001 34.2575 44.4372 31.2923 42 29.3919ZM39.6 3.19997C40.08 3.19997 40.4 3.51994 40.4 3.99994V28.3653C39.8902 28.1007 39.3553 27.8772 38.8 27.6988V6.40003C38.8 5.52 38.08 4.8 37.1999 4.8H29.2V3.19997H39.6ZM25.2056 37.9255C25.206 37.9414 25.2068 37.9572 25.2073 37.973C25.2746 39.8958 25.8587 41.6829 26.8265 43.2H6.8V6.40003H14.8C14.8 7.28006 15.52 8.00006 16.4 8.00006H27.6C28.4801 8.00006 29.2001 7.28006 29.2001 6.40003H37.2V27.3216C37.0884 27.3044 36.976 27.2896 36.8631 27.276C36.8552 27.2751 36.8472 27.2742 36.8394 27.2733C36.7512 27.2629 36.6627 27.2536 36.5738 27.2454C36.5514 27.2434 36.5291 27.2414 36.5067 27.2395C36.4314 27.2331 36.3559 27.2274 36.2802 27.2227C36.2526 27.2209 36.2249 27.219 36.1974 27.2174C36.1241 27.2133 36.0506 27.2102 35.9769 27.2076C35.95 27.2066 35.9232 27.2053 35.8962 27.2046C35.7978 27.2018 35.6992 27.2002 35.6001 27.2002C29.8401 27.2002 25.2001 31.8401 25.2001 37.6001C25.2 37.709 25.2023 37.8173 25.2056 37.9255ZM16.4 1.60003H27.6V2.4V5.59997V6.39994H16.4V5.59997V2.4V1.60003ZM4.4 46.4C3.92 46.4 3.60003 46.08 3.60003 45.6V4.00003C3.60003 3.52003 3.92 3.20006 4.4 3.20006H14.8V4.8H6.8C5.91997 4.8 5.19997 5.52 5.19997 6.40003V43.2C5.19997 44.08 5.91997 44.8 6.8 44.8H28.0838C28.6676 45.4094 29.3252 45.9473 30.0425 46.4001H4.4V46.4ZM35.6 46.4C33.0577 46.4 30.7763 45.3356 29.1736 43.6264C29.1415 43.5604 29.0979 43.4978 29.04 43.44C27.6911 41.9411 26.9038 40.021 26.8097 38.0086C26.8095 38.0036 26.8093 37.9987 26.8092 37.9938C26.8032 37.8628 26.8001 37.7316 26.8001 37.5999C26.8001 32.72 30.72 28.7999 35.6001 28.7999C35.7031 28.7999 35.8058 28.8022 35.9082 28.8058C35.9176 28.8061 35.9269 28.8066 35.9363 28.8068C35.9594 28.8077 35.9826 28.809 36.0057 28.81C36.0739 28.8131 36.1419 28.8172 36.2097 28.8218C36.2715 28.8262 36.3334 28.8307 36.3952 28.8367C36.4038 28.8374 36.4124 28.8383 36.421 28.8392C36.8673 28.8841 37.3137 28.9711 37.7601 29.12C37.8534 29.1511 37.9468 29.1574 38.04 29.1448C38.8803 29.3879 39.6939 29.7592 40.4718 30.2601C42.8437 31.8322 44.4 34.5253 44.4 37.5999C44.4 42.48 40.4801 46.4 35.6 46.4Z" fill="#E22427"/>
<path d="M40.8796 33.0392C40.4796 32.7193 39.9996 32.7992 39.7596 33.1993L35.2797 39.5992L32.1597 37.0392C31.8397 36.7192 31.2796 36.7992 31.0396 37.1191C30.7197 37.4391 30.7996 37.9992 31.1196 38.2392L34.9596 41.3592C35.0396 41.4391 35.2796 41.5192 35.4396 41.5192C35.4396 41.5192 35.5196 41.5192 35.5196 41.5992C35.7596 41.5992 35.9196 41.4391 36.0795 41.2792L41.0396 34.1592C41.3596 33.7592 41.2797 33.2792 40.8796 33.0392Z" fill="#E22427"/>
<path d="M28.4002 26.3993C29.8842 26.3993 31.1407 25.3754 31.4983 23.9993H32.7202C33.9202 23.9993 34.8002 23.1193 34.8802 21.9193V18.7993C34.8802 17.5993 33.9202 16.7192 32.8002 16.7192H31.0962L28.0002 12.3992C27.5202 11.6792 26.7202 11.2792 25.8402 11.2792H22.3784C22.2689 11.2276 22.1417 11.1992 22.0002 11.1992C21.8586 11.1992 21.7316 11.2277 21.6219 11.2792H18.1602C17.2801 11.2792 16.4802 11.6792 16.0002 12.3992L12.9042 16.7192H11.2802C10.0802 16.7192 9.2002 17.6792 9.2002 18.7993V21.9193C9.2002 23.1193 10.0802 23.9993 11.2802 23.9993H12.5022C12.8597 25.3754 14.1162 26.3993 15.6002 26.3993C17.0842 26.3993 18.3407 25.3754 18.6983 23.9993H25.3022C25.6598 25.3754 26.9162 26.3993 28.4002 26.3993ZM28.4002 24.7992C27.5202 24.7992 26.8002 24.0793 26.8002 23.1992C26.8002 22.3192 27.5202 21.5992 28.4002 21.5992C29.2802 21.5992 30.0002 22.3193 30.0002 23.1993C30.0002 24.0793 29.2802 24.7992 28.4002 24.7992ZM26.6402 13.1993L29.1434 16.7193H22.8002V12.7993H25.7602C26.1602 12.7992 26.4802 12.9593 26.6402 13.1993ZM17.2003 13.1993C17.4403 12.9593 17.7602 12.7993 18.0803 12.7993H21.2003V16.7192H14.7754L17.2003 13.1993ZM15.6002 24.7992C14.7202 24.7992 14.0002 24.0793 14.0002 23.1992C14.0002 22.3192 14.7202 21.5992 15.6002 21.5992C16.4803 21.5992 17.2003 22.3192 17.2003 23.1992C17.2003 24.0793 16.4803 24.7992 15.6002 24.7992ZM15.6802 19.9992C15.6656 19.9992 15.6512 20 15.6367 20.0002C15.6245 20.0001 15.6125 19.9992 15.6002 19.9992C14.1162 19.9992 12.8597 21.0231 12.5022 22.3993H11.2802C11.0402 22.3993 10.8002 22.1593 10.8002 21.9193V18.7993C10.8002 18.5593 11.0402 18.3192 11.2802 18.3192H12.8404C12.9465 18.3697 13.0659 18.3992 13.2002 18.3992H30.8002C30.9345 18.3992 31.0539 18.3697 31.16 18.3192H32.8002C33.0402 18.3192 33.2802 18.5593 33.2802 18.7993V21.9193C33.2802 22.1593 33.0402 22.3993 32.8002 22.3993H31.5202C31.1202 21.0392 30.0802 19.9992 28.5602 19.9992C28.5311 19.9992 28.5021 20.0004 28.4731 20.0011C28.4489 20.0006 28.4247 19.9992 28.4002 19.9992C26.9161 19.9992 25.6597 21.0231 25.3021 22.3993H18.8002C18.4003 21.0393 17.2003 19.9992 15.6802 19.9992Z" fill="#E22427"/>
<path d="M22.0002 30.4004H10.0002C9.52016 30.4004 9.2002 30.7204 9.2002 31.2004C9.2002 31.6804 9.52016 32.0003 10.0002 32.0003H22.0002C22.4802 32.0003 22.8001 31.6804 22.8001 31.2004C22.8001 30.7204 22.4802 30.4004 22.0002 30.4004Z" fill="#E22427"/>
<path d="M22.0002 34.4004H10.0002C9.52016 34.4004 9.2002 34.7204 9.2002 35.2004C9.2002 35.6804 9.52016 36.0003 10.0002 36.0003H22.0002C22.4802 36.0003 22.8001 35.6804 22.8001 35.2004C22.8001 34.7204 22.4802 34.4004 22.0002 34.4004Z" fill="#E22427"/>
<path d="M22.0002 38.4004H10.0002C9.52016 38.4004 9.2002 38.7204 9.2002 39.2004C9.2002 39.6804 9.52016 40.0003 10.0002 40.0003H22.0002C22.4802 40.0003 22.8001 39.6804 22.8001 39.2004C22.8001 38.7204 22.4802 38.4004 22.0002 38.4004Z" fill="#E22427"/>
</svg>
