<svg width="37" height="35" viewBox="0 0 37 35" fill="none" xmlns="http://www.w3.org/2000/svg">
<path d="M22.3958 13.4471L20.6839 12.9075L18.9369 11.2549C18.8213 11.1455 18.6645 11.084 18.5009 11.084H12.9509C12.7873 11.084 12.6306 11.1455 12.5149 11.2549L10.7883 12.8882L8.48686 13.4325C8.2106 13.4968 8.01673 13.7315 8.01758 14.0007V16.9173C8.01758 17.2395 8.29369 17.5007 8.63425 17.5007H9.98105C10.3152 18.4079 11.3635 18.8871 12.3225 18.5711C12.8526 18.3964 13.2694 18.0022 13.4541 17.5007H17.3811C17.7152 18.4079 18.7635 18.8871 19.7225 18.5711C20.2526 18.3964 20.6694 18.0022 20.8541 17.5007H22.2009C22.5415 17.5007 22.8176 17.2395 22.8176 16.9173V14.0007C22.8177 13.7495 22.6477 13.5265 22.3958 13.4471ZM11.7176 17.5007C11.377 17.5007 11.1009 17.2395 11.1009 16.9173C11.1009 16.5952 11.377 16.334 11.7176 16.334C12.0581 16.334 12.3343 16.5952 12.3343 16.9173C12.3343 17.2395 12.0581 17.5007 11.7176 17.5007ZM19.1176 17.5007C18.777 17.5007 18.5009 17.2395 18.5009 16.9173C18.5009 16.5952 18.777 16.334 19.1176 16.334C19.4581 16.334 19.7343 16.5952 19.7343 16.9173C19.7343 17.2395 19.4581 17.5007 19.1176 17.5007ZM21.5843 16.334H20.8621C20.8547 16.3142 20.8436 16.2967 20.8356 16.2757C20.8221 16.243 20.806 16.2121 20.7906 16.1806C20.7587 16.116 20.7226 16.0533 20.6827 15.9927C20.6642 15.9642 20.6463 15.9344 20.6253 15.9082C20.5736 15.8393 20.5167 15.774 20.4551 15.7127C20.4422 15.6999 20.4311 15.6853 20.4181 15.6731C20.3419 15.6018 20.2594 15.5368 20.1715 15.4788C20.145 15.4648 20.1178 15.4514 20.0925 15.4362C20.0255 15.3964 19.9559 15.3606 19.8841 15.3289C19.8502 15.3143 19.8157 15.3015 19.7805 15.2887C19.7081 15.2622 19.634 15.2403 19.5585 15.2233C19.5246 15.2152 19.4919 15.2058 19.4574 15.2C19.2336 15.1566 19.0028 15.1566 18.779 15.2C18.7445 15.2058 18.7118 15.2152 18.6779 15.2233C18.6024 15.2403 18.5283 15.2622 18.4559 15.2887C18.4208 15.3015 18.3868 15.3143 18.3529 15.3289C18.2809 15.3604 18.211 15.3962 18.1439 15.4362C18.1186 15.4514 18.0915 15.4648 18.0668 15.4806C17.9789 15.5385 17.8964 15.6036 17.8201 15.6748C17.8072 15.6871 17.7961 15.7017 17.7831 15.7145C17.7215 15.7757 17.6646 15.841 17.6129 15.9099C17.5926 15.9373 17.5741 15.9682 17.5556 15.9945C17.5156 16.055 17.4796 16.1177 17.4477 16.1823C17.4316 16.2138 17.4162 16.2447 17.4026 16.2774C17.3946 16.2967 17.3835 16.3142 17.3761 16.3357H13.4621C13.4547 16.3159 13.4436 16.2984 13.4356 16.2774C13.4221 16.2447 13.406 16.2138 13.3906 16.1823C13.3587 16.1177 13.3226 16.055 13.2827 15.9945C13.2642 15.9659 13.2463 15.9362 13.2253 15.9099C13.1736 15.841 13.1167 15.7757 13.0551 15.7145C13.0422 15.7017 13.0311 15.6871 13.0181 15.6748C12.9419 15.6036 12.8593 15.5385 12.7715 15.4806C12.7468 15.4648 12.7197 15.4514 12.6944 15.4362C12.6273 15.3964 12.5577 15.3606 12.486 15.3289C12.452 15.3143 12.4175 15.3015 12.3824 15.2887C12.31 15.2622 12.2358 15.2403 12.1604 15.2233C12.1264 15.2152 12.0938 15.2058 12.0592 15.2C11.8354 15.1566 11.6047 15.1566 11.3809 15.2C11.3464 15.2058 11.3137 15.2152 11.2798 15.2233C11.2043 15.2403 11.1301 15.2622 11.0578 15.2887C11.0226 15.3015 10.9887 15.3143 10.9548 15.3289C10.8827 15.3604 10.8129 15.3962 10.7457 15.4362C10.7204 15.4514 10.6933 15.4648 10.6686 15.4806C10.5808 15.5385 10.4982 15.6036 10.422 15.6748C10.409 15.6871 10.3979 15.7017 10.385 15.7145C10.3234 15.7757 10.2665 15.841 10.2148 15.9099C10.1944 15.9373 10.1759 15.9682 10.1574 15.9945C10.1175 16.055 10.0814 16.1177 10.0495 16.1823C10.0335 16.2138 10.018 16.2447 10.0045 16.2774C9.99647 16.2967 9.98537 16.3142 9.97797 16.3357H9.25092V14.4562L11.2508 13.9832C11.3591 13.9575 11.458 13.9044 11.5369 13.8297L13.2062 12.2507H18.2456L19.9149 13.8297C19.9828 13.8937 20.0653 13.942 20.1561 13.9709L21.5843 14.4212V16.334Z" fill="#E22427"/>
<path d="M33.7357 13.0042L31.8857 11.2542C31.6449 11.0265 31.2545 11.0265 31.0137 11.2542L27.7497 14.3418V6.41667C27.7477 4.80667 26.3683 3.5019 24.6663 3.5H17.883V2.33333C17.883 1.04468 16.7786 0 15.4163 0C14.054 0 12.9497 1.04468 12.9497 2.33333V3.5H6.16634C4.46434 3.5019 3.08501 4.80667 3.08301 6.41667V32.0833C3.08501 33.6933 4.46434 34.9981 6.16634 35H24.6663C26.3683 34.9981 27.7477 33.6933 27.7497 32.0833V19.4915L33.7357 13.8291C33.9764 13.6013 33.9764 13.232 33.7357 13.0042ZM24.6663 4.66667C25.6881 4.66667 26.5163 5.45016 26.5163 6.41667V15.5085L25.283 16.6752V6.41667C25.283 6.09452 25.0069 5.83333 24.6663 5.83333H21.702L21.2395 4.66667H24.6663ZM19.297 24.9124C19.3493 24.96 19.41 24.9982 19.4765 25.0256C19.4919 25.0326 19.5067 25.0384 19.5227 25.0442C19.5886 25.0681 19.6582 25.0811 19.7287 25.0828H19.733C19.7835 25.0827 19.8338 25.0768 19.8829 25.0653L22.3495 24.4819C22.4578 24.4563 22.5567 24.4032 22.6357 24.3285L24.0497 22.9915V26.8333H19.733C19.3925 26.8333 19.1163 27.0945 19.1163 27.4167V31.5H6.78301V7H8.66816L8.05519 8.54525C7.93564 8.84691 8.09728 9.18312 8.41617 9.29622C8.48547 9.32079 8.55893 9.33341 8.63301 9.33333H22.1997C22.5402 9.33355 22.8165 9.07251 22.8167 8.75036C22.8168 8.68029 22.8035 8.6108 22.7775 8.54525L22.1645 7H24.0497V17.8418L19.9137 21.7542C19.8348 21.8289 19.7786 21.9225 19.7515 22.0249L19.1348 24.3582C19.0822 24.5571 19.1438 24.7675 19.297 24.9124ZM24.0497 28.8248V31.5H21.2216L24.0497 28.8248ZM20.3497 30.6752V28H23.1777L20.3497 30.6752ZM10.1358 6.62083L10.9104 4.66667H13.5663C13.9069 4.66667 14.183 4.40548 14.183 4.08333V2.33333C14.183 1.68897 14.7352 1.16667 15.4163 1.16667C16.0975 1.16667 16.6497 1.68897 16.6497 2.33333V4.08333C16.6497 4.40548 16.9258 4.66667 17.2663 4.66667H19.9223L20.6969 6.62083L21.3098 8.16667H9.52286L10.1358 6.62142V6.62083ZM26.5163 32.0833C26.5163 33.0498 25.6881 33.8333 24.6663 33.8333H6.16634C5.1446 33.8333 4.31634 33.0498 4.31634 32.0833V6.41667C4.31634 5.45016 5.1446 4.66667 6.16634 4.66667H9.59316L9.13066 5.83333H6.16634C5.82579 5.83333 5.54967 6.09452 5.54967 6.41667V32.0833C5.54967 32.4055 5.82579 32.6667 6.16634 32.6667H24.6663C25.0069 32.6667 25.283 32.4055 25.283 32.0833V21.8248L26.5163 20.6582V32.0833ZM26.697 18.8376L24.2304 21.1709L21.887 23.3876L20.5834 23.6956L20.909 22.4624L25.1023 18.4958L27.569 16.1624L29.5997 14.2415L30.5777 15.1667L26.697 18.8376ZM31.4497 14.3418L30.4716 13.4167L31.4497 12.4915L32.4277 13.4167L31.4497 14.3418Z" fill="#E22427"/>
<path d="M19.1161 19.834H8.63281V21.0007H19.1161V19.834Z" fill="#E22427"/>
<path d="M17.2662 22.166H8.63281V23.3327H17.2662V22.166Z" fill="#E22427"/>
<path d="M17.2662 24.5H8.63281V25.6667H17.2662V24.5Z" fill="#E22427"/>
<path d="M17.2662 26.834H8.63281V28.0007H17.2662V26.834Z" fill="#E22427"/>
</svg>
