<svg width="30" height="30" viewBox="0 0 30 30" fill="none" xmlns="http://www.w3.org/2000/svg">
<g clip-path="url(#clip0_611:524)">
<path d="M6.57769 9.14566C6.57763 9.14566 6.57751 9.14566 6.57744 9.14566C5.78319 9.09429 5.09526 9.6911 5.03394 10.4847C4.97757 11.2809 5.57719 11.9721 6.37344 12.0287C6.40744 12.0287 6.44244 12.0322 6.47644 12.0322C7.23382 12.0305 7.86176 11.445 7.91644 10.6897C7.97313 9.8936 7.37376 9.20235 6.57769 9.14566ZM6.91794 10.6172C6.89982 10.862 6.68738 11.0463 6.44244 11.0297C6.19732 11.0123 6.01257 10.7998 6.02944 10.5547C6.04744 10.3219 6.24151 10.1422 6.47494 10.1422C6.48532 10.1422 6.49494 10.1422 6.50544 10.1422C6.75051 10.1595 6.93513 10.3721 6.91794 10.6172Z" fill="#E22427"/>
<path d="M29.5 11C29.7761 11 30 10.7761 30 10.5V6.2205C29.9989 5.57582 29.5861 5.00394 28.9745 4.8L26.765 4.061L23.2545 0.695503C22.7897 0.248315 22.1695 -0.000997003 21.5245 2.99667e-06H11.7605C11.1483 -0.000247003 10.5573 0.224503 10.1 0.631503L6.276 4.0315L2.09 4.7315C0.883378 4.9285 -0.00199662 5.97194 3.38157e-06 7.1945V10.5C3.38157e-06 10.7761 0.223878 11 0.500003 11H3.04C3.149 11.7603 3.506 12.4634 4.0555 13H0.500003C0.223878 13 3.38157e-06 13.2239 3.38157e-06 13.5V15.5C3.38157e-06 15.7761 0.223878 16 0.500003 16H2.3675L11.992 21.5L2.3675 27H0.500003C0.223878 27 3.38157e-06 27.2239 3.38157e-06 27.5V29.5C3.38157e-06 29.7761 0.223878 30 0.500003 30H29.5C29.7761 30 30 29.7761 30 29.5V27.5C30 27.2239 29.7761 27 29.5 27H27.6325L18.008 21.5L27.6325 16H29.5C29.7761 16 30 15.7761 30 15.5V13.5C30 13.2239 29.7761 13 29.5 13H26.9445C27.494 12.4634 27.851 11.7603 27.96 11H29.5ZM18.5 1H21.5245C21.9114 0.999316 22.2836 1.14882 22.5625 1.417L25.2565 4H18.5V1ZM10.7635 1.379C11.0382 1.13482 11.3929 0.99994 11.7605 1H17.5V4H7.815L10.7635 1.379ZM21.04 11C21.149 11.7603 21.506 12.4634 22.0555 13H8.9445C9.494 12.4634 9.851 11.7603 9.96 11H21.04ZM3.79 8.2895C3.7335 8.3585 3.6805 8.4305 3.6295 8.5035C3.619 8.519 3.6075 8.533 3.597 8.548C3.53632 8.638 3.48 8.73069 3.428 8.826C3.4145 8.85 3.404 8.876 3.391 8.9005C3.354 8.972 3.318 9.044 3.286 9.1185C3.27 9.1555 3.257 9.1935 3.2425 9.2305C3.217 9.295 3.1925 9.359 3.171 9.425C3.157 9.468 3.146 9.5115 3.1335 9.555C3.116 9.618 3.099 9.681 3.0835 9.7455C3.0735 9.7915 3.0655 9.8385 3.057 9.8855C3.05 9.9235 3.0405 9.961 3.035 10H1V8H2V7H1.0175C1.09994 6.34532 1.60257 5.82257 2.2535 5.7145L6.5415 5H17.5V10H9.9645C9.959 9.9615 9.9495 9.924 9.9425 9.886C9.934 9.8385 9.926 9.7915 9.9155 9.745C9.9015 9.681 9.8845 9.618 9.8655 9.5555C9.853 9.512 9.842 9.468 9.828 9.425C9.8065 9.359 9.782 9.295 9.7565 9.2305C9.742 9.1935 9.729 9.1555 9.713 9.1185C9.681 9.044 9.645 8.972 9.608 8.9005C9.595 8.876 9.5845 8.8505 9.571 8.826C9.519 8.73032 9.46269 8.63782 9.402 8.5485C9.3915 8.532 9.379 8.5175 9.3675 8.5015C9.3175 8.429 9.2675 8.358 9.209 8.2895C9.186 8.261 9.159 8.2345 9.136 8.2065C9.0895 8.153 9.043 8.1 8.9935 8.05C8.964 8.02 8.933 7.992 8.9025 7.963C8.855 7.918 8.807 7.873 8.757 7.8305C8.723 7.802 8.6885 7.775 8.6535 7.748C8.6035 7.7085 8.5535 7.6705 8.5035 7.634C8.466 7.6075 8.428 7.584 8.3895 7.558C8.337 7.524 8.284 7.4915 8.2295 7.458C8.189 7.435 8.1485 7.413 8.1075 7.3915C8.052 7.3625 7.995 7.3355 7.938 7.3095C7.8955 7.2905 7.8535 7.2715 7.8105 7.254C7.751 7.23 7.6905 7.2085 7.6295 7.188C7.5865 7.173 7.544 7.1575 7.5 7.1445C7.4355 7.1255 7.37 7.11 7.3045 7.0945C7.262 7.0845 7.22 7.0735 7.177 7.065C7.1035 7.0505 7.027 7.0405 6.954 7.0305C6.917 7.026 6.881 7.019 6.8435 7.0155C6.73 7.0065 6.6155 7 6.5 7C6.3845 7 6.27 7.0065 6.1575 7.0175C6.12 7.021 6.084 7.028 6.047 7.0325C5.972 7.0425 5.897 7.0525 5.824 7.067C5.781 7.0755 5.739 7.0865 5.697 7.0965C5.631 7.112 5.5655 7.128 5.501 7.1465C5.457 7.1595 5.4145 7.175 5.3715 7.19C5.3105 7.2105 5.25 7.232 5.1905 7.256C5.1475 7.2735 5.1055 7.2925 5.063 7.3115C5.006 7.3375 4.949 7.3645 4.8935 7.3935C4.8525 7.415 4.812 7.437 4.7715 7.46C4.717 7.491 4.664 7.5235 4.611 7.56C4.573 7.5845 4.535 7.61 4.4975 7.6355C4.4475 7.672 4.395 7.7105 4.3475 7.75C4.3125 7.777 4.278 7.804 4.244 7.8325C4.194 7.875 4.144 7.92 4.0985 7.965C4.068 7.994 4.037 8.022 4.0075 8.052C3.9575 8.102 3.9115 8.155 3.865 8.2085C3.8385 8.2345 3.8125 8.261 3.7895 8.2895H3.79ZM4 10.5C4 9.11932 5.11932 8 6.5 8C7.88069 8 9 9.11932 9 10.5C9 11.8807 7.88069 13 6.5 13C5.12 12.9984 4.00163 11.88 4 10.5ZM12.6305 22.287C12.6305 22.294 12.637 22.3005 12.6395 22.3075C12.6878 22.4439 12.7476 22.5759 12.8185 22.702C12.831 22.725 12.844 22.747 12.8575 22.7695C12.9316 22.8944 13.0164 23.0128 13.111 23.123C13.1155 23.128 13.1185 23.1345 13.123 23.1395L6.367 27H4.383L12.6305 22.287ZM14.007 23.787C14.6398 24.0658 15.3607 24.0658 15.9935 23.787L21.617 27H8.3825L14.007 23.787ZM29 28V29H1V28H29ZM25.617 27H23.633L16.2555 22.7845C16.1003 22.6961 15.9097 22.6973 15.7555 22.7875C15.2924 23.0694 14.7106 23.0694 14.2475 22.7875C13.7857 22.5233 13.5005 22.0321 13.5 21.5C13.5 21.4559 13.4941 21.412 13.4825 21.3695C13.4795 21.358 13.473 21.3475 13.469 21.3365C13.4596 21.3064 13.4474 21.2773 13.4325 21.2495C13.4255 21.237 13.4145 21.227 13.4065 21.215C13.391 21.1909 13.3734 21.1681 13.354 21.147C13.3396 21.1347 13.3246 21.1232 13.309 21.1125C13.2909 21.096 13.2715 21.0809 13.251 21.0675L4.383 16H6.367L13.7445 20.2155C13.8998 20.3039 14.0903 20.3028 14.2445 20.2125C14.7076 19.9306 15.2894 19.9306 15.7525 20.2125C16.2143 20.4768 16.4995 20.9679 16.5 21.5C16.5 21.5441 16.5059 21.588 16.5175 21.6305C16.5205 21.642 16.527 21.6525 16.531 21.6635C16.5404 21.6936 16.5526 21.7228 16.5675 21.7505C16.5745 21.763 16.5855 21.773 16.5935 21.785C16.609 21.8091 16.6266 21.8319 16.646 21.853C16.6604 21.8653 16.6754 21.8769 16.691 21.8875C16.7091 21.904 16.7285 21.9191 16.749 21.9325L25.617 27ZM8.383 16H21.6175L15.993 19.214C15.3603 18.9348 14.6393 18.9348 14.0065 19.214L8.383 16ZM17.3695 20.713C17.3695 20.706 17.363 20.6995 17.3605 20.6925C17.3123 20.5561 17.2524 20.4241 17.1815 20.298C17.169 20.275 17.156 20.253 17.1425 20.2305C17.0684 20.1056 16.9836 19.9873 16.889 19.877C16.8845 19.872 16.8815 19.8655 16.877 19.8605L23.633 16H25.617L17.3695 20.713ZM29 14V15H1V14H29ZM24.5 13C23.1193 13 22 11.8807 22 10.5C22 9.11932 23.1193 8 24.5 8C25.8807 8 27 9.11932 27 10.5C26.9984 11.88 25.8801 12.9984 24.5 13ZM27.9155 9.745C27.9015 9.681 27.8845 9.618 27.8655 9.5555C27.853 9.512 27.842 9.468 27.828 9.425C27.8065 9.359 27.782 9.295 27.7565 9.2305C27.742 9.1935 27.729 9.1555 27.713 9.1185C27.681 9.044 27.645 8.972 27.608 8.9005C27.595 8.876 27.5845 8.8505 27.571 8.826C27.519 8.73032 27.4627 8.63782 27.402 8.5485C27.3915 8.532 27.379 8.5175 27.3675 8.5015C27.3175 8.429 27.2675 8.358 27.209 8.2895C27.186 8.261 27.159 8.2345 27.136 8.2065C27.0895 8.153 27.043 8.1 26.9935 8.05C26.964 8.02 26.933 7.992 26.9025 7.963C26.855 7.918 26.807 7.873 26.757 7.8305C26.723 7.802 26.6885 7.775 26.6535 7.748C26.6035 7.7085 26.5535 7.6705 26.5035 7.634C26.466 7.6075 26.428 7.584 26.3895 7.558C26.337 7.524 26.284 7.4915 26.2295 7.458C26.189 7.435 26.1485 7.413 26.1075 7.3915C26.052 7.3625 25.995 7.3355 25.938 7.3095C25.8955 7.2905 25.8535 7.2715 25.8105 7.254C25.751 7.23 25.6905 7.2085 25.6295 7.188C25.5865 7.173 25.544 7.1575 25.5 7.1445C25.4355 7.1255 25.37 7.11 25.3045 7.0945C25.262 7.0845 25.22 7.0735 25.177 7.065C25.1035 7.0505 25.027 7.0405 24.954 7.0305C24.917 7.026 24.881 7.019 24.8435 7.0155C24.73 7.0065 24.6155 7 24.5 7C24.3845 7 24.27 7.0065 24.1575 7.0175C24.12 7.021 24.084 7.028 24.047 7.0325C23.972 7.0425 23.897 7.0525 23.824 7.067C23.781 7.0755 23.739 7.0865 23.697 7.0965C23.631 7.112 23.5655 7.128 23.501 7.1465C23.457 7.1595 23.4145 7.175 23.3715 7.19C23.3105 7.2105 23.25 7.232 23.1905 7.256C23.1475 7.2735 23.1055 7.2925 23.063 7.3115C23.006 7.3375 22.949 7.3645 22.8935 7.3935C22.8525 7.415 22.812 7.437 22.7715 7.46C22.717 7.491 22.664 7.5235 22.611 7.56C22.573 7.5845 22.535 7.61 22.4975 7.6355C22.4475 7.672 22.3975 7.7105 22.3475 7.75C22.3125 7.777 22.278 7.804 22.244 7.8325C22.194 7.875 22.144 7.92 22.0985 7.965C22.068 7.994 22.037 8.022 22.0075 8.052C21.9575 8.102 21.9115 8.155 21.865 8.2085C21.841 8.2365 21.815 8.263 21.792 8.2915C21.7355 8.3605 21.6825 8.4325 21.6315 8.5055C21.621 8.521 21.6095 8.535 21.599 8.55C21.5387 8.64 21.4823 8.73269 21.43 8.828C21.4165 8.852 21.406 8.878 21.393 8.9025C21.356 8.974 21.32 9.046 21.288 9.1205C21.272 9.1575 21.259 9.1955 21.2445 9.2325C21.219 9.297 21.1945 9.361 21.173 9.427C21.159 9.47 21.148 9.5135 21.1355 9.557C21.118 9.62 21.101 9.683 21.0855 9.7475C21.0755 9.7935 21.0675 9.8405 21.059 9.8875C21.052 9.9255 21.0425 9.963 21.037 10.002H18.5V5H26.419L28.658 5.7465C28.8621 5.8145 28.9998 6.00538 29 6.2205V6.5H28V7.5H29V10H27.9645C27.959 9.9615 27.9495 9.924 27.9425 9.886C27.934 9.8385 27.926 9.7915 27.9155 9.745Z" fill="#E22427"/>
<path d="M24.5777 9.14556C24.5776 9.14556 24.5775 9.14556 24.5774 9.14556C23.7834 9.09506 23.096 9.69137 23.0339 10.4846C22.9776 11.2808 23.5772 11.972 24.3734 12.0286C24.4074 12.0286 24.4424 12.0321 24.4764 12.0321C25.2338 12.0304 25.8618 11.4449 25.9164 10.6896C25.9731 9.8935 25.3737 9.20225 24.5777 9.14556ZM24.9194 10.6171C24.9018 10.8624 24.6893 11.0474 24.4439 11.0311C24.1988 11.0137 24.014 10.8012 24.0309 10.5561C24.0481 10.3233 24.2415 10.143 24.4749 10.1421C24.4859 10.1421 24.4959 10.1421 24.5069 10.1421C24.7519 10.1594 24.9366 10.372 24.9194 10.6171Z" fill="#E22427"/>
<path d="M16.5 6H13.5V7H16.5V6Z" fill="#E22427"/>
<path d="M15.5 21H14.5V22H15.5V21Z" fill="#E22427"/>
</g>
<defs>
<clipPath id="clip0_611:524">
<rect width="30" height="30" fill="white"/>
</clipPath>
</defs>
</svg>
