<svg width="34" height="34" viewBox="0 0 34 34" fill="none" xmlns="http://www.w3.org/2000/svg">
<path d="M33.834 16.032L32.7006 14.8987C32.5944 14.7925 32.4503 14.7327 32.3 14.7327H30.6C30.2871 14.7327 30.0333 14.9864 30.0333 15.2993V18.1327H28.9V14.166C28.9 13.8531 28.6463 13.5993 28.3333 13.5993H24.6698L22.5732 10.4515C22.4677 10.2934 22.29 10.1988 22.1 10.1993H18.7V9.06602H22.6667C22.9796 9.06602 23.2333 8.81229 23.2333 8.49935V6.23268C23.2333 5.91974 22.9796 5.66602 22.6667 5.66602H11.3333C11.0204 5.66602 10.7667 5.91974 10.7667 6.23268V8.49935C10.7667 8.81229 11.0204 9.06602 11.3333 9.06602H15.3V10.1993H11.9C11.7106 10.1993 11.5336 10.2939 11.4285 10.4515L9.33017 13.5993H6.23333C5.92039 13.5993 5.66667 13.8531 5.66667 14.166V17.566H4.53333V14.166C4.53333 13.8531 4.27961 13.5993 3.96667 13.5993H1.7C1.51059 13.5993 1.33365 13.6939 1.22853 13.8515L0.0952 15.5515C0.0332917 15.6447 0.0002125 15.7541 0 15.866V17.566C0.0002125 17.6779 0.0332917 17.7873 0.0952 17.8805L1.13333 19.436V24.366C1.13333 24.679 1.38706 24.9327 1.7 24.9327H3.96667C4.27961 24.9327 4.53333 24.679 4.53333 24.366V20.966H5.66667V24.366C5.66667 24.679 5.92039 24.9327 6.23333 24.9327H9.33017L11.4268 28.0805C11.5323 28.2386 11.71 28.3332 11.9 28.3327H28.3333C28.6463 28.3327 28.9 28.079 28.9 27.766V22.666H30.0333V26.6327C30.0333 26.9456 30.2871 27.1993 30.6 27.1993H32.3C32.4503 27.1993 32.5944 27.1396 32.7006 27.0333L33.834 25.9C33.9402 25.7937 34 25.6497 34 25.4993V16.4327C34 16.2824 33.9402 16.1383 33.834 16.032ZM3.4 18.1327V23.7993H2.26667V19.266C2.26645 19.1541 2.23338 19.0447 2.17147 18.9515L1.13333 17.396V16.036L2.00317 14.7327H3.4V18.1327ZM5.66667 19.8327H4.53333V18.6993H5.66667V19.8327ZM11.9 7.93268V6.79935H22.1V7.93268H11.9ZM17.5667 9.06602V10.1993H16.4333V9.06602H17.5667ZM25.5 27.1993H12.2032L10.1065 24.0515C10.001 23.8934 9.82338 23.7988 9.63333 23.7993H6.8V14.7327H9.63333C9.82274 14.7327 9.99968 14.6381 10.1048 14.4805L12.2032 11.3327H21.7968L23.8935 14.4805C23.999 14.6386 24.1766 14.7332 24.3667 14.7327H25.5V27.1993ZM27.7667 18.6993V27.1993H26.6333V14.7327H27.7667V18.6993ZM30.0333 21.5327H28.9V19.266H30.0333V21.5327ZM32.8667 25.2647L32.0654 26.066H31.1667V15.866H32.0654L32.8667 16.6673V25.2647Z" fill="#E22427"/>
<path d="M21.9505 18.3169C21.8431 18.1998 21.6916 18.1332 21.5328 18.1332H18.8394L19.8192 13.7228C19.8871 13.4173 19.6945 13.1146 19.389 13.0467C19.2083 13.0066 19.0195 13.0571 18.8831 13.1822L12.0831 19.4156C11.8524 19.6271 11.8369 19.9856 12.0484 20.2162C12.1558 20.3333 12.3073 20.3999 12.4661 20.3999H15.1595L14.1797 24.8102C14.1119 25.1157 14.3045 25.4184 14.61 25.4863C14.7906 25.5265 14.9794 25.4759 15.1159 25.3508L21.9159 19.1175C22.1465 18.906 22.162 18.5475 21.9505 18.3169ZM15.6763 23.2995L16.4192 19.9562C16.4871 19.6507 16.2945 19.3479 15.989 19.2801C15.9487 19.2711 15.9075 19.2665 15.8661 19.2665H13.923L18.3226 15.2336L17.5797 18.5769C17.5118 18.8824 17.7044 19.1851 18.0099 19.253C18.0503 19.262 18.0914 19.2665 18.1328 19.2665H20.0759L15.6763 23.2995Z" fill="#E22427"/>
<path d="M9.06693 18.1328H7.93359V22.6661H9.06693V18.1328Z" fill="#E22427"/>
<path d="M9.06693 15.8672H7.93359V17.0005H9.06693V15.8672Z" fill="#E22427"/>
</svg>
