<svg width="50" height="50" viewBox="0 0 50 50" fill="none" xmlns="http://www.w3.org/2000/svg">
<g clip-path="url(#clip0_1233:1615)">
<path d="M38.4906 19.6622C37.5326 20.2662 36.4461 20.5785 35.344 20.5785C34.9487 20.5785 34.5513 20.5383 34.1574 20.457C32.5012 20.1152 31.0685 19.0794 30.2268 17.615C29.3854 16.1513 29.2127 14.3886 29.753 12.7791C30.6808 10.0153 33.5454 8.33299 36.4163 8.86575C37.005 8.97504 37.5691 9.16969 38.0927 9.44431C38.4571 9.63548 38.5976 10.086 38.4065 10.4504C38.2153 10.8148 37.765 10.9555 37.4005 10.7643C37.009 10.5589 36.5863 10.4133 36.1444 10.3312C33.9989 9.93336 31.8587 11.1893 31.1659 13.2534C30.7552 14.4767 30.8805 15.7619 31.5188 16.8723C32.1482 17.9672 33.2196 18.7417 34.4584 18.9973C36.7474 19.4694 39.0677 18.007 39.6309 15.7368C39.8952 14.6712 39.7553 13.5525 39.2369 12.5867C39.0422 12.2242 39.1783 11.7724 39.5409 11.5777C39.9036 11.3831 40.3554 11.5193 40.55 11.8818C41.2436 13.1738 41.4309 14.6704 41.0774 16.0956C40.7103 17.5752 39.7916 18.8418 38.4906 19.6622Z" fill="#E22427"/>
<path d="M0.10096 40.1972C0.22337 39.9312 0.442154 39.7289 0.716682 39.6274L1.87163 39.2007C1.69219 37.9493 1.74127 36.6925 2.01808 35.4553L0.89851 34.9399C0.632526 34.8175 0.430134 34.5988 0.328686 34.3242C0.227142 34.0495 0.238869 33.7517 0.361279 33.486L1.29763 31.4521C1.5503 30.9032 2.20219 30.6619 2.75165 30.9149L3.87122 31.4304C4.63121 30.4156 5.55425 29.5609 6.62156 28.8837L6.19482 27.7288C5.98537 27.1618 6.27619 26.5303 6.84303 26.3209L8.94328 25.5448C9.51022 25.3353 10.1418 25.6261 10.3513 26.193L10.6328 26.9547L22.1627 14.0666L21.704 13.9566C21.3614 13.8744 21.0712 13.6637 20.8869 13.3633C20.7028 13.0629 20.6465 12.7087 20.7287 12.366L21.2731 10.0963C21.4428 9.38887 22.1569 8.95159 22.8636 9.12119L24.2354 9.45017C24.8952 8.04256 25.8054 6.78995 26.9435 5.72363L26.2053 4.5196C26.0211 4.21924 25.9649 3.86503 26.0471 3.52234C26.1292 3.17975 26.34 2.88953 26.6404 2.70542L28.6304 1.48529C29.2504 1.10515 30.0644 1.30049 30.4445 1.92048L31.1827 3.12451C32.6494 2.59384 34.1787 2.35031 35.7322 2.40148L36.0612 1.02963C36.1434 0.686947 36.3541 0.39672 36.6546 0.212609C36.9549 0.0283982 37.3094 -0.0277394 37.6517 0.0545295L39.9215 0.598915C40.2642 0.681085 40.5543 0.891824 40.7386 1.19228C40.9227 1.49265 40.9789 1.84676 40.8967 2.18945L40.5676 3.56129C41.9754 4.22103 43.228 5.13125 44.2943 6.26931L45.4983 5.53107C45.7985 5.34686 46.1526 5.29082 46.4955 5.3728C46.8381 5.45496 47.1284 5.6657 47.3126 5.96616L48.5325 7.95592C48.7167 8.25628 48.7729 8.61049 48.6908 8.95308C48.6086 9.29577 48.398 9.58599 48.0974 9.77021L46.8935 10.5084C47.4241 11.9752 47.6672 13.5042 47.6164 15.058L48.9883 15.387C49.6957 15.5566 50.1332 16.2702 49.9634 16.9776L49.4191 19.2472C49.3369 19.5899 49.1263 19.88 48.8258 20.0642C48.5253 20.2485 48.1709 20.3047 47.8286 20.2224L46.4567 19.8934C45.7969 21.3011 44.8866 22.5538 43.7487 23.6199L44.4868 24.8239C44.671 25.1243 44.7273 25.4785 44.6451 25.8211C44.5629 26.1638 44.3523 26.454 44.0517 26.6382L42.0619 27.8582C41.6886 28.0872 41.2455 28.1061 40.8686 27.9507L23.1051 40.2851L23.604 40.5148C23.87 40.6372 24.0724 40.8559 24.1738 41.1305C24.2754 41.4053 24.2637 41.703 24.1413 41.9687L23.2049 44.0027C22.9521 44.5514 22.2999 44.7924 21.7509 44.5398L20.6314 44.0244C19.8712 45.0391 18.9482 45.8938 17.881 46.571L18.3078 47.7261C18.5172 48.2929 18.2264 48.9244 17.6596 49.134L15.5592 49.9101C15.4344 49.9562 15.3065 49.978 15.1805 49.978C14.7346 49.978 14.3145 49.7038 14.1512 49.2618L13.7245 48.107C12.473 48.2864 11.2163 48.2373 9.97919 47.9605L9.46371 49.08C9.3413 49.346 9.12252 49.5484 8.84799 49.6499C8.57326 49.7515 8.27549 49.7399 8.0096 49.6175L5.97563 48.6811C5.42688 48.4283 5.18593 47.7761 5.4386 47.2272L5.95387 46.1076C4.93913 45.3475 4.08444 44.4245 3.40722 43.3573L2.25237 43.784C1.97775 43.8855 1.68007 43.8739 1.41408 43.7514C1.1481 43.629 0.945705 43.4102 0.84436 43.1357L0.068367 41.0358C-0.0328789 40.761 -0.02145 40.4633 0.10096 40.1972ZM19.0639 28.2276L18.5485 29.3472C19.5633 30.1073 20.4178 31.0303 21.0951 32.0976L22.25 31.6708C22.5246 31.5694 22.8223 31.5809 23.0882 31.7034C23.3541 31.8258 23.5565 32.0446 23.6579 32.3191L24.434 34.4195C24.6433 34.9862 24.3526 35.6178 23.7858 35.8274L22.6308 36.2541C22.7508 37.091 22.7662 37.9303 22.682 38.7646L39.8797 26.8229L39.5094 26.219C38.0428 26.7497 36.514 26.9928 34.9599 26.942L34.6308 28.3139C34.4859 28.9183 33.944 29.3257 33.348 29.3257C33.2465 29.3257 33.1432 29.3138 33.0403 29.2891L30.7706 28.7447C30.0632 28.575 29.6257 27.8615 29.7955 27.1542L30.1245 25.7823C28.7168 25.1226 27.4643 24.2124 26.3979 23.0743L25.1939 23.8125C24.574 24.1928 23.7598 23.9976 23.3797 23.3774L22.1597 21.3875C21.7795 20.7674 21.9746 19.9536 22.5948 19.5732L23.7988 18.8351C23.381 17.6801 23.1422 16.486 23.0841 15.2721L12.3723 27.2452C13.0925 27.2535 13.8111 27.3348 14.5233 27.4941L15.0388 26.3746C15.2915 25.8257 15.9434 25.5844 16.4928 25.8374L18.5266 26.7736C19.0756 27.0263 19.3167 27.6785 19.0639 28.2276ZM41.4288 26.4981L43.1269 25.457L42.4044 24.2787C42.0753 23.7418 42.1745 23.0421 42.6405 22.615C43.7116 21.6334 44.5587 20.4677 45.1584 19.1501C45.4201 18.575 46.0547 18.2642 46.6671 18.4111L48.0098 18.7331L48.4744 16.7962L47.1317 16.4742C46.5192 16.3273 46.0946 15.7625 46.1222 15.1312C46.1856 13.6853 45.9595 12.2622 45.45 10.9013C45.2285 10.3092 45.4573 9.64054 45.9944 9.31147L47.1726 8.58903L46.1316 6.89099L44.9532 7.61343C44.4163 7.9425 43.7166 7.84315 43.2895 7.37725C42.308 6.30617 41.1422 5.45904 39.8248 4.85951C39.2496 4.5978 38.9387 3.96329 39.0858 3.35075L39.4077 2.00812L37.4709 1.54352L37.1489 2.88625C37.0018 3.49869 36.4352 3.92305 35.8058 3.89563C34.3592 3.83234 32.9368 4.05848 31.576 4.56799C30.9839 4.78946 30.3152 4.56054 29.9861 4.02361L29.2637 2.84531L27.5656 3.88639L28.2881 5.06468C28.6173 5.60162 28.518 6.3013 28.052 6.72844C26.9808 7.7101 26.1337 8.87588 25.5343 10.1932C25.2726 10.7683 24.6385 11.0793 24.0255 10.9322L22.6828 10.6102L22.2182 12.5471L23.5607 12.8691C24.1732 13.0159 24.5979 13.5807 24.5703 14.2121C24.5069 15.658 24.7331 17.0811 25.2424 18.4418C25.4642 19.0339 25.2354 19.7026 24.6983 20.032L23.52 20.7543L24.561 22.4523L25.7392 21.7299C26.2765 21.4006 26.9761 21.4999 27.4031 21.966C28.3848 23.0372 29.5504 23.8843 30.8677 24.4837C31.4429 24.7454 31.7538 25.3799 31.6068 25.9925L31.2848 27.3352L33.2216 27.7998L33.5437 26.4571C33.686 25.8634 34.2209 25.4464 34.8284 25.4464C34.8477 25.4464 34.8672 25.4468 34.8867 25.4477C36.3329 25.5105 37.7558 25.2847 39.1165 24.7754C39.7083 24.554 40.3771 24.7827 40.7064 25.3197L41.4288 26.4981ZM2.10592 42.2492L3.19498 41.8468C3.69197 41.6633 4.24749 41.8597 4.51596 42.3138C5.16655 43.4141 6.02919 44.3459 7.0798 45.0829C7.51212 45.386 7.66503 45.9552 7.44346 46.4364L6.95739 47.4922L8.27489 48.0988L8.76105 47.043C8.98242 46.562 9.51448 46.3083 10.0257 46.4391C11.269 46.758 12.5378 46.8077 13.7965 46.5864C14.3169 46.495 14.827 46.7894 15.0105 47.2864L15.4129 48.3754L16.7733 47.8726L16.3709 46.7836C16.1873 46.2869 16.3836 45.7313 16.8378 45.4626C17.9382 44.812 18.8699 43.9493 19.607 42.8987C19.9101 42.4664 20.4792 42.3134 20.9605 42.5351L22.0162 43.0211L22.6227 41.7036L21.5671 41.2177C21.0861 40.9964 20.8321 40.4647 20.9631 39.953C21.2821 38.7097 21.3317 37.441 21.1104 36.1821C21.019 35.6623 21.3134 35.1518 21.8105 34.9681L22.8994 34.5658L22.3966 33.2053L21.3075 33.6077C20.8108 33.7913 20.2553 33.5948 19.9866 33.1407C19.3359 32.0402 18.4733 31.1085 17.4224 30.3714C16.9904 30.0682 16.8376 29.499 17.0591 29.0181L17.5451 27.9625L16.2276 27.3559L15.7415 28.4117C15.52 28.8927 14.9881 29.1466 14.477 29.0155C13.2337 28.6965 11.9652 28.6468 10.7058 28.8682C10.186 28.9594 9.67594 28.665 9.49203 28.1681L9.08973 27.0792L7.72921 27.5819L8.13161 28.6709C8.31523 29.1677 8.1189 29.7232 7.66473 29.992C6.56423 30.6427 5.63255 31.5053 4.8954 32.5561C4.59216 32.9881 4.02324 33.1409 3.54214 32.9195L2.48646 32.4334L1.87997 33.7509L2.93556 34.2369C3.41675 34.4583 3.67061 34.9902 3.53946 35.5015C3.22052 36.7446 3.17094 38.0134 3.39211 39.2726C3.48342 39.7923 3.18902 40.3027 2.69213 40.4863L1.60316 40.8886L2.10592 42.2492Z" fill="#E22427"/>
<path d="M10.483 32.9416C13.1218 31.9664 16.0626 33.3201 17.038 35.9593C18.0131 38.5985 16.6593 41.539 14.0202 42.5142C13.4443 42.727 12.8452 42.8322 12.2488 42.8322C11.3502 42.8322 10.4576 42.5932 9.6596 42.1232C9.30499 41.9143 9.18685 41.4575 9.39581 41.103C9.60476 40.7484 10.0615 40.6303 10.4161 40.8392C11.3562 41.3929 12.4817 41.494 13.5037 41.1163C15.372 40.426 16.3303 38.3443 15.64 36.4761C14.9496 34.6077 12.8679 33.6492 10.9997 34.3398C10.0947 34.6742 9.37405 35.341 8.97045 36.2174C8.56696 37.0939 8.529 38.0749 8.86344 38.98C9.00612 39.366 8.80879 39.7946 8.42269 39.9373C8.03658 40.08 7.60815 39.8827 7.46537 39.4966C6.99292 38.2181 7.04667 36.8323 7.61659 35.5942C8.18651 34.3561 9.20454 33.414 10.483 32.9416Z" fill="#E22427"/>
</g>
<defs>
<clipPath id="clip0_1233:1615">
<rect width="50" height="50" fill="white" transform="matrix(-1 0 0 1 50 0)"/>
</clipPath>
</defs>
</svg>
