<svg width="47" height="47" viewBox="0 0 47 47" fill="none" xmlns="http://www.w3.org/2000/svg">
<g clip-path="url(#clip0_1233:1659)">
<path d="M8.79982 12.7758C11.027 12.7758 12.8325 10.9704 12.8325 8.74318C12.8325 6.51637 11.027 4.71094 8.79982 4.71094C6.57302 4.71094 4.76758 6.51637 4.76758 8.74318C4.77025 10.9692 6.57378 12.7731 8.79982 12.7758ZM8.79982 6.2757C10.1629 6.2757 11.2677 7.38051 11.2677 8.74318C11.2677 10.1062 10.1629 11.211 8.79982 11.211C7.43715 11.211 6.33234 10.1062 6.33234 8.74318C6.33387 7.38127 7.43791 6.27761 8.79982 6.2757Z" fill="#E22427"/>
<path d="M43.8834 34.7552L43.5812 26.8611L45.0535 24.8364L43.2683 21.5548L43.6267 20.4519L46.9995 18.8463V15.5777L43.6267 13.9721L43.2683 12.8692L45.0535 9.58761L43.1319 6.94478L39.4596 7.62784L38.5209 6.94555L38.0358 3.24261L34.9295 2.23254L32.3597 4.94337H31.1999L28.63 2.23254L25.523 3.24261L25.3713 4.39746L14.5047 3.75031L13.7724 3.01798L13.5699 1.3749L10.6375 0.15625L9.331 1.17701H8.27165L6.9617 0.15625L4.02777 1.37337L3.82606 3.01645L3.075 3.76751L1.43193 3.9696L0.212893 6.90505L1.23557 8.21463V9.27627L0.212893 10.5805L1.18246 12.9192L0.10287 26.761C0.0784208 26.9375 0.064668 27.1152 0.0612298 27.2928V27.3218H0.0566455V27.383C0.0543533 28.9703 0.855836 30.451 2.18604 31.3174C3.51624 32.1838 5.19484 32.3179 6.64576 31.6742L11.2759 29.745C10.5256 31.8633 11.3924 34.2158 13.3384 35.3405L6.18657 37.6449C3.82071 38.1166 2.19788 40.3053 2.43321 42.7063C2.66853 45.1073 4.68561 46.9387 7.09808 46.9425H7.13934L35.9484 45.4316L36.3896 46.4894L38.8774 46.9998L40.8967 45.0381L41.4109 44.8677L44.2031 45.2276L45.8894 43.3278L45.1998 40.5983L45.3095 40.0669L47.0167 37.8286L46.2171 35.4188L43.8834 34.7552ZM26.9453 4.42458L28.1739 4.02575L30.5271 6.50813H33.0309L35.3841 4.02575L36.6135 4.42458L37.057 7.81656L39.0833 9.28887L42.4473 8.66312L43.2057 9.70757L41.5721 12.7133L42.3465 15.0956L45.4348 16.5664V17.8576L42.3465 19.3284L41.5721 21.7107L43.2057 24.7157L42.4473 25.7601L39.0833 25.1344L37.057 26.6067L36.6135 29.9983L35.3841 30.3975L33.0309 27.9151H30.5271L28.1739 30.3975L26.9453 29.9983L26.501 26.6082L24.4747 25.1352L21.1103 25.7609L20.3516 24.7165L21.9851 21.7122L21.2115 19.3292L18.1232 17.8584V16.5672L21.2115 15.0964L21.9851 12.7133L20.3516 9.7091L21.1103 8.66465L24.4747 9.2904L26.501 7.81579L26.9453 4.42458ZM2.0126 6.66171L2.52871 5.40982L3.80352 5.25319L5.3148 3.7442L5.47143 2.46978L6.72331 1.95328L7.73491 2.7433H9.87461L10.8816 1.95557L12.1335 2.47207L12.2898 3.74573L13.7976 5.25739L15.072 5.41364L15.5893 6.66553L14.7989 7.67712V9.81683L15.5893 10.8284L15.072 12.0803L13.7976 12.2369L12.2859 13.7486L12.1293 15.023L10.8778 15.5399L9.86621 14.7499H7.73032L6.71835 15.5399L5.46684 15.023L5.31021 13.7486L3.80008 12.2289L2.52642 12.0727L2.01031 10.8208L2.80033 9.80919V7.6733L2.0126 6.66171ZM1.62141 27.3971L1.63058 27.2749C1.78835 25.6627 3.21482 24.4777 4.82887 24.6187C6.44291 24.7596 7.64246 26.1739 7.51792 27.7894C7.39376 29.4046 5.99212 30.6187 4.37579 30.5114C2.75907 30.4036 1.53049 29.0146 1.62141 27.3971ZM15.7043 28.1654C17.4325 28.1654 18.8338 29.5666 18.8338 31.2949C18.8338 33.0231 17.4325 34.4244 15.7043 34.4244C13.9756 34.4244 12.5747 33.0231 12.5747 31.2949C12.5747 29.5666 13.9756 28.1654 15.7043 28.1654ZM3.96855 42.2482C3.97199 41.0326 4.67911 39.9293 5.78201 39.4182L6.53841 39.1749C7.69785 38.9689 8.87448 39.4319 9.58275 40.3725C10.291 41.3134 10.4102 42.5722 9.89181 43.6292C9.37302 44.6863 8.30412 45.3621 7.12711 45.3777H7.08853C5.3637 45.3724 3.96855 43.973 3.96855 42.2482ZM10.7548 45.1844C11.6078 44.1281 11.9601 42.7533 11.7202 41.4169C11.4799 40.0806 10.6707 38.9143 9.50291 38.2213L17.1445 35.763C18.7952 35.248 20.0291 33.8666 20.3558 32.1686C20.6824 30.4705 20.049 28.7304 18.7073 27.6393C17.3653 26.5486 15.5324 26.2839 13.9367 26.9501L9.18315 28.9313C9.86965 26.9776 9.19232 24.8051 7.51716 23.5876C5.84161 22.3705 3.56628 22.3976 1.92015 23.6541L2.70253 13.6726L3.08188 13.7196L3.83293 14.4706L4.03502 16.1137L6.96972 17.3278L8.27623 16.3108H9.33787L10.6436 17.3278L13.5699 16.1168L13.7724 14.4737L14.5234 13.7226L16.1665 13.5198L17.381 10.587L16.3636 9.28085V8.21463L17.381 6.90811L16.78 5.45604L25.1712 5.95267L25.0413 6.94631L24.1023 7.62784L20.4306 6.94478L18.5091 9.58761L20.2935 12.8692L19.9359 13.9698L16.5631 15.5777V18.8463L19.9352 20.4519L20.2935 21.5548L18.5091 24.8364L20.4306 27.4792L24.1023 26.7962L25.0413 27.4777L25.5261 31.1814L28.633 32.1915L31.2033 29.4807H32.3627L34.9326 32.1915L38.0396 31.1814L38.5247 27.4785L39.4634 26.7962L42.0359 27.2749L42.2231 32.1705L42.0233 31.6922L39.5348 31.1807L37.5109 33.1412L36.9967 33.3127L34.2045 32.9529L32.5182 34.8523L33.2062 37.5822L33.0966 38.1132L31.3893 40.3511L32.1912 42.7613L34.899 43.5314L35.3051 43.8913V43.8966L10.7548 45.1844ZM43.8498 39.4018L43.5961 40.6334L44.1695 42.9076L43.582 43.5689L41.2558 43.2709L40.0635 43.6667L38.3807 45.2994L37.5147 45.1226L36.6116 42.9588L35.673 42.1237L33.4171 41.4823L33.1371 40.6418L34.5597 38.7775L34.8123 37.5471L34.2388 35.2725L34.8264 34.6104L37.1525 34.9096L38.3456 34.5134L40.0291 32.8799L40.8952 33.0583L41.7991 35.2232L42.7377 36.0564L44.9935 36.6971L45.2728 37.5375L43.8498 39.4018Z" fill="#E22427"/>
<path d="M6.31605 27.3831C6.31605 28.2473 5.61542 28.9479 4.75129 28.9479C3.88715 28.9479 3.18652 28.2473 3.18652 27.3831C3.18652 26.519 3.88715 25.8184 4.75129 25.8184C5.61542 25.8184 6.31605 26.519 6.31605 27.3831Z" fill="#E22427"/>
<path d="M17.2692 31.2952C17.2692 32.1594 16.5685 32.86 15.7044 32.86C14.8403 32.86 14.1396 32.1594 14.1396 31.2952C14.1396 30.4311 14.8403 29.7305 15.7044 29.7305C16.5685 29.7305 17.2692 30.4311 17.2692 31.2952Z" fill="#E22427"/>
<path d="M8.66371 42.2484C8.66371 43.1125 7.96308 43.8131 7.09894 43.8131C6.23481 43.8131 5.53418 43.1125 5.53418 42.2484C5.53418 41.3842 6.23481 40.6836 7.09894 40.6836C7.96308 40.6836 8.66371 41.3842 8.66371 42.2484Z" fill="#E22427"/>
<path d="M39.1766 35.207C37.0158 35.207 35.2646 36.9586 35.2646 39.1189C35.2646 41.2793 37.0158 43.0309 39.1766 43.0309C41.3369 43.0309 43.0885 41.2793 43.0885 39.1189C43.0858 36.9594 41.3357 35.2097 39.1766 35.207ZM39.1766 41.4661C37.8804 41.4661 36.8294 40.4151 36.8294 39.1189C36.8294 37.8227 37.8804 36.7718 39.1766 36.7718C40.4728 36.7718 41.5237 37.8227 41.5237 39.1189C41.5237 40.4151 40.4728 41.4661 39.1766 41.4661Z" fill="#E22427"/>
<path d="M31.3521 25.0363C35.6732 25.0363 39.176 21.5335 39.176 17.2125C39.176 12.8914 35.6732 9.38867 31.3521 9.38867C27.0311 9.38867 23.5283 12.8914 23.5283 17.2125C23.5329 21.5316 27.033 25.0317 31.3521 25.0363ZM31.3521 10.9534C34.8087 10.9534 37.6112 13.7556 37.6112 17.2125C37.6112 20.6694 34.8087 23.4715 31.3521 23.4715C27.8952 23.4715 25.0931 20.6694 25.0931 17.2125C25.0969 13.7575 27.8967 10.9573 31.3521 10.9534Z" fill="#E22427"/>
<path d="M31.08 21.7577C33.6724 21.7577 35.7743 19.6558 35.7743 17.0634C35.7743 14.471 33.6724 12.3691 31.08 12.3691C28.4872 12.3691 26.3857 14.471 26.3857 17.0634C26.3884 19.6551 28.4884 21.755 31.08 21.7577ZM31.08 13.9339C32.8083 13.9339 34.2096 15.3352 34.2096 17.0634C34.2096 18.7917 32.8083 20.193 31.08 20.193C29.3514 20.193 27.9505 18.7917 27.9505 17.0634C27.9505 15.3352 29.3514 13.9339 31.08 13.9339Z" fill="#E22427"/>
<path d="M42.3057 2.34714C42.3057 3.64334 43.3566 4.69429 44.6528 4.69429C45.949 4.69429 46.9999 3.64334 46.9999 2.34714C46.9999 1.05094 45.949 0 44.6528 0C43.3566 0 42.3057 1.05094 42.3057 2.34714ZM45.4352 2.34714C45.4352 2.77921 45.0849 3.12953 44.6528 3.12953C44.2207 3.12953 43.8704 2.77921 43.8704 2.34714C43.8704 1.91508 44.2207 1.56476 44.6528 1.56476C45.0849 1.56476 45.4352 1.91508 45.4352 2.34714Z" fill="#E22427"/>
<path d="M21.9635 1.56476C21.9635 2.4289 21.2629 3.12953 20.3987 3.12953C19.5346 3.12953 18.834 2.4289 18.834 1.56476C18.834 0.700629 19.5346 0 20.3987 0C21.2629 0 21.9635 0.700629 21.9635 1.56476Z" fill="#E22427"/>
</g>
<defs>
<clipPath id="clip0_1233:1659">
<rect width="47" height="47" fill="white"/>
</clipPath>
</defs>
</svg>
