<svg width="50" height="50" viewBox="0 0 50 50" fill="none" xmlns="http://www.w3.org/2000/svg">
<path d="M46.6668 32.3293C44.163 30.0535 40.7928 29.1844 37.5483 29.9499L31.3373 23.7388L42.1106 12.9655C42.2144 12.8617 42.2889 12.7402 42.3361 12.6109H44.9173C45.2821 12.6109 45.6165 12.4074 45.7843 12.0835L49.8565 4.22008C50.0521 3.8423 49.9806 3.38144 49.6798 3.0806L46.9248 0.325652C46.624 0.0248187 46.1628 -0.0465572 45.7853 0.149018L37.922 4.22115C37.598 4.3889 37.3946 4.72332 37.3946 5.08821V7.66936C37.2653 7.71662 37.1438 7.79112 37.04 7.89491L26.2666 18.6682L20.0302 12.4318C20.8129 9.02696 19.803 5.4487 17.3255 2.97115C15.7551 1.40078 13.7656 0.407866 11.5719 0.0995143C9.45188 -0.198292 7.2488 0.190907 5.36891 1.19564C5.09619 1.34141 4.90872 1.60768 4.86332 1.9135C4.81792 2.21931 4.92015 2.52854 5.13867 2.74726L9.9766 7.58509C10.2957 7.90409 10.4714 8.32824 10.4714 8.77944C10.4714 9.23064 10.2956 9.6548 9.9766 9.97379C9.31831 10.6323 8.24659 10.6325 7.58791 9.97379L2.75075 5.13654C2.53213 4.91792 2.22329 4.81559 1.91699 4.86109C1.61118 4.9064 1.34491 5.09397 1.19913 5.36668C-0.994869 9.47172 -0.117268 14.5289 3.33308 17.6649C5.837 19.9406 9.20709 20.8098 12.4516 20.0443L16.4834 24.0761C15.9681 24.2441 15.4836 24.5314 15.0748 24.9402L2.07566 37.9395C-0.678609 40.6938 -0.678609 45.1755 2.07566 47.9297C3.40983 49.264 5.18388 49.9987 7.0708 49.9987C8.95772 49.9987 10.7317 49.264 12.0659 47.9297L14.2166 45.779C14.5979 45.3977 14.5979 44.7794 14.2166 44.3981C13.8352 44.0168 13.2171 44.0168 12.8356 44.3981L10.685 46.5488C8.69213 48.5417 5.44927 48.5416 3.45641 46.5488C1.46355 44.5558 1.46355 41.3132 3.45641 39.3202L13.8773 28.8993L21.1059 36.1279L19.0495 38.1842C18.6682 38.5655 18.6682 39.1838 19.0495 39.5651C19.4309 39.9464 20.049 39.9464 20.4305 39.5651L25.065 34.9305C25.4665 34.529 25.7594 34.0481 25.9309 33.5236L29.9697 37.5624C29.187 40.9672 30.1969 44.5455 32.6744 47.023C34.2448 48.5934 36.2343 49.5863 38.428 49.8947C38.893 49.96 39.3619 49.9923 39.8306 49.9923C41.4989 49.9923 43.1634 49.583 44.631 48.7985C44.9037 48.6528 45.0912 48.3865 45.1366 48.0807C45.182 47.7749 45.0798 47.4656 44.8612 47.2469L40.0233 42.409C39.7042 42.09 39.5285 41.6658 39.5285 41.2147C39.5285 40.7635 39.7043 40.3394 40.0233 40.0204C40.682 39.3618 41.7537 39.3619 42.412 40.0204L47.2492 44.8576C47.4678 45.0762 47.7763 45.1784 48.083 45.1331C48.3888 45.0878 48.6551 44.9002 48.8009 44.6275C50.9948 40.5226 50.1173 35.4653 46.6668 32.3293ZM46.049 2.21159L47.7939 3.95635L44.3233 10.6581H41.1841L39.3473 8.82133V5.68206L46.049 2.21159ZM37.7304 9.96608L40.0392 12.275L23.7417 28.5727L21.4328 26.2638L37.7304 9.96608ZM12.4664 18.0204C9.71053 18.839 6.78754 18.1658 4.64646 16.2198C2.19927 13.9955 1.3538 10.5756 2.38294 7.53061L6.20696 11.3547C7.62686 12.7746 9.93735 12.7746 11.3574 11.3547C12.0453 10.6668 12.4242 9.75234 12.4242 8.77944C12.4242 7.80664 12.0453 6.89213 11.3574 6.20415L7.53137 2.37807C10.4528 1.38233 13.6985 2.10585 15.9446 4.35209C18.0565 6.46397 18.8469 9.56858 18.0074 12.4545C17.9078 12.7966 18.0025 13.1657 18.2544 13.4177L24.8858 20.049L23.1593 21.7755L19.5072 18.1235C19.1258 17.7422 18.5077 17.7422 18.1262 18.1235C17.745 18.5048 17.745 19.1231 18.1262 19.5044L21.7783 23.1564L20.0518 24.8828L13.4349 18.2659C13.1816 18.0126 12.8098 17.9182 12.4664 18.0204ZM23.6842 33.5498L22.4869 34.7471L15.2583 27.5185L16.4557 26.3211C17.0819 25.6946 18.1013 25.6945 18.728 26.3211L23.6842 31.2774C24.3107 31.9039 24.3107 32.9233 23.6842 33.5498ZM47.617 42.4637L43.7929 38.6395C43.1051 37.9517 42.1904 37.5729 41.2177 37.5729C40.2449 37.5729 39.3303 37.9517 38.6425 38.6395C37.9546 39.3274 37.5757 40.2419 37.5757 41.2148C37.5757 42.1876 37.9546 43.1021 38.6425 43.79L42.4687 47.6163C39.5475 48.6119 36.3016 47.8885 34.0555 45.6423C31.9436 43.5304 31.1532 40.4258 31.9927 37.5399C32.0923 37.1978 31.9976 36.8287 31.7457 36.5767L25.1226 29.9537L26.8491 28.2272L30.4929 31.8708C30.6836 32.0615 30.9335 32.1568 31.1833 32.1568C31.4332 32.1568 31.6831 32.0614 31.8738 31.8708C32.255 31.4896 32.255 30.8713 31.8738 30.49L28.23 26.8463L29.9564 25.1196L36.565 31.7283C36.8185 31.9817 37.1902 32.0761 37.5335 31.9739C40.2895 31.1552 43.2124 31.8285 45.3534 33.7745C47.8006 35.9987 48.6461 39.4187 47.617 42.4637Z" fill="#E22427"/>
<path d="M16.6336 41.0059C16.3768 41.0059 16.1249 41.1103 15.9434 41.292C15.7618 41.4736 15.6572 41.7255 15.6572 41.9823C15.6572 42.2401 15.7617 42.491 15.9434 42.6726C16.1249 42.8542 16.3768 42.9587 16.6336 42.9587C16.8904 42.9587 17.1424 42.8542 17.324 42.6726C17.5056 42.491 17.6101 42.2401 17.6101 41.9823C17.6101 41.7255 17.5057 41.4736 17.324 41.292C17.1424 41.1103 16.8904 41.0059 16.6336 41.0059Z" fill="#E22427"/>
</svg>
