<svg width="52" height="52" viewBox="0 0 52 52" fill="none" xmlns="http://www.w3.org/2000/svg">
<path d="M42.5622 22.9693C42.983 22.9693 43.324 22.6283 43.324 22.2076V20.2755L45.4673 22.7109C45.7462 23.0277 46.2277 23.0563 46.5424 22.7795C46.8581 22.5016 46.8888 22.0202 46.6109 21.7044L44.932 19.7968C46.0072 19.5171 46.8009 18.5703 46.8009 17.4481C46.8009 16.1066 45.667 15.0152 44.2733 15.0152H42.5644C42.5641 15.0152 42.5637 15.0152 42.5634 15.0152C42.563 15.0152 42.5626 15.0152 42.5623 15.0152C42.1416 15.0152 41.8006 15.3561 41.8006 15.7769V22.2077C41.8005 22.6283 42.1415 22.9693 42.5622 22.9693ZM44.2733 16.5385C44.8175 16.5385 45.2775 16.955 45.2775 17.448C45.2775 17.941 44.8176 18.3576 44.2733 18.3576C44.0546 18.3576 43.6774 18.3592 43.3336 18.3609C43.3302 17.5895 43.3302 17.3315 43.3284 16.5385H44.2733ZM42.5622 11.0011C42.983 11.0011 43.324 10.6602 43.324 10.2394V8.20371C43.6951 8.20178 44.1144 8.19995 44.3529 8.19995C45.7932 8.19995 46.965 7.04417 46.965 5.62352C46.965 4.20286 45.7931 3.04688 44.3529 3.04688H42.5622C42.1868 3.03936 41.786 3.37756 41.8005 3.80859V10.2394C41.8005 10.6602 42.1415 11.0011 42.5622 11.0011ZM44.3529 4.57031C44.9431 4.57031 45.4415 5.05253 45.4415 5.62341C45.4415 6.1942 44.9431 6.67641 44.3529 6.67641C44.1161 6.67641 43.7019 6.67824 43.3322 6.68017C43.3302 6.2983 43.3273 4.96976 43.3262 4.57031H44.3529ZM47.7703 41.7532C47.7662 41.3349 47.426 40.9987 47.0087 40.9987H47.0012C46.5805 41.0028 46.2428 41.3472 46.2468 41.7678L46.2861 45.8244L43.1891 41.3396C42.9997 41.0653 42.6541 40.9462 42.3355 41.0453C42.0173 41.1445 41.8005 41.4391 41.8005 41.7725V48.1914C41.8005 48.6122 42.1415 48.9531 42.5622 48.9531C42.983 48.9531 43.324 48.6122 43.324 48.1914V44.2159L46.2757 48.4902C46.5011 48.8161 46.8768 48.9549 47.2322 48.8437C47.5956 48.7303 47.8304 48.3891 47.8304 47.9673L47.7703 41.7532ZM42.5749 35.4681H42.5778C42.6312 35.4679 43.8914 35.463 44.3947 35.4541C46.2588 35.4215 47.6116 33.7947 47.6116 31.5859C47.6116 29.264 46.2928 27.7038 44.3298 27.7038H42.5623C42.1478 27.7017 41.798 28.0526 41.8006 28.4671V28.4719V34.6048C41.8022 35.0394 42.1359 35.4714 42.5749 35.4681ZM44.3297 29.2272C45.6263 29.2272 46.0881 30.4457 46.0881 31.5859C46.0881 33.185 45.2242 33.9159 44.368 33.9309C44.1308 33.9351 43.7092 33.9383 43.3339 33.9408C43.3316 33.203 43.3265 29.9948 43.3252 29.2274H44.3297V29.2272ZM39.7573 7.02406C39.7573 6.60329 39.4163 6.26234 38.9956 6.26234H35.2134C34.6693 5.25129 33.9743 4.31437 33.1396 3.48004C30.8943 1.23591 27.9103 0 24.7372 0C18.185 0 12.8544 5.33061 12.8544 11.8828V13.5837C12.8544 14.0045 13.1953 14.3454 13.6161 14.3454C14.0369 14.3454 14.3778 14.0045 14.3778 13.5837V11.8828C14.3778 6.17063 19.025 1.52344 24.7372 1.52344C27.5035 1.52344 30.1052 2.60091 32.0627 4.55762C34.0139 6.50802 35.1014 9.08487 35.0966 11.8828V27.3711H31.5419V11.8828C31.5419 8.13069 28.4893 5.07812 24.7372 5.07812C20.9851 5.07812 17.9325 8.13069 17.9325 11.8828V27.3711H14.3778V17.1384C14.3778 16.7176 14.0369 16.3766 13.6161 16.3766C13.1953 16.3766 12.8544 16.7176 12.8544 17.1384V27.3711H11.6357C10.8291 27.3651 10.1858 28.0934 10.2646 28.8945H5.94824C4.96827 28.8945 4.1709 29.6919 4.1709 30.6719V32.5C4.1709 33.48 4.96827 34.2773 5.94824 34.2773H10.2646C10.1875 35.081 10.823 35.8035 11.6357 35.8008H12.8544V40.1172C12.8544 46.6694 18.185 52 24.7372 52C29.2574 52 33.196 49.4627 35.2042 45.7377H38.9955C39.4162 45.7377 39.7572 45.3967 39.7572 44.9759C39.7572 44.5552 39.4162 44.2142 38.9955 44.2142H35.8918C36.3626 42.9365 36.6199 41.5563 36.6199 40.1172V35.8008H37.8388C38.5948 35.8008 39.2099 35.1857 39.2099 34.4297V28.7422C39.2099 27.9862 38.5948 27.3711 37.8388 27.3711H36.62V19.7539H38.9956C39.4163 19.7539 39.7573 19.413 39.7573 18.9922C39.7573 18.5714 39.4163 18.2305 38.9956 18.2305H36.62V11.8828C36.62 10.4624 36.372 9.0805 35.8977 7.78578H38.9955C39.4162 7.78578 39.7573 7.44484 39.7573 7.02406ZM10.2646 32.7539H5.94824C5.80819 32.7539 5.69434 32.6401 5.69434 32.5V30.6719C5.69434 30.5318 5.80819 30.418 5.94824 30.418H10.2646V32.7539ZM19.456 11.8828C19.456 8.97071 21.8251 6.60156 24.7372 6.60156C27.6493 6.60156 30.0185 8.97071 30.0185 11.8828V27.3711H19.456V11.8828ZM35.0966 40.1172C35.0966 45.8294 30.4494 50.4766 24.7372 50.4766C19.025 50.4766 14.3778 45.8294 14.3778 40.1172V35.8008H17.9325V40.1172C17.9325 43.8693 20.9851 46.9219 24.7372 46.9219C28.4893 46.9219 31.5419 43.8693 31.5419 40.1172V35.8008H35.0966V40.1172ZM37.6865 28.8945V34.2773H27.3555C26.9347 34.2773 26.5938 34.6183 26.5938 35.0391C26.5938 35.4598 26.9347 35.8008 27.3555 35.8008H30.0185V40.1172C30.0185 43.0293 27.6493 45.3984 24.7372 45.3984C21.8251 45.3984 19.456 43.0293 19.456 40.1172V35.8008H23.8008C24.2216 35.8008 24.5625 35.4598 24.5625 35.0391C24.5625 34.6183 24.2216 34.2773 23.8008 34.2773H11.7881V28.8945H37.6865Z" fill="#E22427"/>
</svg>
