<svg width="52" height="52" viewBox="0 0 52 52" fill="none" xmlns="http://www.w3.org/2000/svg">
<path d="M51.1029 22.4091H50.9595H47.2119C46.683 19.2174 45.4189 16.1781 43.5272 13.5333L46.172 10.8885C46.4947 10.5658 46.5216 10.0547 46.2347 9.69611C45.0692 8.24371 43.7423 6.91683 42.2899 5.76029C41.9313 5.47339 41.4203 5.50029 41.0975 5.82305L38.4527 8.46785C35.8079 6.58511 32.7686 5.32098 29.5769 4.78306V1.03551C29.5769 0.57827 29.2363 0.192757 28.779 0.14793C27.0218 -0.0493099 24.9598 -0.0493099 23.2025 0.14793C22.7543 0.192757 22.4136 0.57827 22.4136 1.03551V4.78306C19.2219 5.31202 16.1826 6.57614 13.5378 8.46785L10.893 5.82305C10.5702 5.50029 10.0592 5.47339 9.70059 5.76029C8.24819 6.92579 6.92131 8.25268 5.76477 9.69611C5.47788 10.0547 5.50477 10.5658 5.82753 10.8885L8.47233 13.5333C6.58959 16.1781 5.32546 19.2174 4.78754 22.4091H1.03999H0.896543C0.403444 22.4091 0 22.8125 0 23.3056V25.9953V28.6849C0 29.178 0.403444 29.5814 0.896543 29.5814H1.03999H4.78754C5.3165 32.7731 6.58062 35.8124 8.47233 38.4572L5.82753 41.102C5.50477 41.4248 5.47788 41.9358 5.76477 42.2944C6.93028 43.7468 8.25716 45.0737 9.70059 46.2302C10.0592 46.5171 10.5702 46.4902 10.893 46.1675L13.5378 43.5227C16.1826 45.4054 19.2219 46.6695 22.4136 47.2075V50.955C22.4136 51.4123 22.7543 51.7978 23.2115 51.8426C24.0901 51.9412 25.0315 51.995 25.9997 51.995C26.968 51.995 27.9094 51.9412 28.788 51.8426C29.2363 51.7888 29.5859 51.4123 29.5859 50.955V47.2075C31.9707 46.813 34.2569 46.0061 36.4086 44.8137C36.8389 44.5716 37.0003 44.0247 36.7583 43.5944C36.5162 43.1641 35.9693 43.0027 35.539 43.2447C33.3604 44.4551 31.0204 45.2261 28.5818 45.5399C28.1245 45.6026 27.7928 45.9882 27.7928 46.4364V50.1392C26.6363 50.2198 25.3632 50.2198 24.2067 50.1392V46.4364C24.2067 45.9882 23.8749 45.6027 23.4267 45.5489C20.0108 45.1096 16.7474 43.7558 13.995 41.6399C13.6364 41.362 13.1344 41.3979 12.8116 41.7206L10.1937 44.3385C9.28818 43.5585 8.43647 42.7158 7.65648 41.8013L10.2744 39.1834C10.5971 38.8606 10.624 38.3586 10.3551 38C8.23923 35.2476 6.88545 31.9931 6.44614 28.5683C6.39235 28.1201 6.00684 27.7883 5.55857 27.7883H1.86481C1.85584 27.7256 1.85584 27.6628 1.84688 27.6001C1.81998 27.0801 1.79309 26.5422 1.79309 25.9953C1.79309 25.4484 1.81998 24.9104 1.84688 24.3904C1.84688 24.3277 1.85584 24.2649 1.86481 24.2022H5.55857C6.00684 24.2022 6.39235 23.8705 6.44614 23.4222C6.88545 20.0064 8.23923 16.7429 10.3551 13.9906C10.633 13.6319 10.5971 13.1299 10.2744 12.8071L7.65648 10.1892C8.43647 9.2837 9.27922 8.43198 10.1937 7.65199L12.8116 10.2699C13.1344 10.5927 13.6364 10.6195 13.995 10.3506C16.7474 8.23475 20.0019 6.88097 23.4267 6.44166C23.8749 6.38787 24.2067 6.00235 24.2067 5.55408V1.85136C25.3632 1.77067 26.6363 1.77067 27.7928 1.85136V5.55408C27.7928 6.00235 28.1245 6.38787 28.5728 6.44166C31.9886 6.88097 35.2521 8.23475 38.0044 10.3506C38.3631 10.6285 38.8651 10.5927 39.1879 10.2699L41.8058 7.65199C42.7113 8.43198 43.563 9.27474 44.343 10.1892L41.7251 12.8071C41.4023 13.1299 41.3755 13.6319 41.6534 13.9906C43.7692 16.734 45.123 19.9974 45.5623 23.4222C45.6071 23.8705 45.9926 24.2022 46.4409 24.2022H50.1347C50.1436 24.2649 50.1436 24.3277 50.1526 24.3904C50.1795 24.9104 50.2064 25.4484 50.2064 25.9953C50.2064 26.5422 50.1795 27.0801 50.1526 27.6001C50.1526 27.6628 50.1436 27.7256 50.1347 27.7883H46.4409C45.9926 27.7883 45.6071 28.1201 45.5533 28.5683C45.2396 31.0069 44.4685 33.3469 43.2582 35.5255C43.0161 35.9559 43.1775 36.5027 43.6078 36.7448C44.0382 36.9869 44.5851 36.8255 44.8271 36.3952C46.0195 34.2524 46.8175 31.9573 47.2209 29.5725H50.9685H51.1029C51.596 29.5725 51.9995 29.169 51.9995 28.6759V25.9863V23.2967C51.9995 22.8125 51.596 22.4091 51.1029 22.4091Z" fill="#E22427"/>
<path d="M34.2835 29.4197C35.1352 27.3666 35.198 25.0894 34.4359 22.9377C33.5573 20.4453 31.549 18.4281 29.0477 17.5494C26.6808 16.7157 24.1705 16.877 21.974 17.9798C21.714 18.1053 21.5347 18.3563 21.4898 18.6343C21.445 18.9122 21.5347 19.208 21.7409 19.4142L24.7353 22.4087H23.3098C22.8167 22.4087 22.4133 22.8121 22.4133 23.3052V24.7307L19.4278 21.7453C19.2216 21.5391 18.9347 21.4494 18.6478 21.4942C18.3609 21.5391 18.1188 21.7184 17.9933 21.9784C16.8816 24.1749 16.7292 26.6942 17.563 29.0521C18.4416 31.5445 20.4498 33.5617 22.9512 34.4403C25.1029 35.1934 27.3801 35.1396 29.4332 34.2879L43.3027 48.1574C43.9751 48.8298 44.8537 49.1615 45.7323 49.1615C46.611 49.1615 47.4896 48.8298 48.162 48.1574C49.4978 46.8216 49.4978 44.643 48.162 43.3071L34.2835 29.4197ZM24.2064 24.2018H26.5284L27.7925 25.4659V27.788H25.4705L24.2064 26.5238V24.2018ZM46.8799 46.8754C46.2434 47.5119 45.2034 47.5119 44.5579 46.8754L30.258 32.5665C30.0877 32.3962 29.8546 32.3065 29.6215 32.3065C29.487 32.3065 29.3435 32.3424 29.218 32.4052C27.4608 33.2927 25.4436 33.4093 23.5429 32.7458C21.5526 32.0465 19.9478 30.4417 19.2485 28.4514C18.7285 26.9721 18.6836 25.4121 19.114 23.9687L24.4664 29.321C24.6367 29.4824 24.8608 29.581 25.1029 29.581H28.6891C29.1822 29.581 29.5856 29.1776 29.5856 28.6845V25.0983C29.5856 24.8563 29.487 24.6321 29.3256 24.4618L23.9733 19.1094C25.4167 18.6791 26.9767 18.7239 28.456 19.2439C30.4463 19.9432 32.0511 21.548 32.7504 23.5294C33.4138 25.4301 33.2973 27.4473 32.4097 29.2045C32.2394 29.5542 32.3021 29.9666 32.5801 30.2445L46.8889 44.5533C47.5254 45.1988 47.5254 46.2388 46.8799 46.8754Z" fill="#E22427"/>
<path d="M39.6724 32.7744C40.1296 32.9717 40.6496 32.7565 40.8468 32.2993C41.322 31.1786 41.6716 30.0131 41.8778 28.8476C42.0482 27.9331 42.1378 26.9738 42.1378 25.9966C42.1378 25.0193 42.0482 24.06 41.8868 23.1545C41.4834 20.8504 40.5958 18.7077 39.251 16.7801C38.1572 15.2022 36.8034 13.8484 35.2255 12.7546C33.2979 11.4009 31.1552 10.5133 28.86 10.1188C27.0221 9.77811 24.978 9.77811 23.167 10.1188C20.8629 10.5222 18.7201 11.4098 16.7926 12.7546C15.2147 13.8484 13.8609 15.2022 12.7671 16.7801C11.4133 18.7077 10.5257 20.8504 10.1313 23.1456C9.95196 24.06 9.8623 25.0193 9.8623 25.9966C9.8623 26.9738 9.95196 27.9331 10.1223 28.8386C10.5257 31.1427 11.4133 33.2855 12.7581 35.213C13.8519 36.7909 15.2057 38.1447 16.7836 39.2385C18.7112 40.5923 20.8539 41.4799 23.1491 41.8743C24.0635 42.0447 25.0228 42.1343 26.0001 42.1343C26.9773 42.1343 27.9366 42.0447 28.8421 41.8743C30.0166 41.6681 31.1821 41.3185 32.3028 40.8433C32.76 40.6461 32.9752 40.1261 32.7779 39.6688C32.5807 39.2116 32.0607 38.9964 31.6035 39.1937C30.6083 39.6151 29.5683 39.9288 28.5194 40.1082C26.8966 40.413 25.0946 40.413 23.4539 40.1082C21.4098 39.7495 19.5091 38.9606 17.7967 37.7592C16.3981 36.7909 15.1967 35.5896 14.2195 34.182C13.0181 32.4696 12.2381 30.5689 11.8706 28.5159C11.7271 27.709 11.6554 26.8662 11.6554 25.9966C11.6554 25.1269 11.7271 24.2842 11.8795 23.4594C12.2381 21.4152 13.0271 19.5146 14.2285 17.8022C15.1967 16.4036 16.3981 15.2022 17.8057 14.225C19.5181 13.0236 21.4187 12.2436 23.4718 11.876C25.0946 11.5712 26.8966 11.5712 28.5373 11.876C30.5814 12.2346 32.4821 13.0236 34.1945 14.225C35.5931 15.1932 36.7945 16.3946 37.7717 17.8022C38.973 19.5146 39.762 21.4152 40.1206 23.4683C40.273 24.2842 40.3448 25.1359 40.3448 25.9966C40.3448 26.8573 40.273 27.709 40.1206 28.5338C39.9413 29.5738 39.6275 30.6048 39.2062 31.6089C39.0089 32.0572 39.2241 32.5862 39.6724 32.7744Z" fill="#E22427"/>
<path d="M25.1035 13.4454V15.2385C25.1035 15.7316 25.507 16.135 26.0001 16.135C26.4932 16.135 26.8966 15.7316 26.8966 15.2385V13.4454C26.8966 12.9523 26.4932 12.5488 26.0001 12.5488C25.507 12.5488 25.1035 12.9523 25.1035 13.4454Z" fill="#E22427"/>
<path d="M15.2404 25.0977H13.4473C12.9542 25.0977 12.5508 25.5011 12.5508 25.9942C12.5508 26.4873 12.9542 26.8907 13.4473 26.8907H15.2404C15.7335 26.8907 16.137 26.4873 16.137 25.9942C16.137 25.5011 15.7335 25.0977 15.2404 25.0977Z" fill="#E22427"/>
<path d="M36.7579 26.8907H38.551C39.0441 26.8907 39.4475 26.4873 39.4475 25.9942C39.4475 25.5011 39.0441 25.0977 38.551 25.0977H36.7579C36.2648 25.0977 35.8613 25.5011 35.8613 25.9942C35.8613 26.4873 36.2648 26.8907 36.7579 26.8907Z" fill="#E22427"/>
<path d="M26.8966 38.5451V36.752C26.8966 36.2589 26.4932 35.8555 26.0001 35.8555C25.507 35.8555 25.1035 36.2589 25.1035 36.752V38.5451C25.1035 39.0382 25.507 39.4416 26.0001 39.4416C26.4932 39.4416 26.8966 39.0382 26.8966 38.5451Z" fill="#E22427"/>
<path d="M17.0344 35.8567C17.2675 35.8567 17.4916 35.7671 17.6709 35.5967L18.5674 34.7002C18.9171 34.3505 18.9171 33.7857 18.5674 33.4361C18.2178 33.0864 17.653 33.0864 17.3033 33.4361L16.4068 34.3326C16.0571 34.6823 16.0571 35.2471 16.4068 35.5967C16.5771 35.7671 16.8012 35.8567 17.0344 35.8567Z" fill="#E22427"/>
<path d="M34.3287 16.3945L33.4322 17.2911C33.0825 17.6407 33.0825 18.2055 33.4322 18.5552C33.6115 18.7345 33.8356 18.8241 34.0687 18.8241C34.3018 18.8241 34.5259 18.7345 34.7052 18.5642L35.6018 17.6676C35.9514 17.318 35.9514 16.7531 35.6018 16.4035C35.2521 16.0538 34.6784 16.0449 34.3287 16.3945Z" fill="#E22427"/>
<path d="M17.9309 18.8216C18.164 18.8216 18.3881 18.7319 18.5674 18.5616C18.9171 18.2119 18.9171 17.6471 18.5674 17.2975L17.6709 16.4009C17.3212 16.0513 16.7564 16.0513 16.4068 16.4009C16.0571 16.7506 16.0571 17.3154 16.4068 17.665L17.3033 18.5616C17.4737 18.7319 17.6978 18.8216 17.9309 18.8216Z" fill="#E22427"/>
</svg>
