<svg viewBox="0 0 20 18" fill="grey" xmlns="http://www.w3.org/2000/svg">
    <path d="M19.4116 10.006C19.3492 10.006 19.2854 10.0146 19.2216 10.0315L18.4997 10.2229L17.7502 8.46464C17.5379 7.9665 16.9102 7.56124 16.351 7.56124H13.9299V6.21364C13.9299 5.7135 13.7694 4.92994 13.5721 4.46707L13.4512 4.18333H13.5428C13.9619 4.18333 14.3029 3.85495 14.3029 3.45136V3.0415C14.3029 2.69578 14.0553 2.44479 13.7142 2.44479C13.6519 2.44479 13.5881 2.45341 13.5242 2.47025L12.8024 2.6617L12.0529 0.903396C11.8406 0.405259 11.2129 0 10.6537 0H3.63915C3.08005 0 2.45242 0.405259 2.23996 0.903396L1.49145 2.65935L0.778774 2.47033C0.715028 2.45341 0.651022 2.44479 0.588755 2.44479C0.24759 2.44479 0 2.6957 0 3.0415V3.45136C0 3.85495 0.340991 4.18333 0.760076 4.18333H0.841736L0.720768 4.46707C0.523444 4.92978 0.362993 5.71324 0.362993 6.21364V9.7068C0.362993 10.1104 0.703983 10.4388 1.12307 10.4388H2.11595C2.53504 10.4388 2.87603 10.1104 2.87603 9.7068V8.83447H7.77947L7.18863 10.2205L6.47586 10.0314C6.41212 10.0145 6.3482 10.0059 6.28585 10.0059C5.94477 10.0059 5.69718 10.2569 5.69718 10.6027V11.0125C5.69718 11.4161 6.03817 11.7445 6.45725 11.7445H6.53891L6.41786 12.0283C6.22062 12.491 6.06008 13.2745 6.06008 13.7749V17.268C6.06008 17.6716 6.40108 18 6.82016 18H7.81295C8.23204 18 8.57303 17.6716 8.57303 17.268V16.3957H17.1141V17.268C17.1141 17.6716 17.455 18 17.8741 18H18.8668C19.2859 18 19.6269 17.6716 19.6269 17.268V13.7749C19.6269 13.2745 19.4664 12.491 19.2691 12.0283L19.1482 11.7445H19.2399C19.659 11.7445 20 11.4161 20 11.0125V10.6027C20.0003 10.2569 19.7527 10.006 19.4116 10.006ZM12.4671 6.15435V7.14978C12.4671 7.31083 12.3303 7.44257 12.163 7.44257H10.0092C9.84194 7.44257 9.70514 7.31083 9.70514 7.14978V6.15435C9.70514 5.9933 9.84194 5.86156 10.0092 5.86156H12.163C12.3303 5.86156 12.4671 5.9933 12.4671 6.15435ZM4.5675 7.14978C4.5675 7.31083 4.4307 7.44257 4.26347 7.44257H2.10969C1.94246 7.44257 1.80566 7.31083 1.80566 7.14978V6.15435C1.80566 5.9933 1.94246 5.86156 2.10969 5.86156H4.26356C4.43079 5.86156 4.56759 5.9933 4.56759 6.15435V7.14978H4.5675ZM2.41372 4.32746C2.07925 4.32746 1.90958 4.08366 2.03655 3.78569L3.17023 1.12608C3.29729 0.828106 3.6748 0.584314 4.00918 0.584314H10.2836C10.6181 0.584314 10.9957 0.828106 11.1226 1.12608L12.2564 3.78569C12.3834 4.08366 12.2137 4.32746 11.8793 4.32746H2.41372ZM7.73373 11.3469L8.8675 8.68732C8.99446 8.38935 9.37207 8.14556 9.70645 8.14556H15.9809C16.3154 8.14556 16.693 8.38935 16.8199 8.68732L17.9536 11.3469C18.0807 11.6449 17.9109 11.8887 17.5765 11.8887H8.1109C7.77643 11.8887 7.60676 11.6449 7.73373 11.3469ZM10.2648 14.711C10.2648 14.8721 10.128 15.0038 9.96074 15.0038H7.80687C7.63963 15.0038 7.50284 14.8721 7.50284 14.711V13.7156C7.50284 13.5545 7.63963 13.4228 7.80687 13.4228H9.96082C10.1281 13.4228 10.2649 13.5545 10.2649 13.7156V14.711H10.2648ZM18.1642 14.711C18.1642 14.8721 18.0274 15.0038 17.8601 15.0038H15.7064C15.5391 15.0038 15.4023 14.8721 15.4023 14.711V13.7156C15.4023 13.5545 15.5391 13.4228 15.7064 13.4228H17.8601C18.0274 13.4228 18.1642 13.5545 18.1642 13.7156V14.711Z"></path>
</svg>