<svg viewBox="0 0 512 512" fill="grey" xmlns="http://www.w3.org/2000/svg">
    <path d="m510.434 195.819c-3.725-11.462-13.573-19.86-25.479-21.726l-137.456-21.538-62.963-124.072c-5.454-10.747-16.484-17.519-28.536-17.519s-23.082 6.772-28.536 17.519l-62.962 124.069-137.456 21.542c-11.907 1.866-21.756 10.263-25.48 21.725-3.725 11.462-.692 24.045 7.843 32.553l98.542 98.221-21.989 137.386c-1.904 11.9 3.038 23.861 12.788 30.945 5.573 4.049 12.175 6.112 18.813 6.112 4.977 0 9.974-1.16 14.571-3.512l123.866-63.367 123.866 63.367c10.73 5.49 23.633 4.485 33.384-2.6 9.75-7.084 14.693-19.046 12.788-30.946l-21.992-137.382 98.545-98.224c8.535-8.508 11.567-21.091 7.843-32.553zm-163.164 97.006c-7.28 7.257-10.632 17.571-9.007 27.722l14.612 91.281-82.301-42.103c-9.152-4.682-19.996-4.682-29.148 0l-82.303 42.104 14.61-91.286c1.625-10.15-1.727-20.464-9.007-27.721l-65.476-65.263 91.332-14.313c10.156-1.592 18.93-7.966 23.581-17.133l41.837-82.437 41.835 82.44c4.652 9.167 13.426 15.542 23.582 17.133l91.331 14.311z"></path>
</svg>