<svg width="30" height="30" viewBox="0 0 30 30" fill="none" xmlns="http://www.w3.org/2000/svg">
<path d="M24.423 2.6145L18.1705 0.53C17.0784 0.163687 15.8871 0.231875 14.844 0.7205L9.5 3.215V0.5C9.5 0.223875 9.27612 0 9 0H3C2.72387 0 2.5 0.223875 2.5 0.5V26.5C2.50219 28.4321 4.06794 29.9978 6 30H24C25.9321 29.9978 27.4978 28.4321 27.5 26.5V6.883C27.5019 4.94556 26.2617 3.22513 24.423 2.6145ZM3.5 1H4.5V2H5.5V1H6.5V2H7.5V1H8.5V3.5H3.5V1ZM26.5 26.5C26.4984 27.88 25.38 28.9984 24 29H6C4.62 28.9984 3.50162 27.88 3.5 26.5V4.5H9C9.07013 4.49969 9.13931 4.48431 9.203 4.455C9.206 4.455 9.209 4.455 9.2115 4.455L15.267 1.627C16.0782 1.24712 17.0043 1.19344 17.854 1.477L24.1065 3.5625C25.5368 4.03762 26.5014 5.37594 26.5 6.883V26.5Z" fill="#E22427"/>
<path d="M15.522 18.1915L12.8685 12.295C12.7553 12.0432 12.4593 11.9308 12.2074 12.0441C12.0959 12.0943 12.0067 12.1836 11.9565 12.295L9.30303 18.1915C8.5304 19.9087 9.29609 21.9271 11.0133 22.6998C11.4532 22.8977 11.9301 23 12.4125 23C14.2955 23.0001 15.8222 21.4738 15.8223 19.5908C15.8223 19.1083 15.72 18.6315 15.522 18.1915ZM13.402 21.787C12.1884 22.3335 10.7615 21.7926 10.215 20.579C9.93172 19.9498 9.93172 19.2293 10.215 18.6L12.4125 13.717L14.61 18.6C15.1565 19.8136 14.6157 21.2405 13.402 21.787Z" fill="#E22427"/>
<path d="M23.1643 5.46741L17.4033 3.30541C16.7757 3.07122 16.0691 3.22434 15.5948 3.69741L15.5013 3.79091C14.834 4.45841 14.8342 5.54053 15.5018 6.20778C15.682 6.38791 15.9001 6.52547 16.1403 6.61041L21.9958 8.67691C22.1796 8.74228 22.3732 8.77609 22.5683 8.77691C23.5124 8.77359 24.2751 8.00559 24.2718 7.06147C24.2694 6.35172 23.8286 5.71734 23.1643 5.46741ZM23.2363 7.30791C23.1027 7.67547 22.6964 7.86503 22.3288 7.73141L16.4733 5.66691C16.1048 5.53603 15.9122 5.13128 16.0431 4.76278C16.0781 4.66416 16.1345 4.57459 16.2083 4.50041L16.3018 4.40691C16.4985 4.21066 16.7916 4.14716 17.0518 4.24441L22.8128 6.40041C23.1804 6.53403 23.3699 6.94034 23.2363 7.30791Z" fill="#E22427"/>
<path d="M23.25 12.75C22.2835 12.75 21.5 13.5335 21.5 14.5V22.75C21.5 23.7165 22.2835 24.5 23.25 24.5C24.2165 24.5 25 23.7165 25 22.75V14.5C25 13.5335 24.2165 12.75 23.25 12.75ZM24 22.75C24 23.1642 23.6642 23.5 23.25 23.5C22.8358 23.5 22.5 23.1642 22.5 22.75V14.5C22.5 14.0858 22.8358 13.75 23.25 13.75C23.6642 13.75 24 14.0858 24 14.5V22.75Z" fill="#E22427"/>
<path d="M18.3545 9.55002L14.171 8.02852C14.1161 8.00914 14.0583 7.99952 14 8.00002H8C6.62 8.00164 5.50163 9.12002 5.5 10.5V24.5C5.50163 25.88 6.62 26.9984 8 27H17.5C18.88 26.9984 19.9984 25.88 20 24.5V11.9C19.9985 10.8491 19.3415 9.91083 18.3545 9.55002ZM19 24.5C19 25.3284 18.3284 26 17.5 26H8C7.17156 26 6.5 25.3284 6.5 24.5V10.5C6.5 9.67158 7.17156 9.00002 8 9.00002H13.912L18.013 10.491C18.6044 10.7078 18.9983 11.2701 19 11.9V24.5Z" fill="#E22427"/>
</svg>
