<svg width="46" height="46" viewBox="0 0 46 46" fill="none" xmlns="http://www.w3.org/2000/svg">
<path d="M11.5 16.1V42.1667C11.5 43.4134 12.5093 44.4667 13.7042 44.4667H29.9V46H13.7042C11.6782 46 9.96667 44.2445 9.96667 42.1667V16.1H11.5ZM17.1595 4.60001L17.7143 5.70957C17.778 5.8369 17.8759 5.94399 17.997 6.01884C18.1181 6.09369 18.2576 6.13334 18.4 6.13334H27.6C27.7424 6.13334 27.8819 6.09369 28.003 6.01884C28.1241 5.94399 28.222 5.8369 28.2857 5.70957L28.8405 4.60001H32.2C32.8098 4.60069 33.3944 4.84323 33.8256 5.27442C34.2568 5.70561 34.4993 6.29022 34.5 6.90001V31.8825L32.6105 29.9931C32.0601 29.4426 31.3136 29.1334 30.5351 29.1334C29.7567 29.1334 29.0101 29.4426 28.4597 29.993C27.9092 30.5434 27.6 31.29 27.6 32.0684C27.6 32.8469 27.9092 33.5934 28.4596 34.1439L31.2675 36.9518L31.2139 37.0591C30.5562 38.3659 30.232 39.8151 30.2703 41.2775C30.3086 42.74 30.7081 44.1702 31.4333 45.4407V46H32.9667V45.2333C32.9666 45.0944 32.9289 44.9581 32.8574 44.8389C32.2158 43.7759 31.8543 42.5675 31.8067 41.3268C31.759 40.0861 32.0268 38.8535 32.585 37.7444L32.8857 37.1429C32.9576 36.999 32.9825 36.836 32.9567 36.6772C32.9309 36.5183 32.8557 36.3716 32.7419 36.2579L29.5437 33.0597C29.2841 32.7962 29.1393 32.4407 29.1407 32.0708C29.1421 31.7008 29.2897 31.3465 29.5513 31.0849C29.8128 30.8233 30.1672 30.6757 30.5371 30.6743C30.907 30.6729 31.2625 30.8177 31.5261 31.0772L34.7243 34.2755L37.0243 36.5755L38.1086 35.4912L36.0333 33.4158V28.6842L39.5105 32.1617C39.8676 32.5168 40.1507 32.9392 40.3434 33.4044C40.5362 33.8696 40.6347 34.3685 40.6333 34.872V46H42.1667V34.872C42.1686 34.167 42.0307 33.4685 41.7609 32.8171C41.4912 32.1657 41.0949 31.5743 40.595 31.077L36.0333 26.5154V6.90001C36.0322 5.8837 35.628 4.90934 34.9093 4.19069C34.1907 3.47205 33.2163 3.06782 32.2 3.06668H14.5667V4.60001H17.1595ZM17.1833 15.4223L19.32 12.5733C19.3914 12.4781 19.484 12.4008 19.5905 12.3476C19.6969 12.2944 19.8143 12.2667 19.9333 12.2667H26.0667C26.1857 12.2667 26.3031 12.2944 26.4095 12.3476C26.516 12.4008 26.6086 12.4781 26.68 12.5733L28.8171 15.4223L31.0391 15.9781C31.3709 16.0608 31.6655 16.2522 31.876 16.5218C32.0864 16.7914 32.2004 17.1236 32.2 17.4656V19.9333C32.2 20.1367 32.1192 20.3317 31.9754 20.4755C31.8317 20.6192 31.6367 20.7 31.4333 20.7H29.7681C29.6095 21.1482 29.3158 21.5362 28.9275 21.8106C28.5392 22.0851 28.0755 22.2324 27.6 22.2324C27.1245 22.2324 26.6608 22.0851 26.2725 21.8106C25.8842 21.5362 25.5905 21.1482 25.4319 20.7H20.5681C20.4095 21.1482 20.1158 21.5362 19.7275 21.8106C19.3392 22.0851 18.8755 22.2324 18.4 22.2324C17.9245 22.2324 17.4608 22.0851 17.0725 21.8106C16.6842 21.5362 16.3905 21.1482 16.2319 20.7H14.5667C14.3633 20.7 14.1683 20.6192 14.0246 20.4755C13.8808 20.3317 13.8 20.1367 13.8 19.9333V17.4656C13.7996 17.1236 13.9138 16.7913 14.1243 16.5217C14.3348 16.2521 14.6296 16.0607 14.9615 15.9782L17.1833 15.4223ZM19.1667 19.9333C19.1667 19.7817 19.1217 19.6335 19.0375 19.5074C18.9532 19.3813 18.8335 19.2831 18.6934 19.225C18.5533 19.167 18.3991 19.1518 18.2504 19.1814C18.1017 19.211 17.9651 19.284 17.8579 19.3912C17.7507 19.4984 17.6776 19.6351 17.6481 19.7838C17.6185 19.9325 17.6337 20.0866 17.6917 20.2267C17.7497 20.3668 17.848 20.4866 17.9741 20.5708C18.1001 20.655 18.2484 20.7 18.4 20.7C18.6033 20.6998 18.7981 20.6189 18.9419 20.4752C19.0856 20.3315 19.1664 20.1366 19.1667 19.9333ZM28.3667 19.9333C28.3667 19.7817 28.3217 19.6335 28.2375 19.5074C28.1532 19.3813 28.0335 19.2831 27.8934 19.225C27.7533 19.167 27.5991 19.1518 27.4504 19.1814C27.3017 19.211 27.1651 19.284 27.0579 19.3912C26.9507 19.4984 26.8776 19.6351 26.8481 19.7838C26.8185 19.9325 26.8337 20.0866 26.8917 20.2267C26.9497 20.3668 27.048 20.4866 27.1741 20.5708C27.3001 20.655 27.4484 20.7 27.6 20.7C27.8033 20.6998 27.9981 20.6189 28.1419 20.4752C28.2856 20.3315 28.3664 20.1366 28.3667 19.9333ZM17.8193 16.8438L15.3333 17.4657V19.1667H16.2319C16.3905 18.7185 16.6842 18.3305 17.0725 18.056C17.4608 17.7816 17.9245 17.6343 18.4 17.6343C18.8755 17.6343 19.3392 17.7816 19.7275 18.056C20.1158 18.3305 20.4095 18.7185 20.5681 19.1667H25.4319C25.5905 18.7185 25.8842 18.3305 26.2725 18.056C26.6608 17.7816 27.1245 17.6343 27.6 17.6343C28.0755 17.6343 28.5392 17.7816 28.9275 18.056C29.3158 18.3305 29.6095 18.7185 29.7681 19.1667H30.6667V17.4656L28.1807 16.8438C28.0099 16.8011 27.859 16.7009 27.7533 16.56L25.6833 13.8H20.3167L18.2467 16.56C18.141 16.7009 17.9901 16.8011 17.8193 16.8438ZM0 11.9826C0.000195573 11.5329 0.117584 11.0911 0.340592 10.7006L5.47352 1.71763C5.77169 1.19584 6.2025 0.762153 6.72228 0.460512C7.24207 0.158871 7.83236 0 8.43333 0C9.0343 0 9.62459 0.158871 10.1444 0.460512C10.6642 0.762153 11.095 1.19584 11.3931 1.71763L16.5262 10.7006C16.7507 11.0935 16.8681 11.5386 16.8666 11.9912C16.8651 12.4439 16.7448 12.8881 16.5176 13.2796C16.2904 13.6711 15.9644 13.996 15.5721 14.2219C15.1799 14.4478 14.7352 14.5667 14.2826 14.5667H2.58405C1.899 14.5658 1.24226 14.2932 0.757859 13.8088C0.273453 13.3244 0.000912796 12.6677 0 11.9826ZM1.53333 11.9826C1.53364 12.2612 1.64444 12.5283 1.84142 12.7253C2.0384 12.9222 2.30548 13.033 2.58405 13.0333H14.2826C14.4666 13.0333 14.6474 12.985 14.8068 12.8932C14.9663 12.8013 15.0988 12.6693 15.1912 12.5101C15.2836 12.351 15.3325 12.1704 15.3332 11.9864C15.3338 11.8024 15.2862 11.6215 15.195 11.4617L10.0617 2.47835C9.8977 2.19127 9.66069 1.95265 9.37472 1.78668C9.08874 1.62072 8.76398 1.5333 8.43333 1.5333C8.10269 1.5333 7.77792 1.62072 7.49195 1.78668C7.20598 1.95265 6.96896 2.19127 6.80493 2.47835L1.67181 11.4617C1.58115 11.6203 1.53342 11.7999 1.53333 11.9826ZM9.2 3.83334H7.66667V8.43334H9.2V3.83334ZM9.2 9.96668H7.66667V11.5H9.2V9.96668ZM13.8 37.1833C13.8003 36.8784 13.9216 36.5861 14.1372 36.3705C14.3528 36.1549 14.6451 36.0337 14.95 36.0333H17.25C17.5549 36.0337 17.8472 36.1549 18.0628 36.3705C18.2784 36.5861 18.3997 36.8784 18.4 37.1833V39.4833C18.3997 39.7882 18.2784 40.0806 18.0628 40.2962C17.8472 40.5117 17.5549 40.633 17.25 40.6333H14.95C14.6451 40.633 14.3528 40.5117 14.1372 40.2962C13.9216 40.0806 13.8003 39.7882 13.8 39.4833V37.1833ZM15.3333 39.1H16.8667V37.5667H15.3333V39.1ZM19.9333 37.5667H27.6V36.0333H19.9333V37.5667ZM19.9333 40.6333H28.3667V39.1H19.9333V40.6333ZM13.8 31.05C13.8003 30.7451 13.9216 30.4528 14.1372 30.2372C14.3528 30.0216 14.6451 29.9003 14.95 29.9H17.25C17.5549 29.9003 17.8472 30.0216 18.0628 30.2372C18.2784 30.4528 18.3997 30.7451 18.4 31.05V33.35C18.3997 33.6549 18.2784 33.9472 18.0628 34.1628C17.8472 34.3784 17.5549 34.4997 17.25 34.5H14.95C14.6451 34.4997 14.3528 34.3784 14.1372 34.1628C13.9216 33.9472 13.8003 33.6549 13.8 33.35V31.05ZM15.3333 32.9667H16.8667V31.4333H15.3333V32.9667ZM25.3 29.9H19.9333V31.4333H25.3V29.9ZM19.9333 34.5H25.3V32.9667H19.9333V34.5ZM13.8 24.9167C13.8003 24.6118 13.9216 24.3195 14.1372 24.1039C14.3528 23.8883 14.6451 23.767 14.95 23.7667H17.25C17.5549 23.767 17.8472 23.8883 18.0628 24.1039C18.2784 24.3195 18.3997 24.6118 18.4 24.9167V27.2167C18.3997 27.5216 18.2784 27.8139 18.0628 28.0295C17.8472 28.2451 17.5549 28.3663 17.25 28.3667H14.95C14.6451 28.3663 14.3528 28.2451 14.1372 28.0295C13.9216 27.8139 13.8003 27.5216 13.8 27.2167V24.9167ZM15.3333 26.8333H16.8667V25.3H15.3333V26.8333ZM32.2 23.7667H19.9333V25.3H32.2V23.7667ZM32.2 26.8333H19.9333V28.3667H32.2V26.8333ZM45.0088 6.67547L43.9245 5.59121L42.3912 7.12455L43.4755 8.20881L45.0088 6.67547ZM42.3255 9.3588L41.2412 8.27455L37.7912 11.7245L38.8755 12.8088L42.3255 9.3588ZM44.3708 16.1V17.6333H46V16.1H44.3708ZM38.3333 16.1V17.6333H42.6458V16.1H38.3333ZM45.0088 27.0579L43.4755 25.5245L42.3912 26.6088L43.9245 28.1421L45.0088 27.0579ZM42.1657 24.2149L38.8755 20.9245L37.7912 22.0088L41.0814 25.2991L42.1657 24.2149ZM21.4667 8.43334H17.6333V9.96668H21.4667V8.43334ZM26.8333 8.43334H23V9.96668H26.8333V8.43334ZM32.2 8.43334H28.3667V9.96668H32.2V8.43334Z" fill="#E22427"/>
</svg>
