<svg width="30" height="30" viewBox="0 0 30 30" fill="none" xmlns="http://www.w3.org/2000/svg">
<g clip-path="url(#clip0_611:650)">
<path d="M27.294 1.82812L26.8174 2.70703L27.6963 3.18363L28.1729 2.30472L27.294 1.82812Z" fill="#E22427"/>
<path d="M26.35 11.0001L20.2174 9.37994C19.9504 9.30952 19.6769 9.46886 19.6065 9.7358V9.73586C19.5361 10.0028 19.6954 10.2763 19.9624 10.3467H19.9624L26.0946 11.9669C26.1364 11.9777 26.1794 11.9832 26.2226 11.9834C26.4986 11.9834 26.7225 11.7597 26.7226 11.4836C26.7226 11.2565 26.5696 11.0579 26.35 11.0001Z" fill="#E22427"/>
<path d="M27.3521 9.19973L21.1674 7.62107C20.8999 7.5529 20.6277 7.71449 20.5595 7.98199C20.4914 8.2495 20.653 8.52169 20.9205 8.58986L27.1051 10.168C27.1454 10.1785 27.1869 10.1837 27.2286 10.1835C27.5047 10.1824 27.7276 9.95775 27.7265 9.68168C27.7256 9.45461 27.5718 9.25671 27.3521 9.19973Z" fill="#E22427"/>
<path d="M18.9344 18.7031H17.9346V19.7029H18.9344V18.7031Z" fill="#E22427"/>
<path d="M29.9726 2.13501C29.7712 0.769368 28.5008 -0.174363 27.1352 0.0270933C25.7696 0.228549 24.8258 1.4989 25.0273 2.86453C25.0618 3.09886 25.1295 3.32706 25.2283 3.54226L24.7449 4.42757L24.3065 4.18912C24.0641 4.05727 23.7607 4.14675 23.6287 4.38908L22.8098 5.89725L22.0915 5.70529C21.8249 5.63324 21.5504 5.79089 21.4784 6.05746C21.4063 6.32403 21.564 6.59853 21.8306 6.67058L28.1032 8.3702C28.1457 8.38189 28.1896 8.38776 28.2336 8.3877C28.5097 8.38839 28.7341 8.16512 28.7348 7.88906C28.7354 7.6623 28.5832 7.46353 28.3641 7.40492L27.7688 7.24395L28.0222 6.77655C28.154 6.53417 28.0646 6.23074 27.8222 6.0987L27.3828 5.86025L27.8647 4.97245C29.2303 4.77099 30.1741 3.50065 29.9726 2.13501ZM26.7755 6.97351L25.7447 6.69357L23.7996 6.16669L24.2665 5.30638L25.2368 5.83326L26.4655 6.50011L26.9034 6.73756L26.7755 6.97351ZM27.1119 4.2586L26.503 5.38086L25.6242 4.90546L26.2336 3.78221C26.3184 3.62568 26.3137 3.43585 26.2211 3.28382C25.7871 2.57841 26.0071 1.65467 26.7125 1.22071C27.418 0.786677 28.3417 1.00675 28.7757 1.71216C29.2097 2.41757 28.9897 3.34131 28.2842 3.77527C28.0588 3.91393 27.8008 3.99048 27.5363 3.99716C27.3583 4.00254 27.1967 4.10214 27.1119 4.2586Z" fill="#E22427"/>
<path d="M29.4935 15.5025H26.4942C26.2181 15.5025 25.9943 15.7263 25.9943 16.0024V17.502H22.77L23.4554 16.2393C23.5872 15.9969 23.4977 15.6935 23.2554 15.5615L22.3766 15.0846L23.3499 13.2905L25.0865 13.7649C25.353 13.8376 25.6279 13.6806 25.7006 13.4142C25.7734 13.1477 25.6164 12.8728 25.35 12.8001L19.2678 11.1389C19.0002 11.0708 18.7282 11.2325 18.66 11.5001C18.5936 11.7611 18.7458 12.0277 19.0043 12.1032L20.377 12.4786L19.7392 13.6529L18.8604 13.176C18.6181 13.0445 18.3151 13.1339 18.183 13.3759L17.2292 15.1336C17.0974 15.3759 17.1869 15.6794 17.4292 15.8114L18.308 16.2878L18.065 16.7377C17.8968 16.7625 17.7314 16.8044 17.5717 16.8627C17.2076 16.9973 16.8807 17.2165 16.6179 17.502H12.9972V16.0024C12.9972 15.7263 12.7733 15.5025 12.4973 15.5025H10.9976V11.5034C10.996 10.1237 9.87784 9.00553 8.49814 9.00391H2.49945C1.11976 9.00553 0.00162464 10.1237 0 11.5034V27.4999C0.00162464 28.8796 1.11976 29.9977 2.49945 29.9993H8.49814C9.87784 29.9977 10.996 28.8796 10.9976 27.4999V23.5007H12.4973C12.7733 23.5007 12.9972 23.2769 12.9972 23.0008V21.5012H17.4832C18.0939 21.7624 18.785 21.7624 19.3958 21.5012H25.9943V23.0008C25.9943 23.2769 26.2181 23.5007 26.4942 23.5007H29.4935C29.7696 23.5007 29.9934 23.2769 29.9934 23.0008V16.0024C29.9934 15.7263 29.7696 15.5025 29.4935 15.5025ZM1.99956 28.9075C1.40251 28.6965 1.00241 28.1331 0.999781 27.4999V11.5034C1.00241 10.8701 1.40251 10.3067 1.99956 10.0957V28.9075ZM3.99912 28.9995H2.99934V10.0037H3.99912V28.9995ZM5.99869 28.9995H4.99891V10.0037H5.99869V28.9995ZM7.99825 28.9995H6.99847V10.0037H7.99825V28.9995ZM9.99781 16.0024V27.4999C9.99519 28.1331 9.59509 28.6965 8.99803 28.9075V10.0957C9.59509 10.3067 9.99519 10.8701 9.99781 11.5034V16.0024ZM11.9974 18.0019V22.501H10.9976V16.5023H11.9974V18.0019ZM12.9972 20.5014V18.5018H16.036C15.9964 18.6401 15.9691 18.7816 15.9545 18.9247C15.9545 18.9427 15.9495 18.9607 15.9475 18.9787C15.9355 19.1204 15.9355 19.2629 15.9475 19.4046C15.9475 19.4266 15.9505 19.4481 15.953 19.4701C15.9681 19.6084 15.9949 19.7452 16.033 19.879C16.039 19.901 16.0455 19.923 16.0525 19.945C16.0935 20.0779 16.1455 20.2071 16.208 20.3314C16.218 20.3509 16.2289 20.3699 16.2394 20.3899C16.2594 20.4269 16.2774 20.4654 16.2994 20.5014H12.9972ZM21.2903 12.8921L22.2481 13.222L21.4953 14.6077L20.6165 14.1308L21.2903 12.8921ZM18.8229 14.2947L22.3381 16.2023L21.8612 17.0806L19.7877 15.9559L19.2253 15.6525L18.346 15.1736L18.8229 14.2947ZM19.7082 18.4253C20.1394 19.1266 19.9205 20.0447 19.2192 20.476C18.7883 20.7409 18.2525 20.7693 17.7961 20.5514C17.7826 20.5449 17.7351 20.5269 17.7211 20.5219C16.9933 20.1268 16.7235 19.2167 17.1183 18.4888C17.1548 18.4243 17.1964 18.3628 17.2427 18.3049C17.4137 18.0766 17.6473 17.9029 17.9151 17.805C18.0689 17.7492 18.2304 17.7181 18.394 17.713C18.5718 17.7077 18.7334 17.6083 18.8184 17.4521L19.1888 16.7687L20.0676 17.2456L19.6957 17.927C19.6108 18.0835 19.6155 18.2733 19.7082 18.4253ZM23.9948 20.5014H20.5705C20.592 20.4664 20.6125 20.4309 20.632 20.3944C20.7017 20.2633 20.7592 20.1261 20.8039 19.9845C20.8114 19.96 20.8204 19.9345 20.8274 19.912C20.8666 19.7778 20.8941 19.6405 20.9099 19.5016C20.9129 19.4741 20.9149 19.4466 20.9174 19.4191C20.9297 19.2768 20.9297 19.1336 20.9174 18.9912C20.9174 18.9787 20.9134 18.9672 20.9124 18.9547C20.8974 18.8172 20.8712 18.6811 20.8339 18.5478C20.8299 18.5333 20.8294 18.5178 20.8254 18.5033H23.9948V20.5014ZM25.9943 20.5014H24.9945V18.5018H25.9943V20.5014ZM28.9937 22.501H26.9941V16.5023H28.9937V22.501Z" fill="#E22427"/>
</g>
<defs>
<clipPath id="clip0_611:650">
<rect width="30" height="30" fill="white"/>
</clipPath>
</defs>
</svg>
