<svg width="32" height="32" viewBox="0 0 32 32" fill="none" xmlns="http://www.w3.org/2000/svg">
<path d="M17.4545 10.4727C13.6002 10.4768 10.4768 13.6002 10.4727 17.4545C10.4727 21.3104 13.5985 24.4363 17.4545 24.4363C21.3104 24.4363 24.4363 21.3104 24.4363 17.4545C24.4363 13.5985 21.3104 10.4727 17.4545 10.4727ZM17.4545 23.2727C14.2412 23.2727 11.6363 20.6678 11.6363 17.4545C11.6399 14.2426 14.2426 11.6398 17.4545 11.6363C20.6678 11.6363 23.2727 14.2412 23.2727 17.4545C23.2727 20.6678 20.6678 23.2727 17.4545 23.2727Z" fill="#E22427"/>
<path d="M17.4542 15.127C16.1689 15.127 15.127 16.1689 15.127 17.4542C15.127 18.7395 16.1689 19.7815 17.4542 19.7815C18.7395 19.7815 19.7815 18.7395 19.7815 17.4542C19.7815 16.1689 18.7395 15.127 17.4542 15.127ZM17.4542 18.6179C16.8115 18.6179 16.2906 18.0969 16.2906 17.4542C16.2906 16.8115 16.8115 16.2906 17.4542 16.2906C18.0969 16.2906 18.6179 16.8115 18.6179 17.4542C18.6179 18.0969 18.0969 18.6179 17.4542 18.6179Z" fill="#E22427"/>
<path d="M18.0367 12.8008H16.873V13.9644H18.0367V12.8008Z" fill="#E22427"/>
<path d="M18.0367 20.9453H16.873V22.109H18.0367V20.9453Z" fill="#E22427"/>
<path d="M14.5455 15.127H13.3818V16.2906H14.5455V15.127Z" fill="#E22427"/>
<path d="M21.5269 15.127H20.3633V16.2906H21.5269V15.127Z" fill="#E22427"/>
<path d="M14.5455 18.6191H13.3818V19.7828H14.5455V18.6191Z" fill="#E22427"/>
<path d="M21.5269 18.6191H20.3633V19.7828H21.5269V18.6191Z" fill="#E22427"/>
<path d="M22.691 9.89062H21.5273V11.0543H22.691V9.89062Z" fill="#E22427"/>
<path d="M21.5269 7.56445H20.3633V8.72809H21.5269V7.56445Z" fill="#E22427"/>
<path d="M20.3629 5.23633H19.1992V6.39996H20.3629V5.23633Z" fill="#E22427"/>
<path d="M13.3814 23.8555H12.2178V25.0191H13.3814V23.8555Z" fill="#E22427"/>
<path d="M14.5455 26.1816H13.3818V27.3453H14.5455V26.1816Z" fill="#E22427"/>
<path d="M15.7095 28.5098H14.5459V29.6734H15.7095V28.5098Z" fill="#E22427"/>
<path d="M11.0543 12.2188H9.89062V13.3824H11.0543V12.2188Z" fill="#E22427"/>
<path d="M25.0181 21.5273H23.8545V22.691H25.0181V21.5273Z" fill="#E22427"/>
<path d="M27.3463 20.3633H26.1826V21.5269H27.3463V20.3633Z" fill="#E22427"/>
<path d="M29.6724 19.1992H28.5088V20.3629H29.6724V19.1992Z" fill="#E22427"/>
<path d="M15.8082 8.40376L14.9854 9.22656L15.8082 10.0494L16.631 9.22656L15.8082 8.40376Z" fill="#E22427"/>
<path d="M19.0992 24.8569L18.2764 25.6797L19.0992 26.5025L19.922 25.6797L19.0992 24.8569Z" fill="#E22427"/>
<path d="M21.569 25.6812L20.7461 26.5039L21.5688 27.3268L22.3917 26.5041L21.569 25.6812Z" fill="#E22427"/>
<path d="M24.0357 26.5073L23.2129 27.3301L24.0357 28.1529L24.8585 27.3301L24.0357 26.5073Z" fill="#E22427"/>
<path d="M9.22613 18.2768L8.40332 19.0996L9.22613 19.9224L10.0489 19.0996L9.22613 18.2768Z" fill="#E22427"/>
<path d="M8.40289 20.7436L7.58008 21.5664L8.40289 22.3892L9.22569 21.5664L8.40289 20.7436Z" fill="#E22427"/>
<path d="M7.57671 23.2123L6.75391 24.0352L7.57671 24.858L8.39952 24.0352L7.57671 23.2123Z" fill="#E22427"/>
<path d="M25.6812 14.9858L24.8584 15.8086L25.6812 16.6314L26.504 15.8086L25.6812 14.9858Z" fill="#E22427"/>
<path d="M26.5054 12.517L25.6826 13.3398L26.5054 14.1627L27.3282 13.3398L26.5054 12.517Z" fill="#E22427"/>
<path d="M27.3287 10.0483L26.5059 10.8711L27.3287 11.6939L28.1515 10.8711L27.3287 10.0483Z" fill="#E22427"/>
<path d="M17.4545 2.90909V1.74545C17.4545 0.781455 16.6731 3.92434e-07 15.7091 3.92434e-07H12.2182C12.1557 -7.23348e-05 12.0936 0.00996403 12.0343 0.0296731C6.37418 1.93113 1.93142 6.37411 0.0302545 12.0343C0.0103273 12.0936 0.000145455 12.1556 0 12.2182V15.7091C0 16.6731 0.781455 17.4545 1.74545 17.4545H2.90909C2.90909 25.4878 9.42131 32 17.4545 32C25.4878 32 32 25.4878 32 17.4545C32 9.42131 25.4878 2.90909 17.4545 2.90909ZM1.74545 16.2909C1.42415 16.2909 1.16364 16.0304 1.16364 15.7091V12.3136C2.9552 7.07214 7.07214 2.9552 12.3136 1.16364H15.7091C16.0304 1.16364 16.2909 1.42415 16.2909 1.74545V5.89673C10.9598 6.78189 6.78189 10.9598 5.89673 16.2909H1.74545ZM17.4545 30.8364C10.064 30.8364 4.07273 24.8451 4.07273 17.4545H6.4C6.69338 17.4545 6.9408 17.236 6.97716 16.9449C7.08371 16.1157 7.28036 15.3006 7.56364 14.514V14.5455H8.72727V13.3818H8.02909C9.02102 11.3261 10.6033 9.61287 12.5737 8.4608L13.3393 9.22647L14.162 8.40378L13.6634 7.90516C14.7049 7.43396 15.8109 7.12116 16.9449 6.97716C17.236 6.9408 17.4545 6.69338 17.4545 6.4V4.07273C24.8451 4.07273 30.8364 10.064 30.8364 17.4545C30.8364 24.8451 24.8451 30.8364 17.4545 30.8364Z" fill="#E22427"/>
<path d="M12.8004 2.32812H11.6367V3.49176H12.8004V2.32812Z" fill="#E22427"/>
<path d="M2.90875 12.8008H1.74512V13.9644H2.90875V12.8008Z" fill="#E22427"/>
<path d="M6.98102 5.81836H5.81738V6.982H6.98102V5.81836Z" fill="#E22427"/>
</svg>
