<svg width="32" height="32" viewBox="0 0 32 32" fill="none" xmlns="http://www.w3.org/2000/svg">
<path d="M9.13905 20.8613L5.92037 17.6427C5.28968 17.0134 4.45368 16.6667 3.56305 16.6667H1.33368C0.96568 16.6667 0.666992 16.9654 0.666992 17.3334C0.666992 17.7014 0.96568 18 1.33368 18H3.56299C4.0883 18 4.6043 18.2133 4.9763 18.5853L7.05762 20.6666H1.33368C0.96568 20.6666 0.666992 20.9653 0.666992 21.3333C0.666992 21.7013 0.96568 22 1.33368 22H8.66699C8.9363 22 9.17899 21.8373 9.28299 21.588C9.38699 21.3387 9.32968 21.052 9.13905 20.8613Z" fill="#E22427"/>
<path d="M8.66638 24C8.29838 24 7.99969 24.2987 7.99969 24.6667V26.6667C7.99969 27.0347 7.69969 27.3334 7.333 27.3334H3.33301C2.96632 27.3334 2.66632 27.0347 2.66632 26.6667V24C2.66632 23.632 2.36763 23.3333 1.99963 23.3333C1.63163 23.3333 1.33301 23.632 1.33301 24V26.6667C1.33301 27.7694 2.23032 28.6667 3.33301 28.6667H7.333C8.43569 28.6667 9.333 27.7694 9.333 26.6667V24.6667C9.333 24.2987 9.03438 24 8.66638 24Z" fill="#E22427"/>
<path d="M28.9747 12.7427C27.1374 11.7814 23.0134 11.3334 16 11.3334C8.98663 11.3334 4.86269 11.7814 3.02531 12.7427C0.932 13.836 0 15.6627 0 18.6667C0 21.5547 0.661313 24.0667 0.689313 24.172C0.766625 24.464 1.03063 24.6667 1.33331 24.6667H7.176L9.70131 25.9294C9.79462 25.9761 9.89731 26.0001 10 26.0001H22C22.1027 26.0001 22.2053 25.9761 22.2973 25.9294L24.824 24.6667H30.6667C30.9694 24.6667 31.2334 24.464 31.3107 24.172C31.3387 24.0667 32 21.5547 32 18.6667C32 15.6627 31.068 13.836 28.9747 12.7427ZM30.14 23.3333H24.668C24.564 23.3333 24.4613 23.3573 24.3693 23.404L21.8426 24.6667H10.1573L7.632 23.404C7.53869 23.3573 7.436 23.3333 7.33331 23.3333H1.86131C1.676 22.484 1.33331 20.6493 1.33331 18.6666C1.33331 16.1559 2.00263 14.7813 3.64131 13.9239C5.23863 13.0893 9.396 12.6666 16 12.6666C22.604 12.6666 26.7613 13.0893 28.3587 13.9239C29.9974 14.7813 30.6667 16.1559 30.6667 18.6666C30.6667 20.6493 30.324 22.484 30.14 23.3333Z" fill="#E22427"/>
<path d="M30.6667 20.6667H24.9427L27.0227 18.5854C27.396 18.2134 27.9107 18.0001 28.4374 18.0001H30.6667C31.0347 18.0001 31.3334 17.7014 31.3334 17.3334C31.3334 16.9654 31.0347 16.6667 30.6667 16.6667H28.4374C27.5467 16.6667 26.7107 17.0134 26.0801 17.6427L22.8614 20.8614C22.6721 21.0521 22.6147 21.3387 22.7174 21.5881C22.8201 21.8374 23.0641 22.0001 23.3334 22.0001H30.6667C31.0347 22.0001 31.3334 21.7014 31.3334 21.3334C31.3333 20.9653 31.0347 20.6667 30.6667 20.6667Z" fill="#E22427"/>
<path d="M23.9376 17.0507C23.8269 16.816 23.5922 16.6667 23.3336 16.6667H8.66693C8.40824 16.6667 8.17362 16.816 8.06293 17.0507C7.95362 17.284 7.98824 17.5614 8.15493 17.76L11.4882 21.76C11.6149 21.912 11.8029 22 12.0002 22H20.0002C20.1976 22 20.3856 21.912 20.5122 21.76L23.8456 17.76C24.0122 17.5613 24.0469 17.284 23.9376 17.0507ZM19.6869 20.6667H12.3122L10.0896 18H21.9096L19.6869 20.6667Z" fill="#E22427"/>
<path d="M29.2789 13.068C28.5202 11.324 25.9816 5.576 25.0989 4.82531C23.9989 3.89063 20.8482 3.33331 16.6669 3.33331H15.3336C11.1523 3.33331 8.00159 3.89063 6.90159 4.824C6.0189 5.57469 3.4789 11.3227 2.72159 13.0667C2.57628 13.4054 2.7309 13.7974 3.06828 13.944C3.40428 14.0907 3.79896 13.9373 3.94559 13.5987C5.4509 10.1334 7.29228 6.28269 7.76559 5.84138C8.2789 5.40538 10.4509 4.66669 15.3336 4.66669H16.6669C21.5496 4.66669 23.7216 5.40538 24.2322 5.83869C24.7082 6.28269 26.5495 10.132 28.0549 13.5987C28.1642 13.8507 28.4109 14 28.6669 14C28.7549 14 28.8469 13.9827 28.9322 13.9453C29.2695 13.7987 29.4242 13.4053 29.2789 13.068Z" fill="#E22427"/>
<path d="M30.0004 23.3333C29.6324 23.3333 29.3337 23.632 29.3337 24V26.6667C29.3337 27.0347 29.0337 27.3334 28.6671 27.3334H24.6671C24.3004 27.3334 24.0004 27.0347 24.0004 26.6667V24.6667C24.0004 24.2987 23.7017 24 23.3337 24C22.9657 24 22.667 24.2987 22.667 24.6667V26.6667C22.667 27.7694 23.5643 28.6667 24.667 28.6667H28.667C29.7697 28.6667 30.667 27.7694 30.667 26.6667V24C30.6671 23.632 30.3684 23.3333 30.0004 23.3333Z" fill="#E22427"/>
</svg>
