<svg width="31" height="27" viewBox="0 0 31 27" fill="none" xmlns="http://www.w3.org/2000/svg">
<path d="M3.9375 26.2188H27.0625C28.9749 26.2188 30.5312 24.6624 30.5312 22.75V6.5625C30.5312 4.65006 28.9749 3.09375 27.0625 3.09375H23.5938V1.9375C23.5938 1.29809 23.0769 0.78125 22.4375 0.78125C21.7981 0.78125 21.2812 1.29809 21.2812 1.9375V3.09375H9.71875V1.9375C9.71875 1.29809 9.20191 0.78125 8.5625 0.78125C7.92309 0.78125 7.40625 1.29809 7.40625 1.9375V3.09375H3.9375C2.02506 3.09375 0.46875 4.65006 0.46875 6.5625V22.75C0.46875 24.6624 2.02506 26.2188 3.9375 26.2188ZM3.9375 5.40625H7.40625V6.5625C7.40625 7.20191 7.92309 7.71875 8.5625 7.71875C9.20191 7.71875 9.71875 7.20191 9.71875 6.5625V5.40625H21.2812V6.5625C21.2812 7.20191 21.7981 7.71875 22.4375 7.71875C23.0769 7.71875 23.5938 7.20191 23.5938 6.5625V5.40625H27.0625C27.7008 5.40625 28.2188 5.92425 28.2188 6.5625V22.75C28.2188 23.3883 27.7008 23.9062 27.0625 23.9062H3.9375C3.29925 23.9062 2.78125 23.3883 2.78125 22.75V6.5625C2.78125 5.92425 3.29925 5.40625 3.9375 5.40625Z" fill="#E22427"/>
<path d="M5.09375 12.3438H25.9062C26.5457 12.3438 27.0625 11.8269 27.0625 11.1875C27.0625 10.5481 26.5457 10.0312 25.9062 10.0312H5.09375C4.45434 10.0312 3.9375 10.5481 3.9375 11.1875C3.9375 11.8269 4.45434 12.3438 5.09375 12.3438Z" fill="#E22427"/>
</svg>
