<svg width="16" height="16" viewBox="0 0 16 16" fill="none" xmlns="http://www.w3.org/2000/svg">
<path fill-rule="evenodd" clip-rule="evenodd" d="M0.227556 0.227556C0.530964 -0.0758519 1.02288 -0.0758519 1.32629 0.227556L8 6.90126L14.6737 0.227556C14.9771 -0.0758519 15.469 -0.0758519 15.7724 0.227556C16.0759 0.530964 16.0759 1.02288 15.7724 1.32629L9.09874 8L15.7724 14.6737C16.0759 14.9771 16.0759 15.469 15.7724 15.7724C15.469 16.0759 14.9771 16.0759 14.6737 15.7724L8 9.09874L1.32629 15.7724C1.02288 16.0759 0.530964 16.0759 0.227556 15.7724C-0.0758519 15.469 -0.0758519 14.9771 0.227556 14.6737L6.90126 8L0.227556 1.32629C-0.0758519 1.02288 -0.0758519 0.530964 0.227556 0.227556Z" fill="white"/>
</svg>
