<svg viewBox="0 0 22 17" fill="#97979D" xmlns="http://www.w3.org/2000/svg">
    <path d="M20.0288 4.50537H19.4389V10.9899C19.4389 11.9996 18.851 12.9125 17.6724 12.9125H6.12598V13.2208C6.12598 14.1134 7.14126 15.0145 8.18387 15.0145H17.0117L20.389 17.0001L19.8992 15.0145H20.0288C21.0707 15.0145 21.5409 14.1156 21.5409 13.2208V6.04471C21.5409 5.15208 21.0707 4.50537 20.0288 4.50537Z"/>
    <path d="M15.9488 0H2.53785C1.35791 0 0 1.04818 0 2.05852V10.1861C0 11.1166 1.15051 11.7885 2.25408 11.8922L1.53589 14.6185L6.13794 11.9111H15.9488C17.1288 11.9111 18.2176 11.1958 18.2176 10.1861V3.61047V2.05852C18.2176 1.04818 17.1281 0 15.9488 0ZM4.58383 6.86081C3.91469 6.86081 3.37236 6.3185 3.37236 5.64938C3.37236 4.98025 3.91469 4.43795 4.58383 4.43795C5.25228 4.43795 5.7953 4.98025 5.7953 5.64938C5.7953 6.3185 5.25228 6.86081 4.58383 6.86081ZM9.10881 6.86081C8.43966 6.86081 7.89734 6.3185 7.89734 5.64938C7.89734 4.98025 8.43966 4.43795 9.10881 4.43795C9.77796 4.43795 10.3203 4.98025 10.3203 5.64938C10.3203 6.3185 9.77796 6.86081 9.10881 6.86081ZM13.6345 6.86081C12.9653 6.86081 12.4223 6.3185 12.4223 5.64938C12.4223 4.98025 12.9653 4.43795 13.6345 4.43795C14.3022 4.43795 14.846 4.98025 14.846 5.64938C14.846 6.3185 14.3022 6.86081 13.6345 6.86081Z"/>
</svg>