<svg viewBox="0 0 16 9" fill="black" xmlns="http://www.w3.org/2000/svg">
    <path d="M5.98198 5.72729H15.2547C15.556 5.72729 15.8002 5.97149 15.8002 6.27275V8.45457C15.8002 8.75583 15.556 9.00002 15.2547 9.00002H5.98198C5.68072 9.00002 5.43652 8.75583 5.43652 8.45457V6.27275C5.43652 5.97149 5.68072 5.72729 5.98198 5.72729Z"></path>
    <path d="M5.8726 5.72729H15.1453C15.4466 5.72729 15.6908 5.97149 15.6908 6.27275V8.45457C15.6908 8.75583 15.4466 9.00002 15.1453 9.00002H5.8726C5.57134 9.00002 5.32715 8.75583 5.32715 8.45457V6.27275C5.32715 5.97149 5.57134 5.72729 5.8726 5.72729Z"></path>
    <path d="M1.0728 5.72729H3.25462C3.55588 5.72729 3.80007 5.97149 3.80007 6.27275V8.45457C3.80007 8.75583 3.55588 9.00002 3.25462 9.00002H1.0728C0.771537 9.00002 0.527344 8.75583 0.527344 8.45457V6.27275C0.527344 5.97149 0.771537 5.72729 1.0728 5.72729Z"></path>
    <path d="M0.963423 5.72729H3.14524C3.4465 5.72729 3.6907 5.97149 3.6907 6.27275V8.45457C3.6907 8.75583 3.4465 9.00002 3.14524 9.00002H0.963423C0.662162 9.00002 0.417969 8.75583 0.417969 8.45457V6.27275C0.417969 5.97149 0.662162 5.72729 0.963423 5.72729Z"></path>
    <path d="M5.98198 0H15.2547C15.556 0 15.8002 0.244193 15.8002 0.545455V2.72727C15.8002 3.02853 15.556 3.27273 15.2547 3.27273H5.98198C5.68072 3.27273 5.43652 3.02853 5.43652 2.72727V0.545455C5.43652 0.244193 5.68072 0 5.98198 0Z"></path>
    <path d="M1.0728 0H3.25462C3.55588 0 3.80007 0.244193 3.80007 0.545455V2.72727C3.80007 3.02853 3.55588 3.27273 3.25462 3.27273H1.0728C0.771537 3.27273 0.527344 3.02853 0.527344 2.72727V0.545455C0.527344 0.244193 0.771537 0 1.0728 0Z"></path>
    <path d="M0.963423 0H3.14524C3.4465 0 3.6907 0.244193 3.6907 0.545455V2.72727C3.6907 3.02853 3.4465 3.27273 3.14524 3.27273H0.963423C0.662162 3.27273 0.417969 3.02853 0.417969 2.72727V0.545455C0.417969 0.244193 0.662162 0 0.963423 0Z"></path>
</svg>