<svg width="31" height="23" viewBox="0 0 31 23" fill="none" xmlns="http://www.w3.org/2000/svg">
<path d="M29.1836 9.68359H27.3672V7.86719H23.6738V6.05078H20.041V2.41797H21.8574V0.601562H9.14258V2.41797H10.959V6.05078H7.32617V7.86719H3.63281V9.68359H1.81641V7.86719H0V20.582H1.81641V18.7656H3.63281V20.582H7.32617V22.3984H23.6738V20.582H27.3672V18.7656H29.1836V20.582H31V7.86719H29.1836V9.68359ZM12.7754 2.41797H18.2246V6.05078H12.7754V2.41797ZM1.81641 16.9492V11.5H3.63281V16.9492H1.81641ZM25.5508 18.7656H21.8574V20.582H9.14258V18.7656H5.44922V9.68359H9.14258V7.86719H21.8574V9.68359H25.5508V18.7656ZM27.3672 16.9492V11.5H29.1836V16.9492H27.3672Z" fill="#E22427"/>
<path d="M16.3122 10.998L14.6874 10.1857L12.2139 15.1328H15.8467L14.6874 17.4513L16.3122 18.2636L18.7857 13.3164H15.1529L16.3122 10.998Z" fill="#E22427"/>
</svg>
