<?xml version="1.0" encoding="utf-8"?>
<!-- Generator: Adobe Illustrator 24.1.2, SVG Export Plug-In . SVG Version: 6.00 Build 0)  -->
<svg version="1.1" id="Слой_1" xmlns="http://www.w3.org/2000/svg" xmlns:xlink="http://www.w3.org/1999/xlink" x="0px" y="0px"
	 viewBox="0 0 40 40" style="enable-background:new 0 0 40 40;" xml:space="preserve">
<style type="text/css">
	.st0{clip-path:url(#SVGID_2_);}
	.st1{fill:#FD2528;}
</style>
<g>
	<defs>
		<rect id="SVGID_1_" y="0" width="40" height="40"/>
	</defs>
	<clipPath id="SVGID_2_">
		<use xlink:href="#SVGID_1_"  style="overflow:visible;"/>
	</clipPath>
	<g class="st0">
		<path class="st1" d="M40,19.9L36.2,9.2c-0.1-0.4-0.5-0.6-0.9-0.5l-3.9,0.8l-6.9-2c-1-0.3-2.1-0.5-3.3,0.2L20,8.4l-1.2-0.7
			c-1.2-0.7-2.3-0.5-3.3-0.2l-6.9,2L5,8.6C4.6,8.5,4.2,8.7,4.1,9l-4,10.7c-0.1,0.4,0,0.8,0.3,1l3.4,1.9c-0.2,0.6-0.3,1.2-0.1,1.8
			c0.2,0.7,0.6,1.3,1.3,1.6c0.5,0.3,1,0.4,1.6,0.4c0,0.9,0.5,1.8,1.4,2.3c0.8,0.5,1.7,0.5,2.5,0.1c0.2,0.5,0.6,1,1.1,1.3
			c0.6,0.4,1.4,0.5,2.1,0.3c0.2-0.1,0.4-0.1,0.6-0.2c0.2,0.5,0.6,0.9,1.1,1.2c0.4,0.2,0.9,0.4,1.3,0.4c0.6,0,1.3-0.2,1.8-0.7
			l2.4,1.4c0.4,0.2,0.9,0.4,1.3,0.4c0.9,0,1.8-0.5,2.4-1.4c0.2-0.4,0.3-0.7,0.4-1.1c0.6,0.3,1.2,0.3,1.8,0.1
			c0.7-0.2,1.3-0.6,1.6-1.3c0.2-0.4,0.4-0.9,0.4-1.4c1,0.1,2.1-0.4,2.7-1.3c0.2-0.4,0.3-0.8,0.4-1.2c1.2,0.4,2.6-0.1,3.2-1.2
			c0.3-0.5,0.4-1,0.4-1.6l4.3-1.6C39.9,20.8,40.1,20.3,40,19.9z M5.7,24.7c-0.3-0.2-0.5-0.4-0.5-0.7c-0.1-0.3,0-0.6,0.1-0.9l1.1-1.9
			C6.5,21,6.7,20.8,7,20.7c0.3-0.1,0.6,0,0.9,0.1c0.5,0.3,0.7,1,0.4,1.6l-1.1,1.9c0,0,0,0,0,0C6.9,24.8,6.2,25,5.7,24.7z M10.2,26.9
			c-0.3,0.5-1,0.7-1.6,0.4c-0.5-0.3-0.7-1-0.4-1.6l0.4-0.7c0,0,0,0,0,0l1.1-1.9c0,0,0,0,0,0l0,0c0,0,0,0,0,0l1-1.7
			c0.2-0.3,0.4-0.5,0.7-0.5c0.3-0.1,0.6,0,0.9,0.1c0.3,0.2,0.5,0.4,0.5,0.7c0.1,0.3,0,0.6-0.1,0.9l-0.3,0.5c0,0,0,0,0,0c0,0,0,0,0,0
			l-1.9,3.3c0,0,0,0,0,0l0,0c0,0,0,0,0,0L10.2,26.9z M13.8,28.4c-0.2,0.3-0.4,0.5-0.7,0.5c-0.3,0.1-0.6,0-0.9-0.1
			c-0.5-0.3-0.7-1-0.4-1.6l0,0c0,0,0,0,0,0c0,0,0,0,0,0l1.9-3.3c0,0,0,0,0,0c0.3-0.5,1-0.7,1.6-0.4c0.3,0.2,0.5,0.4,0.5,0.7
			c0.1,0.3,0,0.6-0.1,0.9l-0.4,0.7c0,0,0,0,0,0l-1.1,1.9c0,0,0,0,0,0c0,0,0,0,0,0L13.8,28.4z M16,30c-0.3-0.2-0.5-0.4-0.5-0.7
			c-0.1-0.3,0-0.6,0.1-0.9l1.1-1.9c0.3-0.5,1-0.7,1.6-0.4c0.5,0.3,0.7,1,0.4,1.6l-1.1,1.9C17.2,30.1,16.5,30.3,16,30z M23,30.7
			c-0.3,0.5-1,0.7-1.6,0.4l-2.2-1.3l0.7-1.3c0.1-0.2,0.2-0.5,0.3-0.7l2.4,1.4c0,0,0,0,0,0c0,0,0,0,0,0l0,0
			C23.2,29.4,23.4,30.1,23,30.7z M34.6,21.1c-0.2-0.3-0.5-0.5-0.8-0.7c-0.3-0.2-1.3-0.8-3.2-1.9c-0.4-0.2-0.8-0.1-1.1,0.3
			c-0.2,0.4-0.1,0.8,0.3,1.1c1.9,1.1,2.9,1.8,3.2,1.9c0.5,0.3,0.7,1,0.4,1.6c-0.3,0.5-1,0.7-1.6,0.4l-1.7-1c0,0,0,0,0,0l0,0L24,19.2
			c-0.4-0.2-0.9-0.1-1.1,0.3c-0.2,0.4-0.1,0.9,0.3,1.1l6.2,3.6c0,0,0,0,0,0c0,0,0,0,0,0l0,0c0.5,0.3,0.7,1,0.4,1.6
			c-0.3,0.5-1,0.7-1.6,0.4l-1.1-0.6c0,0,0,0,0,0l0,0l-5.5-3.2c-0.4-0.2-0.9-0.1-1.1,0.3c-0.2,0.4-0.1,0.9,0.3,1.1l5.5,3.2
			c0,0,0,0,0,0c0.5,0.3,0.7,1,0.4,1.6c-0.2,0.3-0.4,0.5-0.7,0.5c-0.3,0.1-0.6,0-0.9-0.1l-1.9-1.1c0,0,0,0,0,0l0,0l-3.4-2
			c-0.2-0.4-0.6-0.7-1-1c-0.5-0.3-1.1-0.4-1.6-0.4c0-0.2,0-0.4-0.1-0.6c-0.2-0.7-0.6-1.3-1.3-1.6c-0.5-0.3-1.1-0.4-1.7-0.3
			c0-0.1,0-0.3-0.1-0.4c-0.2-0.7-0.6-1.3-1.3-1.6c-1.1-0.7-2.6-0.4-3.4,0.6c-0.2-0.3-0.5-0.6-0.9-0.8c-0.6-0.4-1.4-0.5-2.1-0.3
			c-0.7,0.2-1.3,0.6-1.6,1.3l-0.5,0.8l-2.8-1.6l3.6-9.4l3.1,0.8c0.1,0,0.3,0,0.4,0L15.9,9C16.7,8.7,17.3,8.7,18,9l0.4,0.3l-2.7,1.6
			c-1.3,0.8-1.8,2.4-1,3.7c0.7,1.3,2.3,1.7,3.7,1c0.7-0.4,1.8-0.8,2.6-1.2c0.6,0.4,1.9,1.2,2.9,1.7c0.4,0.2,0.8,0.1,1.1-0.3
			c0.2-0.4,0.1-0.8-0.3-1.1c-0.9-0.6-1.7-1-2.3-1.4c-0.3-0.2-0.5-0.3-0.7-0.4c-0.3-0.2-0.4-0.3-0.6-0.3c-0.1,0-0.2,0-0.3,0
			c-0.9,0.3-2.3,0.9-3.1,1.4c-0.6,0.3-1.3,0.1-1.6-0.4c-0.3-0.6-0.1-1.3,0.4-1.6L22,9c0.7-0.4,1.3-0.3,2.1-0.1l7.1,2.1
			c0.1,0,0.3,0,0.4,0l3.4-0.7l3.3,9.3L34.6,21.1z"/>
		<path class="st1" d="M27.3,16.6L27.3,16.6c-0.4,0-0.8,0.3-0.8,0.8c0,0.4,0.4,0.8,0.8,0.8c0.4,0,0.8-0.3,0.8-0.8
			C28,16.9,27.7,16.6,27.3,16.6z"/>
	</g>
</g>
</svg>
