<svg width="40" height="40" viewBox="0 0 40 40" fill="none" xmlns="http://www.w3.org/2000/svg">
<g clip-path="url(#clip0)">
<path d="M39.2188 35.3125H37.1875V26.7319C37.1875 26.3004 36.8378 25.9506 36.4062 25.9506C35.9747 25.9506 35.625 26.3004 35.625 26.7319V35.3125H31.5625V11.1197H35.625V19.7003C35.625 20.1318 35.9747 20.4816 36.4062 20.4816C36.8378 20.4816 37.1875 20.1318 37.1875 19.7003V10.3384C37.1875 9.90692 36.8378 9.55719 36.4062 9.55719H30.7812C30.3497 9.55719 30 9.90692 30 10.3384V35.3125H28.125V16.2241C28.125 15.7925 27.7753 15.4428 27.3438 15.4428H21.7188C21.2872 15.4428 20.9375 15.7925 20.9375 16.2241V35.3125H19.0366V25.5469C19.0366 25.1154 18.6868 24.7656 18.2553 24.7656H12.6303C12.1988 24.7656 11.8491 25.1154 11.8491 25.5469V35.3125H10V30.4688C10 30.0372 9.65027 29.6875 9.21875 29.6875H3.59375C3.16223 29.6875 2.8125 30.0372 2.8125 30.4688V35.3125H0.78125C0.349731 35.3125 0 35.6622 0 36.0938V39.2188C0 39.6503 0.349731 40 0.78125 40H39.2188C39.6503 40 40 39.6503 40 39.2188V36.0938C40 35.6622 39.6503 35.3125 39.2188 35.3125ZM22.5 17.0053H26.5625V35.3125H22.5V17.0053ZM13.4116 26.3281H17.4741V35.3125H13.4116V26.3281ZM4.375 31.25H8.4375V35.3125H4.375V31.25ZM38.4375 38.4375H1.5625V36.875H38.4375V38.4375Z" fill="#FD2528"/>
<path d="M3.59375 14.075H6.95862C10.0717 14.075 13.1894 13.725 16.225 13.0347C23.5406 11.3712 30.238 7.78839 35.6738 2.64526V3.08899C35.6738 3.52051 36.0236 3.87024 36.4551 3.87024C36.8866 3.87024 37.2363 3.52051 37.2363 3.08899V0.78125C37.2363 0.349731 36.8866 0 36.4551 0H34.1473C33.7158 0 33.3661 0.349731 33.3661 0.78125C33.3661 1.21277 33.7158 1.5625 34.1473 1.5625H34.5453C29.3222 6.48529 22.8958 9.91547 15.8786 11.5112C12.9565 12.1756 9.95544 12.5125 6.95862 12.5125H3.59375C3.16223 12.5125 2.8125 12.8622 2.8125 13.2938C2.8125 13.7253 3.16223 14.075 3.59375 14.075Z" fill="#FD2528"/>
<path d="M36.4062 22.4353C36.2009 22.4353 35.9991 22.518 35.8539 22.6642C35.7086 22.8094 35.625 23.0103 35.625 23.2166C35.625 23.4219 35.7086 23.6234 35.8539 23.7686C35.9991 23.9142 36.2009 23.9978 36.4062 23.9978C36.6116 23.9978 36.8134 23.9142 36.9586 23.7686C37.1039 23.6234 37.1875 23.4219 37.1875 23.2166C37.1875 23.0103 37.1039 22.8094 36.9586 22.6642C36.8134 22.518 36.6116 22.4353 36.4062 22.4353Z" fill="#FD2528"/>
</g>
<defs>
<clipPath id="clip0">
<rect width="40" height="40" fill="white"/>
</clipPath>
</defs>
</svg>
