<svg width="37" height="37" viewBox="0 0 37 37" fill="none" xmlns="http://www.w3.org/2000/svg">
<path d="M34.1146 2.5321H2.88542C1.29446 2.5321 0 3.82657 0 5.41752V27.2578C0 28.8488 1.29446 30.1432 2.88542 30.1432H17.41V32.2877H13.5924V34.4678H23.4075V32.2877H19.59V30.1432H34.1146C35.7055 30.1432 37 28.8488 37 27.2578V5.41752C37 3.82644 35.7055 2.5321 34.1146 2.5321ZM2.88542 4.7122H34.1146C34.5035 4.7122 34.8199 5.02857 34.8199 5.41752V22.7977H2.18009V5.41752C2.18009 5.02844 2.49646 4.7122 2.88542 4.7122ZM34.1146 27.963H2.88542C2.49646 27.963 2.18009 27.6466 2.18009 27.2577V24.9778H34.8199V27.2577C34.8199 27.6466 34.5035 27.963 34.1146 27.963Z" fill="#FD2528"/>
</svg>
