<svg width="41" height="41" viewBox="0 0 41 41" fill="none" xmlns="http://www.w3.org/2000/svg">
<g clip-path="url(#clip0)">
<path d="M14.75 14.4119C14.5157 14.1776 14.1354 14.1776 13.9007 14.4119C13.6661 14.6465 13.6661 15.0269 13.9007 15.2612L16.7329 18.0933C17.123 18.4834 17.123 19.1187 16.7329 19.5087L13.643 22.5989L10.1602 19.1159C10.0473 19.0029 9.89591 18.9407 9.73575 18.9407C9.57559 18.9407 9.42419 19.0029 9.31127 19.1159C9.07667 19.3505 9.07667 19.7318 9.31127 19.9654L12.794 23.4479L9.33473 26.9075C9.2484 26.9942 9.1336 27.0417 9.01129 27.0417C8.88899 27.0414 8.77419 26.9939 8.68785 26.9075L4.57822 22.7979C4.49188 22.7116 4.44434 22.5968 4.44434 22.4744C4.44434 22.3525 4.49188 22.2377 4.57822 22.1513L16.9218 9.80803C17.1558 9.57374 17.5368 9.57374 17.7711 9.80803L21.678 13.715C21.9126 13.9496 22.293 13.9496 22.5273 13.715C22.7619 13.4804 22.7619 13.1003 22.5273 12.8657L18.6204 8.95845C17.9178 8.2562 16.7748 8.2562 16.0722 8.95845L3.72864 21.3021C3.41583 21.6152 3.24348 22.0312 3.24316 22.4741C3.24285 22.9174 3.41552 23.334 3.72895 23.6475L7.83859 27.7568C8.15139 28.0699 8.56773 28.2426 9.01067 28.2429H9.01129C9.45422 28.2429 9.87088 28.0702 10.184 27.7571L17.5822 20.3583C18.4408 19.4997 18.4408 18.1027 17.5822 17.2437L14.75 14.4119Z" fill="#FD2528"/>
<path d="M40.9981 21.2626C40.9487 18.616 39.877 16.1251 37.9805 14.2492C37.9154 14.1848 37.8494 14.1216 37.7828 14.059C38.3183 12.9592 38.6192 11.7246 38.6192 10.4211C38.6192 5.82287 34.8784 2.08203 30.2802 2.08203C27.9363 2.08203 25.7461 3.07706 24.1977 4.72305C23.7457 4.55351 23.2686 4.46436 22.7832 4.4631C21.7312 4.46092 19.7192 4.46592 17.8803 4.46717C16.6519 4.46842 15.497 4.94733 14.6283 5.81599L1.43578 19.0085C0.509872 19.9345 0 21.1653 0 22.4744C0 23.7838 0.509872 25.0147 1.43578 25.9406L5.54541 30.0503C6.47131 30.9762 7.7022 31.486 9.01129 31.486C10.3207 31.486 11.5516 30.9762 12.4772 30.0503L19.3198 23.208C19.5879 23.8936 19.9961 24.5233 20.5322 25.0595L21.7662 26.2935L19.007 29.0524C18.7802 29.2795 18.6551 29.5811 18.6551 29.902V30.654H17.9028C17.5822 30.654 17.2806 30.7791 17.0535 31.0059L16.5762 31.4832C16.3494 31.71 16.2243 32.0119 16.2243 32.3328V33.0848H15.472C15.151 33.0848 14.8495 33.2099 14.6227 33.4367L14.0181 34.0417C13.602 34.4574 13.3727 35.0104 13.3727 35.5988V37.1315C13.3727 38.1244 14.1813 38.9333 15.1745 38.9333H16.7076C17.2959 38.9333 17.8487 38.7043 18.2647 38.2883L26.0129 30.5401L27.2413 31.7685C28.2623 32.7895 29.6195 33.3519 31.0634 33.3519C32.507 33.3519 33.8646 32.7895 34.8856 31.7685L37.8228 28.8309C39.8942 26.8722 41.0516 24.1138 40.9981 21.2626ZM30.2805 3.2832C34.2162 3.2832 37.4184 6.48508 37.4184 10.4211C37.4184 11.4312 37.2069 12.3924 36.8269 13.2642C33.8815 11.1015 30.1363 10.7827 27.0204 12.0493L27.021 11.5084C27.0229 10.3748 27.0242 9.3754 27.0229 8.70255C27.0204 7.60555 26.5694 6.55108 25.7526 5.73278C25.6047 5.58514 25.4489 5.45001 25.2869 5.32676C26.5963 4.04801 28.3789 3.2832 30.2805 3.2832ZM18.9838 21.8448L11.6279 29.201C10.9291 29.8998 9.99976 30.2849 9.01129 30.2849C8.02283 30.2849 7.0938 29.8998 6.39468 29.201L2.28504 25.0914C0.842072 23.6484 0.842072 21.3008 2.28504 19.8581L15.4776 6.66525C16.1198 6.02306 16.9734 5.66928 17.8815 5.66834C19.708 5.66709 21.7731 5.66209 22.7807 5.66428C22.9849 5.6649 23.1876 5.68836 23.3863 5.73247C23.1344 6.10127 22.9102 6.49227 22.7184 6.90361C21.7543 6.93739 20.9805 7.73161 20.9805 8.70381C20.9805 9.69727 21.7888 10.5056 22.7822 10.5056C23.7757 10.5056 24.584 9.69727 24.584 8.70381C24.584 8.12042 24.3053 7.60148 23.8739 7.27178C24.0538 6.90736 24.2627 6.56172 24.498 6.23796C24.6397 6.34025 24.7754 6.45442 24.903 6.58205C25.4936 7.17356 25.8199 7.92774 25.8218 8.70537C25.8233 9.37727 25.8218 10.3748 25.8199 11.5065L25.8183 12.6339C25.0401 13.0796 24.3159 13.6317 23.6646 14.2843L20.5332 17.4142C19.3845 18.5625 18.7968 20.1612 18.9838 21.8448ZM23.3828 8.70381C23.3828 9.03507 23.1135 9.30439 22.7822 9.30439C22.451 9.30439 22.1816 9.03507 22.1816 8.70381C22.1816 8.45294 22.3362 8.23773 22.5551 8.14795C22.6202 8.22427 22.7047 8.28558 22.8054 8.3225C22.9518 8.3763 23.1047 8.36879 23.2383 8.31436C23.3281 8.41915 23.3828 8.55522 23.3828 8.70381ZM17.4154 37.439C17.2265 37.628 16.975 37.7321 16.7076 37.7321H15.4635L23.06 30.1353C23.2937 29.9004 23.2946 29.5219 23.06 29.2858C22.8254 29.0515 22.4463 29.0502 22.2104 29.2858L14.5742 36.922V35.5988C14.5742 35.3314 14.6784 35.0799 14.8673 34.8909L15.4723 34.286H16.8249C17.1567 34.286 17.4254 34.0173 17.4254 33.6854L17.4258 32.3328L17.9031 31.8551H19.256C19.5875 31.8551 19.8566 31.5864 19.8566 31.2546L19.8562 29.902L22.6158 27.1427C24.1714 28.6986 23.5861 28.1131 25.1636 29.6908L17.4154 37.439ZM36.992 27.9639C36.988 27.9676 36.9839 27.9717 36.9798 27.9757L34.0363 30.9192C33.2421 31.7131 32.1864 32.1507 31.0634 32.1507C29.9405 32.1507 28.8847 31.7131 28.0908 30.9192L21.3818 24.2102C20.5876 23.416 20.1503 22.3599 20.1503 21.237C20.1506 20.1137 20.5882 19.058 21.3824 18.2641L24.5145 15.1335C27.6551 11.9864 32.6472 11.6001 36.2422 14.3412C35.5954 15.3221 34.7132 16.1348 33.6766 16.6979C32.8577 16.2064 31.9058 15.9193 30.8945 15.9108H30.8501C30.6308 15.9108 30.4103 15.9237 30.1941 15.949C29.3762 16.045 28.7002 16.5877 28.4299 17.3657C28.1597 18.144 28.3536 18.9888 28.936 19.5713C29.4347 20.0699 30.1238 20.3552 30.8316 20.3552H30.8438H30.8642C31.4325 20.3614 31.9402 20.8644 31.9509 21.4309C31.9512 21.4522 31.9512 21.4728 31.9505 21.4922C31.9315 22.1682 32.2042 22.8398 32.6994 23.335L32.736 23.3712C33.1448 23.7801 33.6841 23.9978 34.2397 23.9978C34.4749 23.9978 34.7129 23.9587 34.9453 23.8786C35.7158 23.613 36.2557 22.9483 36.3539 22.1435C36.3858 21.8823 36.3996 21.6145 36.3946 21.3483C36.3664 19.8428 35.7198 18.4752 34.7026 17.4877C35.6714 16.8793 36.5066 16.0776 37.1541 15.137C38.7456 16.7238 39.7528 18.8975 39.7973 21.2848C39.8442 23.8017 38.8219 26.2362 36.992 27.9639ZM30.8729 19.154H30.8476C30.8457 19.154 30.837 19.154 30.8354 19.154C30.8332 19.154 30.831 19.154 30.8288 19.154C30.4519 19.154 30.084 19.0051 29.8113 18.7455C29.9677 18.7542 30.1241 18.7602 30.2805 18.7602C31.4485 18.7602 32.5608 18.5184 33.5709 18.0826C34.5374 18.8659 35.169 20.0508 35.1934 21.3709C35.1975 21.5814 35.1868 21.7922 35.1618 21.9977C35.1189 22.3481 34.8915 22.6268 34.554 22.7431C34.2059 22.8632 33.8436 22.7804 33.5853 22.522L33.549 22.4854C33.2865 22.2229 33.1414 21.8735 33.1514 21.5254C33.1523 21.4872 33.1527 21.4484 33.152 21.409C33.1295 20.2003 32.0879 19.1678 30.8729 19.154ZM29.679 17.5334C29.8272 17.316 30.0587 17.1746 30.334 17.142C30.5038 17.122 30.6777 17.112 30.8479 17.112L30.8873 17.1123C31.3234 17.1158 31.7453 17.1855 32.1435 17.3119C31.5492 17.4727 30.9249 17.559 30.2805 17.559C30.0797 17.559 29.8788 17.5499 29.679 17.5334Z" fill="#FD2528"/>
</g>
<defs>
<clipPath id="clip0">
<rect width="41" height="41" fill="white"/>
</clipPath>
</defs>
</svg>
