<svg width="21" height="21" viewBox="0 0 21 21" fill="none" xmlns="http://www.w3.org/2000/svg">
<g opacity="0.6">
<path d="M10.5 0C6.42285 0 3.10596 3.36902 3.10596 7.50992V13.4903C3.10596 17.6312 6.42285 21 10.5 21C14.5769 21 17.8941 17.6414 17.8941 13.5133V7.50992C17.8941 3.36902 14.5769 0 10.5 0ZM16.5033 13.5133C16.5033 16.8746 13.8104 19.6093 10.5 19.6093C7.18984 19.6093 4.49671 16.8642 4.49671 13.4901V7.50992C4.49671 4.13577 7.18984 1.39072 10.5 1.39072C13.8104 1.39072 16.5033 4.13577 16.5033 7.50992V13.5133Z" fill="white"/>
<path d="M10.5001 5.74805C10.116 5.74805 9.80469 6.05936 9.80469 6.44343V8.87721C9.80469 9.26128 10.116 9.57259 10.5001 9.57259C10.8841 9.57259 11.1954 9.26128 11.1954 8.87721V6.44343C11.1954 6.05936 10.8841 5.74805 10.5001 5.74805Z" fill="white"/>
</g>
</svg>
