<svg width="36" height="37" viewBox="0 0 36 37" fill="none" xmlns="http://www.w3.org/2000/svg">
<path d="M32.4845 10.1244H31.7264L21.8082 0.206148C21.5336 -0.0684309 21.0883 -0.0684309 20.8138 0.206148L18.2729 2.74711L8.11073 0.0241736C7.7356 -0.0764467 7.35 0.14624 7.24952 0.521369L4.67656 10.1244H2.95315C1.3248 10.1244 0 11.4491 0 13.0775C0 13.1166 0.00147661 13.1553 0.00295322 13.194C0.00133598 13.2133 0 13.2327 0 13.2525V32.4855C0 34.424 1.57716 36.0011 3.51566 36.0011H28.6876C28.6985 36.0011 28.7091 36.0004 28.72 36.0003H32.4844C34.4229 36.0003 36 34.4232 36 32.4846V13.64C36.0001 11.7014 34.423 10.1244 32.4845 10.1244ZM31.8563 11.5306H32.4845C33.6476 11.5306 34.5938 12.4769 34.5938 13.64V19.2752C34.5938 20.1942 33.8462 20.9418 32.9273 20.9418H32.2032V18.14C32.2032 16.226 30.6655 14.6654 28.7607 14.6262L31.8563 11.5306ZM18.9803 4.02853C18.9803 4.02846 18.9804 4.02832 18.9805 4.02825L21.3111 1.69766L30.5058 10.8924L26.7967 14.6015H25.5104L27.1929 12.919C27.4675 12.6444 27.4675 12.1992 27.1929 11.9246C26.6237 11.3554 26.6237 10.4293 27.1929 9.86015C27.4675 9.58557 27.4675 9.14034 27.1929 8.86569L23.3377 5.01061C23.0631 4.73603 22.6178 4.73603 22.3432 5.01061C21.774 5.57988 20.8479 5.57988 20.2788 5.01061C20.0042 4.73603 19.5589 4.73603 19.2844 5.01061L9.69344 14.6016H8.40711L18.9803 4.02853ZM16.911 11.9599C15.3058 11.9599 13.961 13.0933 13.633 14.6016H11.6821L19.8432 6.44046C20.744 6.97739 21.8779 6.97739 22.7787 6.44046L25.763 9.42469C25.2261 10.3254 25.2261 11.4595 25.763 12.3602L23.5215 14.6016H20.189C19.861 13.0932 18.5162 11.9599 16.911 11.9599ZM18.7241 14.6016H15.0981C15.3834 13.879 16.0884 13.3662 16.9111 13.3662C17.7339 13.3662 18.4387 13.879 18.7241 14.6016ZM7.66395 13.356L9.52602 6.40657C10.0366 6.4148 10.5445 6.28443 10.9993 6.02167C11.4543 5.75904 11.8203 5.3856 12.0693 4.93819L15.2338 5.78611L10.6415 10.3784L7.66395 13.356ZM8.42595 1.56449L17.1247 3.89528L16.3821 4.63794L11.8376 3.42023C11.6574 3.37193 11.4655 3.39724 11.3041 3.49048C11.1426 3.58372 11.0247 3.73728 10.9765 3.91743C10.8755 4.29404 10.634 4.60883 10.2963 4.80382C9.9586 4.9988 9.56519 5.05055 9.18851 4.94965C8.81353 4.8491 8.42785 5.07172 8.32737 5.44685L5.86818 14.6244H4.92653L8.42595 1.56449ZM2.95315 11.5306H4.2996L3.47059 14.6244H2.95308C2.10009 14.6244 1.40622 13.9305 1.40622 13.0775C1.40629 12.2246 2.1003 11.5306 2.95315 11.5306ZM34.5938 32.4846C34.5938 33.6478 33.6476 34.594 32.4845 34.594H31.4988C31.9409 34.0062 32.2032 33.2759 32.2032 32.4855V29.6605H32.6251C33.3595 29.6605 34.0392 29.424 34.5938 29.0242V32.4846ZM34.5938 26.2855C34.5938 27.3711 33.7106 28.2543 32.6251 28.2543H17.8594C16.2311 28.2543 14.9063 26.9295 14.9063 25.3011C14.9063 23.6727 16.231 22.348 17.8594 22.348H19.9904C20.3787 22.348 20.6935 22.0331 20.6935 21.6448C20.6935 21.2565 20.3787 20.9417 19.9904 20.9417H17.8594C15.4557 20.9417 13.5001 22.8973 13.5001 25.3011C13.5001 27.7048 15.4557 29.6604 17.8594 29.6604H30.797V32.4854C30.797 33.6376 29.8682 34.5773 28.7201 34.5948H4.78126V26.6767C4.78126 26.2884 4.46646 25.9735 4.07811 25.9735C3.68976 25.9735 3.37496 26.2884 3.37496 26.6767V34.5896C2.27721 34.517 1.40622 33.6013 1.40622 32.4855V15.5917C1.85645 15.8697 2.38627 16.0306 2.95308 16.0306H28.6875C29.8506 16.0306 30.7969 16.9769 30.7969 18.14V20.9418H25.7129C25.3245 20.9418 25.0097 21.2566 25.0097 21.6449C25.0097 22.0332 25.3245 22.348 25.7129 22.348H32.9273C33.5414 22.348 34.1135 22.1663 34.5938 21.8548V26.2855Z" fill="#FD2528"/>
</svg>
