<svg width="41" height="41" viewBox="0 0 41 41" fill="none" xmlns="http://www.w3.org/2000/svg">
<path d="M20.1787 41H16.9756C15.386 41 14.0928 39.7068 14.0928 38.1172V18.2578C14.0928 16.6682 15.386 15.375 16.9756 15.375H20.1787C21.7683 15.375 23.0615 16.6682 23.0615 18.2578V38.1172C23.0615 39.7068 21.7683 41 20.1787 41ZM16.9756 17.9375C16.7989 17.9375 16.6553 18.0812 16.6553 18.2578V38.1172C16.6553 38.2938 16.7989 38.4375 16.9756 38.4375H20.1787C20.3554 38.4375 20.499 38.2938 20.499 38.1172V18.2578C20.499 18.0812 20.3554 17.9375 20.1787 17.9375H16.9756Z" fill="#FD2528"/>
<path d="M8.00684 41H4.80371C3.21408 41 1.9209 39.7068 1.9209 38.1172V24.6641C1.9209 23.0744 3.21408 21.7812 4.80371 21.7812H8.00684C9.59647 21.7812 10.8897 23.0744 10.8897 24.6641V38.1172C10.8897 39.7068 9.59639 41 8.00684 41ZM4.80371 24.3438C4.62706 24.3438 4.4834 24.4874 4.4834 24.6641V38.1172C4.4834 38.2938 4.62706 38.4375 4.80371 38.4375H8.00684C8.18349 38.4375 8.32715 38.2938 8.32715 38.1172V24.6641C8.32715 24.4874 8.18349 24.3438 8.00684 24.3438H4.80371Z" fill="#FD2528"/>
<path d="M32.3506 41H29.1475C27.5579 41 26.2647 39.7068 26.2647 38.1172V11.5312H24.5046C23.6817 11.5312 22.9568 11.0668 22.6129 10.3192C22.2691 9.57158 22.3882 8.71907 22.9237 8.09422C22.9298 8.08709 22.9361 8.07996 22.9423 8.073L29.7948 0.426176C30.0379 0.154951 30.3849 0 30.7491 0C31.1132 0 31.4601 0.154951 31.7033 0.426176L38.5558 8.073C38.5621 8.07996 38.5683 8.08709 38.5744 8.09422C39.1099 8.71899 39.229 9.57158 38.8852 10.3192C38.5413 11.0668 37.8164 11.5312 36.9935 11.5312H35.2334V38.1172C35.2334 39.7068 33.9402 41 32.3506 41ZM25.5805 8.96875H27.5459C28.2535 8.96875 28.8272 9.54243 28.8272 10.25V38.1172C28.8272 38.2938 28.9708 38.4375 29.1475 38.4375H32.3506C32.5273 38.4375 32.6709 38.2938 32.6709 38.1172V10.25C32.6709 9.54243 33.2446 8.96875 33.9522 8.96875H35.9176L30.7491 3.20112L25.5805 8.96875Z" fill="#FD2528"/>
</svg>
