<svg width="19" height="19" viewBox="0 0 19 19" fill="none" xmlns="http://www.w3.org/2000/svg">
<path d="M15.4062 3.3125H3.59375C3.07178 3.31306 2.57134 3.52066 2.20225 3.88975C1.83316 4.25884 1.62556 4.75928 1.625 5.28125V13.7188C1.62556 14.2407 1.83316 14.7412 2.20225 15.1103C2.57134 15.4793 3.07178 15.6869 3.59375 15.6875H15.4062C15.9282 15.6869 16.4287 15.4793 16.7978 15.1103C17.1668 14.7412 17.3744 14.2407 17.375 13.7188V5.28125C17.3744 4.75928 17.1668 4.25884 16.7978 3.88975C16.4287 3.52066 15.9282 3.31306 15.4062 3.3125ZM14.9077 6.56902L9.84523 10.5065C9.74652 10.5833 9.62504 10.6249 9.5 10.6249C9.37496 10.6249 9.25348 10.5833 9.15477 10.5065L4.09227 6.56902C4.03279 6.52411 3.98283 6.46782 3.94529 6.40342C3.90775 6.33903 3.88339 6.26782 3.87361 6.19393C3.86383 6.12004 3.86884 6.04494 3.88834 5.973C3.90783 5.90106 3.94143 5.83371 3.98718 5.77487C4.03293 5.71603 4.08992 5.66687 4.15484 5.63024C4.21975 5.59362 4.2913 5.57025 4.36532 5.56152C4.43934 5.55278 4.51436 5.55884 4.58602 5.57935C4.65767 5.59986 4.72454 5.6344 4.78273 5.68098L9.5 9.34988L14.2173 5.68098C14.3352 5.5919 14.4835 5.55283 14.63 5.57222C14.7766 5.59161 14.9096 5.6679 15.0003 5.78459C15.091 5.90128 15.1322 6.049 15.1149 6.19579C15.0975 6.34259 15.0231 6.47666 14.9077 6.56902Z" fill="white"/>
</svg>
