<svg width="20" height="18" viewBox="0 0 20 18" fill="none" xmlns="http://www.w3.org/2000/svg">
<g clip-path="url(#clip0_57_799)">
<path fill-rule="evenodd" clip-rule="evenodd" d="M9.49218 1.31074L15.1412 1.30774L15.4868 1.39488C15.6761 1.44296 15.9405 1.52108 16.0727 1.57216C16.2049 1.62324 16.4273 1.73442 16.5685 1.81856C16.7097 1.90269 16.905 2.0319 17.0042 2.10702C17.1034 2.17913 17.2867 2.33238 17.4098 2.44356C17.533 2.55774 17.7464 2.7831 17.8846 2.94836C18.0228 3.11062 18.2302 3.38707 18.3443 3.56135C18.4615 3.73562 18.6538 4.07216 18.774 4.31255C18.8972 4.55293 19.0565 4.9045 19.1316 5.0938C19.2067 5.2831 19.3149 5.60161 19.375 5.79993C19.4321 5.99825 19.5162 6.30774 19.5553 6.49103C19.5973 6.67433 19.6514 6.94476 19.6755 7.092C19.7025 7.23923 19.7506 7.62084 19.7836 7.93334C19.8167 8.25486 19.8437 8.71459 19.8437 8.98503C19.8437 9.24945 19.8167 9.73022 19.7836 10.0517C19.7506 10.3732 19.6965 10.7939 19.6635 10.9832C19.6274 11.1725 19.5673 11.464 19.5282 11.6293C19.4892 11.7945 19.411 12.086 19.351 12.2753C19.2939 12.4646 19.1857 12.7771 19.1076 12.9664C19.0324 13.1557 18.8702 13.5013 18.753 13.7326C18.6328 13.964 18.4435 14.2885 18.3353 14.4538C18.2241 14.619 18.0228 14.8895 17.8846 15.0517C17.7464 15.217 17.533 15.4424 17.4098 15.5565C17.2867 15.6677 17.1034 15.821 17.0042 15.8931C16.905 15.9682 16.7097 16.0974 16.5685 16.1815C16.4273 16.2657 16.2049 16.3769 16.0727 16.4279C15.9405 16.479 15.6761 16.5571 15.1412 16.6924H9.52223L9.17667 16.6052C8.98737 16.5601 8.71694 16.473 8.57571 16.4159C8.43449 16.3618 8.21213 16.2507 8.07992 16.1725C7.94771 16.0944 7.7584 15.9682 7.65925 15.8931C7.56009 15.821 7.37679 15.6677 7.2536 15.5565C7.1304 15.4424 6.91706 15.217 6.77884 15.0517C6.64062 14.8895 6.4423 14.6251 6.33713 14.4688C6.23196 14.3126 6.07571 14.0481 5.98557 13.8829C5.89843 13.7176 5.7542 13.4261 5.67006 13.2368C5.58593 13.0475 5.46273 12.729 5.39362 12.5307C5.32751 12.3324 5.23136 12.0079 5.18028 11.8095C5.1292 11.6112 5.05408 11.2717 5.01501 11.0583C4.97595 10.845 4.91586 10.4033 4.8828 10.0818C4.84675 9.74825 4.8197 9.28851 4.8197 9.01507C4.8197 8.75065 4.84675 8.26988 4.8798 7.94837C4.91285 7.62685 4.96694 7.20618 4.99999 7.01688C5.03605 6.82757 5.09013 6.55714 5.12319 6.41591C5.15624 6.27469 5.23136 5.99825 5.28845 5.79993C5.34855 5.60161 5.45672 5.2831 5.53184 5.0938C5.60696 4.9045 5.7542 4.57697 5.85937 4.36663C5.96453 4.15329 6.12078 3.87084 6.20492 3.73562C6.29206 3.5974 6.45732 3.35702 6.57451 3.20077C6.6917 3.04452 6.93509 2.76808 7.11838 2.58478C7.29867 2.40449 7.53304 2.19416 7.63521 2.11904C7.74038 2.04392 7.9417 1.91171 8.08593 1.82457C8.23316 1.73743 8.45852 1.62625 8.59074 1.57517C8.72295 1.52108 8.97836 1.44296 9.16165 1.39488L9.49218 1.31074ZM9.04146 2.02589C8.92727 2.06495 8.74999 2.13106 8.65083 2.17613C8.55167 2.2212 8.36838 2.32336 8.24518 2.40149C8.12199 2.48262 7.90564 2.64488 7.76742 2.76207C7.6292 2.87925 7.43389 3.06856 7.33172 3.17974C7.22956 3.29091 7.15444 3.38707 7.16345 3.39308C7.17247 3.39909 7.39482 3.52529 7.65925 3.67252C7.92367 3.81976 8.16706 3.95798 8.20011 3.97601C8.2542 4.00606 8.27523 3.98502 8.42547 3.74764C8.51562 3.60341 8.68989 3.35101 8.8161 3.18574C8.93929 3.02048 9.17667 2.75005 9.34194 2.58478C9.51021 2.41952 9.7536 2.20317 9.88881 2.10401C10.024 2.00485 10.1292 1.91471 10.1202 1.89969C10.1142 1.88767 10.024 1.87865 9.91886 1.88166C9.8167 1.88466 9.62439 1.90269 9.49218 1.92072C9.35997 1.94175 9.15564 1.98983 9.04146 2.02589ZM11.265 2.02889C11.1508 2.06495 10.9465 2.14909 10.8143 2.21519C10.6821 2.2813 10.5048 2.38046 10.4237 2.43454C10.3395 2.48562 10.1592 2.62685 10.018 2.74404C9.87679 2.86123 9.68148 3.05053 9.58232 3.16171C9.48316 3.27288 9.31189 3.48623 9.19771 3.63647C9.08653 3.7837 8.99639 3.92493 8.99639 3.94296C8.99639 3.967 9.02042 3.97601 9.04747 3.967C9.07752 3.95798 9.55828 3.84981 10.1142 3.72661C10.6731 3.60341 11.1358 3.50125 11.1448 3.50125C11.1538 3.50125 11.256 3.36904 11.3762 3.20678C11.4964 3.04752 11.7428 2.76507 11.9261 2.58478C12.1094 2.40149 12.3618 2.17913 12.488 2.08899C12.6172 1.99885 12.7133 1.91471 12.7073 1.89969C12.6983 1.88767 12.527 1.87865 12.3227 1.88166C12.1214 1.88466 11.8479 1.90269 11.7157 1.92072C11.5835 1.94175 11.3792 1.98983 11.265 2.02889ZM13.8491 2.02889C13.732 2.06796 13.5517 2.13707 13.4435 2.18514C13.3353 2.23623 13.155 2.33538 13.0379 2.4105C12.9207 2.48562 12.7223 2.63586 12.5901 2.74704C12.4609 2.85522 12.2476 3.06555 12.1154 3.21579C11.9832 3.36303 11.7728 3.64248 11.6436 3.83178C11.5174 4.02108 11.3221 4.35161 11.2139 4.56796C11.1058 4.7813 10.9585 5.0968 10.8924 5.26507C10.8233 5.43635 10.7151 5.75486 10.649 5.9712C10.5829 6.19055 10.4898 6.56615 10.4387 6.80654C10.3906 7.04692 10.3275 7.41051 10.2975 7.61784C10.2554 7.91531 10.2464 8.20077 10.2434 9.00005C10.2434 9.79933 10.2554 10.0848 10.2975 10.3823C10.3275 10.5896 10.3846 10.9261 10.4267 11.1335C10.4687 11.3408 10.5559 11.6984 10.622 11.9297C10.6881 12.1611 10.8023 12.5067 10.8774 12.696C10.9525 12.8853 11.1028 13.2158 11.2139 13.4321C11.3221 13.6455 11.5114 13.97 11.6346 14.1533C11.7578 14.3336 11.9531 14.598 12.0733 14.7362C12.1905 14.8745 12.3798 15.0728 12.497 15.1719C12.6142 15.2741 12.7945 15.4183 12.9026 15.4964C13.0108 15.5716 13.1851 15.6827 13.2933 15.7398C13.4014 15.7999 13.6298 15.8961 13.8041 15.9532C13.9844 16.0133 14.2488 16.0734 14.4201 16.0944C14.6574 16.1245 14.7867 16.1214 15.036 16.0944C15.2103 16.0734 15.4597 16.0223 15.5919 15.9802C15.7242 15.9382 15.9135 15.869 16.0126 15.824C16.1118 15.7789 16.2951 15.6767 16.4183 15.5986C16.5415 15.5175 16.7488 15.3642 16.881 15.2531C17.0102 15.1449 17.2235 14.9315 17.3558 14.7843C17.488 14.6341 17.7043 14.3516 17.8365 14.1533C17.9687 13.955 18.1641 13.6214 18.2692 13.4081C18.3744 13.1978 18.5156 12.8943 18.5787 12.732C18.6418 12.5728 18.753 12.2573 18.8221 12.0349C18.8882 11.8126 18.9844 11.4339 19.0324 11.1936C19.0805 10.9532 19.1436 10.5896 19.1737 10.3823C19.2157 10.0848 19.2278 9.80233 19.2278 9.00005C19.2278 8.19777 19.2157 7.91531 19.1737 7.61784C19.1436 7.41051 19.0805 7.04692 19.0324 6.80654C18.9844 6.56615 18.8882 6.18755 18.8221 5.96519C18.753 5.74284 18.6418 5.42733 18.5787 5.26507C18.5156 5.10582 18.3744 4.80233 18.2692 4.58899C18.1641 4.37865 17.9687 4.04512 17.8365 3.8468C17.7043 3.64849 17.488 3.36303 17.3588 3.21579C17.2266 3.06555 17.0132 2.85522 16.881 2.74704C16.7518 2.63586 16.5204 2.4706 16.3732 2.37745C16.226 2.2843 15.9946 2.16411 15.8624 2.11603C15.7302 2.06495 15.5198 1.99584 15.3966 1.96579C15.2734 1.93274 15.03 1.90269 14.8558 1.89368C14.6695 1.88466 14.4411 1.89668 14.2999 1.92072C14.1677 1.94175 13.9663 1.98983 13.8491 2.02889ZM6.51742 4.3426C6.43929 4.48382 6.30408 4.76026 6.21393 4.95858C6.12679 5.1569 6.05768 5.32216 6.06069 5.32517C6.06369 5.32817 6.37319 5.50245 6.74578 5.71579L7.42487 6.10041C7.55408 5.67974 7.64723 5.40329 7.71934 5.21399C7.79146 5.02469 7.88461 4.79031 7.92667 4.69416L8.0048 4.52288C7.10937 4.02709 6.83893 3.87986 6.82992 3.87385C6.8179 3.86784 6.77583 3.91291 6.73376 3.97601C6.6947 4.03611 6.59554 4.20137 6.51742 4.3426ZM8.59074 4.67613C8.57271 4.68514 8.49458 4.8474 8.41345 5.03671C8.33232 5.22601 8.22114 5.51147 8.16405 5.67072C8.10997 5.83298 8.07391 5.96519 8.08893 5.96519C8.10095 5.96519 8.5697 5.86303 9.1316 5.73683C9.6935 5.61063 10.1683 5.49344 10.1863 5.4724C10.2043 5.45438 10.2614 5.31615 10.3155 5.16892C10.3696 5.01868 10.4868 4.74224 10.5769 4.55293C10.6671 4.36363 10.7392 4.20437 10.7392 4.19837C10.7392 4.19536 10.7151 4.19236 10.6881 4.19536C10.658 4.19536 10.1803 4.30053 9.62739 4.42673C9.07451 4.55594 8.60576 4.66712 8.59074 4.67613ZM5.61598 6.86664C5.58593 7.00786 5.54687 7.23623 5.52583 7.37745C5.5048 7.51868 5.49578 7.64188 5.5078 7.65089C5.51682 7.6599 5.86838 7.81015 6.28605 7.98142C6.70071 8.15269 7.05227 8.2819 7.0673 8.26688C7.07932 8.25486 7.10035 8.10462 7.11237 7.93635C7.12439 7.77108 7.16345 7.46459 7.1935 7.25726C7.22655 7.04993 7.25961 6.83959 7.27163 6.79152L7.28965 6.70137C6.22595 6.08539 5.90143 5.9051 5.8834 5.9051C5.86237 5.9051 5.80528 6.06435 5.7572 6.25666C5.70612 6.45197 5.64302 6.72541 5.61598 6.86664ZM7.90864 6.62024C7.89663 6.63226 7.85456 6.82457 7.81249 7.04692C7.77343 7.26928 7.72535 7.60882 7.70732 7.79813C7.68629 7.98743 7.66526 8.18875 7.65925 8.23983C7.65023 8.29392 7.64723 8.33899 7.65324 8.33899C7.65624 8.33899 8.11297 8.23683 8.66586 8.11363C9.21874 7.98743 9.67547 7.88226 9.67848 7.87926C9.68148 7.87625 9.70552 7.71099 9.73256 7.51267C9.75961 7.31435 9.8197 6.95678 9.86778 6.71639C9.91886 6.47601 9.96393 6.25065 9.96694 6.21159C9.97295 6.17553 9.96393 6.14548 9.9459 6.14849C9.92788 6.14849 9.46814 6.25065 8.92127 6.37385C8.37439 6.49704 7.92066 6.60822 7.90864 6.62024ZM5.43569 9.57697C6.73977 10.1028 7.12139 10.2561 7.12139 10.2531C7.12439 10.2501 7.11538 10.1329 7.10336 9.99164C7.08833 9.85041 7.07631 9.55894 7.07631 9.3456C7.07631 9.06315 7.06429 8.94596 7.03725 8.92192C7.01622 8.9039 6.67968 8.75967 6.29206 8.60041C5.90444 8.44416 5.54687 8.29993 5.50179 8.2819L5.41766 8.24885L5.43569 9.57697ZM7.65925 8.93394C7.64422 9.36964 7.65624 9.67313 7.67427 9.88647C7.6923 10.1028 7.71333 10.2861 7.72235 10.2921C7.73136 10.3011 8.12499 10.22 8.59975 10.1148C9.07451 10.0097 9.5072 9.91051 9.55828 9.89849L9.65744 9.87144C9.64542 8.74164 9.6304 8.49224 9.61237 8.49224C9.59434 8.49524 9.14963 8.5944 8.62078 8.71459L7.65925 8.93394ZM5.51081 10.5355C5.52884 10.6407 5.57691 10.9171 5.62199 11.1485L5.70612 11.5692C6.10276 11.7494 6.51742 11.9418 6.88401 12.116C7.2536 12.2873 7.56009 12.4255 7.5661 12.4195C7.57211 12.4165 7.53304 12.2573 7.47896 12.068C7.42487 11.8757 7.34074 11.5421 7.29266 11.3198L7.20852 10.9171C5.97355 10.4183 5.58593 10.2651 5.54987 10.2531C5.50179 10.235 5.48677 10.241 5.48376 10.2861C5.48076 10.3162 5.49578 10.4273 5.51081 10.5355ZM7.81249 10.8961C7.80648 10.9021 7.83052 11.0644 7.86958 11.2567C7.91165 11.446 7.98376 11.7434 8.03485 11.9177C8.08593 12.089 8.16405 12.3294 8.20913 12.4526C8.2542 12.5728 8.30227 12.6689 8.3203 12.6689C8.33533 12.6689 8.74098 12.5788 9.22175 12.4706C9.69951 12.3624 10.0961 12.2723 10.1022 12.2693C10.1052 12.2663 10.0691 12.11 10.018 11.9237C9.96694 11.7374 9.89482 11.4219 9.85576 11.2176C9.81369 11.0163 9.77764 10.7669 9.77163 10.6617C9.75961 10.4754 9.75961 10.4754 9.67247 10.4784C9.62139 10.4784 9.18869 10.5716 8.70492 10.6797C8.22415 10.7909 7.82151 10.8871 7.81249 10.8961ZM6.22595 13.0746C6.29206 13.2218 6.40023 13.4442 6.46934 13.5704L6.59254 13.7957C8.02283 14.2525 8.44951 14.3907 8.46153 14.3967C8.47655 14.4057 8.48557 14.3967 8.48557 14.3817C8.48557 14.3636 8.42247 14.2464 8.34434 14.1172C8.26922 13.991 8.13401 13.7356 8.04386 13.5553L7.88461 13.2248C6.41826 12.5367 5.97956 12.3384 5.96153 12.3384C5.94651 12.3384 5.97054 12.4436 6.01862 12.5698C6.0667 12.699 6.15985 12.9243 6.22595 13.0746ZM8.54566 13.2278C8.53665 13.2368 8.59675 13.372 8.68088 13.5313C8.76201 13.6906 8.92127 13.955 9.03244 14.1232C9.14362 14.2885 9.26081 14.4568 9.28785 14.4928L9.34194 14.562C10.5589 14.2945 10.9195 14.2074 10.9315 14.2014C10.9405 14.1924 10.8413 13.976 10.7121 13.7206C10.5829 13.4622 10.4447 13.1557 10.4056 13.0355C10.3636 12.9153 10.3185 12.8192 10.3035 12.8222C10.2854 12.8222 9.88881 12.9123 9.41706 13.0175C8.9453 13.1257 8.55468 13.2188 8.54566 13.2278ZM7.36778 14.8594C7.47896 14.9796 7.67126 15.1659 7.79446 15.2681C7.91766 15.3702 8.12199 15.5205 8.24518 15.5986C8.36838 15.6797 8.55167 15.7819 8.65083 15.827C8.74999 15.869 8.91826 15.9351 9.02643 15.9712C9.13461 16.0073 9.35095 16.0553 9.5072 16.0794C9.66345 16.1034 9.86477 16.1245 9.94891 16.1245C10.036 16.1245 10.1142 16.1124 10.1202 16.1004C10.1292 16.0884 10.024 15.9982 9.89182 15.8991C9.7566 15.7999 9.52523 15.5986 9.37499 15.4544C9.22475 15.3101 9.09254 15.19 9.07752 15.193C9.0655 15.193 8.63581 15.0577 8.12499 14.8925C7.61117 14.7272 7.18749 14.592 7.17848 14.592C7.16946 14.592 7.16345 14.601 7.16345 14.613C7.16345 14.6251 7.2566 14.7362 7.36778 14.8594ZM9.81369 15.0577C9.81069 15.0668 9.85877 15.1178 9.91886 15.1749C9.98196 15.229 10.0991 15.3312 10.1833 15.3943C10.2644 15.4604 10.4267 15.5716 10.5439 15.6437C10.658 15.7128 10.8143 15.7969 10.8894 15.83C10.9645 15.863 11.1178 15.9231 11.235 15.9622C11.3491 16.0043 11.5745 16.0553 11.7308 16.0794C11.887 16.1034 12.1695 16.1245 12.3528 16.1245C12.5391 16.1245 12.6983 16.1124 12.7043 16.1004C12.7133 16.0884 12.6142 16.0013 12.488 15.9111C12.3618 15.818 12.1544 15.6467 12.0312 15.5325C11.908 15.4153 11.6917 15.1839 11.5505 15.0157C11.4092 14.8474 11.2891 14.7122 11.28 14.7122C11.271 14.7152 10.9405 14.7903 10.5439 14.8805C10.1472 14.9736 9.8197 15.0517 9.81369 15.0577ZM14.8858 2.5938C14.994 2.60281 15.1833 2.63586 15.3065 2.66591C15.4297 2.69897 15.625 2.76808 15.7422 2.82517C15.8564 2.87925 16.0457 2.99344 16.1629 3.07457C16.277 3.1557 16.4453 3.29091 16.5354 3.37204C16.6256 3.45317 16.7939 3.63346 16.911 3.77469C17.0282 3.91291 17.2055 4.15029 17.3017 4.30053C17.4008 4.44776 17.5661 4.73923 17.6683 4.94656C17.7704 5.15089 17.9026 5.44837 17.9597 5.60762C18.0198 5.76387 18.113 6.04632 18.1701 6.23863C18.2272 6.42793 18.3113 6.75245 18.3534 6.95978C18.3954 7.16411 18.4525 7.50365 18.4826 7.71099C18.5216 8.00245 18.5336 8.29092 18.5336 9.00305C18.5336 9.71519 18.5216 10.0037 18.4826 10.2951C18.4525 10.4994 18.3954 10.839 18.3534 11.0463C18.3113 11.2507 18.2272 11.5752 18.1701 11.7675C18.113 11.9568 18.0168 12.2392 17.9597 12.3985C17.9026 12.5547 17.7704 12.8522 17.6683 13.0595C17.5661 13.2639 17.4008 13.5553 17.3017 13.7056C17.2055 13.8528 17.0282 14.0902 16.911 14.2314C16.7939 14.3696 16.6256 14.5529 16.5354 14.6341C16.4453 14.7122 16.277 14.8474 16.1629 14.9285C16.0457 15.0127 15.8564 15.1238 15.7422 15.1809C15.625 15.235 15.4237 15.3101 15.2915 15.3432C15.1232 15.3883 14.9579 15.4063 14.7356 15.4063C14.5192 15.4063 14.3479 15.3883 14.1947 15.3462C14.0715 15.3162 13.8882 15.2531 13.7891 15.208C13.6899 15.1629 13.4946 15.0517 13.3534 14.9586C13.2121 14.8654 12.9808 14.6731 12.8395 14.5319C12.6983 14.3907 12.503 14.1683 12.4008 14.0361C12.3017 13.9039 12.1574 13.6936 12.0823 13.5704C12.0072 13.4442 11.857 13.1617 11.7488 12.9394C11.6406 12.714 11.5054 12.3895 11.4453 12.2182C11.3852 12.0439 11.3011 11.7795 11.262 11.6323C11.2199 11.482 11.1538 11.2056 11.1148 11.0163C11.0757 10.824 11.0186 10.4874 10.9886 10.2651C10.9465 9.95257 10.9345 9.66411 10.9345 9.01808C10.9345 8.49524 10.9495 8.05654 10.9735 7.86123C10.9946 7.68695 11.0397 7.39548 11.0697 7.21519C11.1028 7.0319 11.1689 6.72841 11.2169 6.53911C11.265 6.3468 11.3642 6.0313 11.4303 5.83298C11.4994 5.63466 11.6046 5.36423 11.6647 5.23202C11.7248 5.09981 11.8389 4.86844 11.9201 4.7212C12.0012 4.57096 12.1304 4.35462 12.2055 4.24043C12.2836 4.12325 12.4429 3.9099 12.5631 3.76567C12.6833 3.62144 12.8906 3.41111 13.0198 3.29993C13.152 3.18875 13.3654 3.0325 13.4946 2.95437C13.6238 2.87625 13.8431 2.77108 13.9844 2.723C14.1256 2.67192 14.3419 2.62084 14.4651 2.60582C14.5883 2.59079 14.7776 2.58779 14.8858 2.5938ZM13.9393 3.36904C13.8221 3.42613 13.6148 3.56435 13.4766 3.67553C13.3353 3.78671 13.143 3.973 13.0439 4.09019C12.9477 4.20437 12.7824 4.42673 12.6773 4.58599C12.5721 4.74224 12.4189 5.00666 12.3377 5.17192C12.2536 5.33719 12.1635 5.52649 12.1364 5.5926C12.1094 5.6587 12.0463 5.82096 11.9982 5.95317C11.9471 6.08539 11.869 6.34079 11.8209 6.52409C11.7728 6.70438 11.7067 6.98082 11.6737 7.14007C11.6406 7.29632 11.5925 7.59981 11.5625 7.81615C11.5204 8.10762 11.5084 8.4051 11.5084 9.00305C11.5084 9.58599 11.5234 9.89849 11.5595 10.1749C11.5865 10.3793 11.6316 10.6587 11.6586 10.7909C11.6827 10.9231 11.7368 11.1575 11.7758 11.3168C11.8149 11.473 11.89 11.7284 11.9411 11.8877C11.9952 12.0439 12.0703 12.2543 12.1124 12.3534C12.1544 12.4526 12.2536 12.6689 12.3377 12.8342C12.4189 12.9994 12.5721 13.2609 12.6773 13.4201C12.7824 13.5764 12.9537 13.8047 13.0589 13.9279C13.161 14.0481 13.3564 14.2344 13.4886 14.3396C13.6208 14.4448 13.8221 14.58 13.9393 14.6371C14.0535 14.6942 14.2308 14.7603 14.3299 14.7873C14.4291 14.8113 14.6124 14.8324 14.7356 14.8324C14.8588 14.8324 15.0421 14.8113 15.1412 14.7873C15.2404 14.7603 15.4147 14.6942 15.5318 14.6371C15.646 14.58 15.8564 14.4418 15.9946 14.3306C16.1358 14.2164 16.3401 14.0181 16.4513 13.8859C16.5595 13.7537 16.7338 13.5163 16.8359 13.36C16.9381 13.2008 17.0853 12.9394 17.1665 12.7741C17.2476 12.6088 17.3618 12.3474 17.4219 12.1942C17.482 12.0409 17.5751 11.7525 17.6322 11.5481C17.6893 11.3468 17.7644 11.0463 17.7975 10.8811C17.8305 10.7158 17.8816 10.4093 17.9117 10.205C17.9507 9.92253 17.9627 9.62205 17.9627 9.00305C17.9627 8.38106 17.9507 8.08358 17.9117 7.80113C17.8816 7.5938 17.8305 7.29031 17.7975 7.12505C17.7644 6.95978 17.6923 6.66231 17.6352 6.46399C17.5781 6.26567 17.485 5.97421 17.4249 5.81796C17.3648 5.6587 17.2476 5.39728 17.1665 5.23202C17.0883 5.06676 16.9381 4.80233 16.8359 4.64608C16.7338 4.48683 16.5535 4.24644 16.4363 4.10522C16.3191 3.967 16.1358 3.7807 16.0276 3.69656C15.9195 3.60942 15.7512 3.48923 15.652 3.42913C15.5529 3.36904 15.3666 3.28791 15.2374 3.24584C15.0601 3.19175 14.9429 3.17373 14.7416 3.17373C14.5973 3.17673 14.405 3.19476 14.3149 3.2188C14.2248 3.24284 14.0535 3.30894 13.9393 3.36904ZM14.7266 3.83478C14.8377 3.83478 14.982 3.85582 15.0721 3.88887C15.1592 3.91892 15.3125 3.99704 15.4117 4.06014C15.5108 4.12625 15.6911 4.2795 15.8143 4.4057C15.9345 4.52889 16.1208 4.75726 16.226 4.91651C16.3281 5.07276 16.4964 5.37024 16.5955 5.57757C16.6947 5.7819 16.8209 6.08839 16.878 6.25365C16.9351 6.41892 17.0252 6.7224 17.0733 6.92974C17.1244 7.13406 17.1965 7.50065 17.2326 7.74103C17.2897 8.10762 17.3017 8.30293 17.3017 8.98803C17.3017 9.61303 17.2897 9.88046 17.2476 10.1599C17.2205 10.3582 17.1604 10.6827 17.1184 10.8811C17.0793 11.0794 16.9832 11.4219 16.911 11.6473C16.8359 11.8696 16.6947 12.2212 16.5955 12.4285C16.4964 12.6329 16.3281 12.9303 16.226 13.0896C16.1208 13.2458 15.9345 13.4772 15.8143 13.6004C15.6911 13.7236 15.5108 13.8799 15.4117 13.943C15.3125 14.0091 15.1562 14.0872 15.0661 14.1202C14.9399 14.1623 14.8467 14.1743 14.6755 14.1653C14.4892 14.1533 14.4141 14.1323 14.2398 14.0421C14.1226 13.982 13.9453 13.8588 13.8431 13.7717C13.741 13.6845 13.5787 13.5193 13.4826 13.4051C13.3864 13.2879 13.2452 13.0926 13.1671 12.9694C13.0889 12.8432 12.9507 12.5878 12.8606 12.3985C12.7674 12.2062 12.6322 11.8666 12.5571 11.6383C12.482 11.4129 12.3828 11.0253 12.3317 10.7819C12.2836 10.5385 12.2266 10.196 12.2055 10.0247C12.1845 9.84741 12.1665 9.39668 12.1665 9.00305C12.1665 8.60642 12.1845 8.1557 12.2055 7.98142C12.2266 7.80714 12.2836 7.46459 12.3317 7.2212C12.3828 6.97781 12.482 6.5932 12.5571 6.36483C12.6322 6.13947 12.7674 5.79692 12.8606 5.60762C12.9507 5.41531 13.0889 5.1599 13.1671 5.03671C13.2452 4.9105 13.3864 4.71519 13.4826 4.60101C13.5787 4.48382 13.7229 4.33358 13.7981 4.26748C13.8762 4.20137 13.9994 4.10522 14.0745 4.05714C14.1496 4.00606 14.2638 3.94296 14.3299 3.91591C14.396 3.88887 14.4711 3.86183 14.4952 3.85281C14.5192 3.8438 14.6244 3.83779 14.7266 3.83478ZM14.1677 4.7212C14.0625 4.82036 13.8942 5.00966 13.7951 5.14188C13.6989 5.27409 13.5336 5.55053 13.4285 5.75786C13.3263 5.96219 13.1851 6.30774 13.116 6.52409C13.0439 6.73743 12.9567 7.06195 12.9177 7.24524C12.8756 7.42553 12.8215 7.74404 12.7945 7.95137C12.7584 8.21279 12.7404 8.52829 12.7404 9.00305C12.7404 9.47481 12.7584 9.79031 12.7945 10.0547C12.8215 10.2591 12.8756 10.5776 12.9177 10.7609C12.9567 10.9412 13.0439 11.2657 13.116 11.482C13.1851 11.6954 13.3263 12.0409 13.4285 12.2482C13.5336 12.4526 13.6989 12.732 13.7951 12.8642C13.8942 12.9964 14.0595 13.1857 14.1677 13.2849C14.2728 13.3841 14.4201 13.4952 14.4952 13.5313C14.5703 13.5674 14.6785 13.5974 14.7356 13.5974C14.7927 13.5974 14.9008 13.5674 14.976 13.5313C15.0511 13.4952 15.1983 13.3841 15.3035 13.2849C15.4086 13.1857 15.5739 13.0025 15.6641 12.8793C15.7572 12.7531 15.9165 12.4916 16.0186 12.2933C16.1178 12.095 16.256 11.7765 16.3221 11.5872C16.3882 11.3949 16.4754 11.0974 16.5174 10.9261C16.5595 10.7519 16.6256 10.4123 16.6617 10.1749C16.7157 9.81435 16.7278 9.61003 16.7278 9.00305C16.7278 8.39608 16.7157 8.18875 16.6617 7.83118C16.6256 7.59079 16.5595 7.25125 16.5174 7.07998C16.4754 6.9057 16.3882 6.60822 16.3221 6.41892C16.256 6.22661 16.1178 5.91111 16.0186 5.71279C15.9165 5.51447 15.7572 5.25005 15.6641 5.12685C15.5739 5.00065 15.4086 4.82036 15.3035 4.7212C15.1983 4.61904 15.0511 4.50786 14.976 4.4718C14.9008 4.43575 14.7927 4.4057 14.7356 4.4057C14.6785 4.4057 14.5703 4.43575 14.4952 4.4718C14.4231 4.51087 14.2758 4.62204 14.1677 4.7212Z" fill="#6D6C6C"/>
<path d="M1.27574 16.869C1.37337 16.9667 1.53166 16.9667 1.62929 16.869L3.22028 15.278C3.31791 15.1804 3.31791 15.0221 3.22028 14.9245C3.12265 14.8269 2.96436 14.8269 2.86673 14.9245L1.45251 16.3387L0.0383011 14.9245C-0.05933 14.8269 -0.217621 14.8269 -0.315252 14.9245C-0.412883 15.0221 -0.412883 15.1804 -0.315252 15.278L1.27574 16.869ZM1.62929 1.13086C1.53166 1.03323 1.37337 1.03323 1.27574 1.13086L-0.315252 2.72185C-0.412883 2.81948 -0.412883 2.97778 -0.315252 3.07541C-0.217621 3.17304 -0.05933 3.17304 0.0383011 3.07541L1.45251 1.66119L2.86673 3.07541C2.96436 3.17304 3.12265 3.17304 3.22028 3.07541C3.31791 2.97778 3.31791 2.81948 3.22028 2.72185L1.62929 1.13086ZM1.70251 16.6923L1.70251 1.30764H1.20251L1.20251 16.6923H1.70251Z" fill="#6D6C6C"/>
</g>
<defs>
<clipPath id="clip0_57_799">
<rect width="20" height="16.9231" fill="white" transform="translate(0 0.538452)"/>
</clipPath>
</defs>
</svg>
