<svg width="16" height="20" viewBox="0 0 16 20" fill="none" xmlns="http://www.w3.org/2000/svg">
<g clip-path="url(#clip0_57_806)">
<mask id="path-1-outside-1_57_806" maskUnits="userSpaceOnUse" x="-0.285706" y="-0.640381" width="16" height="16" fill="black">
<rect fill="white" x="-0.285706" y="-0.640381" width="16" height="16"/>
<path fill-rule="evenodd" clip-rule="evenodd" d="M7.8153 0.359962C8.21429 0.357172 8.44309 0.371122 8.73605 0.412975C8.9509 0.446457 9.22155 0.4911 9.33594 0.513421C9.45034 0.538533 9.69588 0.599917 9.88003 0.655721C10.0642 0.708734 10.3516 0.80918 10.5218 0.876145C10.692 0.945899 10.9794 1.07983 11.1635 1.17748C11.3477 1.27235 11.6183 1.43139 11.7634 1.52626C11.9085 1.62391 12.1345 1.78574 12.2656 1.88619C12.3968 1.98664 12.6786 2.24612 12.8962 2.46097C13.1111 2.6786 13.3705 2.96041 13.471 3.09155C13.5714 3.22268 13.7333 3.44869 13.8309 3.59378C13.9258 3.73887 14.0848 4.00951 14.1797 4.19367C14.2773 4.37782 14.4113 4.66521 14.481 4.83541C14.548 5.00561 14.6484 5.293 14.7015 5.47715C14.7573 5.6613 14.8214 5.91242 14.8465 6.03518C14.8717 6.15795 14.9163 6.43418 14.947 6.64902C14.9805 6.90293 15 7.1959 15 7.48608C15 7.73161 14.9805 8.08876 14.9581 8.28128C14.933 8.4738 14.8828 8.7863 14.8438 8.97882C14.8047 9.17134 14.7098 9.51454 14.6345 9.74612C14.5508 9.99445 14.4001 10.3572 14.2634 10.639C14.135 10.9013 13.9342 11.2584 13.8142 11.4342C13.697 11.61 13.5073 11.8694 13.3957 12.0062C13.284 12.1429 13.0497 12.3996 12.8739 12.5698C12.7009 12.7428 12.4526 12.9688 12.3214 13.0748C12.1903 13.178 11.9475 13.3566 11.7773 13.4682C11.6071 13.5798 11.2584 13.7779 10.9961 13.9035C10.7338 14.0318 10.3516 14.1937 10.1451 14.2634C9.93862 14.3332 9.6317 14.4225 9.4615 14.4587C9.2913 14.4978 8.97601 14.5536 8.75559 14.5843C8.47378 14.6261 8.21708 14.6429 7.85715 14.6429C7.49722 14.6429 7.24052 14.6261 6.95592 14.5843C6.73829 14.5536 6.423 14.4978 6.2528 14.4587C6.0826 14.4225 5.77568 14.3332 5.5692 14.2634C5.36273 14.1937 4.97769 14.0318 4.7182 13.9035C4.45871 13.7779 4.10436 13.5798 3.93695 13.4682C3.76954 13.3566 3.524 13.178 3.39286 13.0748C3.26173 12.9688 3.0134 12.7428 2.84041 12.5698C2.66463 12.3996 2.43025 12.1429 2.31865 12.0062C2.20704 11.8694 2.01731 11.61 1.90012 11.4342C1.78014 11.2584 1.57925 10.9013 1.4509 10.639C1.31418 10.3572 1.16351 9.99445 1.07981 9.74612C1.00447 9.51454 0.909607 9.17134 0.870544 8.97882C0.831482 8.7863 0.781259 8.47938 0.756147 8.29523C0.733826 8.11108 0.714294 7.75951 0.714294 7.51398C0.714294 7.26844 0.733826 6.9113 0.756147 6.71878C0.781259 6.52626 0.831482 6.21376 0.870544 6.02123C0.909607 5.82871 1.00447 5.48273 1.07981 5.25393C1.16351 5.00561 1.31418 4.64288 1.4509 4.36108C1.57925 4.10159 1.78014 3.74166 1.90012 3.56588C2.01731 3.39009 2.20704 3.13061 2.31865 2.99389C2.43025 2.85438 2.66463 2.60047 2.84041 2.43027C3.0134 2.25728 3.26173 2.03128 3.39286 1.92525C3.524 1.82201 3.76675 1.64344 3.93695 1.53184C4.10436 1.42023 4.45871 1.22213 4.7182 1.09378C5.00559 0.95427 5.35715 0.80639 5.61106 0.722685C5.83985 0.64735 6.15514 0.558064 6.3086 0.527372C6.46206 0.49389 6.74387 0.443667 6.93639 0.415765C7.17356 0.379493 7.45536 0.362752 7.8153 0.359962ZM6.95034 0.901256C6.78014 0.926368 6.50949 0.973801 6.34208 1.01286C6.16072 1.05472 6.04353 1.09657 6.04353 1.1161C6.04353 1.13563 6.06865 1.22771 6.09934 1.31978C6.13003 1.41186 6.15514 1.50114 6.15514 1.5151C6.15514 1.52905 6.07143 1.5709 5.9682 1.60438C5.86217 1.64065 5.76173 1.66856 5.74219 1.66856C5.72545 1.66856 5.68081 1.58485 5.65012 1.47882C5.61664 1.37559 5.58315 1.28072 5.57199 1.26956C5.56362 1.2584 5.4576 1.2863 5.33762 1.33373C5.22043 1.37838 5.02512 1.46487 4.90514 1.52626C4.78795 1.58485 4.58427 1.69646 4.45313 1.77458C4.32199 1.85271 4.19644 1.92804 4.17411 1.94478C4.14063 1.96431 4.15458 2.00059 4.2634 2.15405C4.33873 2.25449 4.39733 2.34378 4.39733 2.35215C4.39733 2.36052 4.3192 2.4219 4.22155 2.49166C4.12668 2.55862 4.04019 2.61443 4.02623 2.61722C4.01507 2.61722 3.9509 2.5363 3.88115 2.43585L3.75559 2.25449C3.44309 2.51119 3.2422 2.69813 3.11106 2.83206C2.97992 2.96599 2.81251 3.15014 2.74275 3.23943L2.61162 3.39847C2.90458 3.61052 2.97155 3.67748 2.96318 3.6998C2.95481 3.71655 2.89342 3.80304 2.82646 3.88675C2.76228 3.97324 2.70369 4.043 2.69532 4.04021C2.68695 4.04021 2.60603 3.98161 2.51396 3.91465C2.42188 3.84489 2.34097 3.78909 2.3326 3.78909C2.32423 3.78909 2.26563 3.87559 2.20425 3.97882C2.14008 4.08206 2.02289 4.28574 1.94755 4.43083C1.86943 4.57592 1.76061 4.8103 1.70481 4.94701C1.649 5.08373 1.61273 5.2065 1.62668 5.21487C1.63784 5.22603 1.73271 5.25951 1.83595 5.293C1.94197 5.32369 2.02568 5.36833 2.02568 5.38786C2.02568 5.4046 1.99778 5.50505 1.9615 5.61108C1.92802 5.71431 1.88617 5.79802 1.87222 5.79802C1.85548 5.79802 1.76898 5.77291 1.67691 5.74222C1.58483 5.71152 1.49554 5.68641 1.48159 5.68641C1.46485 5.68641 1.43974 5.73384 1.42021 5.78965C1.40068 5.84824 1.36162 6.01565 1.33092 6.16074C1.30302 6.30583 1.26396 6.54579 1.24722 6.69088C1.23048 6.83596 1.21095 7.02291 1.20258 7.10382L1.18862 7.24891H1.66295V7.75114H1.18862C1.21374 8.02179 1.23885 8.23663 1.26117 8.40684C1.28349 8.57704 1.33092 8.84768 1.36999 9.01509C1.41184 9.19646 1.45369 9.31364 1.47322 9.31364C1.49275 9.31364 1.58483 9.28853 1.67691 9.25784C1.76898 9.22715 1.85548 9.20204 1.87222 9.20204C1.88617 9.20204 1.92802 9.28574 1.9615 9.38898C1.99778 9.49501 2.02568 9.59545 2.02568 9.61219C2.02568 9.63172 1.94197 9.67637 1.83595 9.70706C1.73271 9.74054 1.63784 9.77402 1.62668 9.78518C1.61552 9.79355 1.64342 9.89958 1.69086 10.0168C1.7355 10.1367 1.82199 10.3321 1.88338 10.4492C1.94197 10.5692 2.05358 10.7729 2.1317 10.904C2.20983 11.0352 2.28516 11.1607 2.30191 11.1831C2.32144 11.2165 2.35771 11.2026 2.51117 11.091C2.61162 11.0184 2.7009 10.9598 2.70927 10.9598C2.71764 10.9598 2.77903 11.038 2.84878 11.1328C2.91574 11.2305 2.97434 11.3142 2.97434 11.3226C2.97434 11.3309 2.89342 11.3951 2.79298 11.4677L2.61162 11.6016C2.86831 11.9141 3.05525 12.115 3.18918 12.2461C3.32311 12.3773 3.50726 12.5447 3.59376 12.6144L3.75559 12.7456C3.96764 12.4526 4.03461 12.3856 4.05414 12.394C4.07367 12.4024 4.16016 12.4638 4.24387 12.5279C4.33036 12.5949 4.40012 12.6535 4.39733 12.6619C4.39733 12.6702 4.33873 12.7511 4.27177 12.8432C4.20202 12.9353 4.14621 13.0162 4.14621 13.0246C4.14621 13.033 4.27456 13.1167 4.43081 13.2087C4.58985 13.3036 4.81028 13.4264 4.92188 13.4822C5.0307 13.538 5.22043 13.6217 5.33762 13.6663C5.4576 13.7138 5.56362 13.7417 5.57199 13.7305C5.58315 13.7193 5.61664 13.6245 5.65012 13.5184C5.68081 13.4152 5.72545 13.3315 5.74219 13.3315C5.76173 13.3315 5.86217 13.3594 5.9682 13.3957C6.07143 13.4292 6.15514 13.4682 6.15514 13.485C6.15514 13.5017 6.13003 13.5882 6.09934 13.6803C6.06865 13.7723 6.04353 13.8588 6.04353 13.8756C6.04353 13.8923 6.09097 13.9174 6.14677 13.937C6.20536 13.9565 6.37277 13.9956 6.51786 14.0263C6.66295 14.0542 6.90291 14.0932 7.048 14.11C7.19309 14.1267 7.38003 14.1462 7.45815 14.1546L7.60603 14.1686V13.6942H8.10826V14.1686C8.33427 14.1462 8.52121 14.1267 8.6663 14.11C8.81139 14.0932 9.05134 14.0542 9.19643 14.0263C9.34152 13.9956 9.50893 13.9565 9.56753 13.937C9.62333 13.9174 9.67076 13.8923 9.67076 13.8756C9.67076 13.8588 9.64565 13.7723 9.61496 13.6803C9.58427 13.5882 9.55916 13.5017 9.55916 13.485C9.55916 13.4682 9.64286 13.4292 9.7461 13.3957C9.85213 13.3594 9.95257 13.3315 9.96931 13.3315C9.98884 13.3315 10.0335 13.4152 10.0642 13.5184C10.0977 13.6245 10.1311 13.7193 10.1423 13.7305C10.1507 13.7417 10.2567 13.7138 10.3739 13.6663C10.4939 13.6217 10.6892 13.5352 10.8064 13.4738C10.9263 13.4152 11.13 13.3036 11.2612 13.2255C11.3923 13.1473 11.5179 13.072 11.5402 13.0553C11.5737 13.0357 11.5597 12.9995 11.4481 12.846C11.3756 12.7456 11.317 12.6563 11.317 12.6479C11.317 12.6395 11.3951 12.5782 11.49 12.5084C11.5876 12.4414 11.6741 12.3856 11.6853 12.3828C11.6992 12.3828 11.7634 12.4638 11.8332 12.5642L11.9587 12.7456C12.2712 12.4889 12.4777 12.2991 12.6144 12.154C12.7511 12.0117 12.9185 11.8276 12.9827 11.7467L13.1027 11.6016C12.8097 11.3895 12.7427 11.3226 12.7511 11.3003C12.7595 11.2835 12.8209 11.197 12.885 11.1133C12.952 11.0268 13.0078 10.9571 13.0106 10.9598C13.0162 10.9598 13.0999 11.0157 13.2003 11.0854C13.3008 11.1552 13.3873 11.2082 13.3929 11.2026C13.3984 11.1998 13.4738 11.0826 13.5575 10.9459C13.6412 10.8092 13.7612 10.5915 13.8253 10.4632C13.8867 10.3376 13.9788 10.1367 14.0234 10.0168C14.0709 9.89958 14.0988 9.79355 14.0876 9.78518C14.0765 9.77402 13.9816 9.74054 13.8756 9.70706C13.7723 9.67637 13.6886 9.63172 13.6886 9.61219C13.6886 9.59545 13.7165 9.49501 13.7528 9.38898C13.7863 9.28574 13.8253 9.20204 13.8421 9.20204C13.8588 9.20204 13.9453 9.22715 14.0374 9.25784C14.1295 9.28853 14.216 9.31364 14.2327 9.31364C14.2494 9.31364 14.2746 9.26621 14.2941 9.21041C14.3136 9.15181 14.3527 8.9844 14.3834 8.83931C14.4113 8.69422 14.4503 8.45427 14.4671 8.30918C14.4838 8.16409 14.5034 7.97715 14.5117 7.89623L14.5257 7.75114H14.0513V7.24891H14.5257C14.5034 7.02291 14.4838 6.83596 14.4671 6.69088C14.4503 6.54579 14.4113 6.30583 14.3834 6.16074C14.3527 6.01565 14.3136 5.84824 14.2941 5.78965C14.2746 5.73384 14.2494 5.68641 14.2327 5.68641C14.216 5.68641 14.1295 5.71152 14.0374 5.74222C13.9453 5.77291 13.8588 5.79802 13.8421 5.79802C13.8253 5.79802 13.7863 5.71431 13.7528 5.61108C13.7165 5.50505 13.6886 5.4046 13.6886 5.38507C13.6886 5.36833 13.7723 5.32369 13.8756 5.293C13.9816 5.25951 14.0765 5.22603 14.0876 5.21487C14.0988 5.2065 14.0709 5.10047 14.0234 4.9805C13.9788 4.86331 13.8867 4.66242 13.8253 4.53407C13.7612 4.40851 13.6412 4.19088 13.5575 4.05416C13.4738 3.91744 13.3984 3.80025 13.3929 3.79467C13.3873 3.79188 13.3036 3.84489 13.2059 3.91465C13.1111 3.98161 13.0273 4.04021 13.019 4.04021C13.0106 4.043 12.952 3.97324 12.885 3.88675C12.8209 3.80304 12.7623 3.71655 12.7539 3.69701C12.7455 3.67748 12.8153 3.60773 12.9213 3.5296L13.1027 3.39847C12.9213 3.17246 12.7288 2.96599 12.5586 2.79858C12.3912 2.62838 12.1847 2.43585 12.1038 2.37168L11.9587 2.25449C11.7467 2.54746 11.6797 2.61443 11.6574 2.60606C11.6406 2.59768 11.5541 2.5363 11.4704 2.47213C11.3839 2.40516 11.3142 2.34657 11.317 2.3382C11.317 2.32983 11.3756 2.24891 11.4425 2.15684C11.5123 2.06476 11.5681 1.98385 11.5681 1.97547C11.5681 1.9671 11.4816 1.90851 11.3784 1.84713C11.2751 1.78295 11.0714 1.66577 10.9263 1.59043C10.7813 1.51231 10.5469 1.40349 10.4102 1.34768C10.2734 1.29188 10.1507 1.25561 10.1423 1.26956C10.1311 1.28072 10.0977 1.37559 10.0642 1.47882C10.0335 1.58485 9.98884 1.66856 9.96931 1.66856C9.95257 1.66856 9.85213 1.64065 9.7461 1.60438C9.64286 1.5709 9.55916 1.52905 9.55916 1.5151C9.55916 1.50114 9.58427 1.41186 9.61496 1.31978C9.64565 1.22771 9.67076 1.13842 9.67076 1.12447C9.67076 1.10773 9.62333 1.08262 9.56753 1.06309C9.50893 1.04356 9.34152 1.00449 9.19643 0.973801C9.05134 0.945899 8.81139 0.906837 8.6663 0.890096C8.52121 0.873354 8.33427 0.853823 8.25335 0.845453L8.10826 0.831502V1.30583H7.60603C7.60603 0.895676 7.59766 0.831502 7.56976 0.837082C7.55302 0.839872 7.4721 0.845453 7.39677 0.851033C7.31864 0.856613 7.12054 0.878935 6.95034 0.901256ZM8.05246 2.27402C8.21429 2.2796 8.47099 2.30472 8.62445 2.32704C8.77791 2.34936 9.02344 2.39958 9.16853 2.43585C9.31362 2.47213 9.548 2.54467 9.68472 2.59768C9.82143 2.6507 10.053 2.75114 10.1953 2.82369C10.3348 2.89344 10.5441 3.01063 10.6529 3.08039C10.7645 3.15293 10.9515 3.28407 11.0659 3.37056C11.1803 3.45706 11.4007 3.65237 11.5513 3.80583C11.7048 3.9565 11.9001 4.17693 11.9866 4.29132C12.0731 4.40572 12.2042 4.59266 12.2768 4.70427C12.3465 4.81309 12.4637 5.02235 12.5335 5.16186C12.606 5.30416 12.7065 5.53574 12.7595 5.67246C12.8125 5.80918 12.885 6.04355 12.9213 6.18864C12.9576 6.33373 13.0078 6.57927 13.0329 6.73273C13.0636 6.91409 13.0804 7.17916 13.0804 7.50003C13.0804 7.8209 13.0636 8.08597 13.0329 8.26733C13.0078 8.42079 12.9576 8.66632 12.9213 8.81141C12.885 8.9565 12.8153 9.17692 12.7707 9.29969C12.726 9.42246 12.6423 9.62335 12.5837 9.74612C12.5251 9.86889 12.4079 10.0837 12.327 10.2205C12.2433 10.3572 12.0982 10.572 12.0034 10.6948C11.9113 10.8175 11.7076 11.0436 11.5541 11.197C11.4007 11.3505 11.1747 11.5542 11.0519 11.6462C10.9291 11.7411 10.7143 11.8862 10.5776 11.9699C10.4409 12.0508 10.226 12.168 10.1032 12.2266C9.98047 12.2852 9.77958 12.3689 9.65681 12.4135C9.53405 12.4582 9.31362 12.5279 9.16853 12.5642C9.02344 12.6005 8.77791 12.6507 8.62445 12.6758C8.44309 12.7065 8.17802 12.7232 7.85715 12.7232C7.53628 12.7232 7.27121 12.7065 7.08985 12.6758C6.93639 12.6507 6.69085 12.6005 6.54577 12.5642C6.40068 12.5279 6.18025 12.4582 6.05748 12.4135C5.93472 12.3689 5.73382 12.2852 5.61106 12.2266C5.48829 12.168 5.27344 12.0508 5.13673 11.9699C5.00001 11.8862 4.78516 11.7411 4.6624 11.6462C4.53963 11.5542 4.31362 11.3505 4.16016 11.197C4.0067 11.0436 3.80302 10.8175 3.71095 10.6948C3.61608 10.572 3.47099 10.3572 3.38728 10.2205C3.30637 10.0837 3.18918 9.86889 3.13059 9.74612C3.07199 9.62335 2.98829 9.42246 2.94365 9.29969C2.899 9.17692 2.82925 8.9565 2.79298 8.81141C2.7567 8.66632 2.70648 8.42079 2.68137 8.26733C2.65068 8.08597 2.63394 7.8209 2.63394 7.50003C2.63394 7.17916 2.65068 6.91409 2.68137 6.73273C2.70648 6.57927 2.7567 6.33373 2.79298 6.18864C2.82925 6.04355 2.899 5.82313 2.94365 5.70036C2.98829 5.57759 3.07199 5.3767 3.13059 5.25393C3.18918 5.13117 3.30637 4.91632 3.38728 4.7796C3.47099 4.64288 3.61608 4.42804 3.71095 4.30527C3.80302 4.18251 4.0067 3.9565 4.16016 3.80304C4.31362 3.64958 4.53963 3.4459 4.6624 3.35382C4.78516 3.25896 5.00001 3.11387 5.13673 3.03016C5.27344 2.94925 5.48829 2.83206 5.61106 2.77347C5.73382 2.71487 5.93472 2.63117 6.05748 2.58652C6.18025 2.54188 6.40068 2.47213 6.54577 2.43585C6.69085 2.39958 6.90012 2.35494 7.00614 2.33541C7.11217 2.31867 7.32701 2.29356 7.48047 2.28239C7.63393 2.27123 7.89063 2.26844 8.05246 2.27402ZM6.90849 2.84043C6.74666 2.87112 6.48438 2.94367 6.32255 2.99668C6.16072 3.05248 5.87333 3.17804 5.68081 3.2757C5.48829 3.37335 5.2009 3.55193 5.03907 3.6719C4.87724 3.79188 4.63449 4.00114 4.49498 4.13786C4.35827 4.27737 4.149 4.52012 4.02903 4.68195C3.90905 4.84378 3.73048 5.13117 3.63282 5.32369C3.53516 5.51621 3.40961 5.8036 3.3538 5.96543C3.30079 6.12726 3.22824 6.38954 3.19755 6.55137C3.16407 6.7132 3.1278 6.98942 3.11664 7.16521C3.10269 7.34099 3.10269 7.63675 3.11664 7.8209C3.1278 8.00505 3.16407 8.28686 3.19755 8.44869C3.22824 8.61052 3.30079 8.8728 3.3538 9.03463C3.40961 9.19646 3.53516 9.48384 3.63282 9.67637C3.73048 9.86889 3.90905 10.1563 4.02903 10.3181C4.149 10.4799 4.35827 10.7227 4.49498 10.8622C4.63449 10.9989 4.87724 11.2082 5.03907 11.3282C5.2009 11.4481 5.48829 11.6267 5.68081 11.7244C5.87333 11.822 6.16072 11.9476 6.32255 12.0034C6.48438 12.0564 6.74666 12.1289 6.90849 12.1596C7.07032 12.1931 7.34655 12.2294 7.52233 12.2405C7.69811 12.2545 7.99387 12.2545 8.17802 12.2405C8.36217 12.2294 8.64398 12.1931 8.80581 12.1596C8.96764 12.1261 9.22992 12.0564 9.39175 12.0006C9.55358 11.9448 9.79353 11.8471 9.93025 11.7802C10.0642 11.7132 10.2567 11.6044 10.3627 11.543C10.466 11.4788 10.6445 11.3533 10.7589 11.2668C10.8733 11.1803 11.0798 10.9961 11.2165 10.8594C11.3532 10.7227 11.5374 10.5162 11.6239 10.4018C11.7104 10.2874 11.8359 10.1088 11.9001 10.0056C11.9615 9.89958 12.0703 9.70706 12.1373 9.57313C12.2042 9.43641 12.3019 9.19646 12.3577 9.03463C12.4135 8.8728 12.4833 8.61052 12.5167 8.44869C12.5502 8.28686 12.5865 8.00505 12.5977 7.8209C12.6116 7.63675 12.6116 7.34099 12.5977 7.16521C12.5865 6.98942 12.5502 6.7132 12.5167 6.55137C12.4861 6.38954 12.4135 6.12726 12.3605 5.96543C12.3047 5.8036 12.1791 5.51621 12.0815 5.32369C11.9838 5.13117 11.8053 4.84378 11.6853 4.68195C11.5653 4.52012 11.356 4.27737 11.2193 4.13786C11.0798 4.00114 10.8371 3.79188 10.6752 3.6719C10.5134 3.55193 10.2372 3.37893 10.0614 3.28965C9.88561 3.19757 9.63449 3.08318 9.50335 3.03574C9.37222 2.98831 9.14063 2.91856 8.98717 2.88228C8.83371 2.84601 8.60771 2.80416 8.48494 2.78742C8.36217 2.77068 8.1557 2.75393 8.02456 2.74835C7.89342 2.74277 7.65626 2.74556 7.49443 2.75951C7.3326 2.77068 7.07032 2.80695 6.90849 2.84043ZM7.82925 3.45706C7.97434 3.45706 8.22545 3.4738 8.38728 3.49333C8.54911 3.51565 8.7807 3.5603 8.90347 3.59657C9.02623 3.63005 9.20759 3.68864 9.30804 3.72492C9.40849 3.76398 9.55358 3.82536 9.62891 3.86443C9.70704 3.90349 9.84375 3.97882 9.93583 4.03463C10.0279 4.09043 10.1981 4.20483 10.3125 4.29411C10.4269 4.38061 10.6194 4.55081 10.7366 4.67079C10.8538 4.79355 11.0128 4.97213 11.0882 5.07257C11.1607 5.17302 11.2667 5.32927 11.3225 5.42134C11.3784 5.51342 11.4537 5.65014 11.4927 5.72826C11.5318 5.8036 11.596 5.95706 11.6378 6.06309C11.6769 6.16911 11.7411 6.37838 11.7773 6.52346C11.8136 6.66855 11.8583 6.91967 11.8778 7.0815C11.8973 7.24891 11.9029 7.50561 11.8945 7.68139C11.8834 7.85159 11.8583 8.09713 11.8332 8.23384C11.8108 8.36777 11.7467 8.61052 11.6909 8.77514C11.635 8.94255 11.5402 9.17692 11.4788 9.29969C11.4146 9.42246 11.2946 9.62893 11.2082 9.75728C11.1217 9.88842 10.9766 10.0754 10.8845 10.1786C10.7924 10.279 10.6334 10.4381 10.5329 10.5302C10.4325 10.6194 10.2455 10.7645 10.1144 10.851C9.98605 10.9375 9.77958 11.0575 9.65681 11.1217C9.53405 11.1831 9.29967 11.2779 9.13226 11.3337C8.96764 11.3895 8.71652 11.4565 8.57701 11.4816C8.39844 11.5151 8.17244 11.529 7.85715 11.529C7.54186 11.529 7.31585 11.5151 7.13728 11.4816C6.99777 11.4565 6.74666 11.3895 6.58204 11.3337C6.41463 11.2779 6.18025 11.1831 6.05748 11.1217C5.93472 11.0575 5.72824 10.9375 5.5999 10.851C5.46876 10.7645 5.28182 10.6194 5.18137 10.5302C5.08092 10.4381 4.92188 10.279 4.82981 10.1786C4.73773 10.0754 4.59264 9.88842 4.50615 9.75728C4.41965 9.62893 4.29967 9.42246 4.2355 9.29969C4.17411 9.17692 4.07925 8.94255 4.02344 8.77514C3.96764 8.61052 3.90068 8.3594 3.87557 8.21989C3.84208 8.04132 3.82813 7.81532 3.82813 7.50003C3.82813 7.18474 3.84208 6.95873 3.87557 6.78016C3.90068 6.64065 3.96764 6.38954 4.02344 6.22492C4.07925 6.05751 4.17411 5.82313 4.2355 5.70036C4.29967 5.57759 4.41965 5.37112 4.50615 5.24277C4.59264 5.11164 4.73773 4.92469 4.82702 4.82425C4.91909 4.7238 5.07813 4.56476 5.17858 4.47268C5.28182 4.38061 5.46876 4.23552 5.5999 4.14902C5.72824 4.06253 5.92635 3.94534 6.03516 3.88954C6.14677 3.83373 6.31697 3.7584 6.41184 3.72213C6.50949 3.68585 6.68806 3.63005 6.81083 3.59378C6.9336 3.5603 7.15402 3.51565 7.29911 3.49612C7.4442 3.47659 7.68416 3.45985 7.82925 3.45706ZM7.26563 3.98719C7.16239 4.00393 7.0759 4.02626 7.0759 4.03463C7.0759 4.04579 7.20146 4.3555 7.35492 4.7238C7.50838 5.0921 7.65347 5.42134 7.67579 5.45483C7.69811 5.4911 7.75112 5.52737 7.79297 5.53574C7.83762 5.54411 7.899 5.54411 7.93248 5.53574C7.96876 5.52737 8.01619 5.4911 8.03851 5.45483C8.06083 5.42134 8.20592 5.0921 8.35938 4.7238C8.51284 4.3555 8.6384 4.04579 8.6384 4.03184C8.6384 4.02068 8.56027 3.99835 8.46262 3.9844C8.36775 3.96766 8.13896 3.95092 7.9548 3.94255C7.77065 3.93697 7.58371 3.93976 7.53628 3.94534C7.48885 3.95092 7.36887 3.97045 7.26563 3.98719ZM5.73661 4.6373C5.60548 4.73496 5.40179 4.91632 5.28181 5.04188C5.16463 5.16465 5.07534 5.27905 5.0865 5.29021C5.10045 5.30416 5.37668 5.54411 5.70034 5.82034C6.02679 6.09936 6.32534 6.37559 6.36161 6.43139C6.40068 6.48998 6.44532 6.59322 6.46206 6.66297C6.48159 6.73273 6.48717 6.84434 6.4788 6.91409C6.46764 6.98384 6.423 7.10661 6.37835 7.18474C6.33092 7.26565 6.24722 7.36331 6.18862 7.40237C6.13282 7.44143 6.04074 7.48329 5.98773 7.50003C5.93472 7.51677 5.5692 7.55304 5.17858 7.58373C4.78795 7.61722 4.42523 7.64791 4.37501 7.65349C4.28572 7.66744 4.28572 7.66744 4.30246 7.79858C4.31083 7.87391 4.33594 8.03295 4.35827 8.15572C4.3778 8.27849 4.42802 8.47938 4.46708 8.60215C4.50615 8.72492 4.60101 8.95092 4.67635 9.10438C4.74889 9.25784 4.8326 9.40014 4.85492 9.41688C4.89398 9.44757 5.00001 9.39177 5.53293 9.06532C5.88449 8.85326 6.21373 8.65795 6.26675 8.63005C6.31976 8.60215 6.42579 8.57425 6.50391 8.56588C6.5932 8.55751 6.69364 8.56867 6.78293 8.59936C6.85826 8.62168 6.96708 8.68027 7.0201 8.72213C7.07311 8.76677 7.15123 8.87001 7.19588 8.95371C7.25168 9.06532 7.27121 9.14344 7.27121 9.25784C7.27121 9.34713 7.19588 9.72101 7.08985 10.1646C6.99219 10.5804 6.91965 10.9264 6.93081 10.9375C6.94197 10.9487 7.05637 10.9794 7.18751 11.0073C7.35771 11.0436 7.54744 11.0575 7.85715 11.0575C8.16686 11.0575 8.35659 11.0436 8.52679 11.0073C8.65793 10.9794 8.77233 10.9487 8.78349 10.9375C8.79465 10.9264 8.7221 10.5804 8.62166 10.1646C8.51842 9.72101 8.44309 9.34713 8.44309 9.25784C8.44309 9.14344 8.46262 9.06532 8.51842 8.95371C8.56306 8.87001 8.64119 8.76677 8.6942 8.72213C8.74722 8.68027 8.84766 8.62447 8.91742 8.60215C8.98717 8.57983 9.0932 8.5603 9.15458 8.5603C9.21597 8.56309 9.31083 8.57704 9.36384 8.59657C9.41686 8.6161 9.76563 8.81699 10.1367 9.043C10.7087 9.38898 10.8203 9.44757 10.8594 9.41688C10.8845 9.40014 10.971 9.24668 11.0519 9.07648C11.1356 8.90628 11.2333 8.66353 11.2695 8.53239C11.3086 8.40125 11.3505 8.20873 11.3672 8.09992C11.3839 7.9911 11.4035 7.85159 11.4118 7.78463C11.4286 7.67023 11.4258 7.66744 11.3365 7.65349C11.2891 7.64791 10.9152 7.61442 10.5078 7.58373C10.0335 7.54467 9.73215 7.5084 9.67076 7.4805C9.61775 7.45817 9.53963 7.41632 9.49498 7.38563C9.45313 7.35773 9.38338 7.26565 9.33594 7.18474C9.2913 7.10661 9.24666 6.98384 9.2355 6.91409C9.22713 6.84434 9.23271 6.73273 9.25224 6.66297C9.26898 6.59322 9.31362 6.48998 9.35268 6.43139C9.38896 6.37559 9.68751 6.09936 10.0112 5.82034C10.3376 5.54411 10.6138 5.30416 10.625 5.29021C10.639 5.27905 10.5497 5.16465 10.4297 5.04188C10.3125 4.91632 10.1088 4.73496 9.97768 4.6373C9.84655 4.53965 9.61496 4.39735 9.4615 4.31922C9.30804 4.2411 9.16295 4.17972 9.14063 4.17972C9.11273 4.17972 9.00391 4.40851 8.8086 4.88563C8.64677 5.27068 8.49889 5.61945 8.47378 5.65851C8.45146 5.69757 8.40123 5.76454 8.36217 5.80639C8.32311 5.85103 8.2394 5.91242 8.17802 5.9459C8.09152 5.99333 8.01619 6.00728 7.85715 6.00728C7.69811 6.00728 7.62277 5.99333 7.53628 5.9459C7.47489 5.91242 7.39119 5.85103 7.34934 5.80639C7.30748 5.76454 7.23773 5.65293 7.19309 5.56085C7.14844 5.46878 7.00056 5.12001 6.86385 4.78797C6.69922 4.38061 6.60157 4.17972 6.57367 4.17972C6.55135 4.17972 6.40626 4.2411 6.2528 4.31922C6.09934 4.39735 5.86775 4.53965 5.73661 4.6373ZM4.52847 6.2305C4.4894 6.33652 4.43081 6.51509 4.40291 6.62112C4.37222 6.72715 4.33873 6.89735 4.32757 6.9978L4.30804 7.17916C5.53572 7.0815 5.85938 7.04244 5.89844 7.02012C5.93193 7.00059 5.97378 6.95315 5.99052 6.91409C6.00726 6.87224 6.01005 6.81085 5.9961 6.76342C5.97936 6.70483 5.81195 6.543 5.39342 6.18585C5.07534 5.90963 4.81028 5.68641 4.80469 5.68641C4.79632 5.68641 4.74889 5.76454 4.69588 5.8594C4.64286 5.95706 4.56753 6.12168 4.52847 6.2305ZM9.73494 6.72436C9.71541 6.76063 9.69867 6.81085 9.69867 6.83596C9.69867 6.86387 9.73215 6.92525 9.77679 6.96989L9.85213 7.05639C11.0268 7.15126 11.3784 7.168 11.3923 7.15684C11.4035 7.14567 11.3923 7.02012 11.3672 6.87782C11.3393 6.73552 11.2835 6.51509 11.2416 6.38396C11.1998 6.25282 11.1133 6.04634 11.0519 5.92637C10.9905 5.80639 10.9291 5.70315 10.9124 5.69757C10.8957 5.69478 10.6334 5.90963 10.3265 6.17469C10.0195 6.43976 9.75168 6.68809 9.73494 6.72436ZM5.19811 9.8382C5.18416 9.84936 5.28461 9.96096 5.42132 10.0893C5.55525 10.2177 5.7701 10.3907 5.89565 10.4744C6.024 10.5581 6.19699 10.6585 6.2807 10.7004C6.3644 10.745 6.43974 10.7729 6.44532 10.7645C6.45369 10.7562 6.53739 10.4325 6.62947 10.0447C6.72155 9.65963 6.79688 9.30806 6.79688 9.26342C6.79967 9.22157 6.77735 9.16018 6.74945 9.12391C6.72155 9.08764 6.65737 9.05416 6.60157 9.04579C6.51507 9.03184 6.43974 9.0709 5.86217 9.42525C5.50782 9.64009 5.20927 9.82704 5.19811 9.8382ZM8.9509 9.14344C8.93137 9.17692 8.91742 9.23552 8.91742 9.27737C8.91742 9.32201 8.99275 9.668 9.08483 10.053C9.1769 10.4353 9.26061 10.7562 9.26898 10.7645C9.27456 10.7729 9.34989 10.745 9.4336 10.7004C9.5173 10.6585 9.6903 10.5581 9.81585 10.4744C9.9442 10.3907 10.159 10.2177 10.293 10.0893C10.4297 9.96096 10.5301 9.84936 10.5162 9.8382C10.505 9.82704 10.2037 9.64009 9.85213 9.42525C9.50056 9.21041 9.18527 9.03463 9.15458 9.03742C9.12389 9.03742 9.07367 9.04858 9.04297 9.06253C9.00949 9.07648 8.97043 9.11275 8.9509 9.14344ZM7.899 6.55974C8.03293 6.56532 8.14175 6.59043 8.24777 6.64065C8.33148 6.67971 8.45704 6.76621 8.524 6.83317C8.59097 6.90014 8.68025 7.0257 8.71931 7.1094C8.7807 7.23775 8.79186 7.30192 8.79186 7.50003C8.79186 7.69813 8.7807 7.7623 8.71931 7.89065C8.68025 7.97436 8.59097 8.09992 8.524 8.16688C8.45704 8.23384 8.33148 8.32313 8.24777 8.36219C8.11943 8.42358 8.05525 8.43474 7.85715 8.43474C7.65905 8.43474 7.59487 8.42358 7.46652 8.36219C7.38282 8.32313 7.25726 8.23384 7.1903 8.16688C7.12333 8.09992 7.03405 7.97436 6.99498 7.89065C6.9336 7.7623 6.92244 7.69813 6.92244 7.50003C6.92244 7.30192 6.9336 7.23775 6.99498 7.1094C7.03405 7.0257 7.12333 6.90014 7.1903 6.83317C7.25726 6.76621 7.34934 6.69367 7.39677 6.66855C7.44141 6.64623 7.5307 6.60996 7.59208 6.58764C7.65626 6.56811 7.78739 6.55416 7.899 6.55974ZM7.44699 7.27681C7.41072 7.34657 7.38282 7.44701 7.38282 7.50003C7.38282 7.55304 7.41072 7.65349 7.4442 7.72045C7.48885 7.80695 7.54465 7.86275 7.63393 7.91018C7.70369 7.94646 7.80414 7.97436 7.85715 7.97436C7.91016 7.97436 8.01061 7.94646 8.07757 7.91297C8.16407 7.86833 8.21987 7.81253 8.2673 7.72324C8.30358 7.65349 8.33148 7.55304 8.33148 7.50003C8.33148 7.44701 8.30358 7.34657 8.2673 7.27681C8.21987 7.18753 8.16407 7.13172 8.07757 7.08708C8.01061 7.0536 7.91016 7.0257 7.85715 7.0257C7.80134 7.0257 7.70369 7.0536 7.63672 7.08708C7.55023 7.13172 7.49443 7.18753 7.44699 7.27681Z"/>
</mask>
<path fill-rule="evenodd" clip-rule="evenodd" d="M7.8153 0.359962C8.21429 0.357172 8.44309 0.371122 8.73605 0.412975C8.9509 0.446457 9.22155 0.4911 9.33594 0.513421C9.45034 0.538533 9.69588 0.599917 9.88003 0.655721C10.0642 0.708734 10.3516 0.80918 10.5218 0.876145C10.692 0.945899 10.9794 1.07983 11.1635 1.17748C11.3477 1.27235 11.6183 1.43139 11.7634 1.52626C11.9085 1.62391 12.1345 1.78574 12.2656 1.88619C12.3968 1.98664 12.6786 2.24612 12.8962 2.46097C13.1111 2.6786 13.3705 2.96041 13.471 3.09155C13.5714 3.22268 13.7333 3.44869 13.8309 3.59378C13.9258 3.73887 14.0848 4.00951 14.1797 4.19367C14.2773 4.37782 14.4113 4.66521 14.481 4.83541C14.548 5.00561 14.6484 5.293 14.7015 5.47715C14.7573 5.6613 14.8214 5.91242 14.8465 6.03518C14.8717 6.15795 14.9163 6.43418 14.947 6.64902C14.9805 6.90293 15 7.1959 15 7.48608C15 7.73161 14.9805 8.08876 14.9581 8.28128C14.933 8.4738 14.8828 8.7863 14.8438 8.97882C14.8047 9.17134 14.7098 9.51454 14.6345 9.74612C14.5508 9.99445 14.4001 10.3572 14.2634 10.639C14.135 10.9013 13.9342 11.2584 13.8142 11.4342C13.697 11.61 13.5073 11.8694 13.3957 12.0062C13.284 12.1429 13.0497 12.3996 12.8739 12.5698C12.7009 12.7428 12.4526 12.9688 12.3214 13.0748C12.1903 13.178 11.9475 13.3566 11.7773 13.4682C11.6071 13.5798 11.2584 13.7779 10.9961 13.9035C10.7338 14.0318 10.3516 14.1937 10.1451 14.2634C9.93862 14.3332 9.6317 14.4225 9.4615 14.4587C9.2913 14.4978 8.97601 14.5536 8.75559 14.5843C8.47378 14.6261 8.21708 14.6429 7.85715 14.6429C7.49722 14.6429 7.24052 14.6261 6.95592 14.5843C6.73829 14.5536 6.423 14.4978 6.2528 14.4587C6.0826 14.4225 5.77568 14.3332 5.5692 14.2634C5.36273 14.1937 4.97769 14.0318 4.7182 13.9035C4.45871 13.7779 4.10436 13.5798 3.93695 13.4682C3.76954 13.3566 3.524 13.178 3.39286 13.0748C3.26173 12.9688 3.0134 12.7428 2.84041 12.5698C2.66463 12.3996 2.43025 12.1429 2.31865 12.0062C2.20704 11.8694 2.01731 11.61 1.90012 11.4342C1.78014 11.2584 1.57925 10.9013 1.4509 10.639C1.31418 10.3572 1.16351 9.99445 1.07981 9.74612C1.00447 9.51454 0.909607 9.17134 0.870544 8.97882C0.831482 8.7863 0.781259 8.47938 0.756147 8.29523C0.733826 8.11108 0.714294 7.75951 0.714294 7.51398C0.714294 7.26844 0.733826 6.9113 0.756147 6.71878C0.781259 6.52626 0.831482 6.21376 0.870544 6.02123C0.909607 5.82871 1.00447 5.48273 1.07981 5.25393C1.16351 5.00561 1.31418 4.64288 1.4509 4.36108C1.57925 4.10159 1.78014 3.74166 1.90012 3.56588C2.01731 3.39009 2.20704 3.13061 2.31865 2.99389C2.43025 2.85438 2.66463 2.60047 2.84041 2.43027C3.0134 2.25728 3.26173 2.03128 3.39286 1.92525C3.524 1.82201 3.76675 1.64344 3.93695 1.53184C4.10436 1.42023 4.45871 1.22213 4.7182 1.09378C5.00559 0.95427 5.35715 0.80639 5.61106 0.722685C5.83985 0.64735 6.15514 0.558064 6.3086 0.527372C6.46206 0.49389 6.74387 0.443667 6.93639 0.415765C7.17356 0.379493 7.45536 0.362752 7.8153 0.359962ZM6.95034 0.901256C6.78014 0.926368 6.50949 0.973801 6.34208 1.01286C6.16072 1.05472 6.04353 1.09657 6.04353 1.1161C6.04353 1.13563 6.06865 1.22771 6.09934 1.31978C6.13003 1.41186 6.15514 1.50114 6.15514 1.5151C6.15514 1.52905 6.07143 1.5709 5.9682 1.60438C5.86217 1.64065 5.76173 1.66856 5.74219 1.66856C5.72545 1.66856 5.68081 1.58485 5.65012 1.47882C5.61664 1.37559 5.58315 1.28072 5.57199 1.26956C5.56362 1.2584 5.4576 1.2863 5.33762 1.33373C5.22043 1.37838 5.02512 1.46487 4.90514 1.52626C4.78795 1.58485 4.58427 1.69646 4.45313 1.77458C4.32199 1.85271 4.19644 1.92804 4.17411 1.94478C4.14063 1.96431 4.15458 2.00059 4.2634 2.15405C4.33873 2.25449 4.39733 2.34378 4.39733 2.35215C4.39733 2.36052 4.3192 2.4219 4.22155 2.49166C4.12668 2.55862 4.04019 2.61443 4.02623 2.61722C4.01507 2.61722 3.9509 2.5363 3.88115 2.43585L3.75559 2.25449C3.44309 2.51119 3.2422 2.69813 3.11106 2.83206C2.97992 2.96599 2.81251 3.15014 2.74275 3.23943L2.61162 3.39847C2.90458 3.61052 2.97155 3.67748 2.96318 3.6998C2.95481 3.71655 2.89342 3.80304 2.82646 3.88675C2.76228 3.97324 2.70369 4.043 2.69532 4.04021C2.68695 4.04021 2.60603 3.98161 2.51396 3.91465C2.42188 3.84489 2.34097 3.78909 2.3326 3.78909C2.32423 3.78909 2.26563 3.87559 2.20425 3.97882C2.14008 4.08206 2.02289 4.28574 1.94755 4.43083C1.86943 4.57592 1.76061 4.8103 1.70481 4.94701C1.649 5.08373 1.61273 5.2065 1.62668 5.21487C1.63784 5.22603 1.73271 5.25951 1.83595 5.293C1.94197 5.32369 2.02568 5.36833 2.02568 5.38786C2.02568 5.4046 1.99778 5.50505 1.9615 5.61108C1.92802 5.71431 1.88617 5.79802 1.87222 5.79802C1.85548 5.79802 1.76898 5.77291 1.67691 5.74222C1.58483 5.71152 1.49554 5.68641 1.48159 5.68641C1.46485 5.68641 1.43974 5.73384 1.42021 5.78965C1.40068 5.84824 1.36162 6.01565 1.33092 6.16074C1.30302 6.30583 1.26396 6.54579 1.24722 6.69088C1.23048 6.83596 1.21095 7.02291 1.20258 7.10382L1.18862 7.24891H1.66295V7.75114H1.18862C1.21374 8.02179 1.23885 8.23663 1.26117 8.40684C1.28349 8.57704 1.33092 8.84768 1.36999 9.01509C1.41184 9.19646 1.45369 9.31364 1.47322 9.31364C1.49275 9.31364 1.58483 9.28853 1.67691 9.25784C1.76898 9.22715 1.85548 9.20204 1.87222 9.20204C1.88617 9.20204 1.92802 9.28574 1.9615 9.38898C1.99778 9.49501 2.02568 9.59545 2.02568 9.61219C2.02568 9.63172 1.94197 9.67637 1.83595 9.70706C1.73271 9.74054 1.63784 9.77402 1.62668 9.78518C1.61552 9.79355 1.64342 9.89958 1.69086 10.0168C1.7355 10.1367 1.82199 10.3321 1.88338 10.4492C1.94197 10.5692 2.05358 10.7729 2.1317 10.904C2.20983 11.0352 2.28516 11.1607 2.30191 11.1831C2.32144 11.2165 2.35771 11.2026 2.51117 11.091C2.61162 11.0184 2.7009 10.9598 2.70927 10.9598C2.71764 10.9598 2.77903 11.038 2.84878 11.1328C2.91574 11.2305 2.97434 11.3142 2.97434 11.3226C2.97434 11.3309 2.89342 11.3951 2.79298 11.4677L2.61162 11.6016C2.86831 11.9141 3.05525 12.115 3.18918 12.2461C3.32311 12.3773 3.50726 12.5447 3.59376 12.6144L3.75559 12.7456C3.96764 12.4526 4.03461 12.3856 4.05414 12.394C4.07367 12.4024 4.16016 12.4638 4.24387 12.5279C4.33036 12.5949 4.40012 12.6535 4.39733 12.6619C4.39733 12.6702 4.33873 12.7511 4.27177 12.8432C4.20202 12.9353 4.14621 13.0162 4.14621 13.0246C4.14621 13.033 4.27456 13.1167 4.43081 13.2087C4.58985 13.3036 4.81028 13.4264 4.92188 13.4822C5.0307 13.538 5.22043 13.6217 5.33762 13.6663C5.4576 13.7138 5.56362 13.7417 5.57199 13.7305C5.58315 13.7193 5.61664 13.6245 5.65012 13.5184C5.68081 13.4152 5.72545 13.3315 5.74219 13.3315C5.76173 13.3315 5.86217 13.3594 5.9682 13.3957C6.07143 13.4292 6.15514 13.4682 6.15514 13.485C6.15514 13.5017 6.13003 13.5882 6.09934 13.6803C6.06865 13.7723 6.04353 13.8588 6.04353 13.8756C6.04353 13.8923 6.09097 13.9174 6.14677 13.937C6.20536 13.9565 6.37277 13.9956 6.51786 14.0263C6.66295 14.0542 6.90291 14.0932 7.048 14.11C7.19309 14.1267 7.38003 14.1462 7.45815 14.1546L7.60603 14.1686V13.6942H8.10826V14.1686C8.33427 14.1462 8.52121 14.1267 8.6663 14.11C8.81139 14.0932 9.05134 14.0542 9.19643 14.0263C9.34152 13.9956 9.50893 13.9565 9.56753 13.937C9.62333 13.9174 9.67076 13.8923 9.67076 13.8756C9.67076 13.8588 9.64565 13.7723 9.61496 13.6803C9.58427 13.5882 9.55916 13.5017 9.55916 13.485C9.55916 13.4682 9.64286 13.4292 9.7461 13.3957C9.85213 13.3594 9.95257 13.3315 9.96931 13.3315C9.98884 13.3315 10.0335 13.4152 10.0642 13.5184C10.0977 13.6245 10.1311 13.7193 10.1423 13.7305C10.1507 13.7417 10.2567 13.7138 10.3739 13.6663C10.4939 13.6217 10.6892 13.5352 10.8064 13.4738C10.9263 13.4152 11.13 13.3036 11.2612 13.2255C11.3923 13.1473 11.5179 13.072 11.5402 13.0553C11.5737 13.0357 11.5597 12.9995 11.4481 12.846C11.3756 12.7456 11.317 12.6563 11.317 12.6479C11.317 12.6395 11.3951 12.5782 11.49 12.5084C11.5876 12.4414 11.6741 12.3856 11.6853 12.3828C11.6992 12.3828 11.7634 12.4638 11.8332 12.5642L11.9587 12.7456C12.2712 12.4889 12.4777 12.2991 12.6144 12.154C12.7511 12.0117 12.9185 11.8276 12.9827 11.7467L13.1027 11.6016C12.8097 11.3895 12.7427 11.3226 12.7511 11.3003C12.7595 11.2835 12.8209 11.197 12.885 11.1133C12.952 11.0268 13.0078 10.9571 13.0106 10.9598C13.0162 10.9598 13.0999 11.0157 13.2003 11.0854C13.3008 11.1552 13.3873 11.2082 13.3929 11.2026C13.3984 11.1998 13.4738 11.0826 13.5575 10.9459C13.6412 10.8092 13.7612 10.5915 13.8253 10.4632C13.8867 10.3376 13.9788 10.1367 14.0234 10.0168C14.0709 9.89958 14.0988 9.79355 14.0876 9.78518C14.0765 9.77402 13.9816 9.74054 13.8756 9.70706C13.7723 9.67637 13.6886 9.63172 13.6886 9.61219C13.6886 9.59545 13.7165 9.49501 13.7528 9.38898C13.7863 9.28574 13.8253 9.20204 13.8421 9.20204C13.8588 9.20204 13.9453 9.22715 14.0374 9.25784C14.1295 9.28853 14.216 9.31364 14.2327 9.31364C14.2494 9.31364 14.2746 9.26621 14.2941 9.21041C14.3136 9.15181 14.3527 8.9844 14.3834 8.83931C14.4113 8.69422 14.4503 8.45427 14.4671 8.30918C14.4838 8.16409 14.5034 7.97715 14.5117 7.89623L14.5257 7.75114H14.0513V7.24891H14.5257C14.5034 7.02291 14.4838 6.83596 14.4671 6.69088C14.4503 6.54579 14.4113 6.30583 14.3834 6.16074C14.3527 6.01565 14.3136 5.84824 14.2941 5.78965C14.2746 5.73384 14.2494 5.68641 14.2327 5.68641C14.216 5.68641 14.1295 5.71152 14.0374 5.74222C13.9453 5.77291 13.8588 5.79802 13.8421 5.79802C13.8253 5.79802 13.7863 5.71431 13.7528 5.61108C13.7165 5.50505 13.6886 5.4046 13.6886 5.38507C13.6886 5.36833 13.7723 5.32369 13.8756 5.293C13.9816 5.25951 14.0765 5.22603 14.0876 5.21487C14.0988 5.2065 14.0709 5.10047 14.0234 4.9805C13.9788 4.86331 13.8867 4.66242 13.8253 4.53407C13.7612 4.40851 13.6412 4.19088 13.5575 4.05416C13.4738 3.91744 13.3984 3.80025 13.3929 3.79467C13.3873 3.79188 13.3036 3.84489 13.2059 3.91465C13.1111 3.98161 13.0273 4.04021 13.019 4.04021C13.0106 4.043 12.952 3.97324 12.885 3.88675C12.8209 3.80304 12.7623 3.71655 12.7539 3.69701C12.7455 3.67748 12.8153 3.60773 12.9213 3.5296L13.1027 3.39847C12.9213 3.17246 12.7288 2.96599 12.5586 2.79858C12.3912 2.62838 12.1847 2.43585 12.1038 2.37168L11.9587 2.25449C11.7467 2.54746 11.6797 2.61443 11.6574 2.60606C11.6406 2.59768 11.5541 2.5363 11.4704 2.47213C11.3839 2.40516 11.3142 2.34657 11.317 2.3382C11.317 2.32983 11.3756 2.24891 11.4425 2.15684C11.5123 2.06476 11.5681 1.98385 11.5681 1.97547C11.5681 1.9671 11.4816 1.90851 11.3784 1.84713C11.2751 1.78295 11.0714 1.66577 10.9263 1.59043C10.7813 1.51231 10.5469 1.40349 10.4102 1.34768C10.2734 1.29188 10.1507 1.25561 10.1423 1.26956C10.1311 1.28072 10.0977 1.37559 10.0642 1.47882C10.0335 1.58485 9.98884 1.66856 9.96931 1.66856C9.95257 1.66856 9.85213 1.64065 9.7461 1.60438C9.64286 1.5709 9.55916 1.52905 9.55916 1.5151C9.55916 1.50114 9.58427 1.41186 9.61496 1.31978C9.64565 1.22771 9.67076 1.13842 9.67076 1.12447C9.67076 1.10773 9.62333 1.08262 9.56753 1.06309C9.50893 1.04356 9.34152 1.00449 9.19643 0.973801C9.05134 0.945899 8.81139 0.906837 8.6663 0.890096C8.52121 0.873354 8.33427 0.853823 8.25335 0.845453L8.10826 0.831502V1.30583H7.60603C7.60603 0.895676 7.59766 0.831502 7.56976 0.837082C7.55302 0.839872 7.4721 0.845453 7.39677 0.851033C7.31864 0.856613 7.12054 0.878935 6.95034 0.901256ZM8.05246 2.27402C8.21429 2.2796 8.47099 2.30472 8.62445 2.32704C8.77791 2.34936 9.02344 2.39958 9.16853 2.43585C9.31362 2.47213 9.548 2.54467 9.68472 2.59768C9.82143 2.6507 10.053 2.75114 10.1953 2.82369C10.3348 2.89344 10.5441 3.01063 10.6529 3.08039C10.7645 3.15293 10.9515 3.28407 11.0659 3.37056C11.1803 3.45706 11.4007 3.65237 11.5513 3.80583C11.7048 3.9565 11.9001 4.17693 11.9866 4.29132C12.0731 4.40572 12.2042 4.59266 12.2768 4.70427C12.3465 4.81309 12.4637 5.02235 12.5335 5.16186C12.606 5.30416 12.7065 5.53574 12.7595 5.67246C12.8125 5.80918 12.885 6.04355 12.9213 6.18864C12.9576 6.33373 13.0078 6.57927 13.0329 6.73273C13.0636 6.91409 13.0804 7.17916 13.0804 7.50003C13.0804 7.8209 13.0636 8.08597 13.0329 8.26733C13.0078 8.42079 12.9576 8.66632 12.9213 8.81141C12.885 8.9565 12.8153 9.17692 12.7707 9.29969C12.726 9.42246 12.6423 9.62335 12.5837 9.74612C12.5251 9.86889 12.4079 10.0837 12.327 10.2205C12.2433 10.3572 12.0982 10.572 12.0034 10.6948C11.9113 10.8175 11.7076 11.0436 11.5541 11.197C11.4007 11.3505 11.1747 11.5542 11.0519 11.6462C10.9291 11.7411 10.7143 11.8862 10.5776 11.9699C10.4409 12.0508 10.226 12.168 10.1032 12.2266C9.98047 12.2852 9.77958 12.3689 9.65681 12.4135C9.53405 12.4582 9.31362 12.5279 9.16853 12.5642C9.02344 12.6005 8.77791 12.6507 8.62445 12.6758C8.44309 12.7065 8.17802 12.7232 7.85715 12.7232C7.53628 12.7232 7.27121 12.7065 7.08985 12.6758C6.93639 12.6507 6.69085 12.6005 6.54577 12.5642C6.40068 12.5279 6.18025 12.4582 6.05748 12.4135C5.93472 12.3689 5.73382 12.2852 5.61106 12.2266C5.48829 12.168 5.27344 12.0508 5.13673 11.9699C5.00001 11.8862 4.78516 11.7411 4.6624 11.6462C4.53963 11.5542 4.31362 11.3505 4.16016 11.197C4.0067 11.0436 3.80302 10.8175 3.71095 10.6948C3.61608 10.572 3.47099 10.3572 3.38728 10.2205C3.30637 10.0837 3.18918 9.86889 3.13059 9.74612C3.07199 9.62335 2.98829 9.42246 2.94365 9.29969C2.899 9.17692 2.82925 8.9565 2.79298 8.81141C2.7567 8.66632 2.70648 8.42079 2.68137 8.26733C2.65068 8.08597 2.63394 7.8209 2.63394 7.50003C2.63394 7.17916 2.65068 6.91409 2.68137 6.73273C2.70648 6.57927 2.7567 6.33373 2.79298 6.18864C2.82925 6.04355 2.899 5.82313 2.94365 5.70036C2.98829 5.57759 3.07199 5.3767 3.13059 5.25393C3.18918 5.13117 3.30637 4.91632 3.38728 4.7796C3.47099 4.64288 3.61608 4.42804 3.71095 4.30527C3.80302 4.18251 4.0067 3.9565 4.16016 3.80304C4.31362 3.64958 4.53963 3.4459 4.6624 3.35382C4.78516 3.25896 5.00001 3.11387 5.13673 3.03016C5.27344 2.94925 5.48829 2.83206 5.61106 2.77347C5.73382 2.71487 5.93472 2.63117 6.05748 2.58652C6.18025 2.54188 6.40068 2.47213 6.54577 2.43585C6.69085 2.39958 6.90012 2.35494 7.00614 2.33541C7.11217 2.31867 7.32701 2.29356 7.48047 2.28239C7.63393 2.27123 7.89063 2.26844 8.05246 2.27402ZM6.90849 2.84043C6.74666 2.87112 6.48438 2.94367 6.32255 2.99668C6.16072 3.05248 5.87333 3.17804 5.68081 3.2757C5.48829 3.37335 5.2009 3.55193 5.03907 3.6719C4.87724 3.79188 4.63449 4.00114 4.49498 4.13786C4.35827 4.27737 4.149 4.52012 4.02903 4.68195C3.90905 4.84378 3.73048 5.13117 3.63282 5.32369C3.53516 5.51621 3.40961 5.8036 3.3538 5.96543C3.30079 6.12726 3.22824 6.38954 3.19755 6.55137C3.16407 6.7132 3.1278 6.98942 3.11664 7.16521C3.10269 7.34099 3.10269 7.63675 3.11664 7.8209C3.1278 8.00505 3.16407 8.28686 3.19755 8.44869C3.22824 8.61052 3.30079 8.8728 3.3538 9.03463C3.40961 9.19646 3.53516 9.48384 3.63282 9.67637C3.73048 9.86889 3.90905 10.1563 4.02903 10.3181C4.149 10.4799 4.35827 10.7227 4.49498 10.8622C4.63449 10.9989 4.87724 11.2082 5.03907 11.3282C5.2009 11.4481 5.48829 11.6267 5.68081 11.7244C5.87333 11.822 6.16072 11.9476 6.32255 12.0034C6.48438 12.0564 6.74666 12.1289 6.90849 12.1596C7.07032 12.1931 7.34655 12.2294 7.52233 12.2405C7.69811 12.2545 7.99387 12.2545 8.17802 12.2405C8.36217 12.2294 8.64398 12.1931 8.80581 12.1596C8.96764 12.1261 9.22992 12.0564 9.39175 12.0006C9.55358 11.9448 9.79353 11.8471 9.93025 11.7802C10.0642 11.7132 10.2567 11.6044 10.3627 11.543C10.466 11.4788 10.6445 11.3533 10.7589 11.2668C10.8733 11.1803 11.0798 10.9961 11.2165 10.8594C11.3532 10.7227 11.5374 10.5162 11.6239 10.4018C11.7104 10.2874 11.8359 10.1088 11.9001 10.0056C11.9615 9.89958 12.0703 9.70706 12.1373 9.57313C12.2042 9.43641 12.3019 9.19646 12.3577 9.03463C12.4135 8.8728 12.4833 8.61052 12.5167 8.44869C12.5502 8.28686 12.5865 8.00505 12.5977 7.8209C12.6116 7.63675 12.6116 7.34099 12.5977 7.16521C12.5865 6.98942 12.5502 6.7132 12.5167 6.55137C12.4861 6.38954 12.4135 6.12726 12.3605 5.96543C12.3047 5.8036 12.1791 5.51621 12.0815 5.32369C11.9838 5.13117 11.8053 4.84378 11.6853 4.68195C11.5653 4.52012 11.356 4.27737 11.2193 4.13786C11.0798 4.00114 10.8371 3.79188 10.6752 3.6719C10.5134 3.55193 10.2372 3.37893 10.0614 3.28965C9.88561 3.19757 9.63449 3.08318 9.50335 3.03574C9.37222 2.98831 9.14063 2.91856 8.98717 2.88228C8.83371 2.84601 8.60771 2.80416 8.48494 2.78742C8.36217 2.77068 8.1557 2.75393 8.02456 2.74835C7.89342 2.74277 7.65626 2.74556 7.49443 2.75951C7.3326 2.77068 7.07032 2.80695 6.90849 2.84043ZM7.82925 3.45706C7.97434 3.45706 8.22545 3.4738 8.38728 3.49333C8.54911 3.51565 8.7807 3.5603 8.90347 3.59657C9.02623 3.63005 9.20759 3.68864 9.30804 3.72492C9.40849 3.76398 9.55358 3.82536 9.62891 3.86443C9.70704 3.90349 9.84375 3.97882 9.93583 4.03463C10.0279 4.09043 10.1981 4.20483 10.3125 4.29411C10.4269 4.38061 10.6194 4.55081 10.7366 4.67079C10.8538 4.79355 11.0128 4.97213 11.0882 5.07257C11.1607 5.17302 11.2667 5.32927 11.3225 5.42134C11.3784 5.51342 11.4537 5.65014 11.4927 5.72826C11.5318 5.8036 11.596 5.95706 11.6378 6.06309C11.6769 6.16911 11.7411 6.37838 11.7773 6.52346C11.8136 6.66855 11.8583 6.91967 11.8778 7.0815C11.8973 7.24891 11.9029 7.50561 11.8945 7.68139C11.8834 7.85159 11.8583 8.09713 11.8332 8.23384C11.8108 8.36777 11.7467 8.61052 11.6909 8.77514C11.635 8.94255 11.5402 9.17692 11.4788 9.29969C11.4146 9.42246 11.2946 9.62893 11.2082 9.75728C11.1217 9.88842 10.9766 10.0754 10.8845 10.1786C10.7924 10.279 10.6334 10.4381 10.5329 10.5302C10.4325 10.6194 10.2455 10.7645 10.1144 10.851C9.98605 10.9375 9.77958 11.0575 9.65681 11.1217C9.53405 11.1831 9.29967 11.2779 9.13226 11.3337C8.96764 11.3895 8.71652 11.4565 8.57701 11.4816C8.39844 11.5151 8.17244 11.529 7.85715 11.529C7.54186 11.529 7.31585 11.5151 7.13728 11.4816C6.99777 11.4565 6.74666 11.3895 6.58204 11.3337C6.41463 11.2779 6.18025 11.1831 6.05748 11.1217C5.93472 11.0575 5.72824 10.9375 5.5999 10.851C5.46876 10.7645 5.28182 10.6194 5.18137 10.5302C5.08092 10.4381 4.92188 10.279 4.82981 10.1786C4.73773 10.0754 4.59264 9.88842 4.50615 9.75728C4.41965 9.62893 4.29967 9.42246 4.2355 9.29969C4.17411 9.17692 4.07925 8.94255 4.02344 8.77514C3.96764 8.61052 3.90068 8.3594 3.87557 8.21989C3.84208 8.04132 3.82813 7.81532 3.82813 7.50003C3.82813 7.18474 3.84208 6.95873 3.87557 6.78016C3.90068 6.64065 3.96764 6.38954 4.02344 6.22492C4.07925 6.05751 4.17411 5.82313 4.2355 5.70036C4.29967 5.57759 4.41965 5.37112 4.50615 5.24277C4.59264 5.11164 4.73773 4.92469 4.82702 4.82425C4.91909 4.7238 5.07813 4.56476 5.17858 4.47268C5.28182 4.38061 5.46876 4.23552 5.5999 4.14902C5.72824 4.06253 5.92635 3.94534 6.03516 3.88954C6.14677 3.83373 6.31697 3.7584 6.41184 3.72213C6.50949 3.68585 6.68806 3.63005 6.81083 3.59378C6.9336 3.5603 7.15402 3.51565 7.29911 3.49612C7.4442 3.47659 7.68416 3.45985 7.82925 3.45706ZM7.26563 3.98719C7.16239 4.00393 7.0759 4.02626 7.0759 4.03463C7.0759 4.04579 7.20146 4.3555 7.35492 4.7238C7.50838 5.0921 7.65347 5.42134 7.67579 5.45483C7.69811 5.4911 7.75112 5.52737 7.79297 5.53574C7.83762 5.54411 7.899 5.54411 7.93248 5.53574C7.96876 5.52737 8.01619 5.4911 8.03851 5.45483C8.06083 5.42134 8.20592 5.0921 8.35938 4.7238C8.51284 4.3555 8.6384 4.04579 8.6384 4.03184C8.6384 4.02068 8.56027 3.99835 8.46262 3.9844C8.36775 3.96766 8.13896 3.95092 7.9548 3.94255C7.77065 3.93697 7.58371 3.93976 7.53628 3.94534C7.48885 3.95092 7.36887 3.97045 7.26563 3.98719ZM5.73661 4.6373C5.60548 4.73496 5.40179 4.91632 5.28181 5.04188C5.16463 5.16465 5.07534 5.27905 5.0865 5.29021C5.10045 5.30416 5.37668 5.54411 5.70034 5.82034C6.02679 6.09936 6.32534 6.37559 6.36161 6.43139C6.40068 6.48998 6.44532 6.59322 6.46206 6.66297C6.48159 6.73273 6.48717 6.84434 6.4788 6.91409C6.46764 6.98384 6.423 7.10661 6.37835 7.18474C6.33092 7.26565 6.24722 7.36331 6.18862 7.40237C6.13282 7.44143 6.04074 7.48329 5.98773 7.50003C5.93472 7.51677 5.5692 7.55304 5.17858 7.58373C4.78795 7.61722 4.42523 7.64791 4.37501 7.65349C4.28572 7.66744 4.28572 7.66744 4.30246 7.79858C4.31083 7.87391 4.33594 8.03295 4.35827 8.15572C4.3778 8.27849 4.42802 8.47938 4.46708 8.60215C4.50615 8.72492 4.60101 8.95092 4.67635 9.10438C4.74889 9.25784 4.8326 9.40014 4.85492 9.41688C4.89398 9.44757 5.00001 9.39177 5.53293 9.06532C5.88449 8.85326 6.21373 8.65795 6.26675 8.63005C6.31976 8.60215 6.42579 8.57425 6.50391 8.56588C6.5932 8.55751 6.69364 8.56867 6.78293 8.59936C6.85826 8.62168 6.96708 8.68027 7.0201 8.72213C7.07311 8.76677 7.15123 8.87001 7.19588 8.95371C7.25168 9.06532 7.27121 9.14344 7.27121 9.25784C7.27121 9.34713 7.19588 9.72101 7.08985 10.1646C6.99219 10.5804 6.91965 10.9264 6.93081 10.9375C6.94197 10.9487 7.05637 10.9794 7.18751 11.0073C7.35771 11.0436 7.54744 11.0575 7.85715 11.0575C8.16686 11.0575 8.35659 11.0436 8.52679 11.0073C8.65793 10.9794 8.77233 10.9487 8.78349 10.9375C8.79465 10.9264 8.7221 10.5804 8.62166 10.1646C8.51842 9.72101 8.44309 9.34713 8.44309 9.25784C8.44309 9.14344 8.46262 9.06532 8.51842 8.95371C8.56306 8.87001 8.64119 8.76677 8.6942 8.72213C8.74722 8.68027 8.84766 8.62447 8.91742 8.60215C8.98717 8.57983 9.0932 8.5603 9.15458 8.5603C9.21597 8.56309 9.31083 8.57704 9.36384 8.59657C9.41686 8.6161 9.76563 8.81699 10.1367 9.043C10.7087 9.38898 10.8203 9.44757 10.8594 9.41688C10.8845 9.40014 10.971 9.24668 11.0519 9.07648C11.1356 8.90628 11.2333 8.66353 11.2695 8.53239C11.3086 8.40125 11.3505 8.20873 11.3672 8.09992C11.3839 7.9911 11.4035 7.85159 11.4118 7.78463C11.4286 7.67023 11.4258 7.66744 11.3365 7.65349C11.2891 7.64791 10.9152 7.61442 10.5078 7.58373C10.0335 7.54467 9.73215 7.5084 9.67076 7.4805C9.61775 7.45817 9.53963 7.41632 9.49498 7.38563C9.45313 7.35773 9.38338 7.26565 9.33594 7.18474C9.2913 7.10661 9.24666 6.98384 9.2355 6.91409C9.22713 6.84434 9.23271 6.73273 9.25224 6.66297C9.26898 6.59322 9.31362 6.48998 9.35268 6.43139C9.38896 6.37559 9.68751 6.09936 10.0112 5.82034C10.3376 5.54411 10.6138 5.30416 10.625 5.29021C10.639 5.27905 10.5497 5.16465 10.4297 5.04188C10.3125 4.91632 10.1088 4.73496 9.97768 4.6373C9.84655 4.53965 9.61496 4.39735 9.4615 4.31922C9.30804 4.2411 9.16295 4.17972 9.14063 4.17972C9.11273 4.17972 9.00391 4.40851 8.8086 4.88563C8.64677 5.27068 8.49889 5.61945 8.47378 5.65851C8.45146 5.69757 8.40123 5.76454 8.36217 5.80639C8.32311 5.85103 8.2394 5.91242 8.17802 5.9459C8.09152 5.99333 8.01619 6.00728 7.85715 6.00728C7.69811 6.00728 7.62277 5.99333 7.53628 5.9459C7.47489 5.91242 7.39119 5.85103 7.34934 5.80639C7.30748 5.76454 7.23773 5.65293 7.19309 5.56085C7.14844 5.46878 7.00056 5.12001 6.86385 4.78797C6.69922 4.38061 6.60157 4.17972 6.57367 4.17972C6.55135 4.17972 6.40626 4.2411 6.2528 4.31922C6.09934 4.39735 5.86775 4.53965 5.73661 4.6373ZM4.52847 6.2305C4.4894 6.33652 4.43081 6.51509 4.40291 6.62112C4.37222 6.72715 4.33873 6.89735 4.32757 6.9978L4.30804 7.17916C5.53572 7.0815 5.85938 7.04244 5.89844 7.02012C5.93193 7.00059 5.97378 6.95315 5.99052 6.91409C6.00726 6.87224 6.01005 6.81085 5.9961 6.76342C5.97936 6.70483 5.81195 6.543 5.39342 6.18585C5.07534 5.90963 4.81028 5.68641 4.80469 5.68641C4.79632 5.68641 4.74889 5.76454 4.69588 5.8594C4.64286 5.95706 4.56753 6.12168 4.52847 6.2305ZM9.73494 6.72436C9.71541 6.76063 9.69867 6.81085 9.69867 6.83596C9.69867 6.86387 9.73215 6.92525 9.77679 6.96989L9.85213 7.05639C11.0268 7.15126 11.3784 7.168 11.3923 7.15684C11.4035 7.14567 11.3923 7.02012 11.3672 6.87782C11.3393 6.73552 11.2835 6.51509 11.2416 6.38396C11.1998 6.25282 11.1133 6.04634 11.0519 5.92637C10.9905 5.80639 10.9291 5.70315 10.9124 5.69757C10.8957 5.69478 10.6334 5.90963 10.3265 6.17469C10.0195 6.43976 9.75168 6.68809 9.73494 6.72436ZM5.19811 9.8382C5.18416 9.84936 5.28461 9.96096 5.42132 10.0893C5.55525 10.2177 5.7701 10.3907 5.89565 10.4744C6.024 10.5581 6.19699 10.6585 6.2807 10.7004C6.3644 10.745 6.43974 10.7729 6.44532 10.7645C6.45369 10.7562 6.53739 10.4325 6.62947 10.0447C6.72155 9.65963 6.79688 9.30806 6.79688 9.26342C6.79967 9.22157 6.77735 9.16018 6.74945 9.12391C6.72155 9.08764 6.65737 9.05416 6.60157 9.04579C6.51507 9.03184 6.43974 9.0709 5.86217 9.42525C5.50782 9.64009 5.20927 9.82704 5.19811 9.8382ZM8.9509 9.14344C8.93137 9.17692 8.91742 9.23552 8.91742 9.27737C8.91742 9.32201 8.99275 9.668 9.08483 10.053C9.1769 10.4353 9.26061 10.7562 9.26898 10.7645C9.27456 10.7729 9.34989 10.745 9.4336 10.7004C9.5173 10.6585 9.6903 10.5581 9.81585 10.4744C9.9442 10.3907 10.159 10.2177 10.293 10.0893C10.4297 9.96096 10.5301 9.84936 10.5162 9.8382C10.505 9.82704 10.2037 9.64009 9.85213 9.42525C9.50056 9.21041 9.18527 9.03463 9.15458 9.03742C9.12389 9.03742 9.07367 9.04858 9.04297 9.06253C9.00949 9.07648 8.97043 9.11275 8.9509 9.14344ZM7.899 6.55974C8.03293 6.56532 8.14175 6.59043 8.24777 6.64065C8.33148 6.67971 8.45704 6.76621 8.524 6.83317C8.59097 6.90014 8.68025 7.0257 8.71931 7.1094C8.7807 7.23775 8.79186 7.30192 8.79186 7.50003C8.79186 7.69813 8.7807 7.7623 8.71931 7.89065C8.68025 7.97436 8.59097 8.09992 8.524 8.16688C8.45704 8.23384 8.33148 8.32313 8.24777 8.36219C8.11943 8.42358 8.05525 8.43474 7.85715 8.43474C7.65905 8.43474 7.59487 8.42358 7.46652 8.36219C7.38282 8.32313 7.25726 8.23384 7.1903 8.16688C7.12333 8.09992 7.03405 7.97436 6.99498 7.89065C6.9336 7.7623 6.92244 7.69813 6.92244 7.50003C6.92244 7.30192 6.9336 7.23775 6.99498 7.1094C7.03405 7.0257 7.12333 6.90014 7.1903 6.83317C7.25726 6.76621 7.34934 6.69367 7.39677 6.66855C7.44141 6.64623 7.5307 6.60996 7.59208 6.58764C7.65626 6.56811 7.78739 6.55416 7.899 6.55974ZM7.44699 7.27681C7.41072 7.34657 7.38282 7.44701 7.38282 7.50003C7.38282 7.55304 7.41072 7.65349 7.4442 7.72045C7.48885 7.80695 7.54465 7.86275 7.63393 7.91018C7.70369 7.94646 7.80414 7.97436 7.85715 7.97436C7.91016 7.97436 8.01061 7.94646 8.07757 7.91297C8.16407 7.86833 8.21987 7.81253 8.2673 7.72324C8.30358 7.65349 8.33148 7.55304 8.33148 7.50003C8.33148 7.44701 8.30358 7.34657 8.2673 7.27681C8.21987 7.18753 8.16407 7.13172 8.07757 7.08708C8.01061 7.0536 7.91016 7.0257 7.85715 7.0257C7.80134 7.0257 7.70369 7.0536 7.63672 7.08708C7.55023 7.13172 7.49443 7.18753 7.44699 7.27681Z" fill="#6D6C6C"/>
<path fill-rule="evenodd" clip-rule="evenodd" d="M7.8153 0.359962C8.21429 0.357172 8.44309 0.371122 8.73605 0.412975C8.9509 0.446457 9.22155 0.4911 9.33594 0.513421C9.45034 0.538533 9.69588 0.599917 9.88003 0.655721C10.0642 0.708734 10.3516 0.80918 10.5218 0.876145C10.692 0.945899 10.9794 1.07983 11.1635 1.17748C11.3477 1.27235 11.6183 1.43139 11.7634 1.52626C11.9085 1.62391 12.1345 1.78574 12.2656 1.88619C12.3968 1.98664 12.6786 2.24612 12.8962 2.46097C13.1111 2.6786 13.3705 2.96041 13.471 3.09155C13.5714 3.22268 13.7333 3.44869 13.8309 3.59378C13.9258 3.73887 14.0848 4.00951 14.1797 4.19367C14.2773 4.37782 14.4113 4.66521 14.481 4.83541C14.548 5.00561 14.6484 5.293 14.7015 5.47715C14.7573 5.6613 14.8214 5.91242 14.8465 6.03518C14.8717 6.15795 14.9163 6.43418 14.947 6.64902C14.9805 6.90293 15 7.1959 15 7.48608C15 7.73161 14.9805 8.08876 14.9581 8.28128C14.933 8.4738 14.8828 8.7863 14.8438 8.97882C14.8047 9.17134 14.7098 9.51454 14.6345 9.74612C14.5508 9.99445 14.4001 10.3572 14.2634 10.639C14.135 10.9013 13.9342 11.2584 13.8142 11.4342C13.697 11.61 13.5073 11.8694 13.3957 12.0062C13.284 12.1429 13.0497 12.3996 12.8739 12.5698C12.7009 12.7428 12.4526 12.9688 12.3214 13.0748C12.1903 13.178 11.9475 13.3566 11.7773 13.4682C11.6071 13.5798 11.2584 13.7779 10.9961 13.9035C10.7338 14.0318 10.3516 14.1937 10.1451 14.2634C9.93862 14.3332 9.6317 14.4225 9.4615 14.4587C9.2913 14.4978 8.97601 14.5536 8.75559 14.5843C8.47378 14.6261 8.21708 14.6429 7.85715 14.6429C7.49722 14.6429 7.24052 14.6261 6.95592 14.5843C6.73829 14.5536 6.423 14.4978 6.2528 14.4587C6.0826 14.4225 5.77568 14.3332 5.5692 14.2634C5.36273 14.1937 4.97769 14.0318 4.7182 13.9035C4.45871 13.7779 4.10436 13.5798 3.93695 13.4682C3.76954 13.3566 3.524 13.178 3.39286 13.0748C3.26173 12.9688 3.0134 12.7428 2.84041 12.5698C2.66463 12.3996 2.43025 12.1429 2.31865 12.0062C2.20704 11.8694 2.01731 11.61 1.90012 11.4342C1.78014 11.2584 1.57925 10.9013 1.4509 10.639C1.31418 10.3572 1.16351 9.99445 1.07981 9.74612C1.00447 9.51454 0.909607 9.17134 0.870544 8.97882C0.831482 8.7863 0.781259 8.47938 0.756147 8.29523C0.733826 8.11108 0.714294 7.75951 0.714294 7.51398C0.714294 7.26844 0.733826 6.9113 0.756147 6.71878C0.781259 6.52626 0.831482 6.21376 0.870544 6.02123C0.909607 5.82871 1.00447 5.48273 1.07981 5.25393C1.16351 5.00561 1.31418 4.64288 1.4509 4.36108C1.57925 4.10159 1.78014 3.74166 1.90012 3.56588C2.01731 3.39009 2.20704 3.13061 2.31865 2.99389C2.43025 2.85438 2.66463 2.60047 2.84041 2.43027C3.0134 2.25728 3.26173 2.03128 3.39286 1.92525C3.524 1.82201 3.76675 1.64344 3.93695 1.53184C4.10436 1.42023 4.45871 1.22213 4.7182 1.09378C5.00559 0.95427 5.35715 0.80639 5.61106 0.722685C5.83985 0.64735 6.15514 0.558064 6.3086 0.527372C6.46206 0.49389 6.74387 0.443667 6.93639 0.415765C7.17356 0.379493 7.45536 0.362752 7.8153 0.359962ZM6.95034 0.901256C6.78014 0.926368 6.50949 0.973801 6.34208 1.01286C6.16072 1.05472 6.04353 1.09657 6.04353 1.1161C6.04353 1.13563 6.06865 1.22771 6.09934 1.31978C6.13003 1.41186 6.15514 1.50114 6.15514 1.5151C6.15514 1.52905 6.07143 1.5709 5.9682 1.60438C5.86217 1.64065 5.76173 1.66856 5.74219 1.66856C5.72545 1.66856 5.68081 1.58485 5.65012 1.47882C5.61664 1.37559 5.58315 1.28072 5.57199 1.26956C5.56362 1.2584 5.4576 1.2863 5.33762 1.33373C5.22043 1.37838 5.02512 1.46487 4.90514 1.52626C4.78795 1.58485 4.58427 1.69646 4.45313 1.77458C4.32199 1.85271 4.19644 1.92804 4.17411 1.94478C4.14063 1.96431 4.15458 2.00059 4.2634 2.15405C4.33873 2.25449 4.39733 2.34378 4.39733 2.35215C4.39733 2.36052 4.3192 2.4219 4.22155 2.49166C4.12668 2.55862 4.04019 2.61443 4.02623 2.61722C4.01507 2.61722 3.9509 2.5363 3.88115 2.43585L3.75559 2.25449C3.44309 2.51119 3.2422 2.69813 3.11106 2.83206C2.97992 2.96599 2.81251 3.15014 2.74275 3.23943L2.61162 3.39847C2.90458 3.61052 2.97155 3.67748 2.96318 3.6998C2.95481 3.71655 2.89342 3.80304 2.82646 3.88675C2.76228 3.97324 2.70369 4.043 2.69532 4.04021C2.68695 4.04021 2.60603 3.98161 2.51396 3.91465C2.42188 3.84489 2.34097 3.78909 2.3326 3.78909C2.32423 3.78909 2.26563 3.87559 2.20425 3.97882C2.14008 4.08206 2.02289 4.28574 1.94755 4.43083C1.86943 4.57592 1.76061 4.8103 1.70481 4.94701C1.649 5.08373 1.61273 5.2065 1.62668 5.21487C1.63784 5.22603 1.73271 5.25951 1.83595 5.293C1.94197 5.32369 2.02568 5.36833 2.02568 5.38786C2.02568 5.4046 1.99778 5.50505 1.9615 5.61108C1.92802 5.71431 1.88617 5.79802 1.87222 5.79802C1.85548 5.79802 1.76898 5.77291 1.67691 5.74222C1.58483 5.71152 1.49554 5.68641 1.48159 5.68641C1.46485 5.68641 1.43974 5.73384 1.42021 5.78965C1.40068 5.84824 1.36162 6.01565 1.33092 6.16074C1.30302 6.30583 1.26396 6.54579 1.24722 6.69088C1.23048 6.83596 1.21095 7.02291 1.20258 7.10382L1.18862 7.24891H1.66295V7.75114H1.18862C1.21374 8.02179 1.23885 8.23663 1.26117 8.40684C1.28349 8.57704 1.33092 8.84768 1.36999 9.01509C1.41184 9.19646 1.45369 9.31364 1.47322 9.31364C1.49275 9.31364 1.58483 9.28853 1.67691 9.25784C1.76898 9.22715 1.85548 9.20204 1.87222 9.20204C1.88617 9.20204 1.92802 9.28574 1.9615 9.38898C1.99778 9.49501 2.02568 9.59545 2.02568 9.61219C2.02568 9.63172 1.94197 9.67637 1.83595 9.70706C1.73271 9.74054 1.63784 9.77402 1.62668 9.78518C1.61552 9.79355 1.64342 9.89958 1.69086 10.0168C1.7355 10.1367 1.82199 10.3321 1.88338 10.4492C1.94197 10.5692 2.05358 10.7729 2.1317 10.904C2.20983 11.0352 2.28516 11.1607 2.30191 11.1831C2.32144 11.2165 2.35771 11.2026 2.51117 11.091C2.61162 11.0184 2.7009 10.9598 2.70927 10.9598C2.71764 10.9598 2.77903 11.038 2.84878 11.1328C2.91574 11.2305 2.97434 11.3142 2.97434 11.3226C2.97434 11.3309 2.89342 11.3951 2.79298 11.4677L2.61162 11.6016C2.86831 11.9141 3.05525 12.115 3.18918 12.2461C3.32311 12.3773 3.50726 12.5447 3.59376 12.6144L3.75559 12.7456C3.96764 12.4526 4.03461 12.3856 4.05414 12.394C4.07367 12.4024 4.16016 12.4638 4.24387 12.5279C4.33036 12.5949 4.40012 12.6535 4.39733 12.6619C4.39733 12.6702 4.33873 12.7511 4.27177 12.8432C4.20202 12.9353 4.14621 13.0162 4.14621 13.0246C4.14621 13.033 4.27456 13.1167 4.43081 13.2087C4.58985 13.3036 4.81028 13.4264 4.92188 13.4822C5.0307 13.538 5.22043 13.6217 5.33762 13.6663C5.4576 13.7138 5.56362 13.7417 5.57199 13.7305C5.58315 13.7193 5.61664 13.6245 5.65012 13.5184C5.68081 13.4152 5.72545 13.3315 5.74219 13.3315C5.76173 13.3315 5.86217 13.3594 5.9682 13.3957C6.07143 13.4292 6.15514 13.4682 6.15514 13.485C6.15514 13.5017 6.13003 13.5882 6.09934 13.6803C6.06865 13.7723 6.04353 13.8588 6.04353 13.8756C6.04353 13.8923 6.09097 13.9174 6.14677 13.937C6.20536 13.9565 6.37277 13.9956 6.51786 14.0263C6.66295 14.0542 6.90291 14.0932 7.048 14.11C7.19309 14.1267 7.38003 14.1462 7.45815 14.1546L7.60603 14.1686V13.6942H8.10826V14.1686C8.33427 14.1462 8.52121 14.1267 8.6663 14.11C8.81139 14.0932 9.05134 14.0542 9.19643 14.0263C9.34152 13.9956 9.50893 13.9565 9.56753 13.937C9.62333 13.9174 9.67076 13.8923 9.67076 13.8756C9.67076 13.8588 9.64565 13.7723 9.61496 13.6803C9.58427 13.5882 9.55916 13.5017 9.55916 13.485C9.55916 13.4682 9.64286 13.4292 9.7461 13.3957C9.85213 13.3594 9.95257 13.3315 9.96931 13.3315C9.98884 13.3315 10.0335 13.4152 10.0642 13.5184C10.0977 13.6245 10.1311 13.7193 10.1423 13.7305C10.1507 13.7417 10.2567 13.7138 10.3739 13.6663C10.4939 13.6217 10.6892 13.5352 10.8064 13.4738C10.9263 13.4152 11.13 13.3036 11.2612 13.2255C11.3923 13.1473 11.5179 13.072 11.5402 13.0553C11.5737 13.0357 11.5597 12.9995 11.4481 12.846C11.3756 12.7456 11.317 12.6563 11.317 12.6479C11.317 12.6395 11.3951 12.5782 11.49 12.5084C11.5876 12.4414 11.6741 12.3856 11.6853 12.3828C11.6992 12.3828 11.7634 12.4638 11.8332 12.5642L11.9587 12.7456C12.2712 12.4889 12.4777 12.2991 12.6144 12.154C12.7511 12.0117 12.9185 11.8276 12.9827 11.7467L13.1027 11.6016C12.8097 11.3895 12.7427 11.3226 12.7511 11.3003C12.7595 11.2835 12.8209 11.197 12.885 11.1133C12.952 11.0268 13.0078 10.9571 13.0106 10.9598C13.0162 10.9598 13.0999 11.0157 13.2003 11.0854C13.3008 11.1552 13.3873 11.2082 13.3929 11.2026C13.3984 11.1998 13.4738 11.0826 13.5575 10.9459C13.6412 10.8092 13.7612 10.5915 13.8253 10.4632C13.8867 10.3376 13.9788 10.1367 14.0234 10.0168C14.0709 9.89958 14.0988 9.79355 14.0876 9.78518C14.0765 9.77402 13.9816 9.74054 13.8756 9.70706C13.7723 9.67637 13.6886 9.63172 13.6886 9.61219C13.6886 9.59545 13.7165 9.49501 13.7528 9.38898C13.7863 9.28574 13.8253 9.20204 13.8421 9.20204C13.8588 9.20204 13.9453 9.22715 14.0374 9.25784C14.1295 9.28853 14.216 9.31364 14.2327 9.31364C14.2494 9.31364 14.2746 9.26621 14.2941 9.21041C14.3136 9.15181 14.3527 8.9844 14.3834 8.83931C14.4113 8.69422 14.4503 8.45427 14.4671 8.30918C14.4838 8.16409 14.5034 7.97715 14.5117 7.89623L14.5257 7.75114H14.0513V7.24891H14.5257C14.5034 7.02291 14.4838 6.83596 14.4671 6.69088C14.4503 6.54579 14.4113 6.30583 14.3834 6.16074C14.3527 6.01565 14.3136 5.84824 14.2941 5.78965C14.2746 5.73384 14.2494 5.68641 14.2327 5.68641C14.216 5.68641 14.1295 5.71152 14.0374 5.74222C13.9453 5.77291 13.8588 5.79802 13.8421 5.79802C13.8253 5.79802 13.7863 5.71431 13.7528 5.61108C13.7165 5.50505 13.6886 5.4046 13.6886 5.38507C13.6886 5.36833 13.7723 5.32369 13.8756 5.293C13.9816 5.25951 14.0765 5.22603 14.0876 5.21487C14.0988 5.2065 14.0709 5.10047 14.0234 4.9805C13.9788 4.86331 13.8867 4.66242 13.8253 4.53407C13.7612 4.40851 13.6412 4.19088 13.5575 4.05416C13.4738 3.91744 13.3984 3.80025 13.3929 3.79467C13.3873 3.79188 13.3036 3.84489 13.2059 3.91465C13.1111 3.98161 13.0273 4.04021 13.019 4.04021C13.0106 4.043 12.952 3.97324 12.885 3.88675C12.8209 3.80304 12.7623 3.71655 12.7539 3.69701C12.7455 3.67748 12.8153 3.60773 12.9213 3.5296L13.1027 3.39847C12.9213 3.17246 12.7288 2.96599 12.5586 2.79858C12.3912 2.62838 12.1847 2.43585 12.1038 2.37168L11.9587 2.25449C11.7467 2.54746 11.6797 2.61443 11.6574 2.60606C11.6406 2.59768 11.5541 2.5363 11.4704 2.47213C11.3839 2.40516 11.3142 2.34657 11.317 2.3382C11.317 2.32983 11.3756 2.24891 11.4425 2.15684C11.5123 2.06476 11.5681 1.98385 11.5681 1.97547C11.5681 1.9671 11.4816 1.90851 11.3784 1.84713C11.2751 1.78295 11.0714 1.66577 10.9263 1.59043C10.7813 1.51231 10.5469 1.40349 10.4102 1.34768C10.2734 1.29188 10.1507 1.25561 10.1423 1.26956C10.1311 1.28072 10.0977 1.37559 10.0642 1.47882C10.0335 1.58485 9.98884 1.66856 9.96931 1.66856C9.95257 1.66856 9.85213 1.64065 9.7461 1.60438C9.64286 1.5709 9.55916 1.52905 9.55916 1.5151C9.55916 1.50114 9.58427 1.41186 9.61496 1.31978C9.64565 1.22771 9.67076 1.13842 9.67076 1.12447C9.67076 1.10773 9.62333 1.08262 9.56753 1.06309C9.50893 1.04356 9.34152 1.00449 9.19643 0.973801C9.05134 0.945899 8.81139 0.906837 8.6663 0.890096C8.52121 0.873354 8.33427 0.853823 8.25335 0.845453L8.10826 0.831502V1.30583H7.60603C7.60603 0.895676 7.59766 0.831502 7.56976 0.837082C7.55302 0.839872 7.4721 0.845453 7.39677 0.851033C7.31864 0.856613 7.12054 0.878935 6.95034 0.901256ZM8.05246 2.27402C8.21429 2.2796 8.47099 2.30472 8.62445 2.32704C8.77791 2.34936 9.02344 2.39958 9.16853 2.43585C9.31362 2.47213 9.548 2.54467 9.68472 2.59768C9.82143 2.6507 10.053 2.75114 10.1953 2.82369C10.3348 2.89344 10.5441 3.01063 10.6529 3.08039C10.7645 3.15293 10.9515 3.28407 11.0659 3.37056C11.1803 3.45706 11.4007 3.65237 11.5513 3.80583C11.7048 3.9565 11.9001 4.17693 11.9866 4.29132C12.0731 4.40572 12.2042 4.59266 12.2768 4.70427C12.3465 4.81309 12.4637 5.02235 12.5335 5.16186C12.606 5.30416 12.7065 5.53574 12.7595 5.67246C12.8125 5.80918 12.885 6.04355 12.9213 6.18864C12.9576 6.33373 13.0078 6.57927 13.0329 6.73273C13.0636 6.91409 13.0804 7.17916 13.0804 7.50003C13.0804 7.8209 13.0636 8.08597 13.0329 8.26733C13.0078 8.42079 12.9576 8.66632 12.9213 8.81141C12.885 8.9565 12.8153 9.17692 12.7707 9.29969C12.726 9.42246 12.6423 9.62335 12.5837 9.74612C12.5251 9.86889 12.4079 10.0837 12.327 10.2205C12.2433 10.3572 12.0982 10.572 12.0034 10.6948C11.9113 10.8175 11.7076 11.0436 11.5541 11.197C11.4007 11.3505 11.1747 11.5542 11.0519 11.6462C10.9291 11.7411 10.7143 11.8862 10.5776 11.9699C10.4409 12.0508 10.226 12.168 10.1032 12.2266C9.98047 12.2852 9.77958 12.3689 9.65681 12.4135C9.53405 12.4582 9.31362 12.5279 9.16853 12.5642C9.02344 12.6005 8.77791 12.6507 8.62445 12.6758C8.44309 12.7065 8.17802 12.7232 7.85715 12.7232C7.53628 12.7232 7.27121 12.7065 7.08985 12.6758C6.93639 12.6507 6.69085 12.6005 6.54577 12.5642C6.40068 12.5279 6.18025 12.4582 6.05748 12.4135C5.93472 12.3689 5.73382 12.2852 5.61106 12.2266C5.48829 12.168 5.27344 12.0508 5.13673 11.9699C5.00001 11.8862 4.78516 11.7411 4.6624 11.6462C4.53963 11.5542 4.31362 11.3505 4.16016 11.197C4.0067 11.0436 3.80302 10.8175 3.71095 10.6948C3.61608 10.572 3.47099 10.3572 3.38728 10.2205C3.30637 10.0837 3.18918 9.86889 3.13059 9.74612C3.07199 9.62335 2.98829 9.42246 2.94365 9.29969C2.899 9.17692 2.82925 8.9565 2.79298 8.81141C2.7567 8.66632 2.70648 8.42079 2.68137 8.26733C2.65068 8.08597 2.63394 7.8209 2.63394 7.50003C2.63394 7.17916 2.65068 6.91409 2.68137 6.73273C2.70648 6.57927 2.7567 6.33373 2.79298 6.18864C2.82925 6.04355 2.899 5.82313 2.94365 5.70036C2.98829 5.57759 3.07199 5.3767 3.13059 5.25393C3.18918 5.13117 3.30637 4.91632 3.38728 4.7796C3.47099 4.64288 3.61608 4.42804 3.71095 4.30527C3.80302 4.18251 4.0067 3.9565 4.16016 3.80304C4.31362 3.64958 4.53963 3.4459 4.6624 3.35382C4.78516 3.25896 5.00001 3.11387 5.13673 3.03016C5.27344 2.94925 5.48829 2.83206 5.61106 2.77347C5.73382 2.71487 5.93472 2.63117 6.05748 2.58652C6.18025 2.54188 6.40068 2.47213 6.54577 2.43585C6.69085 2.39958 6.90012 2.35494 7.00614 2.33541C7.11217 2.31867 7.32701 2.29356 7.48047 2.28239C7.63393 2.27123 7.89063 2.26844 8.05246 2.27402ZM6.90849 2.84043C6.74666 2.87112 6.48438 2.94367 6.32255 2.99668C6.16072 3.05248 5.87333 3.17804 5.68081 3.2757C5.48829 3.37335 5.2009 3.55193 5.03907 3.6719C4.87724 3.79188 4.63449 4.00114 4.49498 4.13786C4.35827 4.27737 4.149 4.52012 4.02903 4.68195C3.90905 4.84378 3.73048 5.13117 3.63282 5.32369C3.53516 5.51621 3.40961 5.8036 3.3538 5.96543C3.30079 6.12726 3.22824 6.38954 3.19755 6.55137C3.16407 6.7132 3.1278 6.98942 3.11664 7.16521C3.10269 7.34099 3.10269 7.63675 3.11664 7.8209C3.1278 8.00505 3.16407 8.28686 3.19755 8.44869C3.22824 8.61052 3.30079 8.8728 3.3538 9.03463C3.40961 9.19646 3.53516 9.48384 3.63282 9.67637C3.73048 9.86889 3.90905 10.1563 4.02903 10.3181C4.149 10.4799 4.35827 10.7227 4.49498 10.8622C4.63449 10.9989 4.87724 11.2082 5.03907 11.3282C5.2009 11.4481 5.48829 11.6267 5.68081 11.7244C5.87333 11.822 6.16072 11.9476 6.32255 12.0034C6.48438 12.0564 6.74666 12.1289 6.90849 12.1596C7.07032 12.1931 7.34655 12.2294 7.52233 12.2405C7.69811 12.2545 7.99387 12.2545 8.17802 12.2405C8.36217 12.2294 8.64398 12.1931 8.80581 12.1596C8.96764 12.1261 9.22992 12.0564 9.39175 12.0006C9.55358 11.9448 9.79353 11.8471 9.93025 11.7802C10.0642 11.7132 10.2567 11.6044 10.3627 11.543C10.466 11.4788 10.6445 11.3533 10.7589 11.2668C10.8733 11.1803 11.0798 10.9961 11.2165 10.8594C11.3532 10.7227 11.5374 10.5162 11.6239 10.4018C11.7104 10.2874 11.8359 10.1088 11.9001 10.0056C11.9615 9.89958 12.0703 9.70706 12.1373 9.57313C12.2042 9.43641 12.3019 9.19646 12.3577 9.03463C12.4135 8.8728 12.4833 8.61052 12.5167 8.44869C12.5502 8.28686 12.5865 8.00505 12.5977 7.8209C12.6116 7.63675 12.6116 7.34099 12.5977 7.16521C12.5865 6.98942 12.5502 6.7132 12.5167 6.55137C12.4861 6.38954 12.4135 6.12726 12.3605 5.96543C12.3047 5.8036 12.1791 5.51621 12.0815 5.32369C11.9838 5.13117 11.8053 4.84378 11.6853 4.68195C11.5653 4.52012 11.356 4.27737 11.2193 4.13786C11.0798 4.00114 10.8371 3.79188 10.6752 3.6719C10.5134 3.55193 10.2372 3.37893 10.0614 3.28965C9.88561 3.19757 9.63449 3.08318 9.50335 3.03574C9.37222 2.98831 9.14063 2.91856 8.98717 2.88228C8.83371 2.84601 8.60771 2.80416 8.48494 2.78742C8.36217 2.77068 8.1557 2.75393 8.02456 2.74835C7.89342 2.74277 7.65626 2.74556 7.49443 2.75951C7.3326 2.77068 7.07032 2.80695 6.90849 2.84043ZM7.82925 3.45706C7.97434 3.45706 8.22545 3.4738 8.38728 3.49333C8.54911 3.51565 8.7807 3.5603 8.90347 3.59657C9.02623 3.63005 9.20759 3.68864 9.30804 3.72492C9.40849 3.76398 9.55358 3.82536 9.62891 3.86443C9.70704 3.90349 9.84375 3.97882 9.93583 4.03463C10.0279 4.09043 10.1981 4.20483 10.3125 4.29411C10.4269 4.38061 10.6194 4.55081 10.7366 4.67079C10.8538 4.79355 11.0128 4.97213 11.0882 5.07257C11.1607 5.17302 11.2667 5.32927 11.3225 5.42134C11.3784 5.51342 11.4537 5.65014 11.4927 5.72826C11.5318 5.8036 11.596 5.95706 11.6378 6.06309C11.6769 6.16911 11.7411 6.37838 11.7773 6.52346C11.8136 6.66855 11.8583 6.91967 11.8778 7.0815C11.8973 7.24891 11.9029 7.50561 11.8945 7.68139C11.8834 7.85159 11.8583 8.09713 11.8332 8.23384C11.8108 8.36777 11.7467 8.61052 11.6909 8.77514C11.635 8.94255 11.5402 9.17692 11.4788 9.29969C11.4146 9.42246 11.2946 9.62893 11.2082 9.75728C11.1217 9.88842 10.9766 10.0754 10.8845 10.1786C10.7924 10.279 10.6334 10.4381 10.5329 10.5302C10.4325 10.6194 10.2455 10.7645 10.1144 10.851C9.98605 10.9375 9.77958 11.0575 9.65681 11.1217C9.53405 11.1831 9.29967 11.2779 9.13226 11.3337C8.96764 11.3895 8.71652 11.4565 8.57701 11.4816C8.39844 11.5151 8.17244 11.529 7.85715 11.529C7.54186 11.529 7.31585 11.5151 7.13728 11.4816C6.99777 11.4565 6.74666 11.3895 6.58204 11.3337C6.41463 11.2779 6.18025 11.1831 6.05748 11.1217C5.93472 11.0575 5.72824 10.9375 5.5999 10.851C5.46876 10.7645 5.28182 10.6194 5.18137 10.5302C5.08092 10.4381 4.92188 10.279 4.82981 10.1786C4.73773 10.0754 4.59264 9.88842 4.50615 9.75728C4.41965 9.62893 4.29967 9.42246 4.2355 9.29969C4.17411 9.17692 4.07925 8.94255 4.02344 8.77514C3.96764 8.61052 3.90068 8.3594 3.87557 8.21989C3.84208 8.04132 3.82813 7.81532 3.82813 7.50003C3.82813 7.18474 3.84208 6.95873 3.87557 6.78016C3.90068 6.64065 3.96764 6.38954 4.02344 6.22492C4.07925 6.05751 4.17411 5.82313 4.2355 5.70036C4.29967 5.57759 4.41965 5.37112 4.50615 5.24277C4.59264 5.11164 4.73773 4.92469 4.82702 4.82425C4.91909 4.7238 5.07813 4.56476 5.17858 4.47268C5.28182 4.38061 5.46876 4.23552 5.5999 4.14902C5.72824 4.06253 5.92635 3.94534 6.03516 3.88954C6.14677 3.83373 6.31697 3.7584 6.41184 3.72213C6.50949 3.68585 6.68806 3.63005 6.81083 3.59378C6.9336 3.5603 7.15402 3.51565 7.29911 3.49612C7.4442 3.47659 7.68416 3.45985 7.82925 3.45706ZM7.26563 3.98719C7.16239 4.00393 7.0759 4.02626 7.0759 4.03463C7.0759 4.04579 7.20146 4.3555 7.35492 4.7238C7.50838 5.0921 7.65347 5.42134 7.67579 5.45483C7.69811 5.4911 7.75112 5.52737 7.79297 5.53574C7.83762 5.54411 7.899 5.54411 7.93248 5.53574C7.96876 5.52737 8.01619 5.4911 8.03851 5.45483C8.06083 5.42134 8.20592 5.0921 8.35938 4.7238C8.51284 4.3555 8.6384 4.04579 8.6384 4.03184C8.6384 4.02068 8.56027 3.99835 8.46262 3.9844C8.36775 3.96766 8.13896 3.95092 7.9548 3.94255C7.77065 3.93697 7.58371 3.93976 7.53628 3.94534C7.48885 3.95092 7.36887 3.97045 7.26563 3.98719ZM5.73661 4.6373C5.60548 4.73496 5.40179 4.91632 5.28181 5.04188C5.16463 5.16465 5.07534 5.27905 5.0865 5.29021C5.10045 5.30416 5.37668 5.54411 5.70034 5.82034C6.02679 6.09936 6.32534 6.37559 6.36161 6.43139C6.40068 6.48998 6.44532 6.59322 6.46206 6.66297C6.48159 6.73273 6.48717 6.84434 6.4788 6.91409C6.46764 6.98384 6.423 7.10661 6.37835 7.18474C6.33092 7.26565 6.24722 7.36331 6.18862 7.40237C6.13282 7.44143 6.04074 7.48329 5.98773 7.50003C5.93472 7.51677 5.5692 7.55304 5.17858 7.58373C4.78795 7.61722 4.42523 7.64791 4.37501 7.65349C4.28572 7.66744 4.28572 7.66744 4.30246 7.79858C4.31083 7.87391 4.33594 8.03295 4.35827 8.15572C4.3778 8.27849 4.42802 8.47938 4.46708 8.60215C4.50615 8.72492 4.60101 8.95092 4.67635 9.10438C4.74889 9.25784 4.8326 9.40014 4.85492 9.41688C4.89398 9.44757 5.00001 9.39177 5.53293 9.06532C5.88449 8.85326 6.21373 8.65795 6.26675 8.63005C6.31976 8.60215 6.42579 8.57425 6.50391 8.56588C6.5932 8.55751 6.69364 8.56867 6.78293 8.59936C6.85826 8.62168 6.96708 8.68027 7.0201 8.72213C7.07311 8.76677 7.15123 8.87001 7.19588 8.95371C7.25168 9.06532 7.27121 9.14344 7.27121 9.25784C7.27121 9.34713 7.19588 9.72101 7.08985 10.1646C6.99219 10.5804 6.91965 10.9264 6.93081 10.9375C6.94197 10.9487 7.05637 10.9794 7.18751 11.0073C7.35771 11.0436 7.54744 11.0575 7.85715 11.0575C8.16686 11.0575 8.35659 11.0436 8.52679 11.0073C8.65793 10.9794 8.77233 10.9487 8.78349 10.9375C8.79465 10.9264 8.7221 10.5804 8.62166 10.1646C8.51842 9.72101 8.44309 9.34713 8.44309 9.25784C8.44309 9.14344 8.46262 9.06532 8.51842 8.95371C8.56306 8.87001 8.64119 8.76677 8.6942 8.72213C8.74722 8.68027 8.84766 8.62447 8.91742 8.60215C8.98717 8.57983 9.0932 8.5603 9.15458 8.5603C9.21597 8.56309 9.31083 8.57704 9.36384 8.59657C9.41686 8.6161 9.76563 8.81699 10.1367 9.043C10.7087 9.38898 10.8203 9.44757 10.8594 9.41688C10.8845 9.40014 10.971 9.24668 11.0519 9.07648C11.1356 8.90628 11.2333 8.66353 11.2695 8.53239C11.3086 8.40125 11.3505 8.20873 11.3672 8.09992C11.3839 7.9911 11.4035 7.85159 11.4118 7.78463C11.4286 7.67023 11.4258 7.66744 11.3365 7.65349C11.2891 7.64791 10.9152 7.61442 10.5078 7.58373C10.0335 7.54467 9.73215 7.5084 9.67076 7.4805C9.61775 7.45817 9.53963 7.41632 9.49498 7.38563C9.45313 7.35773 9.38338 7.26565 9.33594 7.18474C9.2913 7.10661 9.24666 6.98384 9.2355 6.91409C9.22713 6.84434 9.23271 6.73273 9.25224 6.66297C9.26898 6.59322 9.31362 6.48998 9.35268 6.43139C9.38896 6.37559 9.68751 6.09936 10.0112 5.82034C10.3376 5.54411 10.6138 5.30416 10.625 5.29021C10.639 5.27905 10.5497 5.16465 10.4297 5.04188C10.3125 4.91632 10.1088 4.73496 9.97768 4.6373C9.84655 4.53965 9.61496 4.39735 9.4615 4.31922C9.30804 4.2411 9.16295 4.17972 9.14063 4.17972C9.11273 4.17972 9.00391 4.40851 8.8086 4.88563C8.64677 5.27068 8.49889 5.61945 8.47378 5.65851C8.45146 5.69757 8.40123 5.76454 8.36217 5.80639C8.32311 5.85103 8.2394 5.91242 8.17802 5.9459C8.09152 5.99333 8.01619 6.00728 7.85715 6.00728C7.69811 6.00728 7.62277 5.99333 7.53628 5.9459C7.47489 5.91242 7.39119 5.85103 7.34934 5.80639C7.30748 5.76454 7.23773 5.65293 7.19309 5.56085C7.14844 5.46878 7.00056 5.12001 6.86385 4.78797C6.69922 4.38061 6.60157 4.17972 6.57367 4.17972C6.55135 4.17972 6.40626 4.2411 6.2528 4.31922C6.09934 4.39735 5.86775 4.53965 5.73661 4.6373ZM4.52847 6.2305C4.4894 6.33652 4.43081 6.51509 4.40291 6.62112C4.37222 6.72715 4.33873 6.89735 4.32757 6.9978L4.30804 7.17916C5.53572 7.0815 5.85938 7.04244 5.89844 7.02012C5.93193 7.00059 5.97378 6.95315 5.99052 6.91409C6.00726 6.87224 6.01005 6.81085 5.9961 6.76342C5.97936 6.70483 5.81195 6.543 5.39342 6.18585C5.07534 5.90963 4.81028 5.68641 4.80469 5.68641C4.79632 5.68641 4.74889 5.76454 4.69588 5.8594C4.64286 5.95706 4.56753 6.12168 4.52847 6.2305ZM9.73494 6.72436C9.71541 6.76063 9.69867 6.81085 9.69867 6.83596C9.69867 6.86387 9.73215 6.92525 9.77679 6.96989L9.85213 7.05639C11.0268 7.15126 11.3784 7.168 11.3923 7.15684C11.4035 7.14567 11.3923 7.02012 11.3672 6.87782C11.3393 6.73552 11.2835 6.51509 11.2416 6.38396C11.1998 6.25282 11.1133 6.04634 11.0519 5.92637C10.9905 5.80639 10.9291 5.70315 10.9124 5.69757C10.8957 5.69478 10.6334 5.90963 10.3265 6.17469C10.0195 6.43976 9.75168 6.68809 9.73494 6.72436ZM5.19811 9.8382C5.18416 9.84936 5.28461 9.96096 5.42132 10.0893C5.55525 10.2177 5.7701 10.3907 5.89565 10.4744C6.024 10.5581 6.19699 10.6585 6.2807 10.7004C6.3644 10.745 6.43974 10.7729 6.44532 10.7645C6.45369 10.7562 6.53739 10.4325 6.62947 10.0447C6.72155 9.65963 6.79688 9.30806 6.79688 9.26342C6.79967 9.22157 6.77735 9.16018 6.74945 9.12391C6.72155 9.08764 6.65737 9.05416 6.60157 9.04579C6.51507 9.03184 6.43974 9.0709 5.86217 9.42525C5.50782 9.64009 5.20927 9.82704 5.19811 9.8382ZM8.9509 9.14344C8.93137 9.17692 8.91742 9.23552 8.91742 9.27737C8.91742 9.32201 8.99275 9.668 9.08483 10.053C9.1769 10.4353 9.26061 10.7562 9.26898 10.7645C9.27456 10.7729 9.34989 10.745 9.4336 10.7004C9.5173 10.6585 9.6903 10.5581 9.81585 10.4744C9.9442 10.3907 10.159 10.2177 10.293 10.0893C10.4297 9.96096 10.5301 9.84936 10.5162 9.8382C10.505 9.82704 10.2037 9.64009 9.85213 9.42525C9.50056 9.21041 9.18527 9.03463 9.15458 9.03742C9.12389 9.03742 9.07367 9.04858 9.04297 9.06253C9.00949 9.07648 8.97043 9.11275 8.9509 9.14344ZM7.899 6.55974C8.03293 6.56532 8.14175 6.59043 8.24777 6.64065C8.33148 6.67971 8.45704 6.76621 8.524 6.83317C8.59097 6.90014 8.68025 7.0257 8.71931 7.1094C8.7807 7.23775 8.79186 7.30192 8.79186 7.50003C8.79186 7.69813 8.7807 7.7623 8.71931 7.89065C8.68025 7.97436 8.59097 8.09992 8.524 8.16688C8.45704 8.23384 8.33148 8.32313 8.24777 8.36219C8.11943 8.42358 8.05525 8.43474 7.85715 8.43474C7.65905 8.43474 7.59487 8.42358 7.46652 8.36219C7.38282 8.32313 7.25726 8.23384 7.1903 8.16688C7.12333 8.09992 7.03405 7.97436 6.99498 7.89065C6.9336 7.7623 6.92244 7.69813 6.92244 7.50003C6.92244 7.30192 6.9336 7.23775 6.99498 7.1094C7.03405 7.0257 7.12333 6.90014 7.1903 6.83317C7.25726 6.76621 7.34934 6.69367 7.39677 6.66855C7.44141 6.64623 7.5307 6.60996 7.59208 6.58764C7.65626 6.56811 7.78739 6.55416 7.899 6.55974ZM7.44699 7.27681C7.41072 7.34657 7.38282 7.44701 7.38282 7.50003C7.38282 7.55304 7.41072 7.65349 7.4442 7.72045C7.48885 7.80695 7.54465 7.86275 7.63393 7.91018C7.70369 7.94646 7.80414 7.97436 7.85715 7.97436C7.91016 7.97436 8.01061 7.94646 8.07757 7.91297C8.16407 7.86833 8.21987 7.81253 8.2673 7.72324C8.30358 7.65349 8.33148 7.55304 8.33148 7.50003C8.33148 7.44701 8.30358 7.34657 8.2673 7.27681C8.21987 7.18753 8.16407 7.13172 8.07757 7.08708C8.01061 7.0536 7.91016 7.0257 7.85715 7.0257C7.80134 7.0257 7.70369 7.0536 7.63672 7.08708C7.55023 7.13172 7.49443 7.18753 7.44699 7.27681Z" stroke="#6D6C6C" stroke-width="0.2" mask="url(#path-1-outside-1_57_806)"/>
<path d="M0.537518 17.3232C0.439887 17.4209 0.439887 17.5791 0.537518 17.6768L2.12851 19.2678C2.22614 19.3654 2.38443 19.3654 2.48206 19.2678C2.57969 19.1701 2.57969 19.0118 2.48206 18.9142L1.06785 17.5L2.48206 16.0858C2.57969 15.9882 2.57969 15.8299 2.48206 15.7322C2.38443 15.6346 2.22614 15.6346 2.12851 15.7322L0.537518 17.3232ZM15.1768 17.6768C15.2744 17.5791 15.2744 17.4209 15.1768 17.3232L13.5858 15.7322C13.4882 15.6346 13.3299 15.6346 13.2322 15.7322C13.1346 15.8299 13.1346 15.9882 13.2322 16.0858L14.6465 17.5L13.2322 18.9142C13.1346 19.0118 13.1346 19.1701 13.2322 19.2678C13.3299 19.3654 13.4882 19.3654 13.5858 19.2678L15.1768 17.6768ZM0.714294 17.75H15V17.25H0.714294V17.75Z" fill="#6D6C6C"/>
</g>
<defs>
<clipPath id="clip0_57_806">
<rect width="15.7143" height="20" fill="white"/>
</clipPath>
</defs>
</svg>
