<svg width="25" height="15" viewBox="0 0 25 15" fill="none" xmlns="http://www.w3.org/2000/svg">
<path d="M12.6509 15C16.2675 15 14.978 12.802 15.2571 12.17C15.253 11.698 15.2488 11.244 15.2655 10.968C15.4946 11.03 16.0352 11.293 17.1519 12.335C18.8758 14.005 19.3165 15 20.7091 15H23.2727C24.0852 15 24.5081 14.677 24.7195 14.406C24.9237 14.144 25.1237 13.684 24.9049 12.968C24.3331 11.244 20.9977 8.267 20.7904 7.953C20.8216 7.895 20.8716 7.818 20.8977 7.778H20.8956C21.5539 6.943 24.0664 3.329 24.4362 1.883C24.4372 1.881 24.4383 1.878 24.4383 1.875C24.6383 1.215 24.4549 0.787 24.2654 0.545C23.9799 0.183 23.5258 0 22.9123 0H20.3487C19.4904 0 18.8394 0.415 18.5102 1.172C17.9592 2.517 16.4113 5.283 15.2509 6.262C15.2155 4.875 15.2394 3.816 15.2582 3.029C15.2957 1.494 15.4165 0 13.7571 0H9.72802C8.68845 0 7.69367 1.09 8.77074 2.384C9.71239 3.518 9.10928 4.15 9.3124 7.296C8.52074 6.481 7.11242 4.28 6.1166 1.467C5.83744 0.706 5.41452 0.000999928 4.22391 0.000999928H1.6604C0.620827 0.000999928 0 0.545 0 1.456C0 3.502 4.71766 15 12.6509 15V15ZM4.22391 1.501C4.44995 1.501 4.47287 1.501 4.64057 1.958C5.66035 4.841 7.94783 9.107 9.61865 9.107C10.8738 9.107 10.8738 7.872 10.8738 7.407L10.8728 3.705C10.804 2.48 10.3395 1.87 10.0343 1.5L13.6884 1.504C13.6905 1.521 13.6676 5.599 13.6988 6.587C13.6988 7.99 14.8592 8.794 16.6707 7.034C18.5821 4.963 19.9039 1.867 19.9571 1.741C20.0352 1.561 20.1029 1.5 20.3487 1.5H22.9123H22.9227C22.9216 1.503 22.9216 1.506 22.9206 1.509C22.6862 2.559 20.3727 5.905 19.5987 6.944C19.5862 6.96 19.5748 6.977 19.5633 6.994C19.2227 7.528 18.9456 8.118 19.6102 8.948H19.6112C19.6717 9.018 19.829 9.182 20.0581 9.41C20.7706 10.116 23.2143 12.53 23.431 13.49C23.2872 13.512 23.131 13.496 20.7091 13.501C20.1935 13.501 19.7904 12.761 18.2519 11.271C16.8686 9.979 15.9707 9.451 15.153 9.451C13.5655 9.451 13.6811 10.688 13.6957 12.184C13.7009 13.806 13.6905 13.293 13.7019 13.395C13.6092 13.43 13.3436 13.5 12.6509 13.5C6.0416 13.5 1.73748 3.429 1.57186 1.504C1.62915 1.499 2.41768 1.502 4.22391 1.501V1.501Z" fill="#E22427"/>
</svg>
