<svg width="30" height="30" viewBox="0 0 30 30" fill="none" xmlns="http://www.w3.org/2000/svg">
<path d="M3.375 1.02953C3.775 0.80437 4.75 0.504158 5.5 0.329034C6.4 0.128893 9.55 0.00380425 14.75 0.00380425C19.525 -0.0212134 23.225 0.0788573 24.125 0.253981C24.95 0.404087 25.95 0.704299 26.375 0.904441C26.8 1.10458 27.45 1.57992 27.825 1.95518C28.225 2.30543 28.75 3.00593 29 3.48126C29.25 3.9566 29.575 5.03236 29.725 5.85794C29.9 6.73356 30 10.4862 30 14.9894C30 19.4926 29.9 23.2452 29.725 24.1208C29.575 24.9464 29.25 26.0222 29 26.4975C28.75 26.9729 28.225 27.6734 27.825 28.0236C27.45 28.3989 26.8 28.8742 26.375 29.0743C25.95 29.2745 24.95 29.5747 24.125 29.7248C23.25 29.8999 19.5 30 15 30C10.5 30 6.75 29.8999 5.875 29.7248C5.05 29.5747 4.025 29.2745 3.625 29.0743C3.2 28.8742 2.55 28.3989 2.175 28.0236C1.775 27.6734 1.25 26.9729 1 26.4975C0.75 26.0222 0.425 24.9464 0.275 24.1208C0.1 23.2452 0 19.4926 0 14.9894C0 10.4862 0.1 6.73356 0.275 5.85794C0.425 5.03236 0.725 4.00663 0.925 3.60635C1.125 3.20607 1.6 2.53059 1.975 2.15532C2.325 1.75504 2.95 1.25469 3.375 1.02953Z" fill="#0077FF"/>
<path d="M19.075 12.5126C19.475 12.1624 20.125 11.2117 20.525 10.4362L21.25 8.98514H22.75C24 8.98514 24.25 9.06019 24.25 9.43546C24.25 9.66062 23.925 10.5362 23.525 11.3618C23.075 12.2875 22.275 13.3382 20.05 15.3646L21.2 16.1152C21.825 16.5405 22.6 17.1909 22.95 17.6162C23.275 18.0415 23.825 18.8171 24.125 19.3675C24.45 19.9179 24.775 20.6184 24.85 20.9436C25 21.469 24.95 21.494 21.5 21.494L20.75 20.118C20.175 19.0673 19.7 18.5669 18.7 17.9915C17.975 17.5912 17.125 17.241 16.825 17.241C16.275 17.241 16.25 17.316 16.25 21.494H15C14.325 21.494 13.05 21.2688 12.2 20.9686C11.325 20.6934 10.075 20.043 9.4 19.5426C8.725 19.0172 7.85 18.1666 7.475 17.6162C7.1 17.0658 6.55 16.0651 6.25 15.3646C5.975 14.6892 5.55 13.1631 5.35 11.9873C5.15 10.8114 5 9.71065 5 9.56054C5 9.33539 5.5 9.23531 8.375 9.23531L8.55 10.5362C8.65 11.2617 8.9 12.4376 9.1 13.1131C9.3 13.8135 9.825 14.8643 10.225 15.4897C10.65 16.1152 11.425 16.8657 11.925 17.1659C12.45 17.4911 12.95 17.7413 13.075 17.7413C13.175 17.7413 13.25 15.815 13.25 9.23531H16.25V11.612C16.25 13.7135 16.3 13.9887 16.7 13.9887C16.925 13.9887 17.4 13.8135 17.75 13.5884C18.1 13.3382 18.7 12.8629 19.075 12.5126Z" fill="white"/>
</svg>
