<?xml version="1.0" encoding="utf-8"?>
<svg version="1.1" xmlns="http://www.w3.org/2000/svg" viewBox="0 0 159.3 94.6">
<path fill="#536193" d="M155.7,6.4c1.1-3.7,0-6.4-5.3-6.4H133c-4.4,0-6.5,2.3-7.6,4.9c0,0-8.8,21.6-21.4,35.7c-4.1,4.1-5.9,5.4-8.1,5.4
	c-1.1,0-2.8-1.3-2.8-5V6.5C93.1,2,91.9,0,88.2,0H60.8c-2.8,0-4.4,2.1-4.4,4c0,4.2,6.3,5.2,6.9,17v25.7c0,5.6-1,6.6-3.3,6.6
	c-5.9,0-20.3-21.7-28.8-46.6C29.5,2,27.9,0,23.4,0H6C1,0,0,2.3,0,4.9c0,4.6,5.9,27.5,27.5,57.8c14.4,20.7,34.7,31.9,53.2,31.9
	c11.1,0,12.4-2.5,12.4-6.8V72.2c0-5,1.1-6,4.5-6c2.6,0,7,1.3,17.4,11.3c11.8,11.8,13.8,17.1,20.4,17.1h17.4c5,0,7.5-2.5,6-7.4
	c-1.6-4.9-7.2-12-14.7-20.4c-4.1-4.8-10.1-10-12-12.6c-2.6-3.3-1.9-4.8,0-7.7C132.2,46.5,153.4,16.5,155.7,6.4L155.7,6.4z"/>
</svg>
