<svg width="35" height="35" viewBox="0 0 35 35" fill="none" xmlns="http://www.w3.org/2000/svg">
<g clip-path="url(#clip0)">
<path d="M26.61 2.55419C23.3176 0.54408 19.3817 -0.323264 15.5269 0.111638C13.6 0.32909 11.7382 0.859148 9.99372 1.68712C8.18869 2.54386 6.55066 3.70105 5.1251 5.12655C2.27882 7.97283 0.489853 11.742 0.0876269 15.7396C-0.308994 19.6813 0.649473 23.6744 2.78645 26.9836C2.91723 27.1861 3.137 27.2964 3.36136 27.2964C3.48837 27.2964 3.61688 27.261 3.73152 27.1869C4.04871 26.9821 4.13977 26.559 3.93496 26.2418C-0.155664 19.9074 0.751396 11.4337 6.0919 6.09336C11.3797 0.805281 19.524 -0.170207 25.8975 3.72108C26.2198 3.91782 26.6405 3.81617 26.8373 3.49386C27.034 3.17161 26.9323 2.75093 26.61 2.55419Z" fill="#E22427"/>
<path d="M6.11424 28.9295L6.09189 28.9072C5.82488 28.6403 5.39209 28.6403 5.12501 28.9072C4.85807 29.1741 4.85807 29.607 5.12501 29.8741L5.1514 29.9004C5.2847 30.0326 5.45874 30.0986 5.63279 30.0986C5.80861 30.0986 5.98456 30.0311 6.11821 29.8963C6.38412 29.6282 6.38228 29.1954 6.11424 28.9295Z" fill="#E22427"/>
<path d="M32.2298 8.04238C32.0255 7.72478 31.6023 7.63305 31.285 7.8373C30.9675 8.04156 30.8757 8.46457 31.0799 8.7821C35.1526 15.1125 34.2392 23.5765 28.9082 28.9076C23.5041 34.3117 14.9648 35.176 8.60371 30.9625C8.28899 30.7538 7.86468 30.84 7.65625 31.1548C7.44776 31.4695 7.53389 31.8938 7.84862 32.1023C10.7055 33.9946 14.0839 34.9998 17.5113 34.9996C18.0617 34.9996 18.6139 34.9736 19.1649 34.9213C23.2002 34.5379 27.0038 32.7455 29.875 29.8744C32.7175 27.0318 34.506 23.2678 34.9109 19.2756C35.3102 15.3398 34.358 11.3504 32.2298 8.04238Z" fill="#E22427"/>
<path d="M29.9128 5.16172L29.8751 5.12398C29.6081 4.85711 29.1754 4.85711 28.9082 5.12398C28.6413 5.39093 28.6413 5.82378 28.9082 6.09086L28.9432 6.12593C29.0769 6.26025 29.2523 6.32745 29.428 6.32745C29.6023 6.32745 29.7767 6.26114 29.91 6.12859C30.1778 5.86233 30.179 5.42941 29.9128 5.16172Z" fill="#E22427"/>
<path d="M17.5001 3.69141C9.88571 3.69141 3.69092 9.8862 3.69092 17.5006C3.69092 25.115 9.88571 31.3098 17.5001 31.3098C25.1145 31.3098 31.3093 25.115 31.3093 17.5006C31.3093 9.8862 25.1145 3.69141 17.5001 3.69141ZM29.6101 14.6418H24.4018L28.0812 10.9625C28.7764 12.0835 29.2987 13.3224 29.6101 14.6418ZM20.3588 5.39055C21.6784 5.70199 22.9173 6.22433 24.0382 6.91947L20.3588 10.5988V5.39055ZM14.6413 5.39055V10.5988L10.962 6.91947C12.0831 6.22433 13.3219 5.70206 14.6413 5.39055ZM6.91905 10.9625L10.5984 14.6418H5.39013C5.70157 13.3224 6.22391 12.0835 6.91905 10.9625ZM5.39013 20.3593H10.5984L6.91905 24.0387C6.22391 22.9177 5.70157 21.6789 5.39013 20.3593ZM14.6413 29.6106C13.3218 29.2992 12.0829 28.7768 10.962 28.0817L14.6413 24.4023V29.6106ZM20.3588 29.6106V24.4023L24.0382 28.0817C22.9173 28.7769 21.6784 29.2992 20.3588 29.6106ZM28.0812 24.0388L24.4018 20.3594H29.6101C29.2987 21.6789 28.7764 22.9177 28.0812 24.0388ZM22.7514 18.9919C22.4748 18.9919 22.2256 19.1585 22.1198 19.4139C22.014 19.6694 22.0725 19.9634 22.268 20.1589L27.2856 25.1765C26.669 25.9607 25.9605 26.6692 25.1763 27.2857L20.1588 22.2681C19.9633 22.0727 19.6693 22.0142 19.4138 22.1199C19.1584 22.2258 18.9918 22.475 18.9918 22.7515V29.8525C18.5026 29.9113 18.005 29.9423 17.5003 29.9423C16.9956 29.9423 16.498 29.9113 16.0089 29.8525V22.7518C16.0089 22.4753 15.8423 22.2261 15.5869 22.1203C15.3315 22.0146 15.0374 22.073 14.8419 22.2685L9.82433 27.2861C9.04018 26.6696 8.33156 25.961 7.7151 25.1768L12.7327 20.1592C12.9281 19.9637 12.9866 19.6697 12.8809 19.4143C12.7751 19.1589 12.5258 18.9923 12.2493 18.9923H5.14786C5.08914 18.5031 5.05811 18.0055 5.05811 17.5008C5.05811 16.9961 5.08914 16.4985 5.14786 16.0094H12.2489C12.5254 16.0094 12.7746 15.8428 12.8805 15.5874C12.9862 15.3319 12.9277 15.0379 12.7323 14.8424L7.71469 9.82481C8.33122 9.04066 9.03977 8.33205 9.82392 7.71559L14.8416 12.733C14.9723 12.8637 15.1472 12.9332 15.3251 12.9332C15.4131 12.9332 15.502 12.9162 15.5865 12.8812C15.8419 12.7753 16.0085 12.5261 16.0085 12.2496V5.14835C16.4977 5.08963 16.9953 5.05859 17.5 5.05859C18.0047 5.05859 18.5023 5.08963 18.9915 5.14835V12.2494C18.9915 12.5259 19.158 12.7751 19.4134 12.881C19.498 12.916 19.5869 12.933 19.6749 12.933C19.8529 12.933 20.0276 12.8635 20.1584 12.7328L25.176 7.71518C25.9604 8.33164 26.6689 9.04025 27.2854 9.8244L22.2678 14.842C22.0723 15.0375 22.0138 15.3315 22.1196 15.587C22.2254 15.8424 22.4746 16.0089 22.7512 16.0089H29.8522C29.9109 16.4981 29.9419 16.9957 29.9419 17.5004C29.9419 18.0051 29.9109 18.5028 29.8522 18.9919H22.7514V18.9919Z" fill="#E22427"/>
<path d="M17.5001 15.4492C16.3692 15.4492 15.4492 16.3693 15.4492 17.5001C15.4492 18.6309 16.3693 19.5509 17.5001 19.5509C18.6309 19.5509 19.5509 18.6309 19.5509 17.5001C19.551 16.3693 18.6309 15.4492 17.5001 15.4492ZM17.5001 18.1837C17.1231 18.1837 16.8165 17.8771 16.8165 17.5001C16.8165 17.1231 17.1231 16.8165 17.5001 16.8165C17.877 16.8165 18.1837 17.1231 18.1837 17.5001C18.1837 17.8771 17.8771 18.1837 17.5001 18.1837Z" fill="#E22427"/>
<path d="M22.0882 17.0135C21.8228 16.7451 21.3899 16.7426 21.1215 17.008L21.1156 17.0138C20.8471 17.2792 20.8446 17.7121 21.1101 17.9806C21.2438 18.1159 21.4199 18.1836 21.5962 18.1836C21.7698 18.1836 21.9436 18.1179 22.0767 17.9861L22.0826 17.9803C22.3513 17.7149 22.3537 17.282 22.0882 17.0135Z" fill="#E22427"/>
<path d="M17.992 21.121L17.9862 21.1151C17.7208 20.8466 17.2879 20.8442 17.0194 21.1096C16.7509 21.375 16.7484 21.8078 17.0139 22.0764L17.0197 22.0822C17.1534 22.2175 17.3296 22.2853 17.5058 22.2853C17.6794 22.2853 17.8532 22.2195 17.9864 22.0878C18.255 21.8223 18.2574 21.3894 17.992 21.121Z" fill="#E22427"/>
<path d="M13.8905 17.0194C13.6252 16.7509 13.1923 16.7485 12.9237 17.0138L12.9179 17.0196C12.6493 17.2851 12.6469 17.7179 12.9123 17.9864C13.046 18.1217 13.2222 18.1895 13.3984 18.1895C13.5721 18.1895 13.7458 18.1237 13.879 17.992L13.8849 17.9862C14.1535 17.7207 14.156 17.2878 13.8905 17.0194Z" fill="#E22427"/>
<path d="M17.9862 12.9237L17.9804 12.9178C17.715 12.6494 17.2821 12.6469 17.0136 12.9123C16.745 13.1777 16.7426 13.6106 17.008 13.8791L17.0139 13.885C17.1476 14.0202 17.3238 14.088 17.5 14.088C17.6736 14.088 17.8474 14.0222 17.9806 13.8905C18.2492 13.6251 18.2516 13.1922 17.9862 12.9237Z" fill="#E22427"/>
<path d="M20.4042 19.7129H20.396C20.0185 19.7129 19.7124 20.019 19.7124 20.3965C19.7124 20.774 20.0185 21.0801 20.396 21.0801H20.4042C20.7817 21.0801 21.0878 20.774 21.0878 20.3965C21.0879 20.019 20.7818 19.7129 20.4042 19.7129Z" fill="#E22427"/>
<path d="M14.6035 19.7129C14.226 19.7129 13.9199 20.019 13.9199 20.3965V20.4047C13.9199 20.7822 14.226 21.0883 14.6035 21.0883C14.981 21.0883 15.2871 20.7822 15.2871 20.4047V20.3965C15.2871 20.0189 14.981 19.7129 14.6035 19.7129Z" fill="#E22427"/>
<path d="M14.6039 13.9199H14.5957C14.2182 13.9199 13.9121 14.226 13.9121 14.6035C13.9121 14.981 14.2182 15.2871 14.5957 15.2871H14.6039C14.9814 15.2871 15.2875 14.981 15.2875 14.6035C15.2875 14.226 14.9814 13.9199 14.6039 13.9199Z" fill="#E22427"/>
<path d="M20.396 13.9121C20.0185 13.9121 19.7124 14.2182 19.7124 14.5957V14.6039C19.7124 14.9815 20.0185 15.2875 20.396 15.2875C20.7735 15.2875 21.0796 14.9814 21.0796 14.6039V14.5957C21.0797 14.2182 20.7735 13.9121 20.396 13.9121Z" fill="#E22427"/>
</g>
<defs>
<clipPath id="clip0">
<rect width="35" height="35" fill="white"/>
</clipPath>
</defs>
</svg>
