<?xml version="1.0" encoding="UTF-8"?>
<!DOCTYPE svg PUBLIC "-//W3C//DTD SVG 1.1//EN" "http://www.w3.org/Graphics/SVG/1.1/DTD/svg11.dtd">
<!-- Creator: CorelDRAW 2021 (64-Bit) -->
<svg xmlns="http://www.w3.org/2000/svg" xml:space="preserve" width="84.4649mm" height="16.7709mm" version="1.1" style="shape-rendering:geometricPrecision; text-rendering:geometricPrecision; image-rendering:optimizeQuality; fill-rule:evenodd; clip-rule:evenodd"
viewBox="0 0 6673.28 1325.01"
 xmlns:xlink="http://www.w3.org/1999/xlink"
 xmlns:xodm="http://www.corel.com/coreldraw/odm/2003">
 <defs>
  <style type="text/css">
   <![CDATA[
    .fil0 {fill:#4D4D4D}
    .fil1 {fill:#E22427}
    .fil3 {fill:#EDEDED}
    .fil2 {fill:#FEFEFE}
    .fil5 {fill:#4D4D4D;fill-rule:nonzero}
    .fil6 {fill:#E22427;fill-rule:nonzero}
    .fil4 {fill:url(#id0)}
   ]]>
  </style>
  <linearGradient id="id0" gradientUnits="userSpaceOnUse" x1="3633" y1="726.48" x2="3633" y2="251.7">
   <stop offset="0" style="stop-opacity:1; stop-color:#DEDEDE"/>
   <stop offset="0.368627" style="stop-opacity:1; stop-color:white"/>
   <stop offset="0.501961" style="stop-opacity:1; stop-color:white"/>
   <stop offset="0.65098" style="stop-opacity:1; stop-color:white"/>
   <stop offset="1" style="stop-opacity:1; stop-color:#F0F0F0"/>
  </linearGradient>
 </defs>
 <g id="Слой_x0020_1">
  <metadata id="CorelCorpID_0Corel-Layer"/>
  <g id="_2473437116208">
   <path class="fil0" d="M4515.13 -0.01l0.02 0c4.45,0 8.08,3.64 8.08,8.09l0 1308.86c0,4.42 -3.63,8.07 -8.08,8.07l-0.02 0c-4.45,0 -8.09,-3.64 -8.09,-8.07l0 -1308.86c0,-4.45 3.64,-8.09 8.09,-8.09z"/>
   <g>
    <g>
     <polygon class="fil1" points="4215.01,123.8 -0,123.8 -0,881.7 3094.22,881.7 4215.01,881.7 "/>
     <path class="fil2" d="M3023.84 502.73c0,183.49 -42.75,332.25 -95.49,332.27l0 0 -2786.18 0c-52.73,0 -95.47,-148.76 -95.47,-332.27 0,-183.5 42.74,-332.26 95.47,-332.26l2786.18 0 0 0c52.74,0.02 95.49,148.77 95.49,332.26l0 0z"/>
     <path class="fil0" d="M329.5 331.26l81.58 0 128.59 342.07 -85.26 0 -22.15 -64.07 -124 0 -21.66 64.07 -85.3 0 128.18 -342.07zm-3.71 219.9l88.98 0 -44.27 -130.44 -44.71 130.44zm245.7 -219.9l171.97 0c30.43,0 52.94,4.95 67.51,14.75 14.62,9.84 24.7,20.6 30.2,32.3 3.68,7.98 5.92,15.57 6.71,22.8 0.76,7.21 1.14,13 1.14,17.3 0,15.68 -3.31,28.28 -9.92,37.8 -6.6,9.53 -13.89,16.88 -21.9,22.11 -4.61,3.1 -9.05,5.48 -13.35,7.16 -4.3,1.69 -8.01,2.99 -11.07,3.91l0 0.95c1.23,0.3 2.44,0.51 3.68,0.67 1.24,0.13 2.47,0.39 3.68,0.7 16.29,4.31 31.29,13.2 44.95,26.74 13.69,13.54 20.53,33.18 20.53,59.01 0,29.82 -7.77,51.32 -23.28,64.52 -15.56,13.25 -32.68,21.99 -51.43,26.29 -10.46,2.47 -20.68,3.93 -30.65,4.39 -9.97,0.45 -18.53,0.7 -25.58,0.7l-163.2 0 0 -342.07zm80.7 197.75l0 81.62 83.88 0c2.48,0 5.29,-0.24 8.53,-0.7 3.22,-0.47 6.72,-1.48 10.38,-2.99 6.13,-2.47 11.91,-6.7 17.26,-12.7 5.4,-5.96 8.09,-14.67 8.09,-26.02 0,-16.88 -5.61,-27.64 -16.82,-32.25 -11.21,-4.62 -23.46,-6.96 -36.67,-6.96 -0.3,0 -0.55,0 -0.68,0 -0.14,0 -0.38,0 -0.7,0l-73.29 0zm0 -135.05l0 72.39 74.66 0c1.56,0 3.1,-0.06 4.61,-0.24 1.55,-0.13 3.1,-0.38 4.61,-0.7 7.71,-1.23 14.69,-4.61 20.98,-10.14 6.29,-5.54 9.46,-13.69 9.46,-24.42 0,-12.94 -3.85,-22.09 -11.53,-27.45 -7.7,-5.36 -16.12,-8.36 -25.35,-8.98 -0.93,-0.32 -1.92,-0.47 -3.02,-0.47 -1.07,0 -2.2,0 -3.44,0l-70.99 0zm346.65 3.71l-103.25 0 0 -66.4 287.19 0 0 66.4 -103.25 0 0 275.67 -80.69 0 0 -275.67zm384.02 285.33c-62.7,-0.31 -107.18,-18.89 -133.45,-55.75 -26.28,-36.91 -39.42,-78.52 -39.42,-124.96 0,-3.06 0.07,-6.23 0.24,-9.46 0.13,-3.24 0.38,-6.37 0.69,-9.43 2.75,-40.59 17.06,-77.69 42.85,-111.34 25.84,-33.66 68.86,-50.49 129.09,-50.49 61.15,0 104.48,17.07 130.01,51.19 25.49,34.12 39.62,71.6 42.4,112.46 0,2.8 0.06,5.61 0.24,8.53 0.13,2.92 0.21,5.78 0.21,8.53 0,2.74 -0.07,5.6 -0.21,8.53 -0.18,2.92 -0.24,5.78 -0.24,8.52 -2.78,40.89 -16.92,78.32 -42.4,112.27 -25.53,33.95 -68.85,50.94 -130.01,50.94l0 0.44zm0 -66.37c25.51,0 44.19,-6.85 56.02,-20.52 11.84,-13.68 19.88,-28.64 24.18,-44.95 2.47,-8.91 4,-17.74 4.61,-26.51 0.62,-8.74 0.92,-16.19 0.92,-22.35 0,-6.42 -0.3,-13.83 -0.92,-22.11 -0.61,-8.3 -1.99,-16.93 -4.12,-25.84 -3.99,-16.58 -12.01,-31.78 -23.99,-45.64 -11.99,-13.82 -30.88,-20.74 -56.7,-20.74 -31.03,0 -52.49,9.92 -64.33,29.75 -11.83,19.81 -18.68,41.55 -20.49,65.2 -0.32,3.37 -0.55,6.68 -0.68,9.92 -0.18,3.23 -0.24,6.4 -0.24,9.46 0,3.98 0.06,7.92 0.24,11.76 0.13,3.85 0.54,7.73 1.13,11.76 2.16,22.74 9.2,43.57 21.22,62.46 11.96,18.87 33.01,28.35 63.15,28.35zm456.85 -64.09l80.21 0c-0.62,7.09 -1.86,14.69 -3.68,22.84 -1.86,8.15 -4.47,16.33 -7.85,24.65 -8.29,20.89 -23.35,40.12 -45.19,57.62 -21.8,17.5 -54.69,26.27 -98.63,26.27 -49.19,0 -85.37,-10.27 -108.59,-30.88 -23.18,-20.6 -38.93,-43.33 -47.22,-68.24 -4.92,-14.13 -8.09,-27.96 -9.46,-41.47 -1.37,-13.53 -2.06,-25.04 -2.06,-34.57 0,-50.99 8.84,-89.36 26.49,-115.01 17.67,-25.66 37.1,-43.75 58.33,-54.17 16.88,-8.31 32.87,-13.3 47.94,-15 15.07,-1.68 25.66,-2.5 31.82,-2.5 44.54,0 77.73,8.35 99.57,25.1 21.81,16.74 36.86,35.25 45.16,55.54 3.09,7.67 5.39,15.37 6.91,23.05 1.53,7.7 2.47,14.89 2.78,21.66l-79.31 0c-0.31,-3.37 -1,-7.15 -2.06,-11.28 -1.07,-4.16 -2.68,-8.37 -4.85,-12.69 -3.99,-8.6 -10.97,-16.58 -20.94,-23.96 -10.01,-7.37 -24.52,-11.08 -43.58,-11.08 -23.04,0 -40.1,6.46 -51.17,19.39 -11.07,12.91 -18.88,27.04 -23.52,42.41 -3.07,11.05 -4.89,21.73 -5.51,32.03 -0.62,10.31 -0.92,18.05 -0.92,23.28 0,30.13 4.44,52.86 13.35,68.23 8.94,15.37 18.77,26.27 29.54,32.72 8.9,5.21 17.26,8.39 25.11,9.46 7.84,1.1 13.13,1.61 15.88,1.61 17.82,0 31.51,-3.61 41.04,-10.84 9.52,-7.21 16.61,-15.3 21.23,-24.22 3.06,-5.81 5.29,-11.51 6.67,-17.02 1.37,-5.54 2.24,-9.84 2.54,-12.93zm210.21 -85.3l167.34 0 0 62.71 -167.34 0 0 77 194.53 0 0 66.39 -275.21 0 0 -342.07 270.61 0 0 66.4 -189.92 0 0 69.57zm315.32 -69.57l-103.29 0 0 -66.4 287.2 0 0 66.4 -103.26 0 0 275.67 -80.65 0 0 -275.67zm307.49 -66.4l0 124.02 85.26 0c45.51,0 76.83,10.75 94.07,32.26 17.2,21.53 26.55,45.19 28.1,70.99 0,1.54 0,3.02 0,4.35 0,1.42 0,2.87 0,4.42 0,35.97 -10.29,62.62 -30.88,79.99 -20.58,17.33 -51.18,26.04 -91.73,26.04l-165.49 0 0 -342.07 80.68 0zm0 190.4l0 85.29 68.68 0c14.45,0 26.9,-2.85 37.32,-8.52 10.45,-5.7 15.68,-16.99 15.68,-33.89 0,-16.92 -5.36,-28.29 -16.13,-34.1 -10.77,-5.85 -23.8,-8.78 -39.16,-8.78l-66.39 0z"/>
     <path class="fil3" d="M142.17 835l0 -664.53c-52.73,0 -95.47,148.76 -95.47,332.26 0,183.51 42.74,332.27 95.47,332.27zm2881.67 -332.27c0,183.49 -42.75,332.25 -95.49,332.27l0 -664.53c52.74,0.02 95.49,148.77 95.49,332.26l0 0z"/>
     <path class="fil4" d="M3788.09 696.58l83.58 0 0 -50.11 13.34 0c57,0 98.99,-13.99 126.06,-42.03 27.06,-28 40.59,-61.89 40.59,-101.7 0,-39.8 -13.53,-73.67 -40.59,-101.71 -27.08,-27.98 -69.07,-41.98 -126.06,-41.98l-13.34 0 0 -50.15 -83.58 0 0 50.15 -13.34 0c-57,0 -99.02,14 -126.05,41.98 -27.07,28.04 -40.59,61.9 -40.59,101.71 0,39.8 13.52,73.7 40.59,101.7 27.04,28.04 69.06,42.03 126.05,42.03l13.34 0 0 50.11zm-504.19 -367.64l0 354.3 83.54 0 0 -121.76 79.73 0c7.32,0 15.99,-0.42 26.03,-1.2 10.01,-0.79 20.3,-2.79 30.79,-5.95 18.78,-5.44 36.04,-16.34 51.83,-32.71 15.75,-16.4 23.63,-42.44 23.63,-78.08 0,-30.22 -9.16,-56.88 -27.48,-79.95 -18.31,-23.08 -52.59,-34.64 -102.87,-34.64l-165.2 0zm83.54 69.25l0 94.54 65.43 0c17.51,0 31.85,-3.27 42.95,-9.8 11.15,-6.51 16.73,-19.5 16.73,-38.91 0,-18.16 -5.22,-30.32 -15.75,-36.51 -10.49,-6.19 -25.15,-9.32 -43.92,-9.32l-65.43 0zm428.28 181.42l0 -153.75 -6.67 0c-33.1,0 -57.07,6.78 -71.86,20.3 -14.81,13.54 -22.22,32.39 -22.22,56.57 0,28.02 8.67,47.85 26.04,59.48 17.33,11.58 40.01,17.4 68.03,17.4l6.67 0zm68.28 0l6.71 0c28.3,0 51.08,-5.81 68.28,-17.4 17.18,-11.63 25.76,-31.45 25.76,-59.48 0,-24.18 -7.4,-43.03 -22.19,-56.57 -14.79,-13.53 -38.75,-20.3 -71.84,-20.3l-6.71 0 0 153.75z"/>
    </g>
    <path class="fil0" d="M116.16 1177.72l0 -18.76 -7.14 0c-5.49,0 -11.42,-0.62 -17.72,-1.83 -6.31,-1.2 -12.57,-3.56 -18.76,-6.99 -6.2,-3.41 -11.32,-8.5 -15.41,-15.23 -4.09,-6.71 -6.15,-15.26 -6.15,-25.63 0,-13.41 3.3,-23.82 9.93,-31.18 6.58,-7.36 14.21,-12.27 22.9,-14.73 8.7,-2.43 17.08,-3.67 25.22,-3.67l7.13 0 0 -18.93 17.2 0 0 18.93 7.13 0c8.3,0 16.79,1.23 25.44,3.64 8.67,2.45 16.28,7.36 22.77,14.7 6.56,7.38 9.81,17.81 9.81,31.26 0,10.85 -2.22,19.7 -6.71,26.53 -4.5,6.83 -9.99,11.89 -16.47,15.15 -6.46,3.28 -12.71,5.43 -18.7,6.47 -5.98,1.04 -11.33,1.56 -16.16,1.56l-7.12 0 0 18.77 -17.2 -0.06 0 0zm0 -31.97l0 -72.8 -4.74 0c-28.1,0 -42.13,12.11 -42.13,36.34 0,5.9 0.94,11.51 2.8,16.79 1.83,5.26 5.9,9.9 12.2,13.79 6.26,3.93 15.32,5.87 27.12,5.87l4.75 0.01zm17.2 0l4.95 0c27.93,0 41.91,-12.17 41.91,-36.47 0,-14.55 -4.23,-24.25 -12.76,-29.06 -8.52,-4.87 -18.21,-7.26 -29.15,-7.26l-4.95 -0.02 0 72.8zm124.48 -44.38l67.14 0 0 14.1 -67.14 0 0 43.47 76.13 0.02 0 14.12 -93.31 0 0 -125.23 91.34 0 0 14.13 -74.16 0 0 39.39zm212.39 57.6l18.46 0 -1.63 42.39 -15.03 0.01 0 -28.27 -99.56 0 0 28.26 -15.02 0.01 -1.45 -42.39 11.51 0c16.25,-19.35 24.35,-47.77 24.35,-85.33l0 -25.76 78.36 0 0 111.09zm-17.22 -96.96l-43.94 0 0 15.59c0,10.92 -0.57,20.85 -1.69,29.86 -1.15,8.97 -3.3,17.77 -6.42,26.41 -3.1,8.64 -7.41,16.99 -12.93,25.08l64.97 0.02 0.01 -96.95 0 0zm89.77 39.36l67.14 0 0 14.1 -67.14 0 0 43.47 76.1 0.02 0 14.12 -93.32 0 0 -125.23 91.36 0 0 14.13 -74.13 0 0 39.39zm113.71 -53.5l52.17 0c28.92,0 43.37,11.97 43.37,35.95 0,26.25 -15.01,39.35 -45,39.35l-33.36 0 0 49.92 -17.18 0 -0.01 -125.22 0 0zm17.18 14.13l0 47.05 31.52 0c10.45,0 17.95,-2.15 22.48,-6.41 4.54,-4.31 6.8,-10.45 6.8,-18.46 0,-8.04 -2.5,-13.72 -7.47,-17.11 -5.02,-3.4 -12.29,-5.1 -21.79,-5.1l-31.55 0.02 0 0zm132.9 78.71l-12.1 32.42 -18.46 0 48.49 -125.24 18.31 0.01 48.51 125.23 -18.53 0 -12.04 -32.42 -54.19 0zm4.73 -14.12l44.76 0 -22.4 -61.72 -22.36 61.72zm100.58 46.5l0 -14.67c1.47,0.36 3,0.53 4.63,0.53 17.04,0 25.59,-19.09 25.59,-57.22l0 -53.87 80.34 0 0 125.23 -17.21 0 0 -111.09 -45.93 0 0 43.36c0,25.02 -3.67,42.71 -10.99,52.98 -7.35,10.31 -16.88,15.46 -28.61,15.46 -1.77,0.02 -4.38,-0.22 -7.82,-0.71zm177.76 -125.23l0 50.98 36.79 0c5.81,0 11.82,0.93 17.98,2.77 6.17,1.83 11.63,5.57 16.35,11.16 4.7,5.61 7.05,13.45 7.05,23.63 0,13.63 -4.21,23.13 -12.52,28.58 -8.38,5.38 -17.99,8.1 -28.86,8.1l-54 0 0 -125.23 17.21 0.01 0 0zm0 65.13l0 45.97 34.75 0c3.33,0 6.91,-0.57 10.77,-1.71 3.88,-1.15 7.36,-3.42 10.44,-6.91 3.09,-3.44 4.65,-8.28 4.65,-14.47 0,-15.26 -9.33,-22.9 -28.02,-22.9l-32.59 0.01 0 0zm135.7 1.26l0 58.84 -17.25 0 0 -125.23 17.25 0 0 52.22 64.42 0 0 -52.22 17.18 0 0 125.23 -17.18 0 0 -58.84 -64.42 0zm145.93 26.45l-12.1 32.41 -18.48 0 48.53 -125.25 18.3 0 48.53 125.25 -18.56 0 -12.03 -32.43 -54.19 0.02 0 0zm4.74 -14.12l44.7 0 -22.35 -61.72 -22.35 61.72zm195.37 -3.26l-29.05 0 -31.37 49.75 -21.18 0 34.75 -51.52c-3.97,-0.24 -7.99,-1.04 -12.05,-2.38 -4.03,-1.36 -7.77,-3.43 -11.25,-6.32 -3.47,-2.82 -6.22,-6.5 -8.34,-11.1 -2.1,-4.59 -3.1,-10.1 -3.1,-16.56 0,-9.58 3.02,-18.23 9.01,-25.93 6.04,-7.66 17.75,-11.46 35.08,-11.46l54.73 0 0 125.25 -17.22 0 0 -49.75 -0.02 0.02 0 0zm0 -61.33l-36.03 0c-10.61,0 -17.94,2.39 -21.96,7.26 -4.02,4.84 -6.04,10.26 -6.04,16.17 0,6.88 2.28,12.56 6.84,17.09 4.54,4.45 12.39,6.71 23.54,6.71l33.65 0 0 -47.23zm140.84 78.71l-12.11 32.42 -18.45 0 48.52 -125.24 18.29 0.01 48.53 125.23 -18.51 0 -12.06 -32.42 -54.21 0zm4.74 -14.12l44.71 0 -22.31 -61.72 -22.4 61.72zm113.76 -78.72l56.19 0c6.98,0 12.93,0.85 17.87,2.47 4.91,1.67 8.89,3.9 11.89,6.8 2.97,2.92 5.14,6.27 6.46,10.07 1.34,3.8 2.01,7.97 2.01,12.48 0,4.1 -0.89,8.06 -2.62,11.93 -1.73,3.85 -4.19,7.1 -7.46,9.79 -3.28,2.66 -7.04,4.38 -11.33,5.15l0 0.57c6.62,1.03 12.79,3.85 18.42,8.56 5.68,4.64 8.5,12.17 8.5,22.52 0,7.13 -1.52,13.25 -4.54,18.45 -3.02,5.19 -7.94,9.23 -14.7,12.1 -6.83,2.87 -15.63,4.37 -26.51,4.37l-54.17 0 0 -125.26 -0.03 0.01 0 0zm17.18 14.13l0 39.01 34.6 0c9.15,0 15.61,-1.89 19.41,-5.6 3.76,-3.76 5.68,-8.36 5.68,-13.91 0,-4.75 -1.63,-9.24 -4.88,-13.34 -3.26,-4.12 -9.84,-6.16 -19.63,-6.16l-35.19 0zm0 53.13l0 43.82 35.73 0c5.37,0 10.28,-0.57 14.61,-1.71 4.32,-1.15 7.9,-3.36 10.68,-6.63 2.76,-3.28 4.12,-7.89 4.12,-13.84 0,-7.95 -2.6,-13.58 -7.87,-16.77 -5.23,-3.26 -12.44,-4.87 -21.55,-4.87l-35.72 0zm156.41 -53.13l-41.77 0 0 -14.13 100.5 0 0 14.13 -41.54 0 0 111.08 -17.18 0 -0.02 -111.08 0 0zm149.37 114.84c-9.65,0 -18.31,-1.52 -25.95,-4.61 -7.62,-3.07 -14.03,-7.49 -19.26,-13.27 -5.17,-5.8 -9.13,-12.77 -11.87,-20.99 -2.67,-8.27 -4.01,-17.45 -4.01,-27.49 0,-11.42 1.61,-21.33 4.88,-29.83 3.24,-8.5 7.75,-15.38 13.4,-20.79 5.63,-5.39 12.09,-9.33 19.48,-11.91 7.29,-2.53 15.11,-3.79 23.38,-3.79 8.45,0 16.34,1.22 23.62,3.75 7.35,2.54 13.79,6.51 19.44,11.83 5.69,5.39 9.99,12.29 13.3,20.82 3.2,8.53 4.85,18.46 4.85,29.94 0,10.22 -1.35,19.4 -3.97,27.53 -2.69,8.14 -6.59,15.12 -11.86,20.94 -5.21,5.79 -11.65,10.21 -19.32,13.29 -7.72,3.08 -16.44,4.6 -26.1,4.6zm-0.04 -14.13c7.26,0 13.6,-1.24 19.02,-3.74 5.44,-2.54 9.92,-6.15 13.44,-10.77 3.56,-4.61 6.17,-10.16 7.85,-16.51 1.7,-6.42 2.54,-13.44 2.54,-21.18 0,-11.32 -1.6,-20.59 -4.84,-27.78 -3.22,-7.21 -7.19,-12.56 -11.96,-16.05 -4.74,-3.51 -9.31,-5.79 -13.78,-6.83 -4.46,-1.04 -8.55,-1.58 -12.29,-1.58 -11.32,0 -21.38,3.84 -29.93,11.5 -8.53,7.66 -12.85,21.28 -12.85,40.74 0,7.61 1.05,15.26 3.13,23.01 2.02,7.77 6.22,14.57 12.61,20.44 6.34,5.85 15.41,8.77 27.07,8.77zm162.81 10.39l-41.7 -105.16 -0.38 0 0.37 4.8 0 100.35 -17.2 0 0 -125.23 25.85 0 40.06 103.05 40.04 -103.05 25.81 0 0 125.23 -17.22 0 0 -100.35 0.34 -4.8 -0.55 0 -41.54 105.19 -13.94 0 0 -0.03 0.06 0zm176.68 3.74c-9.7,0 -18.36,-1.52 -25.96,-4.61 -7.65,-3.07 -14.07,-7.49 -19.27,-13.27 -5.19,-5.8 -9.17,-12.77 -11.9,-20.99 -2.69,-8.27 -4.03,-17.45 -4.03,-27.49 0,-11.42 1.62,-21.33 4.88,-29.83 3.25,-8.5 7.77,-15.38 13.4,-20.79 5.64,-5.39 12.14,-9.33 19.44,-11.91 7.32,-2.53 15.11,-3.79 23.44,-3.79 8.39,0 16.31,1.22 23.64,3.75 7.32,2.54 13.8,6.51 19.4,11.83 5.66,5.39 10.03,12.29 13.29,20.82 3.18,8.53 4.79,18.46 4.79,29.94 0,10.22 -1.34,19.4 -3.92,27.53 -2.64,8.14 -6.6,15.12 -11.86,20.94 -5.19,5.79 -11.66,10.21 -19.33,13.29 -7.66,3.08 -16.37,4.6 -26,4.6zm-0.02 -14.13c7.24,0 13.58,-1.24 18.98,-3.74 5.44,-2.54 9.86,-6.15 13.45,-10.77 3.5,-4.61 6.15,-10.16 7.85,-16.51 1.7,-6.42 2.55,-13.44 2.55,-21.18 0,-11.32 -1.64,-20.59 -4.86,-27.78 -3.22,-7.21 -7.17,-12.56 -11.95,-16.05 -4.74,-3.51 -9.35,-5.79 -13.78,-6.83 -4.45,-1.04 -8.57,-1.58 -12.26,-1.58 -11.39,0 -21.36,3.84 -29.95,11.5 -8.53,7.66 -12.86,21.28 -12.86,40.74 0,7.61 1.03,15.26 3.07,23.01 2.05,7.77 6.27,14.57 12.65,20.44 6.34,5.85 15.43,8.77 27.12,8.77zm121.03 -100.7l0 37.58 39.41 0c6.99,0 13.6,0.93 19.93,2.74 6.27,1.8 11.66,5.48 16.16,11.01 4.47,5.49 6.68,13.3 6.68,23.45 0,5.91 -1.11,11.53 -3.38,16.94 -2.3,5.39 -6.58,9.98 -12.95,13.72 -6.29,3.76 -15.03,5.66 -26.31,5.66l-56.77 -0.01 0 -125.23 90.98 0 0 14.12 -73.75 0.02 0 0zm0 51.69l0 45.26 35.88 0c19.19,0 28.73,-7.35 28.73,-21.97 0,-15.52 -9.57,-23.26 -28.73,-23.26l-35.88 0 0 -0.03zm141.22 34.88l68.29 -100.72 17.16 0 0 125.23 -17.18 0 0 -101.44 -68.28 101.44 -17.2 0 0 -125.23 17.21 0 0 100.72zm122.29 24.52l0 -14.67c1.46,0.36 3.03,0.53 4.62,0.53 17.05,0 25.6,-19.09 25.6,-57.22l0 -53.87 80.34 0 0 125.23 -17.2 0 0 -111.09 -45.94 0 0 43.36c0,25.02 -3.71,42.71 -11.01,52.98 -7.33,10.31 -16.82,15.46 -28.55,15.46 -1.79,0.02 -4.38,-0.22 -7.85,-0.71zm177.77 -125.23l0 50.98 36.79 0c5.8,0 11.83,0.93 17.95,2.77 6.22,1.83 11.65,5.57 16.37,11.16 4.69,5.61 7.05,13.45 7.05,23.63 0,13.63 -4.17,23.13 -12.53,28.58 -8.35,5.38 -17.97,8.1 -28.82,8.1l-54 0 0 -125.23 17.2 0.01 0 0zm0 65.13l0 45.97 34.75 0c3.3,0 6.87,-0.57 10.73,-1.71 3.86,-1.15 7.36,-3.42 10.44,-6.91 3.1,-3.44 4.65,-8.28 4.65,-14.47 0,-15.26 -9.33,-22.9 -27.99,-22.9l-32.57 0.01 0 0zm135.65 1.26l0 58.84 -17.2 0 0 -125.23 17.2 0 0 52.22 64.44 0 0 -52.22 17.2 0 0 125.23 -17.2 0 0 -58.84 -64.44 0zm145.93 26.45l-12.09 32.42 -18.45 0 48.53 -125.24 18.28 0.01 48.48 125.23 -18.51 0 -12.06 -32.42 -54.18 0zm4.76 -14.12l44.72 0 -22.34 -61.72 -22.37 61.72zm195.38 -3.26l-29.07 0 -31.33 49.75 -21.24 0 34.83 -51.52c-4.01,-0.24 -7.98,-1.04 -12.04,-2.38 -4.01,-1.36 -7.8,-3.43 -11.28,-6.32 -3.49,-2.82 -6.24,-6.5 -8.33,-11.1 -2.11,-4.59 -3.14,-10.1 -3.14,-16.56 0,-9.58 3.03,-18.23 9.06,-25.93 6,-7.66 17.71,-11.46 35.08,-11.46l54.69 0 0 125.25 -17.19 0 -0.04 -49.73 0 0zm0 -61.33l-36.02 0c-10.67,0 -18.01,2.39 -22.01,7.26 -4.01,4.84 -6.03,10.26 -6.03,16.17 0,6.88 2.29,12.56 6.86,17.09 4.57,4.45 12.44,6.71 23.54,6.71l33.69 0 -0.03 -47.23 0 0zm217.19 69.62l17.21 0c-0.78,6.73 -2.84,13.43 -6.13,20.15 -3.22,6.71 -8.79,12.55 -16.65,17.58 -7.86,5.02 -18.33,7.49 -31.42,7.49 -13.23,0 -24.44,-2.74 -33.64,-8.28 -9.24,-5.49 -16.05,-13.1 -20.53,-22.85 -4.54,-9.69 -6.76,-20.72 -6.76,-33.08 0,-5.54 0.4,-11.61 1.34,-18.18 0.85,-6.57 3.27,-13.84 7.09,-21.73 3.8,-7.95 9.95,-14.72 18.38,-20.24 8.5,-5.59 19.67,-8.35 33.55,-8.35 12,0 21.86,1.9 29.49,5.69 7.62,3.81 13.31,8.89 16.95,15.28 3.68,6.34 5.89,13.49 6.66,21.47l-17.16 0c-0.72,-7.36 -3.79,-13.93 -9.28,-19.66 -5.45,-5.78 -14.36,-8.64 -26.65,-8.64 -8.03,0 -14.87,1.57 -20.38,4.71 -5.52,3.08 -9.84,7.24 -13,12.46 -3.2,5.18 -5.47,10.9 -6.73,17.07 -1.26,6.18 -1.91,12.66 -1.91,19.44 0,6.64 0.9,12.99 2.68,19.09 1.83,6.15 4.53,11.57 8.18,16.35 3.65,4.74 8.19,8.49 13.68,11.27 5.48,2.75 11.76,4.1 18.87,4.1 7.17,0 13.44,-1.43 18.76,-4.29 5.41,-2.87 9.58,-6.67 12.47,-11.45 2.93,-4.81 4.61,-9.92 4.95,-15.41zm75.75 -30.26l67.15 0 0 14.1 -67.15 0 0 43.47 76.16 0.02 0 14.12 -93.31 0 0 -125.23 91.29 0 0 14.13 -74.14 0 0 39.39zm142.29 -39.36l-41.72 0 0 -14.13 100.5 0 0 14.13 -41.6 0 0 111.08 -17.18 0 0 -111.08 0 0zm112.81 -14.13l0 50.98 36.81 0c5.79,0 11.8,0.93 17.94,2.77 6.2,1.83 11.64,5.57 16.38,11.16 4.69,5.61 7.02,13.45 7.02,23.63 0,13.63 -4.16,23.13 -12.54,28.58 -8.34,5.38 -17.98,8.1 -28.81,8.1l-53.99 0 0 -125.23 17.18 0.01 0 0zm0 65.13l0 45.97 34.75 0c3.29,0 6.89,-0.57 10.74,-1.71 3.86,-1.15 7.36,-3.42 10.44,-6.91 3.08,-3.44 4.65,-8.28 4.65,-14.47 0,-15.26 -9.33,-22.9 -27.99,-22.9l-32.6 0.01 0 0z"/>
   </g>
   <g>
    <path class="fil5" d="M5742.15 1039.17l33.32 0c9.04,0 16.04,-1.79 21.01,-5.35 4.96,-3.57 7.45,-8.79 7.45,-15.65 0,-8.4 -3.3,-13.87 -9.89,-16.39 5.24,-3.88 7.85,-8.67 7.85,-14.36 0,-6.68 -2.43,-11.47 -7.31,-14.36 -4.88,-2.89 -12.33,-4.34 -22.36,-4.34l-30.08 0 0 70.45zm32.24 -29.13c4.7,0 8.13,0.62 10.3,1.83 2.16,1.22 3.25,3.18 3.25,5.89 0,4.96 -4.65,7.45 -13.95,7.45l-16.39 0 0 -15.18 16.8 0zm-2.58 -27.37c4.88,0 8.45,0.46 10.71,1.36 2.26,0.9 3.39,2.71 3.39,5.42 0,4.79 -3.39,7.18 -10.16,7.18l-18.16 0 0 -13.96 14.22 0zm42.96 56.5l15.44 0 0 -44.16 23.17 28.72 21.81 -28.32 0 43.76 15.44 0 0 -70.45 -12.74 0 -24.65 31.97 -24.66 -31.97 -13.82 0 0 70.45zm144.01 -22.49c-4.61,6.23 -10.89,9.35 -18.84,9.35 -6.05,0 -11.06,-1.45 -15.03,-4.34 -3.97,-2.89 -6.28,-7.05 -6.91,-12.47l52.29 0c0.55,-4.24 0.82,-7.54 0.82,-9.89 0,-9.66 -3.12,-17.45 -9.35,-23.36 -6.23,-5.92 -14.13,-8.88 -23.71,-8.88 -11.38,0 -20.25,3.44 -26.62,10.3 -6.37,6.86 -9.55,15.67 -9.55,26.42 0,11.11 3.45,19.98 10.36,26.62 6.91,6.64 16.06,9.96 27.44,9.96 11.92,0 21.45,-4.79 28.58,-14.36l-9.48 -9.35zm-21.41 -35.62c5.06,0 9.13,1.26 12.2,3.79 3.07,2.53 4.92,6.19 5.55,10.97l-36.99 0c1,-4.61 3.17,-8.22 6.51,-10.84 3.33,-2.62 7.58,-3.93 12.73,-3.93zm97.42 34.95c-4.42,6.68 -10.34,10.03 -17.74,10.03 -7.05,0 -12.71,-2.1 -17,-6.3 -4.29,-4.2 -6.44,-9.5 -6.44,-15.91 0,-6.6 2.04,-11.97 6.1,-16.13 4.06,-4.16 9.3,-6.23 15.71,-6.23 7.41,0 13.42,3.07 18.02,9.21l11.52 -7.58c-2.35,-4.79 -6.22,-8.65 -11.59,-11.58 -5.37,-2.94 -11.58,-4.41 -18.63,-4.41 -11.02,0 -19.96,3.48 -26.82,10.44 -6.87,6.95 -10.29,15.71 -10.29,26.29 0,11.01 3.48,19.86 10.43,26.55 6.95,6.69 16.13,10.03 27.5,10.03 6.33,0 12.24,-1.52 17.75,-4.54 5.51,-3.03 9.66,-7.29 12.46,-12.8l-10.97 -7.05zm13.28 -32.92l25.47 0 0 56.09 15.45 0 0 -56.09 25.46 0 0 -14.36 -66.38 0 0 14.36zm125.05 33.59c-4.61,6.23 -10.89,9.35 -18.84,9.35 -6.05,0 -11.07,-1.45 -15.03,-4.34 -3.98,-2.89 -6.28,-7.05 -6.91,-12.47l52.29 0c0.55,-4.24 0.81,-7.54 0.81,-9.89 0,-9.66 -3.11,-17.45 -9.35,-23.36 -6.23,-5.92 -14.13,-8.88 -23.71,-8.88 -11.38,0 -20.26,3.44 -26.63,10.3 -6.37,6.86 -9.55,15.67 -9.55,26.42 0,11.11 3.46,19.98 10.37,26.62 6.91,6.64 16.05,9.96 27.44,9.96 11.92,0 21.45,-4.79 28.58,-14.36l-9.48 -9.35zm-21.41 -35.62c5.06,0 9.13,1.26 12.19,3.79 3.07,2.53 4.93,6.19 5.55,10.97l-36.98 0c1,-4.61 3.16,-8.22 6.5,-10.84 3.34,-2.62 7.58,-3.93 12.74,-3.93zm130.74 34.95c-4.42,6.68 -10.34,10.03 -17.74,10.03 -7.05,0 -12.71,-2.1 -17,-6.3 -4.3,-4.2 -6.44,-9.5 -6.44,-15.91 0,-6.6 2.03,-11.97 6.1,-16.13 4.06,-4.16 9.3,-6.23 15.71,-6.23 7.4,0 13.41,3.07 18.02,9.21l11.51 -7.58c-2.35,-4.79 -6.21,-8.65 -11.58,-11.58 -5.37,-2.94 -11.58,-4.41 -18.63,-4.41 -11.02,0 -19.96,3.48 -26.82,10.44 -6.87,6.95 -10.29,15.71 -10.29,26.29 0,11.01 3.48,19.86 10.43,26.55 6.95,6.69 16.13,10.03 27.5,10.03 6.32,0 12.24,-1.52 17.75,-4.54 5.51,-3.03 9.66,-7.29 12.46,-12.8l-10.97 -7.05zm50.94 23.16l33.32 0c9.03,0 16.03,-1.79 21,-5.35 4.97,-3.57 7.45,-8.79 7.45,-15.65 0,-8.4 -3.29,-13.87 -9.88,-16.39 5.24,-3.88 7.85,-8.67 7.85,-14.36 0,-6.68 -2.44,-11.47 -7.32,-14.36 -4.87,-2.89 -12.33,-4.34 -22.35,-4.34l-30.08 0 0 70.45zm32.24 -29.13c4.7,0 8.13,0.62 10.29,1.83 2.17,1.22 3.26,3.18 3.26,5.89 0,4.96 -4.65,7.45 -13.95,7.45l-16.4 0 0 -15.18 16.8 0zm-2.58 -27.37c4.88,0 8.45,0.46 10.71,1.36 2.25,0.9 3.39,2.71 3.39,5.42 0,4.79 -3.39,7.18 -10.16,7.18l-18.16 0 0 -13.96 14.23 0zm50.54 6.23c6.5,-4.97 13.23,-7.45 20.19,-7.45 5.51,0 9.43,1.31 11.79,3.93 2.35,2.62 3.48,6.6 3.38,11.93 -3.79,-1.27 -8.62,-1.9 -14.5,-1.9 -9.93,0 -17.9,1.86 -23.91,5.55 -6.01,3.71 -9.01,9.31 -9.01,16.8 0,6.77 2.33,12.17 6.98,16.19 4.65,4.02 10.86,6.03 18.63,6.03 9.39,0 16.66,-2.84 21.81,-8.53l0 7.72 15.45 0 0 -43.08c0,-9.21 -2.5,-16.35 -7.52,-21.4 -5.01,-5.06 -12.13,-7.59 -21.33,-7.59 -5.78,0 -11.32,0.92 -16.6,2.78 -5.29,1.85 -9.6,4.4 -12.94,7.66l7.59 11.38zm16.93 37.66c-3.97,0 -7.13,-0.78 -9.48,-2.37 -2.35,-1.58 -3.52,-3.77 -3.52,-6.57 0,-6.23 6.19,-9.35 18.56,-9.35 4.79,0 9.08,0.63 12.87,1.9l0 6.78c-4.24,6.41 -10.39,9.62 -18.42,9.62zm47.82 12.6l15.45 0 0 -44.16 23.16 28.72 21.81 -28.32 0 43.76 15.45 0 0 -70.45 -12.74 0 -24.66 31.97 -24.66 -31.97 -13.82 0 0 70.45zm103.78 0l37.39 -45.79 0 45.79 15.44 0 0 -70.45 -13.41 0 -37.39 45.93 0 -45.93 -15.45 0 0 70.45 13.42 0z"/>
    <path class="fil5" d="M6196.36 394.05c14.22,-3.87 20.62,0.14 19.17,11.66 -63,76.68 -156.35,179.56 -280.04,308.52l-73.75 83.86c-53.5,59.26 -6.35,42.73 141.3,-49.34 10.17,1.9 13.94,6.2 11.34,13.02 -2.74,6.69 -9.7,14.15 -21.05,22 -11.2,7.96 -41.13,24.47 -89.4,49.36 -48.39,25.02 -77.24,38.57 -86.65,40.78 -9.43,2.2 -14.63,-0.76 -15.49,-8.87 -0.85,-8 8.03,-27.38 26.53,-58.28 51.89,-75.51 142.8,-176.98 272.51,-304.29l75.2 -78.54 -9.66 4.35c-138.21,92.51 -304.59,245.27 -498.86,458.53 -16.73,-0.25 -17.9,-21.8 -3.39,-64.77 14.5,-42.97 27.44,-66.12 38.69,-69.19 11.37,-3.19 18.46,-0.36 21.36,8.27 2.78,8.63 0.29,13.3 -7.47,13.76 -7.88,0.48 -13.33,14.51 -16.56,42.22 214.66,-233.84 380.11,-374.86 496.22,-423.06zm-7.09 285.32c20.25,-10.26 40.48,-14.37 60.72,-12.19 20.23,2.05 31.19,14.96 32.87,38.61 2.01,33.55 -61.79,61.28 -191.54,83.4 -26.96,9.42 -39.79,19.74 -38.48,30.97 1.31,11.23 6.72,17.69 16.26,19.51 9.53,1.68 19.64,2.71 30.34,2.95 10.69,0.24 50.49,-8.69 119.41,-26.78 68.79,-17.96 102.94,-24.79 102.31,-20.48 -0.62,4.31 -32.91,16.8 -97.15,37.51 -64.11,20.69 -117.04,30.66 -158.8,30.03 -28.39,-6.21 -40.48,-21.32 -36.27,-45.33l1.88 -16.69 -24.54 1.47c-2.36,-5.76 1.57,-11.4 11.67,-17.03 10.09,-5.64 67.16,-40.99 171.33,-105.94zm-40.08 50.29c-74.17,37.14 -69.92,45.18 12.51,24.25 66.25,-20.57 98.94,-36.98 98.23,-48.88 -0.73,-12.02 -15.64,-15.52 -44.75,-10.63l-65.99 35.26zm163.57 -65.76l353.4 -14.21c9.91,5.94 9.45,12.89 -1.39,20.7 -10.85,7.69 -52.14,12.81 -123.88,15.11l-61.32 2.18c-15.59,1.94 -56.53,0.25 -122.96,-5.05 20.13,19.14 31.5,51.51 34.23,96.96 51.05,-45.54 87.22,-68.96 108.75,-70.25 8.94,0.21 11.59,4.71 8.22,13.45l-148.34 122.4c-9.91,0.34 -14.95,-4.01 -15.25,-13.16l19.59 -29.45c-3.96,-65.87 -25.43,-109.44 -64.54,-130.83 -1.12,-6.09 3.37,-8.75 13.48,-7.85z"/>
    <path class="fil1" d="M5718.62 252.35c109.22,0 208.47,42.6 282.11,112.07l-69.83 131.13c-49.58,-62.58 -126.24,-102.73 -212.28,-102.73 -149.51,0 -270.71,121.2 -270.71,270.71 0,142.48 110.08,259.25 249.83,269.91l-69.86 131.21c-49.68,-11.2 -95.95,-31.38 -137.01,-58.77l0 -77.77 -86.95 0c-35.79,-42.53 -63.11,-92.41 -79.39,-147.05 3.22,-2.92 6.42,-5.85 9.58,-8.81 39.31,-36.66 72.84,-78.83 96.77,-127.11 23.68,-47.78 34.35,-99.21 34.35,-152.44 0,-46.42 -10.14,-88.61 -31.48,-125.64 73.9,-71.03 174.28,-114.7 284.87,-114.7z"/>
    <path class="fil6" d="M4952.25 518.32c16.31,-38.07 41.17,-69.52 74.57,-94.37 33.4,-24.86 75.35,-37.28 125.83,-37.28 47.38,0 84.47,11.46 111.26,34.37 26.8,22.91 40.2,54.17 40.2,93.79 0,17.09 -2.53,33.79 -7.58,50.1 -5.05,16.31 -14.37,33.59 -27.96,51.85 -13.6,18.25 -25.24,33.4 -34.95,45.44 -9.71,12.04 -26.41,28.16 -50.1,48.35 -23.69,20.19 -40.2,34.38 -49.52,42.53 -9.31,8.15 -28.35,23.11 -57.09,44.85 -28.73,21.75 -45.82,34.95 -51.26,39.61l-184.09 133.99 0 103.7 632.64 0 0 -130.5 -412.45 0 93.21 -53.59c71.46,-49.71 127.38,-93.4 167.77,-131.08 40.4,-37.67 71.46,-78.45 93.21,-122.33 21.75,-43.89 32.62,-92.23 32.62,-145.06 0,-72.24 -25.83,-130.49 -77.48,-174.76 -51.65,-44.28 -123.69,-66.4 -216.12,-66.4 -80,0 -149.13,18.84 -207.39,56.51 -58.25,37.67 -97.48,91.46 -117.67,161.36l122.33 48.94z"/>
   </g>
  </g>
 </g>
</svg>
