<svg width="17" height="17" viewBox="0 0 17 17" fill="none" xmlns="http://www.w3.org/2000/svg">
<g clip-path="url(#clip0_58_509)">
<path d="M5.35333 16.4868C5.93918 16.4868 6.76214 16.2749 7.99446 15.5864C9.49301 14.746 10.6521 13.9702 12.1425 12.4836C13.5796 11.0475 14.2789 10.1177 15.2576 8.33673C16.3632 6.32586 16.1748 5.2718 15.9641 4.8213C15.7132 4.28286 15.3428 3.96082 14.8641 3.64118C14.5922 3.46304 14.3045 3.31032 14.0045 3.18498C13.9745 3.17208 13.9466 3.15977 13.9217 3.14867C13.7731 3.08174 13.548 2.98059 13.2629 3.08864C13.0726 3.16007 12.9028 3.30624 12.6369 3.56885C12.0915 4.10669 11.3463 5.30451 11.0714 5.89277C10.8868 6.28924 10.7647 6.55095 10.7644 6.84448C10.7644 7.18813 10.9372 7.45315 11.147 7.73917C11.1863 7.7929 11.2253 7.84422 11.2632 7.89404C11.4916 8.19417 11.5417 8.28091 11.5087 8.43578C11.4417 8.74701 10.9426 9.67352 10.1224 10.492C9.30212 11.3104 8.40234 11.778 8.08991 11.8447C7.92844 11.8792 7.8399 11.827 7.53017 11.5905C7.48575 11.5565 7.44013 11.5214 7.39241 11.4863C7.07247 11.2483 6.81976 11.0799 6.48422 11.0799H6.48242C6.19039 11.0799 5.94039 11.2066 5.52621 11.4155C4.98598 11.688 3.75215 12.4236 3.21102 12.9696C2.9478 13.2349 2.80104 13.4042 2.72931 13.5941C2.62126 13.8802 2.72301 14.1044 2.78934 14.2544C2.80044 14.2793 2.81275 14.3066 2.82565 14.337C2.95198 14.6364 3.1056 14.9235 3.28455 15.1947C3.60358 15.6719 3.92682 16.0414 4.46645 16.2926C4.74356 16.4237 5.04681 16.4901 5.35333 16.4868Z" fill="white"/>
<g clip-path="url(#clip1_58_509)">
<path d="M6.72369 1.77606V6.62479H1.87496M6.38697 6.28807L1.4709 1.372" stroke="white" stroke-width="1.44061" stroke-linecap="round" stroke-linejoin="round"/>
</g>
</g>
<defs>
<clipPath id="clip0_58_509">
<rect width="16" height="16" fill="white" transform="translate(0.125 0.5)"/>
</clipPath>
<clipPath id="clip1_58_509">
<rect width="11.3137" height="11.3137" fill="white" transform="translate(4 -4) rotate(45)"/>
</clipPath>
</defs>
</svg>
