<svg width="40" height="40" viewBox="0 0 40 40" fill="none" xmlns="http://www.w3.org/2000/svg">
<g clip-path="url(#clip0)">
<path d="M9.92163 29.8438C9.49015 29.8438 9.14038 30.1935 9.14038 30.625V35C9.14038 35.4315 9.49015 35.7813 9.92163 35.7813H13.3591C13.7906 35.7813 14.1404 35.4315 14.1404 35V30.625C14.1404 30.1935 13.7906 29.8438 13.3591 29.8438H9.92163ZM12.5779 34.2188H10.7029V31.4063H12.5779V34.2188Z" fill="#FD2528"/>
<path d="M26.6406 29.8438C26.2092 29.8438 25.8594 30.1935 25.8594 30.625V35C25.8594 35.4315 26.2092 35.7813 26.6406 35.7813H30.0781C30.5095 35.7813 30.8594 35.4315 30.8594 35V30.625C30.8594 30.1935 30.5095 29.8438 30.0781 29.8438H26.6406ZM29.2969 34.2188H27.4219V31.4063H29.2969V34.2188Z" fill="#FD2528"/>
<path d="M17.4294 22.8164C17.4294 24.2337 18.5825 25.3867 19.9998 25.3867C21.4171 25.3867 22.5701 24.2337 22.5701 22.8164C22.5701 21.3991 21.417 20.2461 19.9998 20.2461C18.5825 20.246 17.4294 21.3991 17.4294 22.8164ZM21.0076 22.8164C21.0076 23.3721 20.5555 23.8242 19.9998 23.8242C19.4441 23.8242 18.9919 23.3721 18.9919 22.8164C18.9919 22.2607 19.4441 21.8086 19.9998 21.8086C20.5555 21.8085 21.0076 22.2607 21.0076 22.8164Z" fill="#FD2528"/>
<path d="M36.6936 38.4375H34.0625V35.9062C34.0625 35.4747 33.7126 35.1249 33.2812 35.1249C32.8498 35.1249 32.4999 35.4747 32.4999 35.9062V38.4375H24.2186V27.9687C24.2186 27.5372 23.8688 27.1874 23.4374 27.1874H16.5624C16.1309 27.1874 15.7811 27.5372 15.7811 27.9687V38.4375H7.4998V24.9868L19.9999 16.8345L32.4999 24.9868V28.8749C32.4999 29.3064 32.8498 29.6562 33.2812 29.6562C33.7126 29.6562 34.0625 29.3064 34.0625 28.8749V26.0058L34.5596 26.3301C34.7333 26.4433 34.9448 26.4828 35.1474 26.4402C35.3501 26.3976 35.5276 26.276 35.6407 26.1025L37.3479 23.485C37.5836 23.1236 37.4817 22.6395 37.1203 22.4038L31.328 18.6262V12.5297L31.8433 12.8658C32.017 12.9791 32.2284 13.0186 32.431 12.976C32.6338 12.9333 32.8113 12.8118 32.9244 12.6383L34.6315 10.0207C34.8672 9.65933 34.7654 9.17527 34.4039 8.93956L21.2803 0.380451C20.5024 -0.126817 19.4974 -0.126817 18.7196 0.380451L5.59573 8.93948C5.42221 9.05269 5.30072 9.23019 5.25799 9.43292C5.21526 9.63566 5.25494 9.84707 5.36815 10.0207L7.07527 12.6382C7.22503 12.8679 7.47519 12.9927 7.73035 12.9927C7.87668 12.9927 8.02472 12.9517 8.15644 12.8658L8.67168 12.5297V18.6262L2.87938 22.4038C2.70586 22.517 2.58438 22.6945 2.54165 22.8972C2.49899 23.1 2.5386 23.3114 2.6518 23.485L4.35892 26.1025C4.50869 26.3322 4.75885 26.457 5.014 26.457C5.16033 26.457 5.30838 26.416 5.4401 26.3301L5.93729 26.0058V38.4375H3.30618C2.87469 38.4375 2.52493 38.7873 2.52493 39.2188C2.52493 39.6503 2.87469 40.0001 3.30618 40.0001H36.6935C37.1249 40.0001 37.4747 39.6503 37.4747 39.2188C37.4747 38.7873 37.125 38.4375 36.6936 38.4375ZM7.9573 11.1302L7.1037 9.82144L19.5732 1.68913C19.8324 1.52007 20.1675 1.52007 20.4267 1.68913L32.896 9.82144L32.0425 11.1302L20.4267 3.55461C20.1674 3.38547 19.8326 3.38539 19.5732 3.55461L7.9573 11.1302ZM21.6341 8.44792H18.3657C17.5474 8.44792 16.8817 9.11378 16.8817 9.9323V13.2718L10.2343 17.6071V11.5107L20 5.14173L29.7656 11.5107V17.6071L23.118 13.2718L23.1181 9.9323C23.1181 9.11378 22.4524 8.44792 21.6341 8.44792ZM21.5556 10.0104L21.5555 12.2527L21.2802 12.0732C20.5024 11.5659 19.4973 11.5658 18.7195 12.0732L18.4442 12.2527V10.0104H21.5556V10.0104ZM5.24088 24.5945L4.38736 23.2857L19.5732 13.3819C19.8324 13.2128 20.1673 13.2128 20.4267 13.3819L35.6124 23.2857L34.7589 24.5944L20.4267 15.2473C20.1673 15.0782 19.8325 15.0782 19.5731 15.2473L5.24088 24.5945ZM22.6561 38.4375H17.3436V34.3749H17.6042C18.0356 34.3749 18.3854 34.0252 18.3854 33.5937C18.3854 33.1622 18.0356 32.8124 17.6042 32.8124H17.3436V28.7499H22.6561V38.4375Z" fill="#FD2528"/>
<path d="M33.2812 33.1719C33.7127 33.1719 34.0625 32.8221 34.0625 32.3906C34.0625 31.9592 33.7127 31.6094 33.2812 31.6094C32.8498 31.6094 32.5 31.9592 32.5 32.3906C32.5 32.8221 32.8498 33.1719 33.2812 33.1719Z" fill="#FD2528"/>
</g>
<defs>
<clipPath id="clip0">
<rect width="40" height="40" fill="white"/>
</clipPath>
</defs>
</svg>
