<svg width="139" height="36" viewBox="0 0 139 36" fill="none" xmlns="http://www.w3.org/2000/svg">
<path d="M110.371 0.908203H1.57593V24.2722H110.371V0.908203Z" fill="white"/>
<path d="M138.999 0H102.04V25.2066H138.999V0Z" fill="#E22427"/>
<path d="M1.57605 1.55291V23.6536H102.04V1.55291H1.57605ZM0 0H102.04V25.2066H0V0Z" fill="#E22427"/>
<path d="M88.7119 13.0725V15.9089H91.0295C91.5168 15.9089 91.9381 15.8151 92.2897 15.6252C92.6412 15.436 92.8192 15.0612 92.8192 14.4983C92.8192 13.9354 92.6374 13.5574 92.2751 13.3643C91.9127 13.1696 91.4713 13.072 90.9521 13.072L88.7119 13.0725ZM88.7119 6.74088V10.8651H91.5914C93.1253 10.8651 94.1827 11.2234 94.763 11.9385C95.3439 12.6542 95.6603 13.4412 95.7117 14.2992C95.7117 14.3511 95.7117 14.3996 95.7117 14.4449C95.7117 14.4907 95.7117 14.5392 95.7117 14.5916C95.7117 15.7867 95.3623 16.6736 94.6694 17.2512C93.975 17.8289 92.9436 18.118 91.573 18.118H85.9871V6.74088H88.7119ZM78.3372 8.94833H74.853V6.74088H84.5441V8.94833H81.0615V18.1174H78.3388L78.3372 8.94833ZM67.6964 11.2632H73.3429V13.3485H67.6964V15.9089H74.2613V18.1174H64.9743V6.74088H74.1061V8.94833H67.6964V11.2632ZM60.6025 14.1001H63.3101C63.2884 14.3358 63.2468 14.5883 63.1846 14.8594C63.1229 15.13 63.0353 15.4038 62.9201 15.6787C62.6405 16.3742 62.1321 17.0129 61.3954 17.5954C60.6599 18.178 59.5495 18.4703 58.067 18.4703C56.4082 18.4703 55.1864 18.1272 54.4032 17.4427C53.6201 16.7576 53.089 16.0016 52.8083 15.1736C52.6433 14.7034 52.5367 14.2431 52.4902 13.7936C52.4437 13.3442 52.4199 12.9607 52.4199 12.6438C52.4199 10.9469 52.7185 9.67215 53.315 8.81797C53.9116 7.96488 54.5671 7.36379 55.2821 7.01688C55.8527 6.74088 56.392 6.57451 56.8998 6.51888C57.4088 6.46215 57.7663 6.43379 57.974 6.43379C59.4781 6.43379 60.5971 6.71306 61.3338 7.27051C62.0693 7.82688 62.5783 8.4427 62.8579 9.11742C62.9617 9.3727 63.0402 9.62851 63.0915 9.88379C63.1429 10.1391 63.1743 10.3796 63.1846 10.6049H60.5084C60.4987 10.492 60.4749 10.3671 60.4392 10.2296C60.403 10.0911 60.3489 9.95088 60.2764 9.80797C60.1406 9.52161 59.9054 9.25651 59.5679 9.01051C59.2315 8.76506 58.7409 8.64288 58.0984 8.64288C57.3206 8.64288 56.7441 8.85724 56.3719 9.28706C55.9982 9.71579 55.7327 10.186 55.578 10.6971C55.4736 11.0652 55.4119 11.4203 55.3919 11.7629C55.3703 12.1049 55.36 12.364 55.36 12.5369C55.36 13.5389 55.5098 14.2949 55.8111 14.806C56.1118 15.3176 56.4423 15.6798 56.8068 15.8947C57.107 16.0682 57.3904 16.1734 57.6543 16.2094C57.9177 16.2449 58.0978 16.2629 58.1908 16.2629C58.7923 16.2629 59.2536 16.1429 59.5749 15.9029C59.8962 15.6629 60.1352 15.3945 60.2905 15.0972C60.3938 14.9031 60.4689 14.7143 60.5154 14.5305C60.5641 14.3451 60.5928 14.2027 60.6025 14.1001ZM45.187 16.2312C46.047 16.2312 46.6771 16.0038 47.0763 15.5494C47.4754 15.0945 47.7485 14.596 47.8935 14.0543C47.9762 13.7582 48.0276 13.4641 48.0482 13.1734C48.0698 12.8822 48.0801 12.634 48.0801 12.4294C48.0801 12.2151 48.0698 11.9696 48.0482 11.6931C48.0276 11.4176 47.9817 11.1312 47.9086 10.8351C47.7745 10.2825 47.5046 9.77633 47.0995 9.31651C46.6955 8.8567 46.0578 8.62651 45.1865 8.62651C44.1383 8.62651 43.4157 8.95706 43.0166 9.61597C42.6174 10.2749 42.3865 10.9982 42.3238 11.7852C42.314 11.8976 42.3064 12.0072 42.3 12.1147C42.2956 12.2222 42.2929 12.3274 42.2929 12.4294C42.2929 12.5625 42.2951 12.6929 42.3 12.82C42.3064 12.9481 42.3189 13.0785 42.3394 13.2116C42.4119 13.9676 42.6504 14.6603 43.055 15.2887C43.4601 15.9171 44.1702 16.2312 45.187 16.2312ZM45.187 18.4392C43.0707 18.4283 41.5698 17.8103 40.6828 16.5842C39.7963 15.3574 39.3534 13.972 39.3534 12.4289C39.3534 12.3269 39.3555 12.2222 39.3615 12.1142C39.3669 12.0067 39.3745 11.9025 39.3847 11.8C39.4778 10.4511 39.9602 9.2167 40.8315 8.09742C41.7023 6.9787 43.1545 6.41797 45.1876 6.41797C47.2504 6.41797 48.7134 6.98579 49.5734 8.12033C50.4344 9.25542 50.912 10.5018 51.005 11.8605C51.005 11.9527 51.0072 12.0476 51.0131 12.1447C51.0175 12.2418 51.0207 12.3367 51.0207 12.4283C51.0207 12.5205 51.0175 12.6143 51.0131 12.7125C51.0077 12.8096 51.005 12.9034 51.005 12.9956C50.912 14.3549 50.4344 15.5996 49.5734 16.7292C48.7134 17.8583 47.2504 18.4234 45.1876 18.4234L45.187 18.4392ZM32.2287 8.94833H28.7439V6.74088H38.4355V8.94833H34.9503V18.1174H32.2287V8.94833ZM20.53 8.8256V11.2327H23.0503C23.1023 11.2327 23.1542 11.2305 23.2056 11.2256C23.258 11.2202 23.3089 11.2131 23.3613 11.2027C23.621 11.1612 23.8573 11.0489 24.0693 10.8651C24.2824 10.6812 24.389 10.4107 24.389 10.0523C24.389 9.62361 24.2586 9.31924 23.999 9.14033C23.7399 8.96088 23.4549 8.8616 23.1434 8.84088C23.1125 8.83051 23.0785 8.8256 23.0422 8.8256C23.006 8.8256 22.9671 8.8256 22.9254 8.8256H20.53ZM20.53 13.3174V16.0321H23.3613C23.4452 16.0321 23.5404 16.024 23.6496 16.0092C23.7583 15.9934 23.8752 15.9601 23.999 15.9089C24.2072 15.8276 24.4014 15.6869 24.5831 15.4878C24.7643 15.2881 24.8546 14.9991 24.8546 14.6211C24.8546 14.0592 24.6659 13.7009 24.2873 13.5482C23.9092 13.3943 23.4966 13.3174 23.0509 13.3174C23.0406 13.3174 23.0325 13.3174 23.0271 13.3174C23.0222 13.3174 23.0147 13.3174 23.0044 13.3174H20.53ZM17.8078 6.74088H23.6107C24.6372 6.74088 25.3971 6.90397 25.8898 7.2307C26.3826 7.55742 26.7217 7.91579 26.9088 8.30415C27.0327 8.56979 27.1084 8.82342 27.1338 9.06342C27.1609 9.30288 27.1733 9.49488 27.1733 9.63779C27.1733 10.1592 27.0608 10.5776 26.8385 10.8956C26.6157 11.2125 26.3696 11.4574 26.0997 11.632C25.9434 11.734 25.7936 11.8125 25.6486 11.8692C25.5031 11.926 25.3787 11.9691 25.2754 11.9996V12.0301C25.3176 12.0405 25.3582 12.0482 25.3993 12.0531C25.4415 12.0585 25.4831 12.0656 25.5242 12.076C26.0743 12.2194 26.58 12.5156 27.0408 12.9651C27.5032 13.4156 27.7336 14.0685 27.7336 14.9276C27.7336 15.9192 27.4718 16.6343 26.9478 17.0751C26.4237 17.5141 25.846 17.8054 25.2132 17.9489C24.8611 18.0296 24.5155 18.0787 24.1797 18.0945C23.8416 18.1098 23.5544 18.1174 23.3164 18.1174H17.8078V6.74088ZM9.5165 14.0538H12.5183L11.025 9.7147L9.5165 14.0538ZM9.6409 6.74088H12.3933L16.7342 18.1174H13.8569L13.1105 15.9863H8.92427L8.19357 18.1174H5.31567L9.6409 6.74088Z" fill="#352A2E"/>
<path d="M127.156 14.6723H127.382C128.339 14.6723 129.107 14.4792 129.685 14.0931C130.266 13.7063 130.556 13.0474 130.556 12.1152C130.556 11.3107 130.306 10.6834 129.806 10.234C129.306 9.78342 128.498 9.55924 127.382 9.55924H127.156V14.6723ZM124.852 14.6723V9.55924H124.626C123.509 9.55924 122.7 9.78342 122.202 10.234C121.702 10.6834 121.453 11.3107 121.453 12.1152C121.453 13.0474 121.746 13.7063 122.331 14.0931C122.916 14.4792 123.681 14.6723 124.627 14.6723H124.852ZM124.593 18.5625V16.8951H124.143C122.219 16.8951 120.803 16.4292 119.89 15.4976C118.977 14.5665 118.52 13.4391 118.52 12.1152C118.52 10.792 118.977 9.66506 119.89 8.73288C120.803 7.80179 122.221 7.33542 124.143 7.33542H124.593V5.66797H127.414V7.33542H127.865C129.787 7.33542 131.205 7.80124 132.118 8.73288C133.03 9.66452 133.488 10.7914 133.488 12.1152C133.488 13.4391 133.03 14.5665 132.118 15.4976C131.205 16.4292 129.785 16.8951 127.865 16.8951H127.414V18.5625H124.593ZM110.399 8.63742V11.782H112.606C113.197 11.782 113.681 11.674 114.057 11.4563C114.433 11.2392 114.621 10.8083 114.621 10.1625C114.621 9.55924 114.443 9.15397 114.09 8.94779C113.736 8.74106 113.242 8.63742 112.608 8.63742H110.399ZM107.581 6.33506H113.155C114.852 6.33506 116.009 6.71961 116.627 7.48651C117.245 8.25397 117.553 9.14033 117.553 10.1462C117.553 11.332 117.288 12.1971 116.756 12.7431C116.225 13.2885 115.64 13.6507 115.008 13.8302C114.653 13.936 114.307 14.002 113.969 14.0292C113.63 14.0554 113.339 14.068 113.091 14.068H110.399V18.118H107.581V6.33506Z" fill="white"/>
<path d="M134.718 32.8983V34.4272H135.864C135.972 34.4272 136.091 34.4081 136.218 34.3705C136.345 34.3323 136.461 34.2565 136.563 34.1408C136.665 34.0263 136.716 33.8654 136.716 33.6597C136.716 33.1519 136.408 32.8983 135.793 32.8983H134.718ZM134.718 30.7328V32.4281H135.932C136.123 32.4281 136.321 32.4592 136.523 32.5197C136.728 32.5808 136.907 32.7052 137.063 32.8912C137.218 33.0777 137.295 33.339 137.295 33.6772C137.295 34.1305 137.158 34.4463 136.881 34.6274C136.607 34.8063 136.288 34.8968 135.932 34.8968H134.151V30.7323L134.718 30.7328ZM130.998 31.2025H129.622V30.7328H132.936V31.2025H131.564V34.8968H130.998V31.2025ZM126.306 32.5115H128.52V32.9806H126.306V34.4266H128.817V34.8963H125.74V30.7317H128.75V31.2014H126.306V32.5115ZM123.807 33.5179H124.375C124.349 33.7421 124.281 33.9646 124.172 34.1883C124.066 34.4108 123.883 34.605 123.623 34.7725C123.364 34.9394 123.019 35.0217 122.587 35.0217C122.151 35.0217 121.781 34.9306 121.478 34.7463C121.173 34.5635 120.948 34.3105 120.801 33.9865C120.651 33.6641 120.578 33.297 120.578 32.8863C120.578 32.7019 120.59 32.5001 120.622 32.2819C120.65 32.0632 120.73 31.8215 120.856 31.5586C120.981 31.2946 121.184 31.0694 121.462 30.8855C121.742 30.7001 122.111 30.6079 122.568 30.6079C122.964 30.6079 123.289 30.6712 123.541 30.7972C123.792 30.9237 123.98 31.0928 124.1 31.3055C124.221 31.5161 124.294 31.7539 124.32 32.0195H123.753C123.73 31.7746 123.628 31.5559 123.448 31.3655C123.268 31.1735 122.974 31.0781 122.569 31.0781C122.304 31.0781 122.078 31.1305 121.896 31.2346C121.714 31.3372 121.572 31.4757 121.468 31.6492C121.362 31.8215 121.287 32.0114 121.246 32.217C121.204 32.4226 121.183 32.6381 121.183 32.8639C121.183 33.0843 121.212 33.2954 121.271 33.4983C121.331 33.7028 121.421 33.8834 121.541 34.0421C121.661 34.1997 121.811 34.3246 121.992 34.4174C122.172 34.509 122.379 34.5537 122.614 34.5537C122.851 34.5537 123.057 34.5063 123.233 34.4114C123.411 34.3159 123.549 34.1894 123.644 34.0306C123.741 33.8703 123.796 33.7006 123.807 33.5179ZM116.645 31.2025H115.457C115.105 31.2025 114.863 31.2821 114.731 31.4441C114.599 31.605 114.533 31.785 114.533 31.9819C114.533 32.211 114.608 32.3997 114.759 32.5503C114.909 32.6981 115.169 32.7734 115.535 32.7734H116.646L116.645 31.2025ZM116.645 33.2425H115.686L114.653 34.8968H113.953L115.101 33.1835C114.969 33.1754 114.839 33.1492 114.705 33.1045C114.572 33.0597 114.447 32.9905 114.333 32.8945C114.217 32.8006 114.127 32.6785 114.058 32.5252C113.989 32.3725 113.955 32.1892 113.955 31.9748C113.955 31.6557 114.055 31.3683 114.254 31.1125C114.451 30.8577 114.838 30.7312 115.411 30.7312H117.215V34.8963H116.647L116.645 33.2425ZM110.202 33.3505H111.676L110.94 31.2979L110.202 33.3505ZM110.045 33.8201L109.646 34.8985H109.038L110.638 30.7334H111.241L112.84 34.8985H112.229L111.832 33.8201H110.045ZM105.232 32.9403V34.8974H104.665V30.7328H105.232V32.4695H107.357V30.7328H107.925V34.8974H107.357V32.9403H105.232ZM100.759 32.8983V34.4272H101.905C102.014 34.4272 102.131 34.4081 102.259 34.3705C102.386 34.3323 102.501 34.2565 102.603 34.1408C102.705 34.0263 102.756 33.8654 102.756 33.6597C102.756 33.1519 102.448 32.8983 101.833 32.8983H100.759ZM100.759 30.7328V32.4281H101.972C102.163 32.4281 102.362 32.4592 102.564 32.5197C102.769 32.5808 102.948 32.7052 103.103 32.8912C103.258 33.0777 103.335 33.339 103.335 33.6772C103.335 34.1305 103.198 34.4463 102.923 34.6274C102.647 34.8063 102.33 34.8968 101.972 34.8968H100.191V30.7323L100.759 30.7328ZM94.8964 34.8974V34.4092C94.9445 34.4206 94.9965 34.4266 95.0489 34.4266C95.6109 34.4266 95.8927 33.7923 95.8927 32.5235V30.7323H98.5423V34.8974H97.975V31.2025H96.46V32.6446C96.46 33.4765 96.3372 34.065 96.096 34.4065C95.8548 34.7495 95.5422 34.9208 95.1555 34.9208C95.0965 34.9214 95.0105 34.9137 94.8964 34.8974ZM90.8633 34.0819L93.1148 30.7323H93.6811V34.8968H93.1148V31.5237L90.8633 34.8968H90.2959V30.7323H90.8633V34.0819ZM86.2065 32.9217V34.4272H87.3899C88.0227 34.4272 88.3374 34.1828 88.3374 33.6963C88.3374 33.1803 88.0221 32.9228 87.3899 32.9228H86.2065V32.9217ZM86.2065 31.2025V32.4521H87.5062C87.7366 32.4521 87.9551 32.4832 88.1633 32.5432C88.3699 32.6032 88.5478 32.7254 88.6966 32.9092C88.8437 33.0919 88.9167 33.3515 88.9167 33.6892C88.9167 33.8855 88.8799 34.0726 88.8047 34.2526C88.7296 34.4315 88.5879 34.5843 88.378 34.7092C88.1709 34.8341 87.8826 34.8974 87.5105 34.8974H85.6386V30.7323H88.6387V31.2019L86.2065 31.2025ZM82.215 34.5521C82.454 34.5521 82.6633 34.5106 82.8413 34.4272C83.0208 34.3426 83.1663 34.2226 83.2842 34.0688C83.4 33.9155 83.4871 33.7312 83.5433 33.5201C83.5996 33.3068 83.6277 33.0728 83.6277 32.8154C83.6277 32.439 83.5736 32.1303 83.4676 31.8914C83.361 31.6519 83.2307 31.4735 83.0733 31.3579C82.917 31.2412 82.765 31.1654 82.6184 31.1305C82.4719 31.0961 82.3361 31.0781 82.2144 31.0781C81.8385 31.0781 81.5097 31.2057 81.2268 31.4605C80.945 31.7152 80.8022 32.1679 80.8022 32.8148C80.8022 33.0679 80.8363 33.3226 80.9039 33.5801C80.9715 33.8386 81.1105 34.0645 81.3209 34.2597C81.5297 34.455 81.8299 34.5521 82.215 34.5521ZM82.2155 35.0217C81.8959 35.0217 81.6103 34.971 81.3593 34.8685C81.1073 34.7659 80.8953 34.6192 80.7238 34.4266C80.5529 34.2341 80.4215 34.0023 80.3317 33.7285C80.243 33.4535 80.1987 33.1486 80.1987 32.8143C80.1987 32.4346 80.2522 32.1046 80.3598 31.8221C80.4669 31.5395 80.6162 31.3105 80.8017 31.1305C80.9878 30.9515 81.2019 30.8201 81.4426 30.7345C81.6838 30.6505 81.9413 30.6085 82.2155 30.6085C82.4924 30.6085 82.7537 30.6494 82.9949 30.7334C83.2366 30.8179 83.4503 30.9499 83.6347 31.1266C83.8213 31.3055 83.9652 31.5357 84.0728 31.8188C84.1783 32.103 84.2313 32.433 84.2313 32.8143C84.2313 33.1541 84.1869 33.4595 84.102 33.7301C84.0155 34.0006 83.8851 34.233 83.7104 34.4266C83.5401 34.6192 83.3259 34.7665 83.0733 34.8685C82.8207 34.971 82.5335 35.0217 82.2155 35.0217ZM76.3894 34.8974L75.014 31.3999H75.0016L75.014 31.5597V34.8974H74.4466V30.7323H75.299L76.6193 34.1594L77.9395 30.7323H78.7908V34.8974H78.2224V31.5597L78.2337 31.3999H78.2159L76.8459 34.8985H76.3862V34.8974H76.3894ZM71.0203 34.5521C71.2599 34.5521 71.4692 34.5106 71.6477 34.4272C71.8273 34.3426 71.9744 34.2226 72.0907 34.0688C72.208 33.9155 72.294 33.7312 72.3497 33.5201C72.406 33.3068 72.433 33.0728 72.433 32.8154C72.433 32.439 72.38 32.1303 72.2735 31.8914C72.168 31.6519 72.0366 31.4735 71.8792 31.3579C71.7229 31.2412 71.572 31.1654 71.4249 31.1305C71.2778 31.0961 71.1431 31.0781 71.0192 31.0781C70.6461 31.0781 70.314 31.2057 70.0327 31.4605C69.7509 31.7152 69.6087 32.1679 69.6087 32.8148C69.6087 33.0679 69.6433 33.3226 69.7115 33.5801C69.7785 33.8386 69.9164 34.0645 70.1274 34.2597C70.3367 34.455 70.6358 34.5521 71.0203 34.5521ZM71.0214 35.0217C70.7034 35.0217 70.4173 34.971 70.1658 34.8685C69.9143 34.7659 69.7039 34.6192 69.5313 34.4266C69.3604 34.2341 69.2301 34.0023 69.1398 33.7285C69.0516 33.4535 69.0073 33.1486 69.0073 32.8143C69.0073 32.4346 69.0608 32.1046 69.1684 31.8221C69.2755 31.5395 69.4243 31.3105 69.6103 31.1305C69.7964 30.9515 70.0084 30.8201 70.2528 30.7345C70.493 30.6505 70.7515 30.6085 71.0241 30.6085C71.3027 30.6085 71.5628 30.6494 71.8024 30.7334C72.0447 30.8179 72.2578 30.9499 72.4439 31.1266C72.6315 31.3055 72.7732 31.5357 72.8825 31.8188C72.988 32.103 73.042 32.433 73.042 32.8143C73.042 33.1541 72.9977 33.4595 72.9112 33.7301C72.8225 34.0006 72.6937 34.233 72.5201 34.4266C72.3481 34.6192 72.1361 34.7665 71.883 34.8685C71.6277 34.971 71.34 35.0217 71.0214 35.0217ZM66.0958 31.2025H64.7183V30.7328H68.0326V31.2025H66.6626V34.8968H66.0964L66.0958 31.2025ZM60.9377 32.9697V34.4272H62.1162C62.2936 34.4272 62.4553 34.4081 62.5981 34.3705C62.7404 34.3323 62.8588 34.2586 62.9502 34.1501C63.0416 34.041 63.0865 33.8877 63.0865 33.6897C63.0865 33.4252 63.0005 33.2381 62.8269 33.1317C62.6544 33.0237 62.4164 32.9697 62.1162 32.9697H60.9377ZM60.9377 31.2025V32.4995H62.0789C62.3807 32.4995 62.5938 32.4368 62.7193 32.3135C62.8431 32.1886 62.9064 32.0354 62.9064 31.851C62.9064 31.6934 62.8529 31.5439 62.7452 31.4075C62.6381 31.2706 62.4207 31.2025 62.0984 31.2025H60.9377ZM60.3714 30.7328H62.2244C62.4548 30.7328 62.6506 30.7606 62.8139 30.8146C62.9756 30.8703 63.1071 30.9445 63.206 31.041C63.3039 31.1381 63.3753 31.2494 63.4191 31.3759C63.4635 31.5025 63.4857 31.641 63.4857 31.791C63.4857 31.9274 63.4565 32.0588 63.3997 32.1875C63.3423 32.3152 63.2612 32.4237 63.1536 32.5132C63.0454 32.6015 62.9215 32.6588 62.7798 32.6845V32.703C62.9983 32.7374 63.2017 32.8312 63.3878 32.9877C63.5749 33.1421 63.6679 33.3925 63.6679 33.7366C63.6679 33.9739 63.6176 34.1774 63.5181 34.3503C63.4186 34.5226 63.2563 34.6568 63.0335 34.7523C62.808 34.8477 62.5181 34.8979 62.1589 34.8979H60.3725V30.7323L60.3714 30.7328ZM56.62 33.3505H58.0944L57.3583 31.2979L56.62 33.3505ZM56.4637 33.8201L56.0646 34.8985H55.4556L57.056 30.7334H57.659L59.2594 34.8985H58.6488L58.2513 33.8201H56.4637ZM51.8189 31.2025H50.6306C50.2807 31.2025 50.0389 31.2821 49.9064 31.4441C49.7739 31.605 49.7073 31.785 49.7073 31.9819C49.7073 32.211 49.7825 32.3997 49.9329 32.5503C50.0827 32.6981 50.3418 32.7734 50.7096 32.7734H51.8189V31.2025ZM51.8189 33.2425H50.861L49.8269 34.8968H49.1281L50.2742 33.1835C50.1433 33.1754 50.0108 33.1492 49.8766 33.1045C49.7441 33.0597 49.6208 32.9905 49.5056 32.8945C49.3915 32.8006 49.3006 32.6785 49.2309 32.5252C49.1616 32.3725 49.1286 32.1892 49.1286 31.9748C49.1286 31.6557 49.2282 31.3683 49.4261 31.1125C49.6251 30.8577 50.0113 30.7312 50.5825 30.7312H52.3873V34.8963H51.8199V33.2419L51.8189 33.2425ZM45.3762 33.3505H46.8505L46.1134 31.2979L45.3762 33.3505ZM45.2199 33.8201L44.8207 34.8979H44.2117L45.8121 30.7328H46.4152L48.0156 34.8979H47.4038L47.0069 33.8195L45.2199 33.8201ZM40.4079 32.9403V34.8974H39.8394V30.7328H40.4079V32.4695H42.5324V30.7328H43.0986V34.8974H42.5324V32.9403H40.4079ZM35.9328 32.8983V34.4272H37.0789C37.1887 34.4272 37.3066 34.4081 37.4342 34.3705C37.5619 34.3323 37.6765 34.2565 37.7782 34.1408C37.8799 34.0263 37.9313 33.8654 37.9313 33.6597C37.9313 33.1519 37.6235 32.8983 37.0075 32.8983H35.9328ZM35.9328 30.7328V32.4281H37.146C37.3374 32.4281 37.5359 32.4592 37.7393 32.5197C37.9426 32.5808 38.1228 32.7052 38.2785 32.8912C38.4332 33.0777 38.5111 33.339 38.5111 33.6772C38.5111 34.1305 38.3721 34.4463 38.0979 34.6274C37.8215 34.8063 37.5046 34.8968 37.146 34.8968H35.3655V30.7323L35.9328 30.7328ZM30.071 34.8974V34.4092C30.1192 34.4206 30.17 34.4266 30.2236 34.4266C30.7855 34.4266 31.0673 33.7923 31.0673 32.5235V30.7323H33.7169V34.8974H33.1496V31.2025H31.6346V32.6446C31.6346 33.4765 31.5135 34.065 31.2723 34.4065C31.03 34.7495 30.7157 34.9208 30.329 34.9208C30.2706 34.9214 30.1846 34.9137 30.071 34.8974ZM26.754 33.3505H28.23L27.4911 31.2979L26.754 33.3505ZM26.5977 33.8201L26.1985 34.8985H25.59L27.1894 30.7334H27.7929L29.3928 34.8985H28.7822L28.3846 33.8201H26.5977ZM22.2151 31.2025V32.7674H23.2546C23.5991 32.7674 23.8463 32.6959 23.9956 32.5541C24.1454 32.4112 24.2201 32.2066 24.2201 31.9405C24.2201 31.6732 24.1378 31.4845 23.974 31.3715C23.8079 31.2586 23.5689 31.2019 23.2552 31.2019L22.2151 31.2025ZM21.6483 30.7328H23.3687C24.3223 30.7328 24.7988 31.1305 24.7988 31.9279C24.7988 32.8012 24.3039 33.237 23.3152 33.237H22.2151V34.8968H21.6488L21.6483 30.7328ZM17.8985 32.5115H20.1128V32.9806H17.8985V34.4266H20.4081V34.8963H17.3306V30.7317H20.3432V31.2014H17.8985V32.5115ZM14.9384 31.2025H13.4895V31.7212C13.4895 32.0845 13.4705 32.4145 13.4332 32.7139C13.3954 33.0123 13.3245 33.3052 13.2217 33.5926C13.1195 33.8801 12.9773 34.1577 12.7956 34.4266H14.9379L14.9384 31.2025ZM15.5058 34.4272H16.1148L16.0612 35.8372H15.5658V34.8968H12.2828V35.8372H11.7874L11.7393 34.4272H12.1189C12.6549 33.7835 12.9221 32.8388 12.9221 31.5892V30.7328H15.5058V34.4272ZM8.50224 32.5115H10.7165V32.9806H8.50224V34.4266H11.0129V34.8963H7.93542V30.7317H10.9474V31.2014H8.50224V32.5115ZM4.39714 33.9875H4.56048C5.48156 33.9875 5.94237 33.5828 5.94237 32.7745C5.94237 32.2906 5.80282 31.9683 5.52158 31.8079C5.24033 31.6459 4.92123 31.5663 4.56048 31.5663H4.39714V33.9875ZM3.82978 33.9875V31.5663H3.67347C2.74699 31.5663 2.28456 31.9688 2.28456 32.775C2.28456 32.9714 2.31538 33.1579 2.3765 33.3335C2.43708 33.5081 2.57121 33.6625 2.7789 33.7923C2.98496 33.9226 3.28406 33.9875 3.67293 33.9875H3.82978ZM3.82978 35.0512V34.4272H3.59451C3.41332 34.4272 3.21753 34.4065 3.00984 34.3661C2.80161 34.3263 2.59555 34.2477 2.3911 34.1337C2.18666 34.0203 2.01791 33.8506 1.88324 33.627C1.74803 33.4039 1.68042 33.1197 1.68042 32.7745C1.68042 32.3288 1.78913 31.9825 2.00764 31.7375C2.22452 31.4926 2.47656 31.3295 2.76267 31.2477C3.04987 31.167 3.32624 31.1261 3.59451 31.1261H3.82978V30.4961H4.39714V31.1261H4.63241C4.90608 31.1261 5.18571 31.1665 5.47128 31.2472C5.75685 31.3285 6.00781 31.4915 6.22253 31.7359C6.43833 31.9814 6.54596 32.3283 6.54596 32.7755C6.54596 33.1361 6.4724 33.4312 6.32475 33.6581C6.17656 33.885 5.99483 34.053 5.78119 34.1615C5.56809 34.2706 5.36203 34.3421 5.16461 34.377C4.9672 34.4114 4.79088 34.4288 4.63187 34.4288H4.39714V35.0528L3.82978 35.0512Z" fill="#444443"/>
</svg>
