<svg width="14" height="10" viewBox="0 0 14 10" fill="none" xmlns="http://www.w3.org/2000/svg">
<path d="M13.2707 0.657109L12.8289 0.215345C12.6901 0.0764234 12.505 0 12.3074 0C12.1099 0 11.9247 0.0764234 11.7859 0.215345L5.57846 6.42263L1.70017 2.54423C1.56136 2.40553 1.37617 2.32899 1.17859 2.32899C0.981113 2.32899 0.796031 2.40553 0.657109 2.54423L0.215235 2.98588C0.0763137 3.12502 0 3.31033 0 3.50769C0 3.70516 0.0763137 3.89035 0.215235 4.02928L4.59406 8.40788C4.59987 8.41611 4.60601 8.42378 4.61314 8.4308L5.05501 8.86533C5.19383 9.0037 5.37902 9.07289 5.57814 9.07289H5.58044C5.77813 9.07289 5.96332 9.0037 6.10192 8.86533L6.5439 8.42696C6.55103 8.41994 6.55706 8.41413 6.56067 8.40821L13.2706 1.69897C13.5584 1.4118 13.5584 0.944601 13.2707 0.657109Z" fill="#E22427"/>
</svg>
