<svg width="29" height="23" viewBox="0 0 29 23" fill="none" xmlns="http://www.w3.org/2000/svg">
<path d="M15.008 15.9624C15.6613 15.9624 16.1922 15.4291 16.1922 14.775C16.1922 14.1224 15.6613 13.5928 15.008 13.5928L9.64258 9.64648L13.8237 14.8512C13.8625 15.4708 14.3787 15.9624 15.008 15.9624Z" fill="#E22427"/>
<path d="M20.4137 19.4589H8.58691V22.2655H20.4137V19.4589Z" fill="#E22427"/>
<path d="M24.753 4.98151C22.0143 2.24281 18.373 0.734558 14.5 0.734558C10.6269 0.734558 6.98559 2.24281 4.24689 4.98151C1.50818 7.72021 0 11.3615 0 15.2346C0 17.7354 0.630032 20.1387 1.81296 22.2655H4.52306L6.50524 21.121L5.62986 19.6047L3.08107 21.0764C2.1806 19.3232 1.67193 17.3372 1.67193 15.2346C1.67193 14.8624 1.68883 14.4942 1.72 14.13L4.75908 14.6658L5.06311 12.9416L1.98826 12.3994C2.53771 9.9735 3.77654 7.80641 5.48728 6.11549L7.57059 8.59836L8.91185 7.47297L6.81272 4.97137C8.73756 3.52599 11.0806 2.60931 13.6246 2.43711V5.75778H15.3754V2.43711C17.9194 2.60944 20.2624 3.52606 22.1874 4.97144L20.0881 7.47297L21.4293 8.59836L23.5127 6.11542C25.2234 7.80641 26.4622 9.9735 27.0117 12.3994L23.9369 12.9417L24.241 14.6658L27.2799 14.1299C27.311 14.4941 27.3279 14.8623 27.3279 15.2344C27.3279 17.3372 26.8195 19.3232 25.9189 21.0763L23.37 19.6048L22.4947 21.121L24.4768 22.2654H27.187C28.37 20.1386 29 17.7352 29 15.2344C29.0001 11.3614 27.4917 7.72008 24.753 4.98151Z" fill="#E22427"/>
</svg>
