<svg width="30" height="30" viewBox="0 0 30 30" fill="none" xmlns="http://www.w3.org/2000/svg">
<path d="M25.6066 4.39336C22.7735 1.56029 19.0066 0 15 0C10.9934 0 7.22654 1.56029 4.39336 4.39336C1.56029 7.22654 0 10.9934 0 15C0 19.0066 1.56029 22.7735 4.39336 25.6066C7.22654 28.4397 10.9934 30 15 30C19.0066 30 22.7735 28.4397 25.6066 25.6066C28.4397 22.7735 30 19.0066 30 15C30 10.9934 28.4397 7.22654 25.6066 4.39336V4.39336ZM15 28.2422C7.69822 28.2422 1.75781 22.3018 1.75781 15C1.75781 7.69822 7.69822 1.75781 15 1.75781C22.3018 1.75781 28.2422 7.69822 28.2422 15C28.2422 22.3018 22.3018 28.2422 15 28.2422V28.2422Z" fill="#E22427"/>
<path d="M15 3.53027C8.67557 3.53027 3.53027 8.67557 3.53027 15C3.53027 21.3244 8.67557 26.4697 15 26.4697C21.3244 26.4697 26.4697 21.3244 26.4697 15C26.4697 8.67557 21.3244 3.53027 15 3.53027ZM15 5.28809C18.928 5.28809 22.3187 7.63219 23.8471 10.9949C22.0354 9.96346 19.1067 8.82568 15 8.82568C10.8935 8.82568 7.96471 9.9634 6.15299 10.9948C7.68135 7.63213 11.072 5.28809 15 5.28809V5.28809ZM5.66883 17.6948C9.57809 18.063 11.9369 20.4219 12.3052 24.3312C9.11285 23.4078 6.59221 20.8871 5.66883 17.6948V17.6948ZM14.0921 24.6691C13.9555 22.2472 13.1716 20.1899 11.8042 18.6845C10.2832 17.0099 8.05605 16.058 5.33086 15.9078C5.30303 15.6088 5.28809 15.3061 5.28809 15C5.28809 14.5485 5.31979 14.1043 5.37967 13.669C5.7058 13.384 6.44871 12.7954 7.60852 12.2128C9.08824 11.4695 11.5718 10.5835 15 10.5835C18.4282 10.5835 20.9117 11.4695 22.3914 12.2128C23.5526 12.7961 24.2958 13.3854 24.6203 13.669C24.6803 14.1043 24.7119 14.5485 24.7119 14.9999C24.7119 15.3061 24.697 15.6088 24.6691 15.9077C21.9439 16.058 19.7168 17.0098 18.1958 18.6844C16.8284 20.1898 16.0446 22.2471 15.9079 24.669C15.6089 24.6969 15.3062 24.7118 15.0001 24.7118C14.6939 24.7118 14.3912 24.697 14.0921 24.6691V24.6691ZM17.6949 24.3312C18.0632 20.4219 20.422 18.063 24.3312 17.6948C23.4078 20.8871 20.8871 23.4078 17.6949 24.3312Z" fill="#E22427"/>
<path d="M17.6436 15C17.6436 13.5421 16.4574 12.356 14.9995 12.356C13.5416 12.356 12.3555 13.5421 12.3555 15C12.3555 16.4579 13.5416 17.644 14.9995 17.644C16.4574 17.644 17.6436 16.4579 17.6436 15ZM14.1133 15C14.1133 14.5113 14.5108 14.1138 14.9995 14.1138C15.4882 14.1138 15.8857 14.5113 15.8857 15C15.8857 15.4887 15.4882 15.8862 14.9995 15.8862C14.5108 15.8862 14.1133 15.4887 14.1133 15Z" fill="#E22427"/>
</svg>
