<svg width="24" height="19" viewBox="0 0 24 19" fill="none" xmlns="http://www.w3.org/2000/svg">
<path d="M23.6326 0.531021C23.3396 0.188611 22.9 0 22.3945 0C22.1217 0 21.8328 0.0543608 21.5357 0.16152L1.21672 7.49129C0.136357 7.8811 -0.00905495 8.46786 0.000414145 8.78291C0.00983637 9.0964 0.188484 9.67009 1.27593 10.0013L5.58507 11.5047L7.85611 16.4542C8.0844 17.1388 8.56142 17.619 9.17025 17.7747C9.3106 17.8107 9.4539 17.8283 9.59824 17.8283C10.0927 17.8283 10.599 17.621 11.0362 17.2301L12.9177 15.547L17.5086 18.5555C17.922 18.8464 18.3719 19 18.8106 19C19.701 19 20.4111 18.3794 20.6198 17.419L23.9429 2.11668C24.0794 1.48778 23.9692 0.924668 23.6326 0.531021ZM7.01317 11.2724L12.877 8.27854L8.79032 11.8476C8.64481 11.9747 8.56376 12.1537 8.56353 12.3403C8.56324 12.3472 8.56235 12.3538 8.56231 12.3607L8.5482 14.6178L7.01317 11.2724ZM10.0733 16.2542C10.03 16.2929 9.98652 16.327 9.94358 16.3567L9.96078 13.6092L11.7323 14.7701L10.0733 16.2542ZM22.5657 1.84554L19.2426 17.1479C19.2091 17.3021 19.0999 17.6611 18.8105 17.6611C18.6754 17.6611 18.5077 17.5948 18.3385 17.4745C18.3312 17.4693 18.3239 17.4643 18.3164 17.4595L13.2552 14.1427C13.2545 14.1423 13.2538 14.1418 13.2531 14.1414L10.3916 12.2661L17.9507 5.66445C18.2119 5.43634 18.2539 5.0588 18.0487 4.78361C17.8436 4.50841 17.4554 4.42165 17.143 4.58112L6.05464 10.2426L1.7454 8.73909C1.74226 8.73797 1.73912 8.7369 1.73593 8.73583L22.034 1.4136C22.205 1.35188 22.3244 1.33893 22.3945 1.33893C22.4292 1.33893 22.5131 1.34259 22.5421 1.37651C22.5792 1.41994 22.626 1.56762 22.5657 1.84554Z" fill="#ffffff"/>
</svg>
