<?xml version="1.0" encoding="utf-8"?>
<!-- Generator: Adobe Illustrator 24.1.2, SVG Export Plug-In . SVG Version: 6.00 Build 0)  -->
<svg version="1.1" id="Слой_1" xmlns="http://www.w3.org/2000/svg" xmlns:xlink="http://www.w3.org/1999/xlink" x="0px" y="0px"
	 viewBox="0 0 46 35.6" style="enable-background:new 0 0 46 35.6;" xml:space="preserve">
<style type="text/css">
	.st0{fill:#FD2528;}
</style>
<path class="st0" d="M15.8,31.4c-0.4,0-0.7,0.3-0.7,0.7v2.9c0,0.4,0.3,0.7,0.7,0.7c0.4,0,0.7-0.3,0.7-0.7V32
	C16.5,31.7,16.2,31.4,15.8,31.4z"/>
<path class="st0" d="M30.2,31.4c-0.4,0-0.7,0.3-0.7,0.7v2.9c0,0.4,0.3,0.7,0.7,0.7c0.4,0,0.7-0.3,0.7-0.7V32
	C30.9,31.7,30.6,31.4,30.2,31.4z"/>
<path class="st0" d="M10.3,17c-1.6-0.8-4.5-0.8-4.6-0.8c-0.4,0-0.7,0.3-0.7,0.7c0,0.4,0.3,0.7,0.7,0.7c0.8,0,3,0.1,4,0.6
	c0.1,0,0.2,0.1,0.3,0.1c0.2,0,0.5-0.1,0.6-0.4C10.8,17.6,10.7,17.2,10.3,17z"/>
<path class="st0" d="M3.6,29.9c-0.4,0-0.7,0.3-0.7,0.7v4.3c0,0.4,0.3,0.7,0.7,0.7c0.4,0,0.7-0.3,0.7-0.7v-4.3
	C4.2,30.2,3.9,29.9,3.6,29.9z"/>
<path class="st0" d="M42.4,30.8c-0.4,0-0.7,0.3-0.7,0.7v3.4c0,0.4,0.3,0.7,0.7,0.7c0.4,0,0.7-0.3,0.7-0.7v-3.4
	C43.1,31.1,42.8,30.8,42.4,30.8z"/>
<path class="st0" d="M44.4,27l-2.7-1.4c0,0,0,0,0,0l0-1.4c1.1-0.8,1.9-2,2.1-3.4c0.5-0.9,0.8-1.9,0.8-2.9c0-1.9-0.9-3.5-2.3-4.6
	c0.1-0.3,0.1-0.5,0.1-0.8c0-1.8-1.6-3.2-3.6-3.2s-3.6,1.4-3.6,3.2c0,0.3,0,0.6,0.1,0.8c-0.8,0.6-1.5,1.5-1.9,2.4
	c-0.2-1.6-0.3-3.6-0.5-5.8c-0.2-3-1.3-5.5-3.1-7.3C28.1,0.9,25.7,0,23,0s-5.1,0.9-6.9,2.7C14.3,4.5,13.2,7,13,10
	c-0.1,0.8-0.1,1.5-0.2,2.3H6.4c-2.4,0-4.3,1.9-4.3,4.3v0c0,0.5,0.1,1.1,0.4,1.6l0.3,0.7v1.1c0,1.7,0.9,3.3,2.2,4.2v1
	c0,0.1-0.1,0.2-0.2,0.3l-2.8,0.8C0.8,26.6,0,27.7,0,29v5.6c0,0.4,0.3,0.7,0.7,0.7c0.4,0,0.7-0.3,0.7-0.7V29c0-0.7,0.4-1.2,1.1-1.4
	l2.8-0.8c0.1,0,0.2-0.1,0.3-0.1l1.7,1.7v6.2c0,0.4,0.3,0.7,0.7,0.7c0.4,0,0.7-0.3,0.7-0.7v-6.2l1.7-1.7c0.2,0.1,0.5,0.2,0.6,0.2
	l0.7,0.2c-0.9,0.7-1.5,1.7-1.5,2.9v4.6c0,0.4,0.3,0.7,0.7,0.7c0.4,0,0.7-0.3,0.7-0.7v-4.6c0-0.9,0.5-1.7,1.3-2l3.9-1.7
	c1.2,2.4,3.7,4,6.4,4c2.7,0,5.2-1.5,6.4-4l3.9,1.7c0.8,0.4,1.3,1.1,1.3,2v4.6c0,0.4,0.3,0.7,0.7,0.7c0.4,0,0.7-0.3,0.7-0.7v-4.6
	c0-0.9-0.3-1.7-0.9-2.3l1-0.5l0.8,0.7c0.5,0.5,1.2,0.8,2,0.8c0.7,0,1.4-0.3,2-0.8l0.8-0.7l2.3,1.1c0.5,0.3,0.8,0.8,0.8,1.3v5
	c0,0.4,0.3,0.7,0.7,0.7c0.4,0,0.7-0.3,0.7-0.7v-5C46,28.5,45.4,27.5,44.4,27z M38.8,10.7c1.2,0,2.2,0.8,2.2,1.8c0,0,0,0.1,0,0.1
	c-0.7-0.3-1.4-0.4-2.2-0.4c-0.8,0-1.5,0.2-2.2,0.4c0,0,0-0.1,0-0.1C36.6,11.5,37.6,10.7,38.8,10.7z M7.9,27.1l-1.5-1.5
	c0-0.1,0-0.3,0-0.4v-0.3c0.4,0.1,0.9,0.2,1.3,0.2c0.1,0,0.1,0,0.2,0c0.5,0,1-0.1,1.5-0.2v0.3c0,0.1,0,0.3,0,0.4L7.9,27.1z M7.8,23.8
	c-1.9-0.1-3.5-1.8-3.5-3.8v-1.3c0-0.1,0-0.2-0.1-0.3l-0.4-0.8c-0.2-0.3-0.2-0.6-0.2-1v0c0-1.6,1.3-2.9,2.9-2.9h5.8v2.8
	c0,0.5-0.1,0.9-0.3,1.3l-0.3,0.7c0,0.1-0.1,0.2-0.1,0.3v1.4c0,1-0.4,1.9-1.1,2.6C9.7,23.4,8.8,23.8,7.8,23.8z M13.4,26.1l-2.1-0.6
	c-0.6-0.2-0.6-0.2-0.6-0.4l0-0.9c0.2-0.2,0.4-0.3,0.6-0.5c0.1-0.1,0.3-0.3,0.4-0.4c0.1,0.2,0.3,0.4,0.5,0.6c0.5,0.3,1.6,0.9,3.1,1.5
	L13.4,26.1z M23,28.8c-2.2,0-4.2-1.2-5.2-3.2l1-0.4c0.8-0.3,1.3-1.1,1.3-1.9v-1.6C21,22,22,22.2,23,22.2c1,0,2-0.2,2.9-0.6v1.6
	c0,0.8,0.5,1.6,1.3,1.9l1,0.4C27.2,27.6,25.2,28.8,23,28.8z M28.8,24.5L27.7,24c-0.3-0.1-0.5-0.4-0.5-0.7V21
	c2.2-1.4,3.6-3.8,3.6-6.6v-1.3c0-0.8-0.3-1.6-1-2.1c-1.4-1.2-4.4-3.2-9.7-3.8c-0.4,0-0.7,0.2-0.7,0.6c0,0.4,0.2,0.7,0.6,0.7
	C25,9,27.8,10.9,29,12c0.3,0.3,0.5,0.7,0.5,1.1v1.3c0,3.6-2.9,6.5-6.5,6.5c-3.6,0-6.5-2.9-6.5-6.5v-0.6c0-0.3,0.1-0.5,0.4-0.6
	c0.8-0.5,2-1.4,2.5-2.9c0.1-0.4-0.1-0.7-0.4-0.9c-0.4-0.1-0.7,0.1-0.9,0.4c-0.4,1.1-1.2,1.8-1.9,2.2c-0.7,0.4-1.1,1.1-1.1,1.8v0.6
	c0,2.8,1.4,5.2,3.6,6.6v2.3c0,0.3-0.2,0.6-0.5,0.7l-1.1,0.5c-2.2-0.6-3.6-1.4-4.2-1.8c0,0,0,0,0,0c0.2-1.4,0.8-5.4,1.4-12.6
	c0.2-2.7,1.1-4.9,2.7-6.4c1.5-1.5,3.6-2.3,6-2.3c2.4,0,4.4,0.8,6,2.3c1.6,1.5,2.5,3.8,2.7,6.4c0.5,7.2,1.1,11.2,1.4,12.6
	c0,0,0,0,0,0C32.4,23.1,31,23.9,28.8,24.5z M36,25.6C36,25.6,36,25.6,36,25.6l-2.1,1.1c0,0,0,0-0.1,0l-3.1-1.4
	c1.5-0.5,2.5-1.1,3.1-1.5c0.5-0.3,0.7-0.8,0.6-1.4c0,0,0-0.1,0-0.1c0.4,0.8,0.9,1.4,1.6,1.9V25.6z M39.9,26.9c-0.6,0.5-1.5,0.5-2,0
	l-0.6-0.6c0.1-0.2,0.2-0.4,0.2-0.7v-0.7c0.5,0.1,1,0.2,1.5,0.2s1-0.1,1.5-0.2l0,0.7c0,0.2,0.1,0.5,0.2,0.7L39.9,26.9z M38.8,23.8
	c-1.9,0-3.4-1.4-3.6-3.2c0-0.1,0-0.2-0.1-0.3c-0.4-0.7-0.6-1.5-0.6-2.3c0-2.4,2-4.4,4.4-4.4c2.4,0,4.4,2,4.4,4.4
	c0,0.5-0.1,0.9-0.2,1.4c-1.9-1.9-5.3-2.7-5.4-2.7c-0.2,0-0.4,0-0.6,0.1c-0.2,0.1-0.3,0.3-0.3,0.5c0,0,0,0.5-0.5,1
	c-0.3,0.3-0.3,0.7,0,1c0.3,0.3,0.7,0.3,1,0c0.4-0.4,0.6-0.8,0.7-1.1c1.1,0.3,3.5,1.2,4.5,2.7C42.1,22.5,40.6,23.8,38.8,23.8z"/>
</svg>
