<svg width="33" height="26" viewBox="0 0 33 26" fill="none" xmlns="http://www.w3.org/2000/svg">
<g clip-path="url(#clip0_59_1398)">
<path d="M16.1534 6.62939C13.8279 6.62939 11.9424 8.51463 11.9424 10.8404C11.9424 13.1661 13.8279 15.0513 16.1534 15.0513C18.4792 15.0513 20.3645 13.1661 20.3645 10.8404C20.362 8.51589 18.4781 6.63207 16.1534 6.62939ZM16.1534 14.2092C14.2931 14.2092 12.7847 12.701 12.7847 10.8404C12.7847 8.97995 14.2931 7.47156 16.1534 7.47156C18.0141 7.47156 19.5222 8.97995 19.5222 10.8404C19.5202 12.7002 18.0132 14.2071 16.1534 14.2092Z" fill="black"/>
<path d="M22.0488 10.8404C22.0488 7.58453 19.4095 4.94507 16.1534 4.94507C12.8975 4.94507 10.258 7.58453 10.258 10.8404C10.258 14.0964 12.8975 16.7358 16.1534 16.7358C19.408 16.7324 22.0453 14.0949 22.0488 10.8404ZM16.1534 15.8937C13.3626 15.8937 11.1002 13.6313 11.1002 10.8404C11.1002 8.04962 13.3626 5.7873 16.1534 5.7873C18.9442 5.7873 21.2066 8.04962 21.2066 10.8404C21.2037 13.63 18.9429 15.8907 16.1534 15.8937Z" fill="black"/>
<path d="M23.3121 18.4201H21.4717C21.8963 18.1213 22.295 17.7874 22.6636 17.4216C22.6788 17.4087 22.6929 17.3948 22.7058 17.3797C23.5439 16.5342 24.2125 15.5365 24.6762 14.4405C24.6949 14.4078 24.7091 14.3728 24.7183 14.3364C25.1732 13.2363 25.4107 12.0588 25.4177 10.8685V10.8656C25.4177 10.8572 25.4177 10.8487 25.4177 10.8403C25.4185 9.634 25.1822 8.43918 24.7224 7.3237L24.7196 7.31566C24.2574 6.19963 23.5823 5.18406 22.7319 4.32603C22.7219 4.3141 22.7109 4.3028 22.6996 4.29231C20.0612 1.64728 16.0904 0.849697 12.6352 2.2709H12.6315C11.5129 2.73292 10.4956 3.40878 9.6363 4.26065C9.6248 4.2701 9.61385 4.28038 9.60376 4.29148C6.96226 6.91778 6.16303 10.8767 7.57869 14.322C7.58815 14.3572 7.60234 14.3909 7.62084 14.4223C8.07748 15.5098 8.73631 16.5011 9.56208 17.3433C9.58958 17.3799 9.62291 17.4118 9.66057 17.4377C10.0247 17.7971 10.418 18.1257 10.8362 18.4201H8.99473C7.83263 18.4216 6.8907 19.3635 6.88927 20.5256V23.8944C6.8907 25.0568 7.83263 25.9985 8.99473 25.9999H23.3121C24.4745 25.9985 25.4164 25.0568 25.4177 23.8944V20.5256C25.4164 19.3635 24.4745 18.4216 23.3121 18.4201ZM7.73146 21.7889H24.5754V22.21H7.73146V21.7889ZM10.7176 17.2652L10.9282 17.1953C11.149 17.1217 11.2686 16.883 11.195 16.6621C11.1216 16.4411 10.883 16.3216 10.6619 16.395L10.0265 16.6055C9.49031 16.0338 9.03586 15.3902 8.67651 14.6934L8.8942 14.7086H8.92445C9.15696 14.7168 9.35211 14.5348 9.36039 14.3023C9.36858 14.0698 9.18658 13.8746 8.95408 13.8664L8.28619 13.8189C8.00618 13.0848 7.83077 12.3154 7.76477 11.5326L7.96568 11.6334C8.17376 11.7372 8.42683 11.6527 8.53091 11.4446C8.63475 11.2365 8.55021 10.9835 8.34213 10.8796L7.74462 10.5876C7.76559 9.80221 7.89674 9.02355 8.13445 8.27467L8.28233 8.44509C8.43486 8.62094 8.70093 8.63961 8.87671 8.48708C9.05233 8.33447 9.07123 8.0684 8.9187 7.89263L8.48072 7.38744C8.80312 6.67291 9.22337 6.00676 9.72966 5.40818L9.79868 5.61589C9.87235 5.83666 10.1111 5.95618 10.3321 5.88251C10.5529 5.80892 10.6724 5.57019 10.5988 5.34917L10.3883 4.71978C10.959 4.18087 11.6021 3.7244 12.2988 3.36293L12.2832 3.58149C12.2667 3.81323 12.4413 4.01452 12.6732 4.03118H12.7034C12.9249 4.0318 13.1089 3.86073 13.1246 3.63989L13.1718 2.97472C13.9045 2.69468 14.6728 2.51929 15.4545 2.4537L15.3554 2.65129C15.2516 2.85938 15.3361 3.11249 15.5442 3.21633C15.7523 3.32037 16.0054 3.23586 16.1093 3.02777L16.4061 2.43149C17.1916 2.45226 17.9702 2.58365 18.7194 2.82134L18.5509 2.96918C18.3877 3.124 18.3751 3.37979 18.5223 3.55004C18.6696 3.72008 18.9245 3.74455 19.1012 3.60556L19.6066 3.1676C20.321 3.49 20.9873 3.91028 21.5858 4.4165L21.3785 4.48559C21.1575 4.55899 21.038 4.79771 21.1117 5.01875C21.185 5.23958 21.4238 5.35904 21.6446 5.28564L22.2738 5.07508C22.8129 5.64567 23.2698 6.28882 23.6311 6.9857L23.4125 6.97002C23.2568 6.94906 23.1026 7.01627 23.012 7.14461C22.9215 7.27288 22.9099 7.44086 22.9819 7.58031C23.0537 7.71992 23.1974 7.80769 23.3543 7.80856L24.0197 7.8556C24.2997 8.58903 24.4749 9.35824 24.54 10.1404L24.3427 10.0415C24.1346 9.93764 23.8815 10.0219 23.7775 10.2303C23.6736 10.4383 23.7582 10.6915 23.9662 10.7953L24.5662 11.0951C24.5422 11.8787 24.4081 12.6549 24.1679 13.4011L24.0248 13.2359C23.8722 13.0603 23.6062 13.0414 23.4306 13.194C23.2548 13.3464 23.236 13.6125 23.3884 13.788L23.828 14.2934C23.5048 15.0084 23.0844 15.6751 22.5787 16.2752L22.5084 16.0646C22.4348 15.8436 22.196 15.7241 21.975 15.7977C21.754 15.8713 21.6347 16.1103 21.7083 16.331L21.9189 16.9666C21.3012 17.5549 20.5972 18.0451 19.8311 18.4201H12.4799C11.8461 18.1111 11.2538 17.7231 10.7176 17.2652ZM8.99473 19.2623H9.57689L9.46005 19.4953C9.35621 19.7034 9.44075 19.9565 9.64883 20.0603C9.85691 20.1644 10.1101 20.0799 10.2138 19.8718L10.5183 19.2623H11.6823L11.5656 19.4953C11.4617 19.7034 11.5463 19.9565 11.7544 20.0603C11.9624 20.1644 12.2155 20.0799 12.3193 19.8718L12.6239 19.2623H13.7879L13.671 19.4953C13.5673 19.7034 13.6517 19.9565 13.8598 20.0603C14.0679 20.1644 14.321 20.0799 14.4249 19.8718L14.7294 19.2623H15.8933L15.7766 19.4953C15.6727 19.7034 15.7573 19.9565 15.9653 20.0603C16.1734 20.1644 16.4265 20.0799 16.5303 19.8718L16.8348 19.2623H17.9988L17.8821 19.4953C17.7782 19.7034 17.8627 19.9565 18.0708 20.0603C18.2789 20.1644 18.532 20.0799 18.6358 19.8718L18.9404 19.2623H20.1044L19.9875 19.4953C19.8837 19.7034 19.9682 19.9565 20.1763 20.0603C20.3844 20.1644 20.6375 20.0799 20.7414 19.8718L21.0459 19.2623H22.2098L22.0931 19.4953C21.9892 19.7034 22.0738 19.9565 22.2818 20.0603C22.4899 20.1644 22.743 20.0799 22.8468 19.8718L23.1513 19.2623H23.3121C24.01 19.2623 24.5754 19.828 24.5754 20.5256V20.9468H7.73146V20.5256C7.73146 19.828 8.29714 19.2623 8.99473 19.2623ZM23.3121 25.1577H23.1513L22.8491 24.5485C22.745 24.3402 22.4921 24.2559 22.2839 24.3598C22.0758 24.4638 21.9913 24.7167 22.0953 24.925L22.2119 25.1577H21.0459L20.7436 24.5485C20.6396 24.3402 20.3867 24.2559 20.1784 24.3598C19.9703 24.4638 19.8858 24.7167 19.9898 24.925L20.1064 25.1577H18.9404L18.6381 24.5485C18.534 24.3402 18.2811 24.2559 18.0729 24.3598C17.8648 24.4638 17.7803 24.7167 17.8843 24.925L18.0009 25.1577H16.8348L16.5326 24.5485C16.4286 24.3402 16.1757 24.2559 15.9674 24.3598C15.7593 24.4638 15.6748 24.7167 15.7788 24.925L15.8954 25.1577H14.7294L14.4271 24.5485C14.3231 24.3402 14.0702 24.2559 13.8619 24.3598C13.6538 24.4638 13.5693 24.7167 13.6733 24.925L13.7899 25.1577H12.6239L12.3216 24.5485C12.2175 24.3402 11.9646 24.2559 11.7564 24.3598C11.5483 24.4638 11.4638 24.7167 11.5679 24.925L11.6844 25.1577H10.5183L10.2161 24.5485C10.1121 24.3402 9.85919 24.2559 9.65088 24.3598C9.4428 24.4638 9.35826 24.7167 9.46234 24.925L9.57894 25.1577H8.99473C8.29714 25.1577 7.73146 24.5921 7.73146 23.8944V23.0522H24.5754V23.8944C24.5754 24.5921 24.01 25.1577 23.3121 25.1577Z" fill="black"/>
<path d="M26 12.6061C29.4811 12.6061 32.303 9.7841 32.303 6.30303C32.303 2.82196 29.4811 0 26 0C22.5189 0 19.697 2.82196 19.697 6.30303C19.697 9.7841 22.5189 12.6061 26 12.6061Z" fill="#E22427"/>
<path d="M26.4538 7.51629H25.5746C25.5746 6.99944 25.7794 6.53617 26.1891 6.12647C26.2269 6.08865 26.3467 5.9752 26.5484 5.78611C26.7564 5.59071 26.8919 5.4552 26.9549 5.37956C27.0243 5.29762 27.0999 5.17471 27.1818 5.01083C27.2701 4.84695 27.3142 4.68938 27.3142 4.53811C27.3142 4.22926 27.207 3.98974 26.9927 3.81956C26.7784 3.64938 26.4948 3.56429 26.1418 3.56429C25.4485 3.56429 25.0041 3.86998 24.8087 4.48138L24.0618 4.06538C24.2131 3.63677 24.4747 3.30586 24.8466 3.07265C25.2247 2.83314 25.6596 2.71338 26.1513 2.71338C26.706 2.71338 27.185 2.87095 27.5884 3.18611C27.9918 3.49496 28.1935 3.93302 28.1935 4.50029C28.1935 4.99192 27.9886 5.44259 27.5789 5.85229C27.5474 5.8838 27.4497 5.97835 27.2858 6.13593C27.1219 6.2872 27.0116 6.3975 26.9549 6.46683C26.8982 6.52986 26.8194 6.62756 26.7186 6.75992C26.6177 6.89229 26.5484 7.01835 26.5106 7.13811C26.4727 7.25786 26.4538 7.38392 26.4538 7.51629ZM26.0095 9.55847C25.8393 9.55847 25.6943 9.49859 25.5746 9.37883C25.4548 9.25908 25.3949 9.11411 25.3949 8.94393C25.3949 8.77374 25.4548 8.62877 25.5746 8.50902C25.6943 8.38926 25.8393 8.32938 26.0095 8.32938C26.186 8.32938 26.3309 8.38926 26.4444 8.50902C26.5641 8.62877 26.624 8.77374 26.624 8.94393C26.624 9.11411 26.5641 9.25908 26.4444 9.37883C26.3309 9.49859 26.186 9.55847 26.0095 9.55847Z" fill="white"/>
<path d="M0 1.96973H3.93939" stroke="black"/>
<path d="M0 25.606H3.93939" stroke="black"/>
<path d="M1.96973 3.93945V23.6364" stroke="black"/>
</g>
<defs>
<clipPath id="clip0_59_1398">
<rect width="32.303" height="26" fill="white"/>
</clipPath>
</defs>
</svg>
