<svg width="30" height="30" viewBox="0 0 30 30" fill="none" xmlns="http://www.w3.org/2000/svg">
<path d="M28.7292 27.546C29.3776 27.1079 29.8048 26.3659 29.8048 25.5266C29.8048 24.184 28.7123 23.0915 27.3697 23.0915H25.2482C24.7472 23.0915 24.3418 23.4975 24.3418 23.9979C24.3418 25.1219 24.3418 28.0772 24.3418 29.0935C24.3418 29.5944 24.7472 29.9998 25.2482 29.9998C25.7485 29.9998 26.1545 29.5944 26.1545 29.0935V27.9617H26.6683L28.2232 29.6983C28.5571 30.0711 29.13 30.1029 29.503 29.7689C29.876 29.435 29.9076 28.862 29.5737 28.489L28.7292 27.546ZM27.3697 26.149H26.1545V24.9042H27.3697C27.7129 24.9042 27.9921 25.1834 27.9921 25.5266C27.9921 25.8698 27.7129 26.149 27.3697 26.149Z" fill="#E22427"/>
<path d="M3.25982 27.1281L4.04178 26.9848C5.03993 26.8019 5.76436 25.9303 5.76436 24.9123C5.76436 23.7506 4.82234 22.8055 3.66442 22.8055H1.10266C0.602101 22.8055 0.196289 23.2114 0.196289 23.7119C0.196289 24.2125 0.602101 24.6183 1.10266 24.6183H3.66448C3.82286 24.6183 3.95168 24.7502 3.95168 24.9123C3.95168 25.0549 3.85222 25.1767 3.71512 25.2018L2.93316 25.3451C1.34738 25.6357 0.196349 27.0215 0.196349 28.6402C0.196349 29.1408 0.602162 29.5466 1.10272 29.5466H4.85805C5.35861 29.5466 5.76442 29.1408 5.76442 28.6402C5.76442 28.1396 5.35861 27.7338 4.85805 27.7338H2.30179C2.52572 27.4244 2.86301 27.2008 3.25982 27.1281Z" fill="#E22427"/>
<path d="M1.61242 1.81292C1.87292 1.81292 1.81787 1.81292 2.07467 1.81292C2.07467 2.3168 2.07467 5.43127 2.07467 5.86258C2.07467 6.3635 2.48012 6.76895 2.98104 6.76895C3.48136 6.76895 3.88741 6.3635 3.88741 5.86258V0.906553C3.88741 0.405633 3.48136 0.000183105 2.98104 0.000183105H1.61242C1.1115 0.000183105 0.706055 0.405633 0.706055 0.906553C0.706055 1.40687 1.1115 1.81292 1.61242 1.81292Z" fill="#E22427"/>
<path d="M15.6719 4.92836H13.1486C12.648 4.92836 12.2422 5.33417 12.2422 5.83473C12.2422 6.33528 12.648 6.7411 13.1486 6.7411H15.6719C17.4034 6.7411 18.4154 4.77983 17.4181 3.37061C18.4136 1.96374 17.4058 0 15.6719 0H13.1486C12.648 0 12.2422 0.405812 12.2422 0.90637C12.2422 1.40693 12.648 1.81274 13.1486 1.81274H15.6719C15.8515 1.81274 15.9976 1.95885 15.9976 2.13849C15.9976 2.31813 15.8515 2.46424 15.6719 2.46424C14.8617 2.46424 14.5071 2.46424 14.1347 2.46424C13.6342 2.46424 13.2284 2.87005 13.2284 3.37061C13.2284 3.87117 13.6342 4.27698 14.1347 4.27698C14.5072 4.27698 14.8617 4.27698 15.6719 4.27698C15.8515 4.27698 15.9976 4.42309 15.9976 4.60267C15.9976 4.78225 15.8515 4.92836 15.6719 4.92836Z" fill="#E22427"/>
<path d="M17.2109 25.6381H16.6867V23.8792C16.6867 23.3787 16.2809 22.9728 15.7803 22.9728C15.2798 22.9728 14.874 23.3787 14.874 23.8792V25.6381H13.6956V23.8792C13.6956 23.3787 13.2897 22.9728 12.7892 22.9728C12.2886 22.9728 11.8828 23.3787 11.8828 23.8792V26.5444C11.8828 27.045 12.2886 27.4508 12.7892 27.4508H14.874V28.8074C14.874 29.308 15.2798 29.7138 15.7803 29.7138C16.2809 29.7138 16.6867 29.308 16.6867 28.8074V27.4508H17.2109C17.7115 27.4508 18.1173 27.045 18.1173 26.5444C18.1173 26.0439 17.7115 25.6381 17.2109 25.6381Z" fill="#E22427"/>
<path d="M25.421 4.27692H27.4847C27.6682 4.27692 27.8175 4.42302 27.8175 4.60261C27.8175 4.78225 27.6682 4.92836 27.4847 4.92836H25.421C24.9205 4.92836 24.5147 5.33417 24.5147 5.83473C24.5147 6.33528 24.9205 6.7411 25.421 6.7411H27.4847C28.6677 6.7411 29.6302 5.78179 29.6302 4.60261C29.6302 3.42348 28.6677 2.46418 27.4847 2.46418H26.4405L26.5173 1.81274H28.7239C29.2245 1.81274 29.6303 1.40693 29.6303 0.90637C29.6303 0.405812 29.2245 0 28.7239 0H25.7115C25.252 0 24.8651 0.343877 24.8114 0.800264L24.521 3.26444C24.4574 3.80277 24.8784 4.27692 25.421 4.27692Z" fill="#E22427"/>
<path d="M15.9065 9.03363C15.9065 8.53331 15.5004 8.12726 15.0001 8.12726C14.4998 8.12726 14.0938 8.53331 14.0938 9.03363V11.1781C14.6788 11.0383 15.3114 11.0359 15.9065 11.1781V9.03363Z" fill="#E22427"/>
<path d="M14.0938 20.9663C14.0938 21.4666 14.4998 21.8727 15.0001 21.8727C15.5004 21.8727 15.9065 21.4666 15.9065 20.9663V18.8218C15.3215 18.9617 14.6888 18.9641 14.0938 18.8218V20.9663Z" fill="#E22427"/>
<path d="M3.86059 14.0937V9.03393C3.86059 8.53338 3.45478 8.12756 2.95422 8.12756C2.45366 8.12756 2.04785 8.53338 2.04785 9.03393C2.04785 9.16783 2.04785 20.8273 2.04785 20.9662C2.04785 21.4667 2.45366 21.8725 2.95422 21.8725C3.45478 21.8725 3.86059 21.4667 3.86059 20.9662V15.9065H11.1786C11.0387 15.3214 11.0363 14.6888 11.1786 14.0937H3.86059V14.0937Z" fill="#E22427"/>
<path d="M26.1402 15.9064V20.9661C26.1402 21.4667 26.5461 21.8725 27.0466 21.8725C27.5472 21.8725 27.953 21.4667 27.953 20.9661C27.953 20.8322 27.953 9.17279 27.953 9.03387C27.953 8.53331 27.5472 8.1275 27.0466 8.1275C26.5461 8.1275 26.1402 8.53331 26.1402 9.03387V14.0936H18.8223C18.9621 14.6786 18.9645 15.3113 18.8223 15.9063H26.1402V15.9064Z" fill="#E22427"/>
<path d="M17.1155 15C17.1155 13.8336 16.1669 12.8851 15.0006 12.8851C13.835 12.8851 12.8857 13.833 12.8857 15C12.8857 16.1664 13.8343 17.1149 15.0006 17.1149C16.1663 17.1149 17.1155 16.1671 17.1155 15Z" fill="#E22427"/>
</svg>
